<svg width="253" height="368" viewBox="0 0 253 368" fill="none" xmlns="http://www.w3.org/2000/svg">
<path d="M89.1801 123.065H126.094C135.073 123.065 146.915 123.065 153.03 126.762C159.737 130.734 165.002 137.961 165.002 147.91C165.002 158.686 159.312 166.778 149.89 170.603V170.897C162.434 173.453 169.27 182.814 169.27 195.301C169.27 210.196 158.573 224.393 138.343 224.393H89.1801V123.065ZM102.722 166.612H129.826C145.215 166.612 151.497 161.077 151.497 150.429C151.497 136.379 141.52 134.393 129.826 134.393H102.722V166.612ZM102.722 213.01H136.661C148.338 213.01 155.765 205.912 155.765 194.859C155.765 181.655 145.068 177.977 133.668 177.977H102.722V213.01Z" fill="#AFAFAF"/>
<path d="M203.911 173.748C203.911 216.302 169.252 250.801 126.482 250.801C83.7298 250.801 49.0703 216.302 49.0703 173.748C49.0703 131.193 83.7298 96.6941 126.482 96.6941C169.252 96.7124 203.911 131.212 203.911 173.748ZM126.5 84.9613C77.2635 84.9613 37.3385 124.702 37.3385 173.711C37.3385 222.72 77.2635 262.46 126.5 262.46C175.755 262.46 215.68 222.72 215.68 173.711C215.68 124.702 175.755 84.9613 126.5 84.9613Z" fill="#AFAFAF"/>
<path d="M215.477 281.2H37.5048V292.841H215.477V281.2Z" fill="#AFAFAF"/>
<path d="M209.916 268.382C210.137 268.382 210.341 268.364 210.544 268.364C210.729 268.345 210.913 268.308 211.061 268.253C211.228 268.18 211.338 268.069 211.431 267.941C211.523 267.794 211.56 267.61 211.56 267.371C211.56 267.168 211.523 266.984 211.449 266.874C211.375 266.745 211.264 266.653 211.135 266.598C211.006 266.525 210.876 266.488 210.692 266.451C210.525 266.433 210.378 266.433 210.193 266.433H208.918V268.4H209.916V268.382ZM210.341 265.624C211.08 265.624 211.615 265.771 211.985 266.065C212.336 266.359 212.521 266.8 212.521 267.407C212.521 267.977 212.354 268.364 212.059 268.639C211.745 268.897 211.357 269.044 210.876 269.099L212.65 271.821H211.615L209.916 269.154H208.9V271.821H207.92V265.642H210.341V265.624ZM205.981 270.497C206.184 271.049 206.498 271.545 206.904 271.95C207.292 272.354 207.754 272.667 208.29 272.906C208.807 273.127 209.398 273.237 210.008 273.237C210.636 273.237 211.209 273.127 211.726 272.906C212.262 272.667 212.724 272.354 213.112 271.95C213.5 271.545 213.814 271.067 214.017 270.497C214.239 269.945 214.368 269.357 214.368 268.713C214.368 268.069 214.257 267.481 214.017 266.929C213.796 266.377 213.481 265.899 213.112 265.495C212.706 265.09 212.244 264.778 211.726 264.557C211.209 264.336 210.618 264.207 210.008 264.207C209.398 264.207 208.807 264.336 208.29 264.557C207.754 264.796 207.274 265.109 206.904 265.495C206.498 265.899 206.202 266.377 205.981 266.929C205.759 267.481 205.648 268.051 205.648 268.713C205.63 269.338 205.74 269.945 205.981 270.497ZM205.094 266.617C205.371 265.973 205.759 265.44 206.239 264.961C206.72 264.483 207.292 264.134 207.939 263.858C208.586 263.582 209.288 263.453 209.99 263.453C210.729 263.453 211.412 263.582 212.077 263.858C212.706 264.134 213.278 264.483 213.74 264.961C214.221 265.44 214.627 265.991 214.886 266.617C215.181 267.26 215.311 267.959 215.311 268.713C215.311 269.467 215.181 270.166 214.886 270.809C214.608 271.471 214.221 272.023 213.74 272.501C213.26 272.998 212.706 273.347 212.077 273.623C211.412 273.881 210.729 274.009 209.99 274.009C209.269 274.009 208.586 273.881 207.939 273.623C207.292 273.347 206.72 272.998 206.239 272.501C205.759 272.023 205.371 271.471 205.094 270.809C204.798 270.166 204.687 269.467 204.687 268.713C204.669 267.959 204.798 267.26 205.094 266.617Z" fill="#AFAFAF"/>
<path d="M59.0838 45.938C58.6589 45.2575 58.1416 44.6691 57.5134 44.1725C56.8853 43.6576 56.1647 43.2714 55.3703 42.9772C54.5759 42.7014 53.7445 42.5542 52.8761 42.5542C51.2873 42.5542 49.9386 42.8669 48.8116 43.4737C47.7031 44.0806 46.7978 44.9081 46.1142 45.938C45.4306 46.9678 44.9133 48.1448 44.5992 49.4688C44.2851 50.7929 44.1189 52.1538 44.1189 53.5514C44.1189 54.8938 44.2667 56.1995 44.5992 57.4684C44.9133 58.7373 45.4121 59.8775 46.1142 60.9073C46.7978 61.9188 47.7031 62.7463 48.8116 63.3532C49.9201 63.9601 51.2688 64.2727 52.8761 64.2727C55.0377 64.2727 56.7375 63.6107 57.9384 62.305C59.1577 60.9809 59.8967 59.2522 60.1739 57.1006H67.0282C66.8434 59.1051 66.3815 60.9073 65.6241 62.5257C64.8666 64.144 63.8874 65.5232 62.6495 66.645C61.4117 67.7852 59.9706 68.6495 58.3263 69.2563C56.682 69.8448 54.853 70.1575 52.8761 70.1575C50.4189 70.1575 48.2019 69.7345 46.225 68.8702C44.2482 68.0242 42.6039 66.8473 41.2367 65.3393C39.888 63.8497 38.8534 62.0843 38.1329 60.0614C37.4124 58.0385 37.0428 55.8685 37.0428 53.533C37.0428 51.1423 37.3939 48.9171 38.1329 46.8759C38.8534 44.8346 39.888 43.0324 41.2367 41.5244C42.5854 39.998 44.2482 38.8027 46.225 37.9384C48.1834 37.074 50.4005 36.6327 52.8761 36.6327C54.6498 36.6327 56.331 36.8901 57.9014 37.3867C59.4718 37.9016 60.8944 38.6372 62.1322 39.6119C63.3701 40.5865 64.4047 41.7819 65.2176 43.2163C66.0305 44.6507 66.5478 46.3058 66.751 48.1448H59.8967C59.7674 47.3356 59.5087 46.6 59.0838 45.938Z" fill="#AFAFAF"/>
<path d="M76.2473 63.8497C77.208 64.7692 78.5936 65.2473 80.3857 65.2473C81.679 65.2473 82.7875 64.9347 83.7298 64.291C84.6535 63.6474 85.2263 62.9669 85.448 62.2497H91.0829C90.1776 65.0266 88.792 67.0311 86.926 68.2265C85.06 69.4218 82.806 70.0287 80.164 70.0287C78.335 70.0287 76.6722 69.7344 75.2127 69.1459C73.7347 68.5575 72.4968 67.7299 71.4622 66.6633C70.4461 65.5967 69.6516 64.3094 69.0974 62.8014C68.5431 61.3119 68.266 59.6568 68.266 57.8729C68.266 56.1443 68.5431 54.526 69.1159 53.0364C69.6886 51.5468 70.5015 50.2411 71.5546 49.1561C72.6077 48.0711 73.864 47.2068 75.3235 46.5816C76.7831 45.9563 78.3904 45.6437 80.164 45.6437C82.1409 45.6437 83.8776 46.0299 85.3556 46.7839C86.8336 47.5562 88.0345 48.5677 88.9767 49.855C89.919 51.1423 90.6026 52.6134 91.0275 54.2501C91.4524 55.8868 91.6002 57.6155 91.4709 59.4177H74.6584C74.7508 61.4222 75.2681 62.9302 76.2473 63.8497ZM83.4711 51.6572C82.6952 50.8296 81.5312 50.4067 79.9793 50.4067C78.9632 50.4067 78.1133 50.5722 77.4297 50.9216C76.7461 51.271 76.2103 51.6939 75.8039 52.1905C75.3974 52.7054 75.1203 53.2387 74.954 53.8088C74.7878 54.3789 74.6954 54.8754 74.6584 55.3351H85.0785C84.7829 53.7168 84.2471 52.4847 83.4711 51.6572Z" fill="#AFAFAF"/>
<path d="M100.45 46.2139V50.5171H100.542C100.838 49.7999 101.244 49.1379 101.762 48.5126C102.279 47.9057 102.852 47.3724 103.517 46.9495C104.182 46.5265 104.884 46.1771 105.641 45.938C106.399 45.699 107.175 45.5886 107.988 45.5886C108.413 45.5886 108.875 45.6622 109.392 45.8093V51.7308C109.096 51.6757 108.727 51.6205 108.302 51.5837C107.877 51.5469 107.47 51.5102 107.083 51.5102C105.919 51.5102 104.921 51.7125 104.108 52.0986C103.295 52.4848 102.648 53.0181 102.15 53.6986C101.651 54.379 101.3 55.1514 101.097 56.0525C100.893 56.9536 100.782 57.9282 100.782 58.9765V69.4403H94.39V46.2139H100.45Z" fill="#AFAFAF"/>
<path d="M126.5 46.2139V50.4803H121.807V61.974C121.807 63.059 121.992 63.7762 122.343 64.1256C122.694 64.475 123.433 64.6589 124.505 64.6589C124.874 64.6589 125.207 64.6405 125.539 64.6221C125.872 64.5854 126.186 64.5486 126.481 64.4934V69.4219C125.946 69.5139 125.336 69.569 124.671 69.6058C124.006 69.6426 123.359 69.661 122.731 69.661C121.733 69.661 120.791 69.5874 119.923 69.4587C119.036 69.33 118.26 69.0725 117.576 68.6679C116.893 68.2817 116.376 67.73 115.969 67.0128C115.581 66.2956 115.378 65.3577 115.378 64.1808V50.4987H111.498V46.2323H115.378V39.2809H121.77V46.2323H126.5V46.2139Z" fill="#AFAFAF"/>
<path d="M130.232 42.6278V37.3683H136.624V42.6278H130.232ZM136.624 46.2138V69.4035H130.232V46.2138H136.624Z" fill="#AFAFAF"/>
<path d="M139.174 50.4803V46.2138H142.998V44.4116C142.998 42.3519 143.645 40.6601 144.938 39.336C146.231 38.0119 148.19 37.3683 150.795 37.3683C151.368 37.3683 151.94 37.3867 152.513 37.4418C153.086 37.4786 153.64 37.5338 154.176 37.5522V42.3152C153.418 42.2232 152.642 42.1864 151.829 42.1864C150.961 42.1864 150.333 42.3887 149.963 42.7933C149.594 43.1979 149.409 43.8783 149.409 44.8346V46.2322H153.825V50.4987H149.409V69.4402H142.998V50.4987H139.174V50.4803Z" fill="#AFAFAF"/>
<path d="M158.148 42.6278V37.3683H164.541V42.6278H158.148ZM164.559 46.2138V69.4035H158.148V46.2138H164.559Z" fill="#AFAFAF"/>
<path d="M174.646 63.8497C175.607 64.7692 176.993 65.2473 178.785 65.2473C180.078 65.2473 181.187 64.9347 182.129 64.2911C183.053 63.6474 183.625 62.967 183.847 62.2498H189.482C188.577 65.0267 187.191 67.0312 185.344 68.2265C183.478 69.4218 181.224 70.0287 178.582 70.0287C176.753 70.0287 175.09 69.7345 173.63 69.146C172.152 68.5575 170.914 67.73 169.88 66.6634C168.864 65.5967 168.069 64.3095 167.515 62.8015C166.961 61.3119 166.684 59.6568 166.684 57.873C166.684 56.1443 166.979 54.526 167.533 53.0364C168.106 51.4917 168.919 50.2044 169.972 49.1194C171.025 48.0344 172.282 47.1701 173.741 46.5448C175.201 45.9196 176.808 45.6069 178.582 45.6069C180.559 45.6069 182.295 45.9931 183.773 46.7471C185.251 47.5195 186.452 48.5309 187.394 49.8182C188.337 51.1055 189.02 52.5767 189.445 54.2134C189.87 55.8501 190.018 57.5788 189.907 59.381H173.095C173.168 61.4222 173.686 62.9302 174.646 63.8497ZM181.889 51.6572C181.131 50.8297 179.949 50.4067 178.397 50.4067C177.381 50.4067 176.531 50.5722 175.847 50.9216C175.164 51.271 174.628 51.694 174.221 52.1905C173.815 52.7054 173.538 53.2387 173.372 53.8088C173.205 54.3789 173.113 54.8754 173.076 55.3352H183.478C183.182 53.7169 182.646 52.4848 181.889 51.6572Z" fill="#AFAFAF"/>
<path d="M209.325 66.4611C208.567 67.7116 207.588 68.6311 206.368 69.1828C205.149 69.7345 203.782 70.0104 202.248 70.0104C200.512 70.0104 198.978 69.6794 197.648 68.9989C196.318 68.3185 195.228 67.4174 194.378 66.2588C193.528 65.1003 192.882 63.7762 192.438 62.2866C191.995 60.797 191.792 59.2339 191.792 57.6156C191.792 56.0525 192.013 54.5629 192.438 53.1101C192.863 51.6573 193.528 50.3884 194.378 49.2666C195.228 48.1632 196.318 47.2621 197.593 46.6001C198.886 45.9196 200.382 45.5886 202.101 45.5886C203.486 45.5886 204.798 45.8828 206.036 46.4713C207.292 47.0598 208.271 47.9057 208.992 49.0459H209.084V37.3867H215.477V69.4219H209.398V66.4611H209.325ZM209.047 54.9858C208.863 54.1031 208.567 53.3307 208.124 52.6503C207.68 51.9699 207.126 51.4366 206.424 51.0136C205.74 50.5907 204.854 50.3884 203.819 50.3884C202.784 50.3884 201.879 50.5907 201.158 51.0136C200.438 51.4366 199.865 51.9883 199.422 52.6687C198.997 53.3491 198.683 54.1399 198.48 55.0226C198.276 55.9053 198.184 56.8248 198.184 57.7811C198.184 58.6822 198.295 59.5833 198.498 60.466C198.701 61.3671 199.052 62.1579 199.514 62.8751C199.976 63.5739 200.567 64.144 201.269 64.5854C201.971 65.0267 202.821 65.229 203.819 65.229C204.872 65.229 205.74 65.0267 206.461 64.6038C207.163 64.1808 207.736 63.6291 208.161 62.9119C208.586 62.2131 208.881 61.4039 209.066 60.5212C209.251 59.6201 209.343 58.7006 209.343 57.7443C209.325 56.788 209.232 55.8686 209.047 54.9858Z" fill="#AFAFAF"/>
<path d="M53.1164 315.699C52.8023 313.456 50.6407 311.745 48.165 311.745C43.694 311.745 42.0127 315.534 42.0127 319.488C42.0127 323.239 43.694 327.027 48.165 327.027C51.2134 327.027 52.9316 324.949 53.3011 321.97H58.1416C57.6243 327.598 53.726 331.202 48.165 331.202C41.1444 331.202 37.0244 325.979 37.0244 319.488C37.0244 312.794 41.1444 307.571 48.165 307.571C53.1533 307.571 57.3287 310.477 57.9384 315.699H53.1164Z" fill="#AFAFAF"/>
<path d="M68.5431 313.897C73.7162 313.897 77.0417 317.299 77.0417 322.522C77.0417 327.708 73.7162 331.11 68.5431 331.11C63.407 331.11 60.063 327.689 60.063 322.522C60.063 317.317 63.407 313.897 68.5431 313.897ZM68.5431 327.745C71.6285 327.745 72.5338 325.115 72.5338 322.54C72.5338 319.91 71.61 317.299 68.5431 317.299C65.4947 317.299 64.571 319.929 64.571 322.54C64.571 325.115 65.4947 327.745 68.5431 327.745Z" fill="#AFAFAF"/>
<path d="M79.8315 314.32H84.1178V317.354H84.1917C85.0046 315.295 87.2401 313.879 89.4387 313.879C89.7528 313.879 90.1407 313.934 90.4179 314.026V318.2C89.9929 318.108 89.3278 318.053 88.792 318.053C85.485 318.053 84.3395 320.425 84.3395 323.294V330.65H79.8315V314.32Z" fill="#AFAFAF"/>
<path d="M92.173 314.338H96.4593V316.416H96.5147C97.5863 314.688 99.3599 313.897 101.392 313.897C106.547 313.897 108.856 318.035 108.856 322.669C108.856 327.027 106.454 331.11 101.651 331.11C99.6924 331.11 97.808 330.264 96.7364 328.646H96.6625V336.425H92.1545V314.338H92.173ZM104.348 322.559C104.348 319.966 103.295 317.281 100.413 317.281C97.4569 317.281 96.5147 319.91 96.5147 322.559C96.5147 325.207 97.5308 327.745 100.45 327.745C103.406 327.745 104.348 325.207 104.348 322.559Z" fill="#AFAFAF"/>
<path d="M118.74 313.897C123.914 313.897 127.258 317.299 127.258 322.522C127.258 327.708 123.914 331.11 118.74 331.11C113.604 331.11 110.279 327.689 110.279 322.522C110.279 317.317 113.604 313.897 118.74 313.897ZM118.74 327.745C121.826 327.745 122.75 325.115 122.75 322.54C122.75 319.91 121.826 317.299 118.74 317.299C115.692 317.299 114.768 319.929 114.768 322.54C114.787 325.115 115.711 327.745 118.74 327.745Z" fill="#AFAFAF"/>
<path d="M130.047 314.32H134.334V317.354H134.407C135.22 315.295 137.456 313.879 139.636 313.879C139.95 313.879 140.338 313.934 140.615 314.026V318.2C140.209 318.108 139.544 318.053 138.989 318.053C135.682 318.053 134.537 320.425 134.537 323.294V330.65H130.029V314.32H130.047Z" fill="#AFAFAF"/>
<path d="M141.945 319.359C142.204 315.147 145.973 313.897 149.668 313.897C152.938 313.897 156.873 314.614 156.873 318.531V327.027C156.873 328.517 157.021 329.988 157.446 330.669H152.864C152.716 330.154 152.569 329.62 152.55 329.087C151.128 330.577 149.04 331.11 147.026 331.11C143.922 331.11 141.447 329.565 141.447 326.218C141.447 322.522 144.236 321.639 147.026 321.253C149.797 320.848 152.365 320.94 152.365 319.101C152.365 317.17 151.017 316.895 149.446 316.895C147.728 316.895 146.62 317.593 146.453 319.359H141.945ZM152.347 322.687C151.571 323.349 150.001 323.386 148.596 323.644C147.192 323.919 145.936 324.398 145.936 326.053C145.936 327.726 147.229 328.131 148.707 328.131C152.218 328.131 152.365 325.354 152.365 324.379V322.687H152.347Z" fill="#AFAFAF"/>
<path d="M165.963 314.338H169.27V317.336H165.963V325.428C165.963 326.954 166.351 327.322 167.866 327.322C168.346 327.322 168.79 327.285 169.27 327.193V330.705C168.513 330.834 167.515 330.871 166.628 330.871C163.875 330.871 161.455 330.227 161.455 326.991V317.354H158.721V314.357H161.455V309.465H165.963V314.338Z" fill="#AFAFAF"/>
<path d="M177.178 311.819H172.67V308.123H177.178V311.819ZM172.67 314.338H177.178V330.669H172.67V314.338Z" fill="#AFAFAF"/>
<path d="M188.669 313.897C193.842 313.897 197.186 317.299 197.186 322.522C197.186 327.708 193.842 331.11 188.669 331.11C183.533 331.11 180.208 327.689 180.208 322.522C180.208 317.317 183.533 313.897 188.669 313.897ZM188.669 327.745C191.755 327.745 192.678 325.115 192.678 322.54C192.678 319.91 191.755 317.299 188.669 317.299C185.621 317.299 184.697 319.929 184.697 322.54C184.697 325.115 185.621 327.745 188.669 327.745Z" fill="#AFAFAF"/>
<path d="M200.087 314.338H204.373V316.619H204.466C205.611 314.78 207.569 313.897 209.491 313.897C214.276 313.897 215.495 316.582 215.495 320.628V330.669H210.987V321.437C210.987 318.752 210.193 317.428 208.105 317.428C205.648 317.428 204.613 318.789 204.613 322.117V330.687H200.105V314.338H200.087Z" fill="#AFAFAF"/>
</svg>
