<svg width="390" height="285" viewBox="0 0 390 285" fill="none" xmlns="http://www.w3.org/2000/svg">
<g clip-path="url(#clip0_4658_264)">
<path d="M368.623 285L369.068 284.182C363.112 280.976 355.701 276.986 351.83 270.438C348.014 263.983 347.928 255.217 351.606 247.562C354.737 241.047 360.487 235.21 368.235 230.682C369.763 229.789 371.367 228.942 372.919 228.124C376.669 226.145 380.547 224.099 383.745 221.196C388.149 217.198 391.481 210.488 388.998 204.512C388.181 202.604 386.843 200.963 385.136 199.774C383.43 198.586 381.422 197.897 379.342 197.787L379.29 198.715C381.195 198.816 383.034 199.446 384.598 200.535C386.162 201.623 387.388 203.126 388.137 204.874C390.445 210.427 387.279 216.73 383.116 220.509C380.005 223.333 376.181 225.351 372.482 227.302C370.921 228.126 369.308 228.977 367.762 229.88C359.853 234.502 353.975 240.478 350.764 247.161C346.953 255.091 347.053 264.191 351.025 270.91C355.028 277.681 362.566 281.739 368.623 285Z" fill="#F1F1F1"/>
<path d="M373.424 202.687C377.937 202.687 381.595 200.918 381.595 198.736C381.595 196.553 377.937 194.784 373.424 194.784C368.91 194.784 365.252 196.553 365.252 198.736C365.252 200.918 368.91 202.687 373.424 202.687Z" fill="#F1F1F1"/>
<path d="M366.886 228.719C371.399 228.719 375.058 226.95 375.058 224.767C375.058 222.585 371.399 220.816 366.886 220.816C362.373 220.816 358.715 222.585 358.715 224.767C358.715 226.95 362.373 228.719 366.886 228.719Z" fill="#F1F1F1"/>
<path d="M381.829 232.902C386.342 232.902 390 231.133 390 228.951C390 226.769 386.342 225 381.829 225C377.316 225 373.657 226.769 373.657 228.951C373.657 231.133 377.316 232.902 381.829 232.902Z" fill="#F1F1F1"/>
<path d="M358.481 254.75C362.994 254.75 366.653 252.981 366.653 250.799C366.653 248.617 362.994 246.848 358.481 246.848C353.968 246.848 350.31 248.617 350.31 250.799C350.31 252.981 353.968 254.75 358.481 254.75Z" fill="#F1F1F1"/>
<path d="M342.138 254.75C346.651 254.75 350.309 252.981 350.309 250.799C350.309 248.617 346.651 246.848 342.138 246.848C337.625 246.848 333.966 248.617 333.966 250.799C333.966 252.981 337.625 254.75 342.138 254.75Z" fill="#F1F1F1"/>
<path d="M64.1054 204.295H35.1105C34.3253 204.294 33.5726 203.983 33.0174 203.431C32.4622 202.878 32.1499 202.129 32.1489 201.347V106.239C32.1499 105.457 32.4622 104.708 33.0174 104.155C33.5726 103.603 34.3253 103.292 35.1105 103.291H64.1054C64.8906 103.292 65.6433 103.603 66.1985 104.155C66.7537 104.708 67.066 105.457 67.067 106.239V201.347C67.066 202.129 66.7537 202.878 66.1985 203.431C65.6433 203.983 64.8906 204.294 64.1054 204.295Z" fill="#8E7125"/>
<path d="M116.981 204.295H87.9862C87.2011 204.294 86.4483 203.983 85.8931 203.43C85.3379 202.878 85.0256 202.128 85.0247 201.347V68.4981C85.0256 67.7165 85.3379 66.9672 85.8931 66.4145C86.4483 65.8618 87.2011 65.551 87.9862 65.5501H116.981C117.766 65.551 118.519 65.8618 119.074 66.4145C119.629 66.9672 119.942 67.7165 119.943 68.4981V201.347C119.942 202.128 119.629 202.878 119.074 203.43C118.519 203.983 117.766 204.294 116.981 204.295Z" fill="#8E7125"/>
<path d="M169.857 204.295H140.862C140.077 204.294 139.324 203.983 138.769 203.431C138.214 202.878 137.902 202.129 137.901 201.347V106.239C137.902 105.457 138.214 104.708 138.769 104.155C139.324 103.603 140.077 103.292 140.862 103.291H169.857C170.642 103.292 171.395 103.603 171.95 104.155C172.505 104.708 172.818 105.457 172.819 106.239V201.347C172.818 202.129 172.505 202.878 171.95 203.431C171.395 203.983 170.642 204.294 169.857 204.295Z" fill="#8E7125"/>
<path d="M222.733 204.295H193.738C192.971 204.311 192.228 204.024 191.673 203.497C191.118 202.969 190.796 202.244 190.777 201.48V53.4668C190.796 52.7031 191.118 51.978 191.673 51.4504C192.228 50.9229 192.971 50.6359 193.738 50.6524H222.733C223.5 50.6359 224.243 50.9229 224.798 51.4504C225.353 51.978 225.676 52.7031 225.695 53.4668V201.48C225.676 202.244 225.353 202.969 224.798 203.497C224.243 204.024 223.5 204.311 222.733 204.295Z" fill="#8E7125"/>
<path d="M275.609 204.295H246.614C245.829 204.294 245.076 203.983 244.521 203.431C243.966 202.878 243.653 202.128 243.652 201.347V26.7844C243.653 26.0028 243.966 25.2535 244.521 24.7008C245.076 24.1481 245.829 23.8373 246.614 23.8364H275.609C276.394 23.8373 277.147 24.1481 277.702 24.7008C278.257 25.2535 278.569 26.0028 278.57 26.7844V201.347C278.569 202.128 278.257 202.878 277.702 203.431C277.147 203.983 276.394 204.294 275.609 204.295Z" fill="#8E7125"/>
<path d="M49.6078 91.3729C52.9137 91.3729 55.5937 88.7049 55.5937 85.4138C55.5937 82.1227 52.9137 79.4547 49.6078 79.4547C46.3018 79.4547 43.6218 82.1227 43.6218 85.4138C43.6218 88.7049 46.3018 91.3729 49.6078 91.3729Z" fill="#3F3D56"/>
<path d="M102.484 52.6387C105.79 52.6387 108.47 49.9707 108.47 46.6796C108.47 43.3885 105.79 40.7205 102.484 40.7205C99.1778 40.7205 96.4978 43.3885 96.4978 46.6796C96.4978 49.9707 99.1778 52.6387 102.484 52.6387Z" fill="#3F3D56"/>
<path d="M155.36 91.3729C158.666 91.3729 161.346 88.7049 161.346 85.4138C161.346 82.1227 158.666 79.4547 155.36 79.4547C152.054 79.4547 149.374 82.1227 149.374 85.4138C149.374 88.7049 152.054 91.3729 155.36 91.3729Z" fill="#3F3D56"/>
<path d="M208.235 33.7682C211.541 33.7682 214.221 31.1003 214.221 27.8091C214.221 24.518 211.541 21.85 208.235 21.85C204.93 21.85 202.25 24.518 202.25 27.8091C202.25 31.1003 204.93 33.7682 208.235 33.7682Z" fill="#3F3D56"/>
<path d="M261.111 11.9182C264.417 11.9182 267.097 9.25022 267.097 5.9591C267.097 2.66798 264.417 0 261.111 0C257.805 0 255.125 2.66798 255.125 5.9591C255.125 9.25022 257.805 11.9182 261.111 11.9182Z" fill="#3F3D56"/>
<path d="M309.586 205.402H0.466947C0.343105 205.402 0.224335 205.353 0.136765 205.265C0.0491957 205.178 0 205.06 0 204.937C0 204.814 0.0491957 204.695 0.136765 204.608C0.224335 204.521 0.343105 204.472 0.466947 204.472H309.586C309.71 204.472 309.828 204.521 309.916 204.608C310.003 204.695 310.053 204.814 310.053 204.937C310.053 205.06 310.003 205.178 309.916 205.265C309.828 205.353 309.71 205.402 309.586 205.402Z" fill="#CBCBCB"/>
<path d="M386.632 284.891H235.341C235.217 284.891 235.099 284.842 235.011 284.755C234.923 284.668 234.874 284.55 234.874 284.427C234.874 284.303 234.923 284.185 235.011 284.098C235.099 284.011 235.217 283.962 235.341 283.962H386.632C386.756 283.962 386.875 284.011 386.962 284.098C387.05 284.185 387.099 284.303 387.099 284.427C387.099 284.55 387.05 284.668 386.962 284.755C386.875 284.842 386.756 284.891 386.632 284.891Z" fill="#CBCBCB"/>
<path d="M289.477 197.846C289.861 197.466 290.156 197.007 290.343 196.501C290.529 195.995 290.602 195.455 290.556 194.918C290.51 194.381 290.346 193.86 290.076 193.393C289.806 192.926 289.437 192.524 288.994 192.214L290.829 183.991L286.082 181.662L283.653 193.31C283.18 194.086 283.009 195.007 283.173 195.9C283.337 196.792 283.823 197.594 284.541 198.153C285.259 198.712 286.158 198.99 287.068 198.933C287.977 198.877 288.834 198.49 289.477 197.846Z" fill="#FFB7B7"/>
<path d="M341.394 198.026C341.747 197.618 342.006 197.137 342.153 196.619C342.299 196.1 342.33 195.555 342.242 195.024C342.154 194.492 341.951 193.986 341.645 193.541C341.34 193.096 340.94 192.723 340.474 192.448L341.666 184.109L336.751 182.152L335.235 193.953C334.824 194.762 334.725 195.694 334.957 196.571C335.19 197.449 335.738 198.211 336.497 198.713C337.256 199.215 338.174 199.422 339.076 199.296C339.979 199.169 340.803 198.718 341.394 198.026Z" fill="#FFB7B7"/>
<path d="M304.385 279.877L299.543 279.877L297.24 261.287L304.386 261.288L304.385 279.877Z" fill="#FFB7B7"/>
<path d="M305.62 284.549L290.009 284.548V284.352C290.009 282.748 290.65 281.209 291.789 280.075C292.928 278.941 294.474 278.303 296.085 278.303L305.62 278.304L305.62 284.549Z" fill="#2F2E41"/>
<path d="M320.575 279.877L315.734 279.877L313.431 261.287L320.576 261.288L320.575 279.877Z" fill="#FFB7B7"/>
<path d="M321.81 284.549L306.2 284.548V284.352C306.2 282.748 306.84 281.209 307.979 280.075C309.119 278.941 310.664 278.303 312.276 278.303L321.81 278.304L321.81 284.549Z" fill="#2F2E41"/>
<path d="M330.323 123.479L335.543 121.603C335.543 121.603 337.759 122.072 337.759 128.054C337.759 134.036 343.643 189.824 343.643 189.824L333.345 192.524L327.524 139.594L330.323 123.479Z" fill="#363636"/>
<path d="M295.439 123.479L290.219 121.603C290.219 121.603 288.003 122.072 288.003 128.054C288.003 134.036 282.119 189.824 282.119 189.824L292.417 192.524L298.238 139.594L295.439 123.479Z" fill="#363636"/>
<path d="M295.506 187.106L294.079 229.013L297.238 275.37L305.378 275.558L306.563 232.315L313.276 210.693L312.599 274.421L321.816 274.311L327.525 230.467C327.525 230.467 335.063 194.182 330.883 187.106L311.63 180.733L295.506 187.106Z" fill="#363636"/>
<path d="M295.663 182.057L295.198 192.138C295.198 192.138 301.694 195.356 313.112 193.396C324.53 191.435 332.12 192.728 332.12 192.728L331.243 179.876L295.663 182.057Z" fill="#E5E5E5"/>
<path d="M290.011 121.752L305.025 115.203L305.921 111.772L320.526 112.194L321.158 115.698L335.543 121.603L329.205 143.543L329.855 158.977L337.759 187.106C337.759 187.106 331.092 192.743 315.076 190.318L312.312 184.774L310.622 190.636C310.622 190.636 296.578 195.78 292.685 189.084L295.506 140.719L290.011 121.752Z" fill="#363636"/>
<path d="M313.091 108.55C318.447 108.55 322.79 104.227 322.79 98.8943C322.79 93.5618 318.447 89.239 313.091 89.239C307.734 89.239 303.392 93.5618 303.392 98.8943C303.392 104.227 307.734 108.55 313.091 108.55Z" fill="#FFB7B7"/>
<path d="M324.615 95.153C324.441 94.3672 324.108 93.6252 323.635 92.9729C323.446 91.169 322.842 89.4329 321.868 87.8998C321.487 87.1814 320.946 86.5594 320.286 86.0815C319.53 85.6482 318.668 85.4341 317.796 85.4635C317.638 85.4609 317.354 85.5086 317.098 85.5202C316.934 85.4698 316.769 85.4247 316.603 85.3824C316.506 85.1682 316.315 84.544 316.261 84.5862L315.539 85.1577C315.233 85.1049 314.926 85.0637 314.618 85.0311C314.506 84.7125 314.394 84.3939 314.282 84.0753C314.1 84.3602 313.94 84.6588 313.804 84.9683C313.497 84.9534 313.191 84.9481 312.883 84.9526L312.269 84.3654C312.233 84.5291 312.15 84.6788 312.029 84.7962C311.909 84.9135 311.757 84.9933 311.592 85.0259C311.309 85.0548 311.028 85.0925 310.747 85.1374C310.725 85.1373 310.701 85.1374 310.679 85.1368C309.167 85.0993 307.54 85.0318 306.275 85.8583C305.683 86.2627 305.202 86.807 304.873 87.4423C304.719 87.547 304.563 87.651 304.413 87.7621C303.906 88.1065 303.466 88.5404 303.116 89.0422C302.861 89.4751 302.668 89.9411 302.542 90.4267C302.059 91.8885 301.836 93.4227 301.881 94.9608C301.933 96.5093 302.52 97.9927 303.543 99.1603C304.191 99.854 305.016 100.366 305.665 101.059C307.002 102.486 307.253 104.476 308.397 105.985C309.606 107.582 311.814 108.633 313.753 108.934C314.919 109.109 316.108 109.052 317.252 108.768C318.396 108.484 319.473 107.978 320.419 107.279C320.874 106.964 321.26 106.561 321.554 106.094C322.227 104.935 321.942 103.479 322.192 102.163C322.66 99.6978 325.024 97.6288 324.615 95.153Z" fill="#2F2E41"/>
<path d="M49.2885 85.7866L48.731 85.041L102.484 45.2018L155.189 84.3377L208.615 26.5919L208.711 26.5528L260.56 5.24911L260.917 6.10863L209.162 27.3728L155.305 85.5839L102.484 46.3611L49.2885 85.7866Z" fill="#3F3D56"/>
</g>
<defs>
<clipPath id="clip0_4658_264">
<rect width="390" height="285" fill="white"/>
</clipPath>
</defs>
</svg>
