<svg width="193" height="46" viewBox="0 0 193 46" fill="none" xmlns="http://www.w3.org/2000/svg">
<g clip-path="url(#clip0_4693_1687)">
<path d="M18.7636 45.9191C15.0096 45.9155 11.4104 44.4259 8.7557 41.7772C6.10104 39.1286 4.60779 35.5371 4.60364 31.7911V21.1489C2.68982 19.5987 1.30417 17.495 0.637162 15.127C-0.0298482 12.759 0.0545305 10.243 0.878699 7.92477C1.70287 5.60658 3.22636 3.60004 5.23975 2.18098C7.25314 0.761921 9.65758 1.49836e-05 12.1225 0L13.4031 0C16.5658 0.00401273 19.5978 1.25951 21.8341 3.49115C24.0705 5.72279 25.3286 8.74839 25.3326 11.9044V17.5457L34.7446 17.661C36.6039 17.6615 38.4449 18.0275 40.1624 18.738C41.88 19.4485 43.4405 20.4897 44.7549 21.802C46.0692 23.1143 47.1117 24.6721 47.8227 26.3865C48.5338 28.1009 48.8994 29.9382 48.8989 31.7936C48.8984 33.649 48.5316 35.4861 47.8196 37.2C47.1076 38.914 46.0643 40.4712 44.7491 41.7828C43.434 43.0944 41.8729 44.1347 40.1549 44.8442C38.437 45.5537 36.5958 45.9186 34.7365 45.9181L18.7636 45.9191ZM10.8951 31.7911C10.8975 33.8724 11.7273 35.8678 13.2024 37.3394C14.6774 38.811 16.6773 39.6385 18.763 39.6404H34.736C36.8221 39.6404 38.8228 38.8134 40.298 37.3414C41.7731 35.8693 42.6018 33.8728 42.6018 31.7911C42.6018 29.7093 41.7731 27.7128 40.298 26.2407C38.8228 24.7687 36.8221 23.9417 34.736 23.9417H10.8951V31.7911ZM6.48399 11.9044C6.48547 13.3962 7.07991 14.8265 8.1369 15.8814C9.19389 16.9364 10.6271 17.5298 12.122 17.5316H19.0417V11.9044C19.0399 10.4128 18.4453 8.98276 17.3884 7.92803C16.3314 6.87329 14.8984 6.27998 13.4036 6.27824H12.122C10.6272 6.27985 9.1941 6.87312 8.13711 7.92788C7.08012 8.98264 6.4856 10.4127 6.48399 11.9044ZM102.732 29.6695C101.546 29.1061 100.56 28.1942 99.9082 27.0561C99.2192 25.8027 98.8762 24.3892 98.9143 22.9601C98.885 21.5777 99.2178 20.2116 99.8798 18.997C100.526 17.8508 101.497 16.9205 102.67 16.3229C104.006 15.6543 105.486 15.3243 106.979 15.362C109.996 15.362 112.125 16.2921 113.366 18.1523C113.515 18.3753 113.603 18.6324 113.623 18.8991C113.644 19.1659 113.595 19.4334 113.483 19.6762C113.37 19.919 113.197 20.129 112.981 20.2863C112.764 20.4435 112.51 20.5428 112.244 20.5746C111.93 20.6117 111.613 20.5563 111.331 20.4152C111.048 20.2742 110.814 20.0537 110.655 19.781C110.401 19.3257 110.042 18.9369 109.608 18.6462C108.811 18.1863 107.898 17.9667 106.978 18.0138C106.345 17.9806 105.712 18.0808 105.121 18.3078C104.529 18.5349 103.992 18.8837 103.545 19.3316C102.704 20.2127 102.284 21.4224 102.286 22.9611C102.286 24.516 102.705 25.7297 103.545 26.6011C104.384 27.4731 105.549 27.9089 107.039 27.9084C108.031 27.9605 109.017 27.7284 109.88 27.2396C110.359 26.9311 110.741 26.4946 110.984 25.9799C111.104 25.7401 111.29 25.5391 111.52 25.3997C111.75 25.2602 112.014 25.188 112.283 25.1913H112.403C112.683 25.1928 112.959 25.2694 113.2 25.413C113.441 25.5566 113.639 25.762 113.774 26.008C113.909 26.2539 113.975 26.5314 113.966 26.8115C113.957 27.0917 113.873 27.3643 113.723 27.601C113.334 28.2162 112.827 28.7479 112.23 29.165C110.907 30.0961 109.163 30.5627 106.996 30.5642C105.525 30.596 104.066 30.2899 102.732 29.6695ZM179.429 28.566C177.907 27.2335 177.145 25.3854 177.144 23.0217C177.11 21.613 177.451 20.2205 178.13 18.9854C178.797 17.829 179.794 16.8971 180.994 16.3088C182.378 15.645 183.899 15.3186 185.434 15.3564C187.303 15.3564 188.847 15.7416 190.065 16.5125C190.51 16.7918 190.914 17.1304 191.267 17.5189C191.454 17.7312 191.58 17.9906 191.63 18.2692C191.681 18.5478 191.654 18.8348 191.552 19.0991C191.451 19.3634 191.278 19.5947 191.054 19.7681C190.83 19.9414 190.562 20.0501 190.28 20.0823C190.02 20.119 189.754 20.0828 189.513 19.9777C189.271 19.8727 189.064 19.7029 188.914 19.4873C188.652 19.0901 188.298 18.7617 187.882 18.5299C187.098 18.1402 186.228 17.9551 185.353 17.9921C183.81 17.9921 182.614 18.4212 181.765 19.2796C180.916 20.1384 180.494 21.3647 180.496 22.9596C180.496 24.5943 180.943 25.8308 181.836 26.6689C182.73 27.507 184.044 27.926 185.779 27.926C186.859 27.9473 187.936 27.7997 188.971 27.4898C189.216 27.4051 189.428 27.2454 189.577 27.0334C189.726 26.8214 189.804 26.5679 189.801 26.309V26.0603C189.8 25.7272 189.667 25.4079 189.431 25.1723C189.195 24.9367 188.876 24.8041 188.542 24.8036H187.06C186.726 24.8036 186.406 24.6713 186.169 24.4357C185.933 24.2001 185.801 23.8806 185.801 23.5475C185.801 23.2143 185.933 22.8948 186.169 22.6592C186.406 22.4236 186.726 22.2913 187.06 22.2913H191.547C191.881 22.2914 192.201 22.4238 192.437 22.6592C192.674 22.8947 192.807 23.2142 192.808 23.5475V27.8866C192.807 28.1078 192.748 28.3249 192.637 28.5165C192.527 28.7081 192.368 28.8675 192.176 28.979C191.372 29.4408 190.512 29.7992 189.618 30.0456C188.368 30.3934 187.076 30.567 185.779 30.5612C183.07 30.5612 180.953 29.896 179.429 28.566ZM159.927 28.9608C158.755 27.8917 158.17 26.2761 158.17 24.1136V17.3435C158.17 16.9133 158.341 16.5007 158.646 16.1965C158.951 15.8923 159.364 15.7214 159.795 15.7214C160.227 15.7214 160.64 15.8923 160.945 16.1965C161.25 16.5007 161.421 16.9133 161.421 17.3435V24.2951C161.421 25.5386 161.729 26.451 162.357 27.0328C162.976 27.6136 163.95 27.9038 165.28 27.9038C166.608 27.9038 167.581 27.6136 168.205 27.0328C168.829 26.4525 169.141 25.5386 169.141 24.2951V17.3435C169.141 17.1306 169.183 16.9197 169.265 16.7229C169.346 16.5262 169.466 16.3474 169.617 16.1969C169.768 16.0463 169.947 15.9269 170.144 15.8455C170.341 15.7641 170.553 15.7223 170.766 15.7224C171.197 15.7228 171.61 15.8937 171.914 16.1977C172.219 16.5016 172.39 16.9137 172.391 17.3435V24.1136C172.391 26.2776 171.805 27.8937 170.633 28.9613C169.462 30.0279 167.677 30.5617 165.279 30.5607C162.883 30.5607 161.099 30.0279 159.927 28.9608ZM149.477 28.5766V25.392C149.477 25.0588 149.344 24.7393 149.108 24.5037C148.872 24.2682 148.552 24.1358 148.218 24.1358H142.815C142.566 24.1354 142.322 24.2089 142.115 24.347C141.908 24.485 141.746 24.6815 141.651 24.9113C141.588 25.0639 141.556 25.2274 141.556 25.3925V28.5746C141.556 29.0047 141.384 29.417 141.079 29.721C140.774 30.025 140.361 30.1957 139.93 30.1957H139.928C139.715 30.1959 139.503 30.1541 139.306 30.0727C139.109 29.9914 138.929 29.872 138.779 29.7214C138.628 29.5708 138.508 29.3921 138.426 29.1953C138.344 28.9985 138.302 28.7876 138.302 28.5746V17.3435C138.303 16.9134 138.474 16.501 138.779 16.197C139.084 15.8929 139.497 15.722 139.928 15.7219H139.93C140.361 15.7219 140.775 15.8927 141.08 16.1968C141.384 16.5009 141.556 16.9133 141.556 17.3435V20.0611C141.556 20.2261 141.589 20.3895 141.652 20.5419C141.715 20.6944 141.808 20.8329 141.925 20.9496C142.042 21.0663 142.18 21.1589 142.333 21.222C142.486 21.2852 142.65 21.3177 142.815 21.3177H148.218C148.552 21.3174 148.872 21.1849 149.108 20.9493C149.344 20.7137 149.477 20.3942 149.477 20.0611V17.3435C149.478 16.9135 149.649 16.5013 149.954 16.1973C150.259 15.8933 150.672 15.7223 151.103 15.7219C151.534 15.7222 151.947 15.8931 152.252 16.1972C152.556 16.5012 152.728 16.9135 152.728 17.3435V28.5756C152.728 29.0056 152.556 29.4179 152.252 29.722C151.947 30.026 151.534 30.197 151.103 30.1972C150.672 30.1971 150.258 30.0262 149.954 29.7222C149.649 29.4181 149.478 29.0057 149.477 28.5756V28.5766ZM131.057 30.1962C130.86 30.1963 130.666 30.1501 130.49 30.0614C130.314 29.9727 130.162 29.844 130.045 29.6857L125.816 23.9736C125.662 23.7653 125.447 23.6096 125.201 23.5276C124.955 23.4456 124.69 23.4414 124.441 23.5156C124.276 23.5646 124.123 23.6469 123.991 23.7572L122.929 24.6494C122.788 24.767 122.675 24.914 122.597 25.0799C122.519 25.2458 122.478 25.4267 122.478 25.6099V28.5867C122.478 28.798 122.436 29.0071 122.355 29.2022C122.274 29.3973 122.155 29.5745 122.005 29.7238C121.855 29.8731 121.678 29.9914 121.482 30.0721C121.286 30.1529 121.077 30.1943 120.865 30.1942H120.839C120.412 30.1937 120.003 30.0243 119.701 29.7232C119.399 29.422 119.229 29.0137 119.228 28.5877V17.3435C119.228 16.9133 119.4 16.5007 119.705 16.1965C120.009 15.8923 120.423 15.7214 120.854 15.7214C121.285 15.7214 121.699 15.8923 122.003 16.1965C122.308 16.5007 122.48 16.9133 122.48 17.3435V19.0243C122.479 19.2636 122.548 19.498 122.677 19.6997C122.806 19.9015 122.99 20.0621 123.208 20.1627C123.425 20.2636 123.667 20.3005 123.905 20.2692C124.142 20.2379 124.366 20.1395 124.55 19.9857L129.279 16.0176C129.407 15.907 129.555 15.8228 129.716 15.7701C129.876 15.7173 130.046 15.6971 130.214 15.7104C130.383 15.7238 130.547 15.7706 130.697 15.848C130.848 15.9254 130.981 16.0319 131.089 16.1612C131.198 16.2906 131.279 16.4403 131.329 16.6015C131.379 16.7627 131.396 16.9322 131.38 17.1001C131.364 17.268 131.314 17.4309 131.233 17.5794C131.153 17.7279 131.044 17.8589 130.912 17.9648L128.221 20.2324C127.976 20.4384 127.819 20.7301 127.782 21.0478C127.745 21.3655 127.831 21.6854 128.022 21.942L132.683 28.1909C132.787 28.3309 132.86 28.4908 132.899 28.6605C132.937 28.8302 132.94 29.006 132.907 29.1769C132.874 29.3477 132.806 29.5099 132.707 29.6532C132.608 29.7964 132.48 29.9177 132.332 30.0092C132.134 30.1313 131.905 30.196 131.672 30.1962H131.057ZM93.8441 30.1962C93.5994 30.197 93.3598 30.1262 93.1548 29.9928C92.9499 29.8593 92.7885 29.6689 92.6907 29.4451L91.909 27.6652C91.8107 27.4416 91.6492 27.2514 91.4444 27.1178C91.2396 26.9841 91.0003 26.9128 90.7556 26.9125H85.0928C84.8471 26.9122 84.6067 26.9837 84.4012 27.1182C84.1958 27.2527 84.0343 27.4442 83.9368 27.6693L83.1709 29.4375C83.0735 29.6625 82.9121 29.8542 82.7068 29.9886C82.5014 30.1231 82.261 30.1946 82.0154 30.1942H81.4531C81.1345 30.194 80.8278 30.0734 80.5947 29.8566C80.3617 29.6399 80.2195 29.3431 80.1968 29.026C80.1819 28.8159 80.2203 28.6053 80.3083 28.4138L85.3708 17.389C85.5994 16.8918 85.9662 16.4705 86.4277 16.1751C86.8891 15.8797 87.4258 15.7227 87.9741 15.7227C88.5223 15.7227 89.059 15.8797 89.5204 16.1751C89.9819 16.4705 90.3487 16.8918 90.5773 17.389L95.6378 28.4159C95.7258 28.6074 95.7641 28.8179 95.7493 29.028C95.7344 29.2381 95.6669 29.4412 95.5528 29.6184C95.4388 29.7957 95.2819 29.9415 95.0966 30.0425C94.9114 30.1435 94.7036 30.1963 94.4925 30.1962H93.8441ZM87.0258 20.5686L86.1398 22.5744C86.0551 22.7658 86.0197 22.9753 86.0368 23.1838C86.054 23.3924 86.1232 23.5933 86.2381 23.7684C86.3524 23.9436 86.5087 24.0876 86.6928 24.1874C86.877 24.2871 87.0832 24.3394 87.2927 24.3396H88.5505C88.76 24.339 88.966 24.2865 89.1501 24.1868C89.3342 24.0871 89.4906 23.9433 89.6052 23.7684C89.7194 23.593 89.7881 23.3922 89.8054 23.1838C89.8226 22.9754 89.7878 22.766 89.704 22.5744L88.8175 20.5686C88.741 20.3949 88.6155 20.2473 88.4563 20.1436C88.2972 20.04 88.1112 19.9848 87.9211 19.9848C87.7311 19.9848 87.5451 20.04 87.3859 20.1436C87.2268 20.2473 87.1013 20.3949 87.0248 20.5686H87.0258ZM64.4585 30.1962C64.293 30.1966 64.1291 30.1644 63.9761 30.1014C63.8232 30.0384 63.6842 29.9458 63.5673 29.829C63.4503 29.7122 63.3576 29.5735 63.2945 29.4209C63.2314 29.2683 63.1992 29.1047 63.1997 28.9396V16.9791C63.1996 16.8141 63.2321 16.6507 63.2953 16.4982C63.3586 16.3457 63.4513 16.2072 63.5682 16.0905C63.6851 15.9738 63.8239 15.8812 63.9766 15.8181C64.1294 15.7549 64.2931 15.7224 64.4585 15.7224H70.248C74.2169 15.7224 76.2011 16.9659 76.2001 19.4535C76.2296 20.2329 75.9502 20.9926 75.4225 21.5679C75.3058 21.6956 75.2161 21.8455 75.159 22.0086C75.1019 22.1717 75.0785 22.3447 75.0902 22.5171C75.1019 22.6895 75.1484 22.8578 75.2271 23.0118C75.3057 23.1657 75.4147 23.3022 75.5476 23.413C75.9361 23.7168 76.2473 24.1078 76.4559 24.5541C76.6646 25.0005 76.7649 25.4896 76.7487 25.9819C76.7811 26.5967 76.653 27.2093 76.3768 27.7597C76.1006 28.3102 75.6859 28.7796 75.1733 29.122C74.1237 29.8398 72.5898 30.1977 70.5711 30.1962H64.4585ZM66.2659 25.1089V26.5081C66.2661 26.8415 66.399 27.1611 66.6354 27.3968C66.8717 27.6324 67.1921 27.7648 67.5262 27.7648H70.3493C71.4728 27.7648 72.2914 27.6126 72.8061 27.3078C73.0594 27.1592 73.2661 26.9429 73.4029 26.6834C73.5398 26.4239 73.6013 26.1314 73.5806 25.8389C73.5982 25.5427 73.5356 25.2472 73.3993 24.9835C73.263 24.7198 73.0581 24.4975 72.8061 24.3401C72.2924 24.0145 71.4804 23.8523 70.3695 23.8528H67.5262C67.3608 23.8526 67.197 23.885 67.0441 23.9481C66.8912 24.0112 66.7523 24.1036 66.6353 24.2203C66.5182 24.337 66.4254 24.4755 66.362 24.6279C66.2986 24.7804 66.2659 24.9439 66.2659 25.1089ZM66.2659 19.413V20.244C66.2659 20.4091 66.2986 20.5726 66.362 20.7251C66.4253 20.8776 66.5182 21.0162 66.6352 21.1328C66.7523 21.2495 66.8912 21.3421 67.0441 21.4052C67.1969 21.4683 67.3608 21.5008 67.5262 21.5007H70.2657C70.9959 21.5532 71.7266 21.4058 72.3791 21.0746C72.5992 20.9354 72.7777 20.7395 72.8958 20.5076C73.0138 20.2757 73.067 20.0163 73.0498 19.7567C73.0658 19.5081 73.0094 19.26 72.8872 19.0427C72.765 18.8253 72.5824 18.6479 72.3613 18.5319C71.6481 18.2344 70.8755 18.106 70.1041 18.1569H67.5257C67.1917 18.1569 66.8715 18.2892 66.6352 18.5247C66.399 18.7603 66.2661 19.0798 66.2659 19.413Z" fill="black"/>
</g>
<defs>
<clipPath id="clip0_4693_1687">
<rect width="193" height="46" fill="white"/>
</clipPath>
</defs>
</svg>
