<svg width="41" height="40" viewBox="0 0 41 40" fill="none" xmlns="http://www.w3.org/2000/svg">
    <path fill-rule="evenodd" clip-rule="evenodd" d="M7.16669 20.0001C7.16669 12.6363 13.1362 6.66675 20.5 6.66675C27.8638 6.66675 33.8334 12.6363 33.8334 20.0001C33.8334 27.3639 27.8638 33.3334 20.5 33.3334C13.1362 33.3334 7.16669 27.3639 7.16669 20.0001ZM20.5 9.16675C14.5169 9.16675 9.66669 14.017 9.66669 20.0001C9.66669 25.9832 14.5169 30.8334 20.5 30.8334C26.4831 30.8334 31.3334 25.9832 31.3334 20.0001C31.3334 14.017 26.4831 9.16675 20.5 9.16675Z" fill="#8A6B24"/>
    <path fill-rule="evenodd" clip-rule="evenodd" d="M24.8721 15.1658C25.4709 15.5093 25.6778 16.2733 25.3342 16.8721L21.5115 23.5342C20.3368 25.5814 17.3438 25.4583 16.3412 23.3216L15.6184 21.7809C15.3251 21.156 15.594 20.4116 16.219 20.1183C16.844 19.8251 17.5884 20.094 17.8816 20.719L18.6045 22.2596C18.7477 22.5649 19.1753 22.5825 19.3431 22.29L23.1658 15.6279C23.5094 15.0291 24.2733 14.8222 24.8721 15.1658Z" fill="#8A6B24"/>
</svg>
