<svg width="41" height="40" viewBox="0 0 41 40" fill="none" xmlns="http://www.w3.org/2000/svg">
<path fill-rule="evenodd" clip-rule="evenodd" d="M20.3334 9.16663C18.0322 9.16663 16.1667 11.0321 16.1667 13.3333C16.1667 15.6345 18.0322 17.5 20.3334 17.5C22.6345 17.5 24.5 15.6345 24.5 13.3333C24.5 11.0321 22.6345 9.16663 20.3334 9.16663ZM13.6667 13.3333C13.6667 9.65139 16.6515 6.66663 20.3334 6.66663C24.0153 6.66663 27 9.65139 27 13.3333C27 17.0152 24.0153 20 20.3334 20C16.6515 20 13.6667 17.0152 13.6667 13.3333Z" fill="#8A6B24"/>
<path fill-rule="evenodd" clip-rule="evenodd" d="M20.75 24.5834C14.5066 24.5834 11.7877 27.2232 10.5604 29.2959C10.3302 29.6846 10.3887 29.9924 10.5848 30.2518C10.8149 30.5562 11.2888 30.8334 11.9159 30.8334H20.75C21.4404 30.8334 22 31.393 22 32.0834C22 32.7737 21.4404 33.3334 20.75 33.3334H11.9159C10.5772 33.3334 9.3348 32.7441 8.59039 31.7592C7.8119 30.7293 7.63778 29.3249 8.40922 28.0221C10.0873 25.1883 13.6246 22.0834 20.75 22.0834C21.4404 22.0834 22 22.643 22 23.3334C22 24.0237 21.4404 24.5834 20.75 24.5834Z" fill="#8A6B24"/>
<path fill-rule="evenodd" clip-rule="evenodd" d="M25.6995 25.3661C26.1876 24.878 26.9791 24.878 27.4673 25.3661L33.3006 31.1995C33.7887 31.6876 33.7887 32.4791 33.3006 32.9672C32.8124 33.4554 32.021 33.4554 31.5328 32.9672L25.6995 27.1339C25.2113 26.6457 25.2113 25.8543 25.6995 25.3661Z" fill="#8A6B24"/>
<path fill-rule="evenodd" clip-rule="evenodd" d="M33.3006 25.3661C33.7887 25.8543 33.7887 26.6457 33.3006 27.1339L27.4673 32.9672C26.9791 33.4554 26.1876 33.4554 25.6995 32.9672C25.2113 32.4791 25.2113 31.6876 25.6995 31.1995L31.5328 25.3661C32.021 24.878 32.8124 24.878 33.3006 25.3661Z" fill="#8A6B24"/>
</svg>
