<svg width="20" height="28" viewBox="0 0 20 28" fill="none" xmlns="http://www.w3.org/2000/svg">
<path fill-rule="evenodd" clip-rule="evenodd" d="M4.76783 4.14038C3.47626 5.14032 2.58333 6.64243 2.58333 8.77698C2.58333 12.3916 4.55357 14.7524 5.39412 15.399C5.7017 15.6356 5.88194 16.0017 5.88194 16.3898V19.5383H13.4514V16.3898C13.4514 16.0017 13.6316 15.6356 13.9392 15.399C14.7798 14.7524 16.75 12.3916 16.75 8.77698C16.75 6.64243 15.8571 5.14032 14.5655 4.14038C13.2374 3.11215 11.437 2.58337 9.66666 2.58337C7.89631 2.58337 6.09592 3.11215 4.76783 4.14038ZM12.2139 22.0383H7.11944C7.15365 22.6982 7.23978 23.2631 7.45534 23.7359C7.60761 24.0699 7.82222 24.3437 8.14791 24.5625C8.46286 24.774 8.93741 24.9708 9.66666 25.0731C10.3959 24.9708 10.8705 24.774 11.1854 24.5625C11.5111 24.3437 11.7257 24.0699 11.878 23.7359C12.0935 23.2631 12.1797 22.6982 12.2139 22.0383ZM4.61453 22.0381C3.9322 22.0288 3.38194 21.4728 3.38194 20.7883V16.9584C2.00151 15.6388 0.0833282 12.7819 0.0833282 8.77698C0.0833282 5.83635 1.36053 3.61665 3.23737 2.16359C5.07768 0.738804 7.44395 0.083374 9.66666 0.083374C11.8894 0.083374 14.2556 0.738804 16.096 2.16359C17.9728 3.61665 19.25 5.83635 19.25 8.77698C19.25 12.7819 17.3318 15.6388 15.9514 16.9584V20.7883C15.9514 21.4728 15.4011 22.0288 14.7188 22.0381C14.6796 22.9132 14.5538 23.8933 14.1527 24.773C13.8298 25.4813 13.3294 26.1341 12.5792 26.6379C11.8388 27.1351 10.9186 27.4448 9.81261 27.5748C9.71565 27.5862 9.61768 27.5862 9.52071 27.5748C8.41471 27.4448 7.49456 27.1351 6.75416 26.6379C6.00395 26.1341 5.50354 25.4813 5.1806 24.773C4.77956 23.8933 4.65371 22.9132 4.61453 22.0381Z" fill="#8A6B24"/>
</svg>
