<svg width="28" height="28" viewBox="0 0 28 28" fill="none" xmlns="http://www.w3.org/2000/svg">
<path fill-rule="evenodd" clip-rule="evenodd" d="M3.58333 11.9166C4.27369 11.9166 4.83333 12.4763 4.83333 13.1666V26.0833C4.83333 26.7736 4.27369 27.3333 3.58333 27.3333C2.89297 27.3333 2.33333 26.7736 2.33333 26.0833V13.1666C2.33333 12.4763 2.89297 11.9166 3.58333 11.9166ZM10.25 11.9166C10.9404 11.9166 11.5 12.4763 11.5 13.1666V26.0833C11.5 26.7736 10.9404 27.3333 10.25 27.3333C9.55964 27.3333 9 26.7736 9 26.0833V13.1666C9 12.4763 9.55964 11.9166 10.25 11.9166ZM17.75 11.9166C18.4404 11.9166 19 12.4763 19 13.1666V26.0833C19 26.7736 18.4404 27.3333 17.75 27.3333C17.0596 27.3333 16.5 26.7736 16.5 26.0833V13.1666C16.5 12.4763 17.0596 11.9166 17.75 11.9166ZM24.4167 11.9166C25.107 11.9166 25.6667 12.4763 25.6667 13.1666V26.0833C25.6667 26.7736 25.107 27.3333 24.4167 27.3333C23.7263 27.3333 23.1667 26.7736 23.1667 26.0833V13.1666C23.1667 12.4763 23.7263 11.9166 24.4167 11.9166Z" fill="#8A6B24"/>
<path fill-rule="evenodd" clip-rule="evenodd" d="M13.1656 0.985914C13.6404 0.560197 14.3596 0.560197 14.8344 0.985914L26.9178 11.8192C27.3034 12.165 27.4359 12.7129 27.2508 13.1967C27.0657 13.6805 26.6013 14 26.0833 14H1.91666C1.39866 14 0.93433 13.6805 0.749211 13.1967C0.564092 12.7129 0.696545 12.165 1.08223 11.8192L13.1656 0.985914ZM5.18343 11.5H22.8166L14 3.59545L5.18343 11.5Z" fill="#8A6B24"/>
<path fill-rule="evenodd" clip-rule="evenodd" d="M0.666664 26.0833C0.666664 25.3929 1.22631 24.8333 1.91666 24.8333H26.0833C26.7737 24.8333 27.3333 25.3929 27.3333 26.0833C27.3333 26.7736 26.7737 27.3333 26.0833 27.3333H1.91666C1.22631 27.3333 0.666664 26.7736 0.666664 26.0833Z" fill="#8A6B24"/>
</svg>
