<svg width="40" height="43" viewBox="0 0 40 43" fill="none" xmlns="http://www.w3.org/2000/svg">
<path fill-rule="evenodd" clip-rule="evenodd" d="M0.384196 7.65951C0.624047 7.50142 0.927312 7.47436 1.19138 7.58749L20 15.645L38.8086 7.58749C39.0727 7.47436 39.376 7.50142 39.6158 7.65951C39.8557 7.81761 40 8.08558 40 8.37276V32.9779C40 33.315 39.8017 33.6206 39.4937 33.7581L20.3484 42.3015C20.1267 42.4005 19.8733 42.4005 19.6516 42.3015L0.506281 33.7581C0.198321 33.6206 0 33.315 0 32.9779V8.37276C0 8.08558 0.144344 7.81761 0.384196 7.65951ZM19.1453 17.1378L1.7094 9.66841V32.4237L19.1453 40.2044V17.1378ZM20.8547 40.2044L38.2906 32.4237V9.66841L20.8547 17.1378V40.2044Z" fill="white"/>
<path fill-rule="evenodd" clip-rule="evenodd" d="M35.1412 5.80707C35.3314 6.23887 35.1355 6.74311 34.7035 6.93331L20.3445 13.2555C20.1226 13.3532 19.8695 13.3521 19.6485 13.2524L5.63138 6.9302C5.20111 6.73613 5.0097 6.23016 5.20384 5.80007C5.39799 5.36999 5.90417 5.17865 6.33444 5.37272L20.0042 11.5382L34.0144 5.3696C34.4464 5.1794 34.9509 5.37526 35.1412 5.80707Z" fill="#8A6B24"/>
<path fill-rule="evenodd" clip-rule="evenodd" d="M30.6937 3.92084C30.8877 4.35101 30.6961 4.8569 30.2657 5.05078L20.4047 9.49338C20.179 9.59511 19.9201 9.59393 19.6953 9.49016L10.0691 5.04756C9.64051 4.84977 9.4535 4.34216 9.65137 3.91377C9.84924 3.48538 10.3571 3.29844 10.7856 3.49623L20.0578 7.77546L29.5633 3.49301C29.9937 3.29912 30.4998 3.49067 30.6937 3.92084Z" fill="#8A6B24"/>
<path fill-rule="evenodd" clip-rule="evenodd" d="M26.2506 2.21505C26.443 2.64594 26.2494 3.15112 25.8184 3.34339L20.4554 5.73556C20.2313 5.83553 19.975 5.83438 19.7518 5.73238L14.5165 3.34022C14.0871 3.14405 13.8982 2.63715 14.0945 2.20802C14.2907 1.77888 14.7978 1.59003 15.2271 1.78619L20.1113 4.01793L25.1218 1.78301C25.5529 1.59073 26.0582 1.78417 26.2506 2.21505Z" fill="#8A6B24"/>
<path fill-rule="evenodd" clip-rule="evenodd" d="M22.8037 0.449175C23.0276 0.864532 22.8723 1.38272 22.4568 1.60658L20.5538 2.6318C20.298 2.76962 19.9896 2.76806 19.7352 2.62765L17.8775 1.60244C17.4643 1.37438 17.3142 0.854645 17.5424 0.441577C17.7705 0.0285093 18.2905 -0.121471 18.7037 0.106586L20.1532 0.906539L21.6458 0.102441C22.0613 -0.12142 22.5797 0.0338181 22.8037 0.449175Z" fill="#8A6B24"/>
</svg>
