<svg width="17" height="18" viewBox="0 0 17 18" fill="none" xmlns="http://www.w3.org/2000/svg">
<path d="M4.69156 0.687866H12.3087C14.8955 0.687866 17 2.79247 17 5.37922V12.9964C17 15.5833 14.8955 17.6878 12.3087 17.6878H4.69156C2.1046 17.6878 0.000101089 15.5832 0.000101089 12.9964V5.37922C0 2.79247 2.1046 0.687866 4.69156 0.687866ZM1.50831 12.9964C1.50831 14.7516 2.93629 16.1795 4.69146 16.1795H12.3087C14.0638 16.1796 15.4917 14.7516 15.4917 12.9964V5.37922C15.4917 3.62415 14.0638 2.19618 12.3087 2.19618H4.69156C2.93639 2.19618 1.50842 3.62415 1.50842 5.37922V12.9964H1.50831Z" fill="white"/>
<path d="M8.50005 4.80756C10.9155 4.80756 12.8805 6.77259 12.8805 9.188C12.8805 11.6033 10.9155 13.5682 8.50005 13.5682C6.08464 13.5682 4.11961 11.6033 4.11961 9.188C4.11961 6.77259 6.08464 4.80756 8.50005 4.80756ZM8.50005 12.0598C10.0837 12.0598 11.3722 10.7715 11.3722 9.1879C11.3722 7.60417 10.0838 6.31577 8.50005 6.31577C6.91632 6.31577 5.62792 7.60417 5.62792 9.1879C5.62792 10.7715 6.91642 12.0598 8.50005 12.0598Z" fill="white"/>
<path d="M3.93589 3.52863C4.2265 3.52863 4.51197 3.64627 4.7172 3.85241C4.92344 4.05754 5.04199 4.34311 5.04199 4.63472C5.04199 4.92542 4.92334 5.2109 4.7172 5.41703C4.51207 5.62216 4.2265 5.74082 3.93589 5.74082C3.64429 5.74082 3.35972 5.62216 3.15358 5.41703C2.94745 5.2109 2.8298 4.92532 2.8298 4.63472C2.8298 4.34311 2.94745 4.05754 3.15358 3.85241C3.35871 3.64627 3.64429 3.52863 3.93589 3.52863Z" fill="white"/>
</svg>
