<svg width="29" height="29" viewBox="0 0 29 29" fill="none" xmlns="http://www.w3.org/2000/svg">
<path d="M7.81928 0.666626H20.5146C24.8258 0.666626 28.3333 4.17429 28.3333 8.48555V21.1809C28.3333 25.4923 24.8258 28.9998 20.5146 28.9998H7.81928C3.50768 28.9998 0.000181198 25.4921 0.000181198 21.1809V8.48555C1.33514e-05 4.17429 3.50768 0.666626 7.81928 0.666626ZM2.51387 21.1809C2.51387 24.1061 4.89382 26.4859 7.81911 26.4859H20.5146C23.4397 26.4861 25.8195 24.1061 25.8195 21.1809V8.48555C25.8195 5.56043 23.4397 3.18048 20.5146 3.18048H7.81928C4.89399 3.18048 2.51404 5.56043 2.51404 8.48555V21.1809H2.51387Z" fill="#8A6B24"/>
<path d="M14.1668 7.53284C18.1924 7.53284 21.4675 10.8079 21.4675 14.8336C21.4675 18.8591 18.1924 22.134 14.1668 22.134C10.1411 22.134 6.86602 18.8591 6.86602 14.8336C6.86602 10.8079 10.1411 7.53284 14.1668 7.53284ZM14.1668 19.62C16.8061 19.62 18.9536 17.4728 18.9536 14.8334C18.9536 12.1939 16.8063 10.0465 14.1668 10.0465C11.5272 10.0465 9.37987 12.1939 9.37987 14.8334C9.37987 17.4728 11.5274 19.62 14.1668 19.62Z" fill="#8A6B24"/>
<path d="M6.55982 5.40125C7.04416 5.40125 7.51995 5.59733 7.862 5.94089C8.20573 6.28277 8.40332 6.75873 8.40332 7.24474C8.40332 7.72924 8.20556 8.20503 7.862 8.54859C7.52012 8.89048 7.04416 9.08823 6.55982 9.08823C6.07381 9.08823 5.59953 8.89048 5.25597 8.54859C4.91241 8.20503 4.71633 7.72908 4.71633 7.24474C4.71633 6.75873 4.91241 6.28277 5.25597 5.94089C5.59786 5.59733 6.07381 5.40125 6.55982 5.40125Z" fill="#8A6B24"/>
</svg>
