<svg width="40" height="40" viewBox="0 0 40 40" fill="none" xmlns="http://www.w3.org/2000/svg">
<g clip-path="url(#clip0_4778_10958)">
<g clip-path="url(#clip1_4778_10958)">
<path d="M12.8194 6.66667H25.5147C29.826 6.66667 33.3335 10.1743 33.3335 14.4856V27.1809C33.3335 31.4923 29.826 34.9998 25.5147 34.9998H12.8194C8.50783 34.9998 5.00033 31.4922 5.00033 27.1809V14.4856C5.00017 10.1743 8.50783 6.66667 12.8194 6.66667ZM7.51402 27.1809C7.51402 30.1062 9.89397 32.486 12.8193 32.486H25.5147C28.4399 32.4861 30.8196 30.1062 30.8196 27.1809V14.4856C30.8196 11.5605 28.4399 9.18052 25.5147 9.18052H12.8194C9.89414 9.18052 7.51419 11.5605 7.51419 14.4856V27.1809H7.51402Z" fill="#8A6B24"/>
<path d="M19.167 13.5328C23.1927 13.5328 26.4678 16.8079 26.4678 20.8336C26.4678 24.8591 23.1927 28.134 19.167 28.134C15.1413 28.134 11.8663 24.8591 11.8663 20.8336C11.8663 16.8079 15.1413 13.5328 19.167 13.5328ZM19.167 25.62C21.8064 25.62 23.9539 23.4728 23.9539 20.8334C23.9539 18.1939 21.8066 16.0465 19.167 16.0465C16.5275 16.0465 14.3801 18.1939 14.3801 20.8334C14.3801 23.4728 16.5277 25.62 19.167 25.62Z" fill="#8A6B24"/>
<path d="M11.5598 11.4013C12.0442 11.4013 12.52 11.5973 12.862 11.9409C13.2057 12.2828 13.4033 12.7587 13.4033 13.2448C13.4033 13.7293 13.2056 14.2051 12.862 14.5486C12.5201 14.8905 12.0442 15.0883 11.5598 15.0883C11.0738 15.0883 10.5995 14.8905 10.256 14.5486C9.91241 14.2051 9.71633 13.7291 9.71633 13.2448C9.71633 12.7587 9.91241 12.2828 10.256 11.9409C10.5979 11.5973 11.0738 11.4013 11.5598 11.4013Z" fill="#8A6B24"/>
</g>
</g>
<defs>
<clipPath id="clip0_4778_10958">
<rect width="40" height="40" fill="white"/>
</clipPath>
<clipPath id="clip1_4778_10958">
<rect width="28.3333" height="28.3333" fill="white" transform="matrix(-1 0 0 1 33.3335 6.66667)"/>
</clipPath>
</defs>
</svg>
