<svg width="40" height="40" viewBox="0 0 40 40" fill="none" xmlns="http://www.w3.org/2000/svg">
<g clip-path="url(#clip0_4778_10952)">
<path d="M31.6667 5C32.5507 5 33.3986 5.35119 34.0237 5.97631C34.6488 6.60143 35 7.44928 35 8.33333V31.6667C35 32.5507 34.6488 33.3986 34.0237 34.0237C33.3986 34.6488 32.5507 35 31.6667 35H8.33333C7.44928 35 6.60143 34.6488 5.97631 34.0237C5.35119 33.3986 5 32.5507 5 31.6667V8.33333C5 7.44928 5.35119 6.60143 5.97631 5.97631C6.60143 5.35119 7.44928 5 8.33333 5H31.6667ZM30.8333 30.8333V22C30.8333 20.559 30.2609 19.177 29.2419 18.1581C28.223 17.1391 26.841 16.5667 25.4 16.5667C24.6294 16.5932 23.8763 16.8037 23.2037 17.1806C22.531 17.5576 21.9583 18.0899 21.5333 18.7333V16.8833H16.8833V30.8333H21.5333V22.6167C21.5061 22.2948 21.5459 21.9708 21.6504 21.6651C21.7548 21.3594 21.9216 21.0788 22.1402 20.8409C22.3587 20.6031 22.6243 20.4132 22.92 20.2833C23.2158 20.1534 23.5353 20.0863 23.8583 20.0863C24.1814 20.0863 24.5009 20.1534 24.7966 20.2833C25.0924 20.4132 25.3579 20.6031 25.5765 20.8409C25.7951 21.0788 25.9618 21.3594 26.0663 21.6651C26.1708 21.9708 26.2106 22.2948 26.1833 22.6167V30.8333H30.8333ZM11.4667 14.2667C12.2093 14.2667 12.9215 13.9717 13.4466 13.4466C13.9717 12.9215 14.2667 12.2093 14.2667 11.4667C14.2965 11.0797 14.246 10.6907 14.1184 10.3241C13.9908 9.95759 13.7888 9.62136 13.5251 9.33655C13.2615 9.05175 12.9417 8.82452 12.5861 8.66911C12.2304 8.51371 11.8465 8.43349 11.4583 8.43349C11.0702 8.43349 10.6863 8.51371 10.3306 8.66911C9.97492 8.82452 9.65521 9.05175 9.39152 9.33655C9.12783 9.62136 8.92584 9.95759 8.79824 10.3241C8.67063 10.6907 8.62017 11.0797 8.65 11.4667C8.6544 12.2108 8.9531 12.923 9.48085 13.4476C10.0086 13.9722 10.7225 14.2667 11.4667 14.2667ZM13.7833 30.8333V16.8833H9.16667V30.8333H13.7833Z" fill="#8A6B24"/>
</g>
<defs>
<clipPath id="clip0_4778_10952">
<rect width="40" height="40" fill="white"/>
</clipPath>
</defs>
</svg>
