<svg width="30" height="30" viewBox="0 0 30 30" fill="none" xmlns="http://www.w3.org/2000/svg">
<path d="M26.6667 0C27.5507 0 28.3986 0.351189 29.0237 0.976311C29.6488 1.60143 30 2.44928 30 3.33333V26.6667C30 27.5507 29.6488 28.3986 29.0237 29.0237C28.3986 29.6488 27.5507 30 26.6667 30H3.33333C2.44928 30 1.60143 29.6488 0.976311 29.0237C0.351189 28.3986 0 27.5507 0 26.6667V3.33333C0 2.44928 0.351189 1.60143 0.976311 0.976311C1.60143 0.351189 2.44928 0 3.33333 0H26.6667ZM25.8333 25.8333V17C25.8333 15.559 25.2609 14.177 24.2419 13.1581C23.223 12.1391 21.841 11.5667 20.4 11.5667C19.6294 11.5932 18.8763 11.8037 18.2037 12.1806C17.531 12.5576 16.9583 13.0899 16.5333 13.7333V11.8833H11.8833V25.8333H16.5333V17.6167C16.5061 17.2948 16.5459 16.9708 16.6504 16.6651C16.7548 16.3594 16.9216 16.0788 17.1402 15.8409C17.3587 15.6031 17.6243 15.4132 17.92 15.2833C18.2158 15.1534 18.5353 15.0863 18.8583 15.0863C19.1814 15.0863 19.5009 15.1534 19.7966 15.2833C20.0924 15.4132 20.3579 15.6031 20.5765 15.8409C20.7951 16.0788 20.9618 16.3594 21.0663 16.6651C21.1708 16.9708 21.2106 17.2948 21.1833 17.6167V25.8333H25.8333ZM6.46667 9.26667C7.20927 9.26667 7.92146 8.97167 8.44657 8.44657C8.97167 7.92146 9.26667 7.20927 9.26667 6.46667C9.2965 6.07968 9.24603 5.69071 9.11843 5.32415C8.99083 4.95759 8.78884 4.62136 8.52515 4.33655C8.26145 4.05175 7.94174 3.82452 7.58608 3.66911C7.23041 3.51371 6.84647 3.43349 6.45833 3.43349C6.0702 3.43349 5.68625 3.51371 5.33059 3.66911C4.97492 3.82452 4.65521 4.05175 4.39152 4.33655C4.12783 4.62136 3.92584 4.95759 3.79824 5.32415C3.67063 5.69071 3.62017 6.07968 3.65 6.46667C3.6544 7.2108 3.9531 7.92296 4.48085 8.44759C5.0086 8.97221 5.72252 9.26668 6.46667 9.26667ZM8.78333 25.8333V11.8833H4.16667V25.8333H8.78333Z" fill="#8A6B24"/>
</svg>
