<svg width="24" height="25" viewBox="0 0 24 25" fill="none" xmlns="http://www.w3.org/2000/svg">
<g clip-path="url(#clip0_5069_338)">
<path d="M19 3.18787C19.5304 3.18787 20.0391 3.39858 20.4142 3.77365C20.7893 4.14873 21 4.65743 21 5.18787V19.1879C21 19.7183 20.7893 20.227 20.4142 20.6021C20.0391 20.9772 19.5304 21.1879 19 21.1879H5C4.46957 21.1879 3.96086 20.9772 3.58579 20.6021C3.21071 20.227 3 19.7183 3 19.1879V5.18787C3 4.65743 3.21071 4.14873 3.58579 3.77365C3.96086 3.39858 4.46957 3.18787 5 3.18787H19ZM18.5 18.6879V13.3879C18.5 12.5233 18.1565 11.6941 17.5452 11.0827C16.9338 10.4713 16.1046 10.1279 15.24 10.1279C14.7776 10.1438 14.3258 10.2701 13.9222 10.4963C13.5186 10.7224 13.175 11.0418 12.92 11.4279V10.3179H10.13V18.6879H12.92V13.7579C12.9036 13.5647 12.9275 13.3703 12.9902 13.1869C13.0529 13.0035 13.153 12.8351 13.2841 12.6924C13.4152 12.5497 13.5746 12.4358 13.752 12.3578C13.9295 12.2799 14.1212 12.2397 14.315 12.2397C14.5088 12.2397 14.7005 12.2799 14.878 12.3578C15.0554 12.4358 15.2148 12.5497 15.3459 12.6924C15.477 12.8351 15.5771 13.0035 15.6398 13.1869C15.7025 13.3703 15.7264 13.5647 15.71 13.7579V18.6879H18.5ZM6.88 8.74787C7.32556 8.74787 7.75288 8.57087 8.06794 8.25581C8.383 7.94074 8.56 7.51343 8.56 7.06787C8.5779 6.83568 8.54762 6.60229 8.47106 6.38235C8.3945 6.16242 8.2733 5.96068 8.11509 5.7898C7.95687 5.61892 7.76505 5.48258 7.55165 5.38933C7.33825 5.29609 7.10788 5.24796 6.875 5.24796C6.64212 5.24796 6.41175 5.29609 6.19835 5.38933C5.98495 5.48258 5.79313 5.61892 5.63491 5.7898C5.4767 5.96068 5.3555 6.16242 5.27894 6.38235C5.20238 6.60229 5.1721 6.83568 5.19 7.06787C5.19264 7.51435 5.37186 7.94164 5.68851 8.25642C6.00516 8.57119 6.43351 8.74787 6.88 8.74787ZM8.27 18.6879V10.3179H5.5V18.6879H8.27Z" fill="white"/>
</g>
<defs>
<clipPath id="clip0_5069_338">
<rect width="24" height="24" fill="white" transform="translate(0 0.187866)"/>
</clipPath>
</defs>
</svg>
