<svg width="231" height="46" viewBox="0 0 231 46" fill="none" xmlns="http://www.w3.org/2000/svg">
    <g clip-path="url(#clip0_1281_11)">
        <path fill-rule="evenodd" clip-rule="evenodd" d="M0.415181 8.31429C0.674378 8.1427 1.0021 8.11332 1.28747 8.23613L21.613 16.9827L41.9386 8.23613C42.2239 8.11332 42.5517 8.1427 42.8107 8.31429C43.0701 8.48592 43.226 8.7768 43.226 9.08855V35.7981C43.226 36.164 43.0116 36.4958 42.679 36.645L21.9896 45.9192C21.7499 46.0265 21.4761 46.0265 21.2365 45.9192L0.547114 36.645C0.214316 36.4958 0 36.164 0 35.7981V9.08855C0 8.7768 0.155986 8.48592 0.415181 8.31429ZM20.6894 18.6033L1.84727 10.495V35.1967L20.6894 43.6425V18.6033ZM22.5367 43.6425L41.3787 35.1967V10.495L22.5367 18.6033V43.6425Z" fill="#242F40"/>
        <path fill-rule="evenodd" clip-rule="evenodd" d="M37.9752 6.30382C38.181 6.77253 37.9693 7.3199 37.5025 7.52637L21.9853 14.3893C21.7454 14.4953 21.472 14.4941 21.2331 14.3859L6.0855 7.52299C5.62053 7.31234 5.41366 6.76309 5.62347 6.29622C5.83327 5.82936 6.3803 5.62166 6.84524 5.83232L21.6175 12.5251L36.7576 5.8289C37.2245 5.62246 37.7698 5.83507 37.9752 6.30382Z" fill="#8A6B24"/>
        <path fill-rule="evenodd" clip-rule="evenodd" d="M33.169 4.25654C33.3786 4.72351 33.1715 5.27265 32.7065 5.4831L22.0502 10.3057C21.8062 10.4161 21.5265 10.4148 21.2835 10.3022L10.8809 5.47961C10.4178 5.26491 10.2157 4.71389 10.4295 4.24887C10.6434 3.78382 11.1921 3.58089 11.6553 3.7956L21.6753 8.44083L31.9474 3.79211C32.4125 3.58163 32.9594 3.78957 33.169 4.25654Z" fill="#8A6B24"/>
        <path fill-rule="evenodd" clip-rule="evenodd" d="M28.3679 2.40421C28.5757 2.87195 28.3666 3.42033 27.9008 3.62904L22.1052 6.22581C21.8631 6.33433 21.5861 6.33308 21.3449 6.22236L15.6873 3.62559C15.2234 3.41266 15.0192 2.86241 15.2313 2.39657C15.4434 1.93074 15.9914 1.72573 16.4553 1.93867L21.7335 4.36128L27.148 1.93522C27.6138 1.7265 28.16 1.93647 28.3679 2.40421Z" fill="#8A6B24"/>
        <path fill-rule="evenodd" clip-rule="evenodd" d="M24.6427 0.487593C24.8847 0.938473 24.7168 1.50098 24.2678 1.74399L22.2113 2.85689C21.9349 3.0065 21.6016 3.0048 21.3267 2.85239L19.3192 1.73949C18.8726 1.49193 18.7105 0.92774 18.957 0.479344C19.2036 0.0309476 19.7655 -0.13186 20.212 0.115702L21.7784 0.984072L23.3914 0.111203C23.8404 -0.131805 24.4006 0.0367104 24.6427 0.487593Z" fill="#8A6B24"/>
        <path d="M68.0404 31.2184C66.8138 31.2184 65.6702 31.0931 64.61 30.8427C63.5497 30.5714 62.531 30.1957 61.5537 29.7156L62.8948 24.5812H63.9239L65.3898 30.3731L64.298 29.4965L63.3 28.1815C64.0695 28.6198 64.7348 28.9642 65.2961 29.2147C65.8573 29.4443 66.377 29.6112 66.8553 29.7156C67.3543 29.7991 67.8637 29.8408 68.3834 29.8408C69.9219 29.8408 71.0966 29.5278 71.9076 28.9016C72.7392 28.2546 73.1549 27.4302 73.1549 26.4283C73.1549 25.6561 72.9263 24.9986 72.4688 24.4559C72.0324 23.9132 71.4293 23.4332 70.6599 23.0158C69.9116 22.5775 69.0799 22.1287 68.1652 21.6695C67.105 21.1686 66.1173 20.6468 65.2023 20.1041C64.2877 19.5615 63.5393 18.9144 62.957 18.1631C62.3958 17.3908 62.115 16.4411 62.115 15.3141C62.115 14.2079 62.4165 13.1956 63.0196 12.2772C63.6223 11.338 64.5059 10.5866 65.6702 10.0231C66.8346 9.45952 68.2482 9.17773 69.9116 9.17773C71.0344 9.17773 72.0843 9.30298 73.0615 9.55344C74.0592 9.80389 75.0261 10.1587 75.9618 10.6179L74.7141 15.5332H73.6539L72.2506 10.0231L74.2777 12.1207C73.5709 11.7241 72.9471 11.411 72.4066 11.1815C71.8868 10.9518 71.3982 10.7953 70.9407 10.7118C70.4832 10.6075 70.0053 10.5553 69.5063 10.5553C68.1341 10.5553 67.105 10.837 66.4189 11.4006C65.7328 11.9433 65.3898 12.6842 65.3898 13.6234C65.3898 14.3748 65.5872 15.001 65.9821 15.5019C66.3978 16.0028 66.949 16.4516 67.6351 16.8481C68.3419 17.2238 69.1318 17.6204 70.0053 18.0378C71.1278 18.5596 72.188 19.1127 73.186 19.6971C74.184 20.2815 74.9949 20.9807 75.6188 21.7948C76.263 22.5879 76.5853 23.6002 76.5853 24.8316C76.5853 26.0004 76.2423 27.0649 75.5562 28.025C74.8909 28.9851 73.9139 29.7574 72.6248 30.3418C71.3567 30.9262 69.8286 31.2184 68.0404 31.2184Z" fill="#242F40"/>
        <path d="M93.2824 17.787L90.694 20.4168C90.3195 19.6029 89.8623 18.9245 89.3215 18.3819C88.8017 17.8183 88.043 17.5366 87.045 17.5366C86.0889 17.5366 85.3091 17.8079 84.706 18.3505C84.1032 18.8932 83.6561 19.6133 83.3653 20.5108C83.0741 21.4083 82.9285 22.3684 82.9285 23.3911C82.9285 24.3303 83.0534 25.1965 83.3027 25.9896C83.5524 26.7619 83.9473 27.388 84.4878 27.8681C85.049 28.3273 85.7562 28.5569 86.6086 28.5569C87.357 28.5569 88.0327 28.4003 88.6354 28.0872C89.2592 27.7742 89.8101 27.3985 90.2884 26.9602V27.8681C89.8101 28.4734 89.2904 29.0369 88.7291 29.5587C88.1679 30.0596 87.544 30.4666 86.858 30.7797C86.1926 31.0719 85.4443 31.218 84.6126 31.218C83.7187 31.218 82.9285 31.0302 82.2425 30.6545C81.5771 30.2788 81.0262 29.7779 80.5895 29.1517C80.1738 28.5256 79.8515 27.8159 79.623 27.0228C79.4148 26.2296 79.311 25.4157 79.311 24.5808C79.311 23.0363 79.6541 21.6379 80.3402 20.3856C81.0262 19.1124 81.9928 18.1105 83.2405 17.38C84.5085 16.6495 86.0263 16.2842 87.7937 16.2842C88.7914 16.2842 89.7582 16.4199 90.694 16.6912C91.6502 16.9626 92.513 17.3278 93.2824 17.787ZM93.5628 35.9456C93.7084 36.1958 93.9163 36.3631 94.1867 36.4464C94.4778 36.5509 94.8624 36.6447 95.3406 36.7283V37.6361C94.7794 37.5943 94.3219 37.5629 93.9685 37.542C93.615 37.542 93.2616 37.5319 92.9082 37.511C92.5545 37.511 92.0869 37.511 91.5046 37.511C90.9433 37.511 90.4547 37.511 90.0391 37.511C89.623 37.5319 89.1659 37.542 88.6669 37.542C88.1679 37.5629 87.5129 37.5943 86.702 37.6361V36.7283C87.6378 36.6447 88.282 36.5614 88.6354 36.4778C89.0099 36.3941 89.2593 36.2481 89.3841 36.0394C89.5297 35.8097 89.6127 35.4654 89.6334 35.0061C89.6753 34.5471 89.696 33.9 89.696 33.0652V17.4113H91.0682L92.4403 15.7207H93.2824V33.0965C93.2824 33.8687 93.2928 34.474 93.3135 34.9124C93.355 35.3717 93.4383 35.716 93.5628 35.9456Z" fill="#242F40"/>
        <path d="M111.718 16.2842V26.4279C111.718 27.3462 111.771 28.0454 111.874 28.5255C111.999 28.9847 112.217 29.2978 112.529 29.4647C112.841 29.6108 113.299 29.6839 113.901 29.6839V30.5918L108.132 31.218V20.9803C108.132 20.0828 108.08 19.415 107.976 18.9766C107.872 18.5175 107.664 18.2148 107.353 18.0687C107.041 17.9226 106.583 17.8496 105.98 17.8496V16.9416L111.718 16.2842ZM108.694 26.9288L109.286 27.2106C108.745 27.8994 108.195 28.5568 107.633 29.183C107.072 29.7882 106.438 30.2787 105.731 30.6544C105.045 31.0301 104.244 31.218 103.329 31.218C101.854 31.218 100.679 30.7588 99.8056 29.8404C98.9321 28.9221 98.4957 27.5654 98.4957 25.7704V20.9803C98.4957 20.0828 98.4438 19.415 98.3398 18.9766C98.2357 18.5175 98.0278 18.2148 97.7159 18.0687C97.404 17.9226 96.9468 17.8496 96.3438 17.8496V16.9416L102.082 16.2842V24.612C102.082 25.5721 102.197 26.3444 102.425 26.9288C102.654 27.4924 102.997 27.9098 103.454 28.1811C103.912 28.4316 104.483 28.5568 105.169 28.5568C106.001 28.5568 106.698 28.4003 107.259 28.0872C107.82 27.7532 108.298 27.3671 108.694 26.9288Z" fill="#242F40"/>
        <path d="M116.291 19.1645C116.79 18.6844 117.341 18.2253 117.944 17.787C118.546 17.3487 119.212 16.9938 119.94 16.7225C120.667 16.4303 121.457 16.2842 122.31 16.2842C123.786 16.2842 124.96 16.7538 125.834 17.693C126.728 18.6114 127.164 19.895 127.144 21.5439L127.05 27.461C127.05 28.0454 127.112 28.5151 127.237 28.8699C127.383 29.2038 127.622 29.4439 127.954 29.59C128.308 29.7361 128.797 29.8091 129.42 29.8091V30.6857C128.9 30.8527 128.401 30.9779 127.923 31.0614C127.445 31.1658 126.998 31.218 126.582 31.218C125.751 31.218 125.033 31.0301 124.43 30.6544C123.848 30.2787 123.568 29.6317 123.588 28.7133L123.651 22.7336C123.671 22.0448 123.619 21.3978 123.495 20.7925C123.37 20.1663 123.1 19.6654 122.684 19.2897C122.268 18.8931 121.623 18.6949 120.75 18.6949C120.023 18.6949 119.326 18.8306 118.661 19.1019C117.996 19.3523 117.403 19.6445 116.883 19.9785L116.291 19.1645ZM124.243 26.334L124.337 27.3984C123.817 28.1081 123.276 28.7551 122.715 29.3395C122.154 29.9239 121.561 30.3831 120.937 30.7171C120.335 31.051 119.659 31.218 118.911 31.218C118.058 31.218 117.299 30.9571 116.634 30.4353C115.968 29.8926 115.636 29.089 115.636 28.0246C115.636 27.461 115.761 26.8975 116.01 26.334C116.28 25.7496 116.707 25.1964 117.289 24.6746C117.892 24.132 118.692 23.6311 119.69 23.1719C120.709 22.7127 121.966 22.3266 123.463 22.0135L125.74 21.5126L125.397 22.8901L123.806 23.2032C122.85 23.391 122.019 23.6624 121.312 24.0172C120.605 24.372 120.064 24.7999 119.69 25.3008C119.337 25.7808 119.16 26.3131 119.16 26.8975C119.16 27.5445 119.337 28.0141 119.69 28.3063C120.064 28.5777 120.491 28.7133 120.969 28.7133C121.447 28.7133 121.873 28.5986 122.247 28.369C122.642 28.1185 123.006 27.8054 123.339 27.4297C123.671 27.054 123.973 26.6888 124.243 26.334Z" fill="#242F40"/>
        <path d="M136.196 22.3578L135.666 22.483C136.29 21.2725 136.892 20.2289 137.475 19.3523C138.077 18.4757 138.691 17.7973 139.315 17.3173C139.959 16.8372 140.687 16.5972 141.497 16.5972C141.601 16.5972 141.737 16.6076 141.903 16.6285C142.09 16.6285 142.277 16.6493 142.464 16.6911L141.903 20.1663C140.614 20.1663 139.471 20.3333 138.473 20.6672C137.495 20.9802 136.736 21.5438 136.196 22.3578ZM136.664 20.3228V26.3652C136.664 27.1375 136.674 27.7532 136.695 28.2124C136.736 28.6506 136.82 28.9846 136.944 29.2142C137.09 29.4647 137.329 29.6421 137.662 29.7464C138.015 29.8299 138.649 29.9134 139.564 29.9969V30.9048C138.899 30.8839 138.348 30.8631 137.911 30.8422C137.495 30.8213 137.142 30.8109 136.851 30.8109C136.56 30.79 136.258 30.7796 135.946 30.7796C135.655 30.7796 135.302 30.7796 134.886 30.7796C134.325 30.7796 133.878 30.79 133.545 30.8109C133.213 30.8109 132.869 30.8213 132.516 30.8422C132.163 30.8422 131.664 30.8631 131.019 30.9048V29.9969C131.477 29.9134 131.851 29.8299 132.142 29.7464C132.433 29.6629 132.641 29.5168 132.765 29.3081C132.911 29.0785 132.994 28.7341 133.015 28.275C133.057 27.8158 133.077 27.1687 133.077 26.3339V21.3247C133.077 20.6359 133.067 20.1036 133.046 19.728C133.025 19.3314 132.932 19.0392 132.765 18.8514C132.641 18.6635 132.443 18.5383 132.173 18.4757C131.923 18.413 131.56 18.3504 131.081 18.2878V17.3173C132.079 17.2338 132.963 17.1085 133.732 16.9416C134.522 16.7537 135.281 16.545 136.009 16.3154L136.82 16.7224C136.757 17.2442 136.716 17.7973 136.695 18.3817C136.674 18.9661 136.664 19.6131 136.664 20.3228Z" fill="#242F40"/>
        <path d="M156.72 28.2124C156.367 28.6507 155.889 29.0995 155.286 29.5587C154.704 30.0178 154.018 30.404 153.227 30.7171C152.438 31.0301 151.543 31.1866 150.546 31.1866C149.09 31.1866 147.874 30.8736 146.897 30.2474C145.919 29.6213 145.182 28.776 144.683 27.7115C144.204 26.647 143.965 25.4886 143.965 24.2364C143.965 22.7545 144.267 21.4186 144.87 20.229C145.493 19.0184 146.356 18.0583 147.458 17.3487C148.56 16.639 149.87 16.2842 151.387 16.2842C153.071 16.2842 154.402 16.806 155.379 17.8496C156.357 18.8931 156.845 20.2707 156.845 21.9822V23.4223H146.679L146.803 22.2953L153.29 22.0448C153.29 21.2099 153.207 20.4585 153.04 19.7906C152.874 19.1019 152.604 18.5488 152.229 18.1313C151.855 17.7139 151.356 17.5052 150.733 17.5052C150.047 17.5052 149.475 17.787 149.018 18.3505C148.581 18.914 148.248 19.6445 148.02 20.542C147.811 21.4187 147.708 22.3788 147.708 23.4223C147.708 25.0921 148.071 26.4279 148.799 27.4297C149.548 28.4107 150.681 28.9012 152.198 28.9012C153.071 28.9012 153.82 28.7551 154.444 28.4629C155.068 28.1498 155.598 27.7846 156.034 27.3671L156.72 28.2124Z" fill="#242F40"/>
        <path d="M169.676 19.8225L169.707 19.3842C171.141 19.5303 172.378 19.8121 173.418 20.2295C174.478 20.647 175.289 21.2314 175.85 21.9828C176.412 22.7133 176.692 23.6525 176.692 24.8005C176.692 26.1571 176.308 27.2946 175.538 28.213C174.79 29.1105 173.709 29.7888 172.295 30.248C170.902 30.6863 169.27 30.9055 167.399 30.9055H159.01V29.8723C159.634 29.7888 160.091 29.6949 160.382 29.5905C160.694 29.4862 160.912 29.3297 161.037 29.1209C161.203 28.8496 161.297 28.4635 161.318 27.9625C161.359 27.4407 161.38 26.752 161.38 25.8962V14.6254C161.38 13.7279 161.359 13.0392 161.318 12.5591C161.297 12.0582 161.203 11.6825 161.037 11.4321C160.912 11.1816 160.694 11.0146 160.382 10.9311C160.091 10.8268 159.634 10.7329 159.01 10.6494V9.61621H166.869C168.719 9.61621 170.289 9.7623 171.578 10.0545C172.867 10.3467 173.844 10.8372 174.509 11.526C175.195 12.1939 175.538 13.1331 175.538 14.3437C175.538 15.3038 175.31 16.1491 174.852 16.8796C174.395 17.5892 173.729 18.1945 172.856 18.6955C171.983 19.1755 170.923 19.5512 169.676 19.8225ZM166.401 10.8998H165.029V19.1338H166.307C167.513 19.1338 168.501 18.9459 169.27 18.5702C170.06 18.1945 170.642 17.6936 171.017 17.0674C171.411 16.4204 171.609 15.7003 171.609 14.9072C171.609 13.5923 171.141 12.6009 170.206 11.933C169.27 11.2442 168.002 10.8998 166.401 10.8998ZM165.029 29.6219H167.368C169.114 29.6219 170.434 29.2253 171.328 28.4322C172.222 27.639 172.669 26.5432 172.669 25.1448C172.669 24.2682 172.472 23.4647 172.077 22.7342C171.703 22.0036 171.12 21.4296 170.33 21.0122C169.561 20.5948 168.584 20.3861 167.399 20.3861H165.029V29.6219Z" fill="#242F40"/>
        <path d="M186.869 31.218C185.414 31.218 184.124 30.9466 183.002 30.404C181.879 29.8404 180.996 29.0264 180.351 27.962C179.727 26.8975 179.416 25.6035 179.416 24.0798C179.416 22.4936 179.759 21.116 180.445 19.9472C181.151 18.7784 182.077 17.8809 183.22 17.2547C184.364 16.6077 185.621 16.2842 186.994 16.2842C188.47 16.2842 189.759 16.5764 190.861 17.1608C191.983 17.7243 192.857 18.5488 193.48 19.6341C194.104 20.6986 194.416 21.9822 194.416 23.485C194.416 25.0712 194.073 26.4487 193.387 27.6176C192.701 28.7655 191.786 29.6526 190.643 30.2787C189.499 30.9049 188.241 31.218 186.869 31.218ZM186.994 29.9657C187.825 29.9657 188.501 29.7047 189.021 29.183C189.54 28.6612 189.925 27.962 190.175 27.0854C190.424 26.2087 190.549 25.2278 190.549 24.1424C190.549 23.3493 190.487 22.5562 190.362 21.763C190.237 20.9699 190.029 20.2603 189.738 19.6341C189.468 19.008 189.094 18.507 188.615 18.1313C188.158 17.7348 187.586 17.5365 186.9 17.5365C186.089 17.5365 185.414 17.7974 184.873 18.3192C184.353 18.841 183.958 19.5506 183.688 20.4481C183.438 21.3247 183.314 22.3057 183.314 23.391C183.314 24.1842 183.376 24.9773 183.501 25.7704C183.625 26.5427 183.834 27.2523 184.124 27.8994C184.416 28.5255 184.8 29.0264 185.278 29.4021C185.757 29.7778 186.328 29.9657 186.994 29.9657Z" fill="#242F40"/>
        <path d="M204.35 31.218C202.895 31.218 201.605 30.9466 200.483 30.404C199.36 29.8404 198.476 29.0264 197.832 27.962C197.208 26.8975 196.896 25.6035 196.896 24.0798C196.896 22.4936 197.24 21.116 197.926 19.9472C198.632 18.7784 199.557 17.8809 200.701 17.2547C201.845 16.6077 203.102 16.2842 204.475 16.2842C205.951 16.2842 207.24 16.5764 208.342 17.1608C209.464 17.7243 210.337 18.5488 210.961 19.6341C211.585 20.6986 211.897 21.9822 211.897 23.485C211.897 25.0712 211.554 26.4487 210.868 27.6176C210.182 28.7655 209.267 29.6526 208.123 30.2787C206.98 30.9049 205.722 31.218 204.35 31.218ZM204.475 29.9657C205.306 29.9657 205.982 29.7047 206.502 29.183C207.021 28.6612 207.406 27.962 207.656 27.0854C207.905 26.2087 208.03 25.2278 208.03 24.1424C208.03 23.3493 207.968 22.5562 207.843 21.763C207.718 20.9699 207.51 20.2603 207.219 19.6341C206.949 19.008 206.574 18.507 206.096 18.1313C205.639 17.7348 205.067 17.5365 204.381 17.5365C203.57 17.5365 202.895 17.7974 202.354 18.3192C201.834 18.841 201.439 19.5506 201.169 20.4481C200.919 21.3247 200.794 22.3057 200.794 23.391C200.794 24.1842 200.857 24.9773 200.982 25.7704C201.106 26.5427 201.314 27.2523 201.605 27.8994C201.897 28.5255 202.281 29.0264 202.759 29.4021C203.238 29.7778 203.809 29.9657 204.475 29.9657Z" fill="#242F40"/>
        <path d="M220.958 23.1718L223.39 21.1368L227.912 27.7741C228.328 28.3793 228.775 28.8803 229.253 29.2768C229.732 29.6734 230.314 29.9447 231 30.0909V30.9048C230.501 30.8631 230.002 30.8422 229.503 30.8422C229.025 30.8214 228.557 30.8109 228.099 30.8109C227.684 30.8109 227.299 30.8214 226.946 30.8422C226.592 30.8422 226.208 30.8631 225.792 30.9048L220.958 23.1718ZM217.746 26.4905L217.559 25.5825L223.11 20.0411C223.546 19.6028 223.858 19.2793 224.045 19.0705C224.253 18.8409 224.357 18.6322 224.357 18.4444C224.357 18.173 224.232 17.9643 223.983 17.8182C223.733 17.6512 223.37 17.5469 222.891 17.5052V16.5972C223.557 16.639 224.212 16.6703 224.856 16.6911C225.501 16.712 226.093 16.7225 226.634 16.7225C227.112 16.7225 227.621 16.712 228.162 16.6911C228.723 16.6494 229.326 16.6181 229.971 16.5972V17.5052C229.534 17.5469 229.108 17.6408 228.692 17.7869C228.276 17.933 227.861 18.1313 227.445 18.3818C227.029 18.6113 226.613 18.9036 226.197 19.2584L217.746 26.4905ZM219.617 12.402V26.3652C219.617 27.1375 219.627 27.7532 219.648 28.2124C219.69 28.6507 219.773 28.9846 219.898 29.2142C220.043 29.4647 220.251 29.6421 220.521 29.7464C220.812 29.8299 221.197 29.9134 221.675 29.9969V30.9048C221.052 30.8631 220.563 30.8422 220.21 30.8422C219.856 30.8214 219.513 30.8109 219.18 30.8109C218.868 30.7901 218.421 30.7796 217.839 30.7796C217.278 30.7796 216.831 30.7901 216.498 30.8109C216.166 30.8109 215.823 30.8214 215.469 30.8422C215.116 30.8422 214.617 30.8631 213.972 30.9048V29.9969C214.45 29.9134 214.825 29.8299 215.095 29.7464C215.386 29.663 215.594 29.5169 215.718 29.3082C215.864 29.0785 215.947 28.7342 215.968 28.275C216.01 27.8158 216.03 27.1688 216.03 26.3339V13.4038C216.03 12.7151 216.02 12.1828 215.999 11.8071C215.979 11.4106 215.885 11.1184 215.718 10.9305C215.594 10.7635 215.396 10.6487 215.126 10.5861C214.876 10.5026 214.513 10.4296 214.034 10.367V9.42773C215.032 9.32339 215.926 9.18773 216.716 9.02073C217.527 8.8329 218.318 8.61374 219.087 8.36328L219.773 8.73898C219.711 9.26077 219.669 9.8243 219.648 10.4296C219.627 11.014 219.617 11.6714 219.617 12.402Z" fill="#242F40"/>
    </g>
    <defs>
        <clipPath id="clip0_1281_11">
            <rect width="231" height="46" fill="white"/>
        </clipPath>
    </defs>
</svg>
