<svg width="303" height="320" viewBox="0 0 303 320" fill="none" xmlns="http://www.w3.org/2000/svg">
<g clip-path="url(#clip0_4609_1048)">
<path d="M133.511 170.839L109.089 259.987L37.2895 238.423L61.7071 149.281L133.511 170.839Z" stroke="#D1D1D1" stroke-width="2"/>
<path d="M37.5512 221.228C40.5113 209.82 43.7318 198.407 46.8368 187.365C50.0252 176.043 53.3255 164.329 56.3526 152.61L56.8812 152.758C53.8499 164.483 50.5497 176.197 47.3568 187.525C44.2459 198.563 41.0313 209.98 38.0693 221.378L37.5512 221.228Z" fill="#D1D1D1"/>
<path d="M75.8719 167.128L77.2102 162.281L105.939 170.841L104.601 175.687L75.8719 167.128Z" stroke="#D1D1D1" stroke-width="2"/>
<path d="M106.593 176.263L107.937 171.377L113.187 172.948L111.844 177.833L106.593 176.263Z" stroke="#D1D1D1" stroke-width="2"/>
<path d="M97.2016 183.755C97.2444 183.607 97.3912 183.524 97.5392 183.563L112.842 188.158C112.986 188.203 113.068 188.355 113.032 188.507C112.989 188.655 112.842 188.739 112.694 188.7L97.3918 184.105C97.2476 184.059 97.1588 183.903 97.2016 183.755Z" fill="#D1D1D1"/>
<path d="M81.9074 179.239C81.9502 179.092 82.097 179.008 82.2453 179.047L92.2673 182.055C92.4112 182.101 92.4938 182.253 92.4572 182.405C92.4144 182.553 92.2676 182.636 92.1196 182.597L82.0913 179.585C81.9473 179.539 81.8645 179.387 81.9074 179.239Z" fill="#D1D1D1"/>
<path d="M95.1351 191.193C95.1776 191.045 95.3247 190.962 95.4727 191.001L110.775 195.596C110.919 195.641 111.002 195.794 110.965 195.946C110.922 196.094 110.775 196.177 110.627 196.138L95.325 191.543C95.1811 191.497 95.0922 191.341 95.1351 191.193Z" fill="#D1D1D1"/>
<path d="M64.5932 166.23C64.1044 165.884 63.6836 165.436 63.3661 164.902C62.7661 163.904 62.572 162.723 62.8313 161.581L66.175 146.832C66.7079 144.482 69.0021 143.029 71.2894 143.602L71.1685 144.147C69.1722 143.647 67.169 144.911 66.7047 146.962L63.361 161.711C63.1346 162.707 63.3043 163.73 63.8272 164.607C64.3548 165.478 65.1712 166.093 66.1409 166.337C67.1107 166.581 68.1019 166.416 68.9489 165.887C69.7892 165.352 70.3779 164.518 70.6044 163.522L72.8605 153.561C72.897 153.408 73.0381 153.32 73.1912 153.352C73.3399 153.392 73.4268 153.538 73.3966 153.695L71.1345 163.652C70.8756 164.795 70.2022 165.757 69.2396 166.365C68.2768 166.972 67.1322 167.16 66.02 166.881C65.5006 166.749 65.0193 166.531 64.5932 166.23Z" fill="#D1D1D1"/>
<path d="M73.0022 165.927C72.8535 165.887 72.7663 165.741 72.7968 165.584L76.4624 149.379C76.6848 148.39 76.5195 147.361 75.9966 146.484C75.4697 145.613 74.6536 144.999 73.6841 144.755L71.153 144.121L71.274 143.577L73.8051 144.211C76.0914 144.784 77.5188 147.156 76.9859 149.505L73.32 165.71C73.2961 165.871 73.1509 165.966 73.0022 165.927Z" fill="#D1D1D1"/>
<path d="M115.702 190.848C114.92 190.295 114.707 189.187 115.24 188.38C115.773 187.574 116.843 187.372 117.632 187.93C118.414 188.483 118.627 189.591 118.094 190.397C117.561 191.204 116.484 191.401 115.702 190.848ZM117.318 188.403C116.78 188.023 116.052 188.165 115.693 188.71C115.333 189.253 115.475 190.011 116.007 190.387C116.539 190.763 117.273 190.625 117.633 190.081C117.992 189.537 117.85 188.779 117.318 188.403Z" fill="#D1D1D1"/>
<path d="M81.095 236.206L81.0673 236.543L81.3675 236.686L92.5044 241.984L82.879 252.101L82.7744 252.211L82.7527 252.363L79.1454 277.67L63.8048 263.171L63.5308 262.912L63.2259 263.126L54.0682 269.546L55.2395 257.426L55.2669 257.142L55.0367 256.979L35.5587 243.237L65.2703 232.878L65.3727 232.842L65.4486 232.764L82.856 214.779L81.095 236.206Z" stroke="url(#paint0_linear_4609_1048)" stroke-width="3"/>
<path d="M167.193 228.941L122.606 197.418L95.3965 238.571L139.984 270.094L167.193 228.941Z" fill="#363636"/>
<path d="M122.533 197.029L95.0148 238.649L140.059 270.495L167.577 228.875L122.533 197.029ZM139.917 269.71L95.7738 238.5L122.678 197.808L166.816 229.012L139.911 269.705L139.917 269.71Z" fill="#D1D1D1"/>
<path d="M163.162 222.826C163.711 223.215 164.458 223.074 164.83 222.512C165.201 221.95 165.057 221.18 164.508 220.791C163.958 220.402 163.211 220.543 162.84 221.105C162.468 221.667 162.612 222.438 163.162 222.826Z" fill="#D1D1D1"/>
<path d="M167.386 225.806C167.935 226.195 168.682 226.054 169.054 225.492C169.425 224.93 169.281 224.159 168.731 223.771C168.182 223.383 167.435 223.523 167.064 224.085C166.692 224.647 166.836 225.418 167.386 225.806Z" fill="#D1D1D1"/>
<path d="M104.662 230.799L86.8599 225.453C85.9244 225.177 85.1518 224.584 84.6296 223.821C83.9225 222.796 83.6466 221.466 84.0063 220.173C84.3083 219.065 85.0126 218.194 85.9115 217.667C86.8438 217.116 87.9831 216.946 89.1088 217.283L106.911 222.628C108.135 222.996 109.079 223.898 109.563 225.009C109.951 225.893 110.049 226.909 109.775 227.906C109.482 228.974 108.817 229.826 107.962 230.356C107 230.952 105.827 231.144 104.662 230.799Z" fill="#363636"/>
<path d="M85.5081 225.098C84.9458 224.7 84.4784 224.173 84.1392 223.549C83.5663 222.488 83.4236 221.262 83.7427 220.1C84.0617 218.938 84.7981 217.977 85.8271 217.391C86.8517 216.812 88.041 216.678 89.173 217.018L106.976 222.364C109.315 223.071 110.682 225.593 110.024 227.988C109.362 230.39 106.926 231.771 104.594 231.07L86.7909 225.724C86.3251 225.582 85.8955 225.372 85.5081 225.098ZM107.948 223.445C107.617 223.211 107.246 223.024 106.832 222.9L89.0294 217.555C88.0354 217.255 86.9947 217.373 86.098 217.883C85.2013 218.393 84.5515 219.237 84.2709 220.257C83.9905 221.278 84.1153 222.351 84.6199 223.28C85.1247 224.208 85.9509 224.886 86.945 225.186L104.748 230.531C106.799 231.147 108.93 229.934 109.512 227.833C109.961 226.143 109.285 224.391 107.948 223.445Z" fill="#D1D1D1"/>
<path d="M91.5315 222.142C91.5744 221.994 91.7211 221.911 91.8695 221.95L102.206 225.05C102.35 225.095 102.433 225.247 102.396 225.399C102.354 225.547 102.207 225.631 102.059 225.591L91.7218 222.492C91.5715 222.442 91.4887 222.29 91.5315 222.142Z" fill="#D1D1D1"/>
<path d="M84.685 248.079C84.4781 244.743 81.9262 242.47 79.0855 240.884C77.6322 240.335 76.0382 240.165 74.5443 239.747C73.3408 239.403 72.159 238.623 71.0522 237.897C68.1274 237.312 64.9828 236.768 61.9773 237.054C60.7792 237.174 59.9036 238.262 59.1152 239.149C57.849 239.774 56.827 240.862 56.3189 242.407C55.386 245.247 56.9022 249.086 59.9152 249.912C60.4189 250.052 60.9225 250.193 61.4261 250.333C62.1002 250.284 62.7625 250.171 63.4445 250.221C63.7582 250.246 63.8693 250.55 63.8634 250.864C63.8489 251.455 66.1922 251.948 67.9025 251.928C69.0289 251.918 69.8714 252.71 69.946 252.472C70.9895 252.018 71.6705 252.209 72.7886 252.502C72.983 252.555 73.1833 252.612 73.3735 252.672C75.3865 253.082 77.3925 253.974 79.2653 254.735C79.4934 254.709 79.7217 254.683 79.9504 254.629C82.8642 253.94 84.8746 251.177 84.685 248.079Z" fill="#363636"/>
<path d="M62.6347 237.163C62.566 237.114 62.5185 237.034 62.5172 236.939C62.5096 236.784 62.6255 236.651 62.7717 236.651C71.4718 236.337 73.6728 238.979 75.1333 240.732L75.2161 240.828C75.3966 241.04 75.9484 241.701 75.5881 242.177C75.0296 242.897 72.8189 242.084 71.5587 241.399C71.4255 241.324 71.3719 241.155 71.444 241.019C71.5159 240.882 71.6793 240.829 71.8126 240.904C73.6271 241.887 75.0454 242.028 75.166 241.832C75.166 241.832 75.2045 241.663 74.8145 241.2L74.7317 241.104C73.3417 239.438 71.234 236.918 62.8038 237.226C62.7367 237.216 62.6785 237.194 62.6347 237.163Z" fill="#D1D1D1"/>
<path d="M68.0409 244.901C67.8342 244.755 67.7142 244.519 67.7098 244.235C67.6875 243.13 69.3099 241.356 71.4214 240.718C71.5663 240.679 71.7165 240.758 71.7616 240.911C71.8003 241.061 71.7263 241.215 71.577 241.26C69.4907 241.888 68.2421 243.54 68.2525 244.233C68.2535 244.384 68.3095 244.452 68.4538 244.498C68.8554 244.613 69.7209 244.248 70.5631 243.905C71.9893 243.317 73.6067 242.648 74.5843 243.433C74.7053 243.528 74.727 243.703 74.6363 243.826C74.5453 243.95 74.3818 243.975 74.2546 243.876C73.5273 243.296 72.0652 243.896 70.7754 244.43C69.7672 244.844 68.902 245.209 68.3228 245.044C68.216 244.996 68.1221 244.958 68.0409 244.901Z" fill="#D1D1D1"/>
<path d="M73.703 239.666C73.6217 239.608 73.5742 239.5 73.5811 239.392C73.601 239.238 73.744 239.133 73.8901 239.161C74.0407 239.183 77.5119 239.753 79.6547 240.837C79.792 240.906 79.8455 241.074 79.7838 241.209C79.7183 241.35 79.5548 241.403 79.4235 241.338C77.3579 240.291 73.8592 239.72 73.8195 239.711C73.7758 239.708 73.7342 239.688 73.703 239.666Z" fill="#D1D1D1"/>
<path d="M65.3781 251.821C65.3094 251.772 65.2508 251.721 65.1863 251.666C65.0694 251.565 65.0578 251.387 65.151 251.274C65.2483 251.155 65.414 251.141 65.5308 251.242C65.9397 251.597 66.4257 251.724 66.9737 251.632C68.1372 251.43 69.2352 250.298 69.541 249.752C69.6916 249.483 69.7269 249.207 69.6204 249.103C69.4497 248.945 68.776 248.948 67.2843 249.981C67.1599 250.072 66.9901 250.036 66.9051 249.901C66.8156 249.772 66.8484 249.598 66.9788 249.511C68.8352 248.219 69.6484 248.352 69.9946 248.691C70.3011 248.992 70.3061 249.513 70.0113 250.028C69.5933 250.758 68.369 251.942 67.0688 252.17C66.4389 252.288 65.8732 252.17 65.3781 251.821Z" fill="#D1D1D1"/>
<path d="M68.0575 252.193C67.976 252.135 67.9051 252.076 67.8279 252.012C67.7111 251.91 67.6997 251.733 67.7926 251.62C67.89 251.501 68.0556 251.487 68.1725 251.588C68.6771 252.02 69.2358 252.189 69.8469 252.086C70.8104 251.921 71.5827 251.142 71.835 250.691C71.9792 250.445 71.9934 250.201 71.8787 250.082C71.6869 249.9 70.9408 249.861 69.3823 250.94C69.2579 251.03 69.0884 250.995 69.0034 250.86C68.9139 250.731 68.9464 250.556 69.0771 250.47C71.1011 249.063 71.9402 249.365 72.2526 249.67C72.5651 249.976 72.5893 250.481 72.3115 250.971C71.9191 251.662 70.9811 252.455 69.9439 252.634C69.2702 252.749 68.6273 252.596 68.0575 252.193Z" fill="#D1D1D1"/>
<path d="M71.205 252.244C71.1045 252.174 71.0573 252.037 71.0998 251.917C71.1493 251.773 71.3089 251.697 71.4494 251.75C71.4617 251.759 72.6299 252.189 73.3248 251.458C73.3566 251.424 73.3862 251.379 73.3827 251.273C73.3282 250.577 71.8164 249.151 70.879 248.413C70.783 248.335 70.7417 248.203 70.7908 248.087C70.8333 247.967 70.9452 247.895 71.0667 247.906C71.5638 247.947 72.1836 248.47 72.8995 249.07C73.5254 249.597 74.4791 250.394 74.7827 250.185C74.9364 250.078 75.0193 249.939 75.0331 249.751C75.0514 249.501 74.9673 249.197 74.8035 248.874C74.418 248.47 74.0564 247.932 73.7383 247.453C73.5556 247.174 73.3559 246.892 73.1915 246.681C73.0687 246.548 72.9559 246.44 72.8684 246.35C72.7622 246.246 72.7528 246.08 72.8416 245.973C72.9345 245.86 73.0879 245.837 73.207 245.921C73.3323 246.01 73.4551 246.144 73.5947 246.308C74.0552 246.793 74.8133 247.677 75.2546 248.554C75.5695 248.87 75.8766 249.059 76.1396 248.953C76.3163 248.881 76.4392 248.723 76.4949 248.499C76.607 248.052 76.5944 246.708 74.1938 243.817C74.0958 243.7 74.1056 243.519 74.2237 243.424C74.3355 243.325 74.5116 243.336 74.6051 243.459C76.4376 245.666 77.2987 247.507 77.0228 248.647C76.9258 249.058 76.6826 249.356 76.3377 249.488C76.0747 249.594 75.8146 249.57 75.5617 249.466C75.5796 249.592 75.5853 249.709 75.5739 249.823C75.5484 250.181 75.3705 250.478 75.0816 250.679C74.6624 250.965 74.11 250.744 73.521 250.299C73.7537 250.643 73.9134 250.971 73.9345 251.259C73.9519 251.497 73.8791 251.719 73.7292 251.876C72.7893 252.866 71.3386 252.32 71.28 252.298C71.2425 252.271 71.2236 252.258 71.205 252.244Z" fill="#D1D1D1"/>
<path d="M71.8522 252.439C71.7584 252.373 71.7133 252.248 71.7455 252.13C71.7883 251.982 71.9351 251.898 72.079 251.944C72.0957 251.946 73.7235 252.45 76.0725 253.249C76.2165 253.294 76.2949 253.453 76.252 253.6C76.2095 253.748 76.0561 253.827 75.9122 253.782C73.5632 252.983 71.948 252.489 71.9313 252.486C71.9001 252.464 71.8771 252.457 71.8522 252.439Z" fill="#D1D1D1"/>
<path d="M59.9304 250.317C59.8554 250.264 59.8056 250.173 59.8085 250.071C59.8176 249.918 59.942 249.8 60.0951 249.804C62.5055 249.95 63.3383 249.787 63.4939 249.747C65.4278 248.419 67.3066 247.841 67.8751 248.384C67.9687 248.478 68.1703 248.743 67.9161 249.183C67.5857 249.766 65.5135 252.067 64.202 251.703C63.7147 251.565 63.4284 251.109 63.3516 250.351C62.9027 250.418 61.9427 250.482 60.0598 250.371C60.0201 250.362 59.9678 250.344 59.9304 250.317ZM63.8955 250.153C63.9179 250.592 64.0281 251.064 64.35 251.16C65.2096 251.401 67.0735 249.554 67.455 248.894C67.4953 248.819 67.5038 248.779 67.5019 248.768C67.3227 248.594 65.9431 248.765 63.8955 250.153Z" fill="#D1D1D1"/>
<path d="M72.8381 224.518L65.1715 232.425L60.2601 234.108L60.096 218.332C60.0923 218.282 60.1052 218.235 60.1307 218.197L67.118 205.238C67.1583 205.163 67.2301 205.11 67.3202 205.099C67.4106 205.087 67.4921 205.117 67.5526 205.178C72.9509 210.772 73.2873 219.22 72.8381 224.518Z" fill="#D1D1D1"/>
<path d="M68.7158 184.536C67.6354 186.462 67.3529 188.059 67.6827 189.411L57.787 199.353L62.3399 202.891L71.4412 193.789C74.4888 194.956 76.499 191.665 76.499 191.665L77.8218 191.585C77.8218 191.585 78.3614 189.503 77.4814 186.115C76.6013 182.729 71.1117 180.286 68.7158 184.536Z" fill="#363636"/>
<path d="M62.3657 203.256L57.3681 199.375L67.3813 189.311C67.0836 187.869 67.4484 186.217 68.4818 184.39C69.4812 182.614 71.1489 181.762 73.068 182.047C75.2218 182.366 77.2414 184.085 77.746 186.05C78.632 189.469 78.1072 191.571 78.0855 191.659C78.0534 191.777 77.9541 191.858 77.8408 191.863L76.6524 191.934C76.2414 192.528 74.2993 195.048 71.5171 194.106L62.3657 203.256ZM58.2078 199.33L62.3197 202.519L71.2516 193.589C71.3297 193.513 71.4346 193.493 71.5395 193.53C74.3459 194.601 76.1944 191.639 76.2684 191.513L76.3387 191.393L77.4307 191.328C77.5271 191.321 77.6011 191.251 77.6206 191.152C77.7236 190.425 77.854 188.656 77.2162 186.183C76.7629 184.433 74.95 182.888 72.9934 182.605C72.0034 182.46 70.1618 182.531 68.9501 184.684C67.9592 186.447 67.6222 188.014 67.9479 189.345L67.9826 189.501L58.2078 199.33Z" fill="#D1D1D1"/>
<path d="M78.8972 184.24C78.5715 183.314 77.2486 182.952 76.4596 182.685C75.1604 182.246 73.8114 182.034 72.4485 182.01C72.0838 182.006 71.833 182.204 71.7036 182.47C71.3848 182.507 71.0469 182.559 70.6667 182.648C70.5092 182.705 70.1684 182.887 69.8654 183.039C69.6103 183.3 69.3571 183.572 69.1079 183.838C68.9807 184.086 68.8638 184.332 68.7536 184.526C67.6282 186.521 67.3668 188.168 67.7608 189.546C67.9658 189.625 68.175 189.698 68.3992 189.734C68.9145 189.816 71.3234 189.134 70.7174 188.48C70.0361 187.744 70.5048 186.188 71.6453 186.534C71.6516 186.538 71.6623 186.536 71.6683 186.54C71.6516 186.914 71.6242 187.289 71.6072 187.662C71.5647 188.449 72.6875 188.961 73.1052 188.204C73.3572 187.754 73.5216 187.268 73.5855 186.769C74.9084 186.783 76.4779 186.578 77.5088 185.992C78.5702 185.916 79.3381 185.491 78.8972 184.24Z" fill="#D1D1D1"/>
<path d="M65.0234 223.421C64.7891 223.762 64.5648 224.101 64.3387 224.429C62.7365 226.797 61.4325 228.7 60.3672 230.228C57.9181 233.753 56.7646 235.302 56.2708 235.939L52.9037 233.53L47.1817 229.446L41.46 225.363L35.738 221.279L30.016 217.196L27.7589 215.581C29.0163 213.776 30.4067 211.812 31.8286 209.842C33.2103 207.918 34.6277 205.983 35.9896 204.186C36.7522 203.186 37.4889 202.224 38.2004 201.328C38.9645 200.367 39.6968 199.496 40.4181 198.71C41.8858 197.101 43.2928 195.862 44.6909 195.011C45.1914 194.698 45.7064 194.434 46.227 194.229C48.4658 193.315 48.7868 192.219 53.449 194.502C55.2569 195.254 57.2166 196.471 59.4334 198.188C60.2778 198.842 61.1575 199.567 62.0829 200.363C63.0873 201.232 63.9875 202.038 64.8042 202.803C67.077 204.936 68.6207 206.712 69.507 208.428C70.0352 209.449 70.3203 210.449 70.3792 211.485C70.4966 213.53 69.7231 215.714 68.1432 218.521C67.3155 219.954 66.2666 221.568 65.0234 223.421Z" fill="#363636"/>
<path d="M56.1183 236.169C56.112 236.165 56.112 236.165 56.1183 236.169L27.6107 215.805C27.5482 215.761 27.5088 215.695 27.4946 215.62C27.4803 215.544 27.4996 215.473 27.5419 215.409C28.7909 213.617 30.1981 211.627 31.6115 209.67C33.1177 207.572 34.5247 205.666 35.777 204.008C36.4907 203.067 37.253 202.067 37.9919 201.144C38.7815 200.143 39.5116 199.289 40.2222 198.506C41.7576 196.822 43.1769 195.592 44.5501 194.751C45.0695 194.424 45.6053 194.155 46.1263 193.951C46.4938 193.798 46.8069 193.644 47.1156 193.496C48.6517 192.742 49.5742 192.278 53.5658 194.227C55.3381 194.964 57.319 196.177 59.594 197.945C60.4384 198.599 61.3307 199.333 62.2517 200.135C63.4253 201.152 64.2672 201.907 64.9856 202.584C67.4314 204.886 68.9061 206.642 69.7467 208.288C70.2998 209.354 70.5867 210.393 70.6516 211.462C70.7631 213.474 70.0859 215.624 68.375 218.657C67.6147 219.987 66.6525 221.512 65.2508 223.591L64.5661 224.599C62.985 226.935 61.6851 228.832 60.5947 230.398C58.3291 233.658 57.1124 235.304 56.4894 236.122C56.3945 236.223 56.2374 236.253 56.1183 236.169ZM28.1468 215.508L56.2144 235.552C56.8711 234.683 58.0626 233.048 60.1398 230.058C61.2303 228.492 62.5301 226.595 64.1072 224.265L64.7919 223.257C66.185 221.191 67.1454 219.683 67.8969 218.366C69.5467 215.439 70.2085 213.382 70.1026 211.487C70.0478 210.5 69.7751 209.537 69.2635 208.547C68.4516 206.968 67.0184 205.26 64.6187 203C63.9125 202.332 63.0769 201.581 61.9037 200.564C60.995 199.771 60.109 199.042 59.2664 198.399C57.0248 196.664 55.0859 195.471 53.3428 194.745C49.5723 192.906 48.7824 193.295 47.3471 194.007C47.0488 194.153 46.7105 194.317 46.3177 194.481C45.8179 194.681 45.3177 194.938 44.8216 195.244C43.4862 196.055 42.1091 197.249 40.6052 198.899C39.9031 199.669 39.1834 200.522 38.4023 201.509C37.6741 202.43 36.9159 203.424 36.1959 204.36C34.9436 206.019 33.541 207.918 32.039 210.01C30.7015 211.88 29.3534 213.78 28.1468 215.508Z" fill="#D1D1D1"/>
<path d="M57.9684 233.206L30.7554 213.339C30.6308 213.251 30.6027 213.072 30.6931 212.95C30.7773 212.823 30.9277 212.789 31.0711 212.89L58.2777 232.752C58.4024 232.84 58.4305 233.019 58.3401 233.142C58.256 233.269 58.0931 233.294 57.9684 233.206Z" fill="#D1D1D1"/>
<path d="M52.6386 233.777C52.5126 233.688 52.4798 233.514 52.5649 233.386L69.2821 208.149C69.3672 208.021 69.5363 207.989 69.6623 208.078C69.7883 208.167 69.821 208.341 69.7357 208.47L53.0187 233.706C52.9378 233.828 52.7582 233.862 52.6386 233.777Z" fill="#D1D1D1"/>
<path d="M29.8597 217.545C29.7337 217.457 29.701 217.283 29.7862 217.154L44.5567 194.856C44.6421 194.727 44.8109 194.696 44.9369 194.785C45.0629 194.874 45.0957 195.048 45.0106 195.176L30.2399 217.474C30.1547 217.603 29.9857 217.634 29.8597 217.545Z" fill="#D1D1D1"/>
<path d="M35.5555 221.602C35.4296 221.513 35.3968 221.339 35.4818 221.21L53.3151 194.29C53.4001 194.162 53.5692 194.13 53.6952 194.219C53.8212 194.308 53.854 194.482 53.7689 194.61L35.9357 221.53C35.8507 221.659 35.6815 221.691 35.5555 221.602Z" fill="#D1D1D1"/>
<path d="M41.2471 225.665C41.1211 225.576 41.0883 225.402 41.1734 225.273L59.2705 197.954C59.3559 197.826 59.5247 197.794 59.6507 197.883C59.777 197.972 59.8094 198.146 59.7244 198.274L41.6272 225.593C41.5422 225.722 41.3731 225.754 41.2471 225.665Z" fill="#D1D1D1"/>
<path d="M46.947 229.714C46.821 229.625 46.7883 229.451 46.8733 229.323L64.6171 202.538C64.7021 202.409 64.8713 202.377 64.9973 202.466C65.1232 202.555 65.156 202.729 65.071 202.858L47.3272 229.643C47.2421 229.772 47.073 229.803 46.947 229.714Z" fill="#D1D1D1"/>
<path d="M60.1096 230.426L31.291 209.885C31.1664 209.797 31.134 209.625 31.2182 209.498C31.3024 209.371 31.4695 209.339 31.5942 209.427L34.0654 211.19L60.4129 229.968C60.5373 230.056 60.5697 230.228 60.4857 230.355C60.4012 230.483 60.2343 230.514 60.1096 230.426Z" fill="#D1D1D1"/>
<path d="M55.992 236.172C55.9857 236.167 55.9857 236.167 55.992 236.172L27.3726 215.771C27.248 215.683 27.2157 215.511 27.2999 215.384C27.3841 215.257 27.5511 215.226 27.6758 215.314L30.1659 217.089L56.3054 235.712C56.4301 235.8 56.4626 235.972 56.3782 236.099C56.2878 236.222 56.1104 236.255 55.992 236.172Z" fill="#D1D1D1"/>
<path d="M70.2157 211.584L46.1753 194.443C46.0509 194.355 46.0185 194.183 46.1026 194.056C46.187 193.928 46.3435 193.899 46.4787 193.985L70.519 211.127C70.6434 211.215 70.6758 211.387 70.5917 211.514C70.5073 211.641 70.3404 211.672 70.2157 211.584Z" fill="#D1D1D1"/>
<path d="M67.94 218.649L40.3425 198.969C40.2178 198.881 40.1856 198.709 40.2697 198.582C40.3538 198.455 40.5211 198.423 40.6455 198.511L68.243 218.191C68.3678 218.279 68.4002 218.451 68.3158 218.578C68.2317 218.705 68.0648 218.737 67.94 218.649Z" fill="#D1D1D1"/>
<path d="M64.1088 224.597L35.2154 204.003C35.0907 203.915 35.0586 203.743 35.1426 203.616C35.2267 203.489 35.394 203.457 35.5184 203.545L64.4121 224.139C64.5365 224.227 64.5689 224.399 64.4848 224.526C64.4004 224.653 64.2335 224.684 64.1088 224.597Z" fill="#D1D1D1"/>
<path d="M57.8371 196.517L61.0151 195.919L63.1837 200.795L60.1887 203.352L57.8371 196.517Z" fill="#363636"/>
<path d="M60.0365 203.582C59.9865 203.547 59.9512 203.503 59.9348 203.445L57.5873 196.603C57.5628 196.529 57.5675 196.439 57.6034 196.37C57.6437 196.296 57.7111 196.249 57.7845 196.235L60.9622 195.638C61.0882 195.614 61.2092 195.681 61.2589 195.801L63.4275 200.676C63.481 200.789 63.4467 200.925 63.3541 201.009L60.3594 203.567C60.2939 203.624 60.1997 203.641 60.1137 203.618C60.0866 203.618 60.0614 203.6 60.0365 203.582ZM58.2025 196.728L60.3112 202.875L62.853 200.711L60.8561 196.229L58.2025 196.728Z" fill="#D1D1D1"/>
<path d="M65.311 200.281L63.1632 200.774L62.7188 204.202L65.1548 202.897L65.311 200.281Z" fill="#363636"/>
<path d="M62.5667 204.432C62.4788 204.37 62.4376 204.266 62.4508 204.162L62.8952 200.735C62.9062 200.621 62.9973 200.525 63.1066 200.499L65.2537 200.006C65.3378 199.99 65.4279 200.007 65.4883 200.068C65.5529 200.123 65.586 200.213 65.5813 200.303L65.4187 202.914C65.4099 203.011 65.3611 203.099 65.2767 203.143L62.8476 204.452C62.7591 204.502 62.6543 204.494 62.5667 204.432ZM63.414 201.008L63.0662 203.704L64.8934 202.721L65.019 200.639L63.414 201.008Z" fill="#D1D1D1"/>
<path d="M60.5112 250.19C61.2372 246.038 62.0945 241.951 63.1434 237.088C63.1566 237.012 63.1465 236.93 63.1031 236.871C63.0637 236.806 62.9947 236.757 62.9172 236.75C52.4653 234.871 38.1386 232.299 33.747 220.698C32.1794 216.558 32.7397 212.42 35.2397 209.625C36.3619 208.371 37.7333 207.436 39.3163 206.846C42.1066 205.805 44.5489 203.805 46.3634 201.061L51.2278 193.704C51.2785 193.627 51.2832 193.537 51.2564 193.452C51.2297 193.367 51.1632 193.301 51.0712 193.274C42.5211 190.712 33.644 192.462 27.3297 197.959C20.7121 203.719 17.8746 212.856 19.9289 221.8C21.651 229.288 26.3728 236.072 33.0598 240.8C33.8856 241.383 34.7489 241.937 35.6277 242.455C43.4799 247.059 52.0596 248.909 60.1726 250.411C60.3461 250.44 60.485 250.341 60.5112 250.19Z" fill="#D1D1D1"/>
<path d="M74.7257 233.67L75.1934 231.084C75.2196 230.934 75.3629 230.828 75.516 230.861C75.6628 230.89 75.7667 231.038 75.7361 231.196L75.2687 233.781C75.2426 233.932 75.099 234.037 74.9459 234.004C74.7994 233.976 74.6996 233.821 74.7257 233.67Z" fill="#D1D1D1"/>
<path d="M79.2902 264.719L77.1992 261.31C77.1204 261.179 77.1532 261.005 77.2792 260.925C77.4052 260.846 77.5743 260.881 77.653 261.012L79.7441 264.421C79.8229 264.551 79.7904 264.725 79.6644 264.805C79.534 264.891 79.369 264.849 79.2902 264.719Z" fill="#D1D1D1"/>
<path d="M68.6043 259.446C68.4959 259.332 68.5013 259.157 68.6068 259.052L70.1549 257.492C70.2648 257.381 70.4349 257.388 70.5373 257.499C70.6459 257.613 70.6406 257.788 70.5347 257.892L68.9867 259.453C68.8875 259.561 68.713 259.56 68.6043 259.446Z" fill="#D1D1D1"/>
<path d="M152.05 232.522C151.996 232.381 152.069 232.216 152.205 232.162L155.102 231.034C155.239 230.98 155.4 231.056 155.453 231.197C155.507 231.339 155.435 231.504 155.298 231.557L152.401 232.686C152.264 232.74 152.103 232.664 152.05 232.522Z" fill="#D1D1D1"/>
<path d="M130.273 232.197C130.254 232.184 130.235 232.171 130.221 232.151C130.173 232.099 130.148 232.025 130.155 231.945L130.904 219.049C128.235 217.858 128.34 214.654 128.395 213.931L127.532 213.067C127.451 212.982 127.427 212.852 127.478 212.747C127.516 212.661 128.433 210.717 131.232 208.722C132.843 207.578 135.441 207.639 137.273 208.859C138.897 209.933 139.631 211.729 139.287 213.751C138.925 215.843 138.165 217.354 137.027 218.24L136.344 232.385C136.342 232.458 136.306 232.527 136.255 232.575C136.204 232.624 136.133 232.649 136.055 232.641L130.398 232.23C130.352 232.244 130.31 232.224 130.273 232.197ZM131.342 218.636C131.424 218.694 131.463 218.787 131.46 218.889L130.708 231.707L135.814 232.075L136.491 218.078C136.492 217.994 136.536 217.912 136.604 217.866C137.678 217.075 138.401 215.661 138.747 213.651C139.169 211.205 137.82 209.895 136.976 209.336C135.318 208.229 132.98 208.164 131.542 209.185C129.337 210.755 128.346 212.309 128.056 212.818L128.864 213.624C128.925 213.686 128.958 213.775 128.943 213.868C128.921 214.012 128.48 217.515 131.271 218.605C131.3 218.616 131.323 218.623 131.342 218.636Z" fill="#D1D1D1"/>
<path d="M144.069 221.869C144.228 220.434 143.545 219.219 142.691 218.136C141.421 216.516 140.278 215.107 139.508 213.147C139.417 212.923 139.299 212.755 139.162 212.629C139.142 212.353 139.123 212.077 139.104 211.801C138.974 211.483 138.828 211.108 138.74 210.962C138.053 210.016 137.486 209.54 136.764 208.73C136.541 208.581 136.301 208.458 136.063 208.346C134.404 208.009 132.704 208.026 131.519 208.971C132.247 210.771 134.485 212.719 135.581 213.241C136.427 213.642 136.237 214.652 135.645 215.116C135.574 215.14 135.498 215.171 135.42 215.22C135.376 215.245 135.328 215.276 135.284 215.301C135.217 215.32 135.15 215.338 135.07 215.347C134.197 215.433 135.603 217.582 136.043 217.874C136.235 218 136.442 218.09 136.647 218.169C136.666 218.155 136.684 218.14 136.71 218.13C136.743 218.219 136.771 218.314 136.8 218.409C137.009 219.232 136.736 220.09 136.639 220.903C136.522 221.9 136.442 222.894 136.369 223.893C136.463 224.626 136.541 225.356 136.587 226.092C137.097 226.153 137.61 226.169 138.106 226.154C140.662 226.037 143.733 224.906 144.069 221.869Z" fill="#D1D1D1"/>
<path d="M129.799 227.668L130.142 225.596L137.58 228.072L137.533 231.055L129.799 227.668Z" fill="#D1D1D1"/>
<path d="M139.53 267.687L126.395 260.211L123.948 258.818L121.485 257.423L115.494 253.188L115.569 252.894L115.634 252.602L118.218 242.003L118.379 241.329L119.242 237.775L119.665 236.039L120.171 233.969L120.857 234.209L121.391 234.399L138.509 240.444L143.326 249.12L143.334 249.136L143.235 249.619L139.53 267.687Z" fill="#D1D1D1"/>
<path d="M141.171 265.298L135.616 261.372L126.235 275.556L131.79 279.482L141.171 265.298Z" fill="#363636"/>
<path d="M131.631 279.708L126.078 275.782C125.952 275.693 125.92 275.52 126.004 275.392L135.384 261.209C135.468 261.08 135.637 261.049 135.762 261.137L141.316 265.063C141.441 265.152 141.474 265.325 141.389 265.454L132.01 279.637C131.925 279.765 131.757 279.797 131.631 279.708ZM126.615 275.485L131.711 279.087L140.781 265.371L135.685 261.77L126.615 275.485Z" fill="#D1D1D1"/>
<path d="M139.743 262.601L123.563 251.161L111.548 269.336L127.728 280.776L139.743 262.601Z" fill="#363636"/>
<path d="M127.577 281.017L111.398 269.577C111.272 269.489 111.24 269.315 111.325 269.187L123.34 251.012C123.424 250.884 123.592 250.853 123.718 250.941L139.897 262.382C140.022 262.47 140.055 262.643 139.97 262.771L127.955 280.946C127.87 281.074 127.703 281.106 127.577 281.017ZM111.926 269.265L127.655 280.386L139.365 262.672L123.636 251.551L111.926 269.265Z" fill="#D1D1D1"/>
<path d="M126.403 264.83L120.961 260.989C120.836 260.901 120.804 260.728 120.888 260.601C120.972 260.474 121.139 260.443 121.264 260.531L126.706 264.372C126.83 264.46 126.863 264.633 126.778 264.76C126.705 264.885 126.527 264.918 126.403 264.83Z" fill="#D1D1D1"/>
<path d="M131.653 263.902L123.052 257.832C122.927 257.744 122.895 257.572 122.979 257.445C123.063 257.318 123.231 257.286 123.355 257.374L131.956 263.445C132.08 263.532 132.113 263.705 132.029 263.832C131.944 263.959 131.777 263.99 131.653 263.902Z" fill="#D1D1D1"/>
<path d="M126.134 265.941C120.147 263.435 118.643 262.709 117.184 263.79C115.683 264.907 119.691 265.14 119.534 266.128C119.377 267.116 114.469 265.007 112.937 265.698C111.401 266.396 116.674 269.12 116.674 269.12C116.674 269.12 112.001 266.989 111.366 268.324C110.965 269.168 112.663 270.406 113.958 271.199C112.736 270.589 111.103 269.988 110.837 271.002C110.408 272.651 119.01 277.204 120.602 277.991L126.134 265.941Z" fill="#363636"/>
<path d="M159.258 250.378C157.338 245.523 153.711 240.989 148.155 236.526C143.23 232.566 138.389 229.687 133.772 227.97C128.233 225.911 122.525 225.814 117.272 227.68C112.762 229.283 109.013 232.428 105.379 235.467L104.624 236.096C100.755 239.325 97.1348 241.623 92.0751 242.322C87.7031 242.926 83.0926 241.71 79.5555 240.579C79.4115 240.533 79.2685 240.61 79.2197 240.754C77.8568 244.939 76.8732 248.689 75.7412 253.149C75.7091 253.267 75.7585 253.387 75.8524 253.453C75.8646 253.462 75.8835 253.475 75.9002 253.478C83.2951 256.699 90.9964 257.361 98.1714 255.392C102.69 254.15 106.841 252.049 110.862 248.965C111.958 248.127 113.064 247.175 114.137 246.245C116.014 244.628 117.957 242.953 119.887 241.851C126.594 238.022 133.362 242.497 139.723 247.407C142.242 249.357 145.759 252.435 147.102 256.62C148.025 259.486 147.638 261.903 145.89 264.241C144.033 266.717 140.519 268.368 136.939 268.425C133.621 268.489 130.047 267.538 126.329 265.612C126.262 265.574 126.191 265.571 126.12 265.596C126.048 265.62 125.994 265.675 125.962 265.737C124.286 269.41 122.6 273.085 120.907 276.756L120.436 277.773C120.404 277.835 120.404 277.919 120.422 277.989C120.447 278.062 120.495 278.115 120.562 278.153C130.984 283.318 141.021 283.793 148.836 279.481C159.438 273.66 163.721 261.684 159.258 250.378Z" fill="#D1D1D1"/>
<path d="M113.3 274.057C111.622 272.871 110.375 271.699 110.573 270.928C110.655 270.61 110.851 270.383 111.139 270.267C111.401 270.161 111.732 270.161 112.097 270.221C111.617 269.807 111.23 269.364 111.092 268.948C111.004 268.678 111.01 268.419 111.12 268.197C111.481 267.429 112.731 267.524 113.987 267.848C113.108 267.246 112.372 266.566 112.382 266.038C112.387 265.891 112.443 265.612 112.823 265.439C113.674 265.055 115.271 265.405 116.814 265.754C117.714 265.949 119.074 266.254 119.272 266.065C119.296 265.876 118.452 265.541 118.048 265.387C117.298 265.091 116.641 264.834 116.575 264.336C116.521 263.932 116.898 263.653 117.022 263.563C118.529 262.45 119.972 263.048 125.329 265.296L126.243 265.679C126.378 265.737 126.453 265.903 126.398 266.042C126.343 266.181 126.182 266.256 126.047 266.198L125.133 265.815C119.999 263.659 118.615 263.084 117.352 264.022C117.138 264.18 117.127 264.266 117.127 264.266C117.147 264.43 117.891 264.722 118.248 264.862C119.064 265.185 119.919 265.517 119.81 266.182C119.788 266.326 119.708 266.448 119.584 266.539C119.161 266.831 118.259 266.653 116.712 266.311C115.391 266.015 113.744 265.658 113.053 265.968C113.032 265.972 112.933 266.024 112.935 266.063C112.928 266.546 114.932 267.906 116.801 268.872C116.933 268.936 116.986 269.106 116.931 269.245C116.87 269.38 116.708 269.444 116.576 269.379C114.789 268.566 111.978 267.705 111.623 268.45C111.596 268.506 111.566 268.606 111.623 268.769C111.844 269.423 113.004 270.28 114.054 270.929C114.773 271.287 115.357 271.653 115.493 271.74C115.623 271.822 115.659 271.989 115.585 272.115C115.517 272.245 115.358 272.292 115.226 272.227C115.082 272.153 114.486 271.845 113.787 271.416C112.836 270.951 111.83 270.596 111.356 270.786C111.23 270.838 111.153 270.925 111.111 271.073C110.817 272.199 117.119 275.951 120.728 277.732C120.865 277.802 120.923 277.965 120.857 278.106C120.791 278.247 120.634 278.305 120.496 278.235C120.421 278.21 116.217 276.12 113.3 274.057Z" fill="#D1D1D1"/>
<path d="M118.427 242.212C118.414 242.203 118.402 242.194 118.389 242.185C116.768 240.607 117.873 238.91 120.545 234.8C120.981 234.128 121.459 233.392 121.977 232.581C122.061 232.453 122.23 232.421 122.354 232.499C122.502 232.595 122.512 232.761 122.437 232.888C121.919 233.699 121.437 234.441 121.002 235.113C118.272 239.324 117.538 240.586 118.76 241.778C118.873 241.886 118.874 242.066 118.774 242.174C118.689 242.275 118.54 242.291 118.427 242.212Z" fill="#363636"/>
<path d="M143.019 249.506C143.014 249.502 143.001 249.493 142.995 249.489C141.009 247.703 140.27 247.339 140.264 247.335C140.126 247.266 140.069 247.104 140.124 246.966C140.189 246.825 140.34 246.763 140.482 246.826C140.517 246.841 141.277 247.201 143.348 249.065C143.465 249.166 143.476 249.342 143.379 249.461C143.291 249.567 143.132 249.585 143.019 249.506Z" fill="#363636"/>
<path d="M307.94 69.5167L300.201 80.2567L296.643 65.8523L304.382 55.1119L307.94 69.5167Z" fill="url(#paint1_linear_4609_1048)"/>
<path d="M298.963 49.379L294.513 55.5574L292.466 47.268L296.915 41.0896L298.963 49.379Z" fill="url(#paint2_linear_4609_1048)"/>
<path d="M282.427 178.696L174.251 208.011C174.079 208.058 173.898 207.949 173.855 207.774L140.606 72.9735C140.563 72.7982 140.671 72.6113 140.843 72.5646L249.019 43.2501C249.191 43.2034 249.372 43.3122 249.416 43.4875L282.664 178.288C282.708 178.463 282.599 178.65 282.427 178.696ZM174.406 207.269L281.949 178.127L248.862 43.9825L141.319 73.1252L174.406 207.269Z" fill="#D1D1D1"/>
<path d="M281.883 179.332C281.838 179.344 281.79 179.347 281.74 179.341C281.617 179.315 281.516 179.223 281.484 179.094L248 43.8822C247.977 43.7898 248 43.6848 248.057 43.6003L275.904 4.14957C276.004 4.00401 276.188 3.9641 276.337 4.05253L283.248 8.17486C283.328 8.22246 283.373 8.28917 283.396 8.3818L314.329 133.294C314.352 133.387 314.33 133.492 314.273 133.576L282.065 179.203C282.022 179.265 281.956 179.312 281.883 179.332ZM248.675 43.8582L281.95 178.227L313.653 133.309L282.791 8.68361L276.256 4.78576L248.675 43.8582Z" fill="#D1D1D1"/>
<path d="M254.996 49.7772C254.906 49.8015 254.806 49.7892 254.723 49.7233C254.58 49.6145 254.548 49.4067 254.648 49.2617L270.491 26.725C270.599 26.5777 270.8 26.5331 270.942 26.642C271.085 26.7509 271.117 26.9586 271.018 27.1035L255.177 49.6495C255.134 49.7103 255.068 49.7576 254.996 49.7772Z" fill="#D1D1D1"/>
<path d="M256.75 56.6609C256.66 56.6851 256.56 56.6728 256.477 56.6069C256.334 56.4982 256.302 56.2904 256.401 56.1454L267.331 40.6051C267.439 40.4575 267.642 40.4222 267.782 40.5218C267.925 40.6309 267.957 40.8384 267.858 40.9834L256.93 56.5332C256.888 56.594 256.822 56.6413 256.75 56.6609Z" fill="#D1D1D1"/>
<path d="M289.946 115.927C289.855 115.951 289.756 115.939 289.672 115.873C289.53 115.764 289.498 115.556 289.597 115.411L300.527 99.8706C300.635 99.7234 300.836 99.6786 300.979 99.7877C301.121 99.8965 301.153 100.104 301.054 100.249L290.124 115.79C290.086 115.869 290.018 115.907 289.946 115.927Z" fill="#D1D1D1"/>
<path d="M295.592 134.887C295.501 134.911 295.402 134.898 295.318 134.833C295.176 134.724 295.144 134.516 295.243 134.371L300.707 126.596C300.815 126.449 301.016 126.404 301.158 126.513C301.301 126.622 301.333 126.829 301.234 126.974L295.77 134.75C295.731 134.829 295.664 134.867 295.592 134.887Z" fill="#D1D1D1"/>
<path d="M290.213 142.661C290.122 142.685 290.023 142.673 289.939 142.607C289.796 142.498 289.764 142.291 289.864 142.146L292.005 139.106C292.113 138.959 292.314 138.914 292.457 139.023C292.599 139.132 292.631 139.34 292.532 139.485L290.391 142.524C290.35 142.594 290.285 142.642 290.213 142.661Z" fill="#D1D1D1"/>
<path d="M204.536 81.6412L172.413 90.3052C169.821 91.0048 167.183 89.4329 166.531 86.7991C165.878 84.165 167.454 81.4568 170.047 80.7575L202.179 72.0907C204.772 71.3915 207.409 72.9634 208.062 75.5972C208.706 78.2335 207.129 80.9417 204.536 81.6412ZM170.208 81.4067C167.966 82.0114 166.608 84.3586 167.172 86.6358C167.736 88.913 170.024 90.2765 172.257 89.6743L204.389 81.0076C206.631 80.4032 207.998 78.0535 207.434 75.7763C206.87 73.4991 204.582 72.1355 202.34 72.7402L170.208 81.4067Z" fill="#363636"/>
<path d="M204.542 91.1997L178.386 98.1921C178.215 98.2378 178.035 98.1316 177.992 97.9595C177.949 97.7876 178.057 97.6042 178.228 97.5584L204.384 90.566C204.555 90.5203 204.735 90.6266 204.778 90.7987C204.821 90.9705 204.722 91.1515 204.542 91.1997Z" fill="#363636"/>
<path d="M224.531 173.855L214.872 176.444C214.701 176.49 214.521 176.383 214.478 176.21C214.435 176.038 214.542 175.854 214.713 175.808L224.372 173.219C224.543 173.174 224.723 173.28 224.766 173.453C224.809 173.625 224.702 173.809 224.531 173.855Z" fill="#D1D1D1"/>
<path d="M238.556 179.415L217.056 185.165C216.886 185.21 216.706 185.104 216.662 184.932C216.62 184.759 216.727 184.576 216.898 184.531L238.397 178.781C238.568 178.735 238.748 178.841 238.791 179.013C238.834 179.185 238.727 179.369 238.556 179.415Z" fill="#D1D1D1"/>
<path d="M269.841 171.069L259.768 173.769C259.597 173.815 259.417 173.708 259.374 173.535C259.331 173.363 259.439 173.179 259.609 173.134L269.682 170.434C269.853 170.388 270.033 170.495 270.076 170.667C270.119 170.84 270.021 171.021 269.841 171.069Z" fill="#D1D1D1"/>
<path d="M175.434 100.087C174.513 100.337 173.574 99.775 173.342 98.8339C173.109 97.8929 173.671 96.9237 174.593 96.674C175.514 96.424 176.454 96.9864 176.686 97.9275C176.918 98.8686 176.356 99.8378 175.434 100.087ZM174.752 97.3197C174.182 97.4742 173.831 98.0811 173.974 98.6624C174.118 99.2435 174.706 99.5959 175.275 99.4418C175.845 99.2873 176.196 98.6801 176.053 98.099C175.91 97.5177 175.321 97.1655 174.752 97.3197Z" fill="#363636"/>
<path d="M174.842 207.587L171.957 195.486L187.36 204.268L174.842 207.587Z" stroke="#D1D1D1" stroke-width="2"/>
<path d="M266.237 169.731C266.155 169.753 266.067 169.748 265.988 169.7L260.478 166.4C260.32 166.305 260.269 166.102 260.364 165.939C260.459 165.775 260.658 165.722 260.816 165.816L266.326 169.116C266.484 169.211 266.535 169.414 266.44 169.578C266.392 169.659 266.318 169.709 266.237 169.731Z" fill="#D1D1D1"/>
<path d="M261.835 170.924C261.753 170.946 261.665 170.941 261.586 170.893C261.428 170.798 261.378 170.595 261.472 170.432L264.766 164.746C264.861 164.582 265.06 164.529 265.218 164.623C265.376 164.718 265.426 164.921 265.332 165.085L262.038 170.771C261.99 170.852 261.916 170.902 261.835 170.924Z" fill="#D1D1D1"/>
<path d="M258.52 74.7842L254.48 75.8709C254.309 75.9169 254.129 75.8097 254.086 75.6367C254.043 75.4633 254.151 75.2788 254.322 75.2328L258.362 74.1461C258.533 74.1 258.713 74.2072 258.756 74.3803C258.799 74.5537 258.7 74.7359 258.52 74.7842Z" fill="#D1D1D1"/>
<path d="M259.287 77.8457L255.247 78.9324C255.076 78.9781 254.896 78.8713 254.853 78.6979C254.81 78.5248 254.917 78.3404 255.089 78.2943L259.129 77.2076C259.3 77.1616 259.48 77.2687 259.523 77.4418C259.566 77.6149 259.467 77.7971 259.287 77.8457Z" fill="#D1D1D1"/>
<path d="M274.397 138.156L270.357 139.243C270.186 139.289 270.006 139.182 269.963 139.008C269.92 138.835 270.028 138.65 270.199 138.605L274.239 137.518C274.41 137.472 274.59 137.579 274.633 137.752C274.676 137.925 274.577 138.108 274.397 138.156Z" fill="#D1D1D1"/>
<path d="M275.162 141.208L271.122 142.295C270.951 142.341 270.771 142.234 270.728 142.06C270.685 141.887 270.793 141.703 270.964 141.657L275.004 140.57C275.174 140.524 275.355 140.631 275.398 140.804C275.441 140.977 275.342 141.16 275.162 141.208Z" fill="#D1D1D1"/>
<path d="M303.54 126.39C304.564 126.112 305.185 125.041 304.927 123.996C304.669 122.952 303.631 122.33 302.608 122.607C301.584 122.884 300.963 123.956 301.221 125C301.479 126.045 302.517 126.667 303.54 126.39Z" fill="#363636"/>
<path d="M303.618 126.703C302.425 127.026 301.203 126.295 300.902 125.077C300.602 123.859 301.333 122.598 302.526 122.275C303.719 121.951 304.94 122.683 305.241 123.901C305.541 125.119 304.82 126.377 303.618 126.703ZM302.687 122.93C301.847 123.157 301.323 124.047 301.537 124.914C301.751 125.782 302.611 126.297 303.461 126.066C304.311 125.836 304.825 124.949 304.61 124.082C304.397 123.214 303.537 122.699 302.687 122.93Z" fill="#D1D1D1"/>
<path d="M282.638 8.79545L277.16 10.28C276.988 10.3265 276.807 10.2181 276.764 10.0428L275.379 4.42409C275.335 4.2488 275.443 4.06197 275.615 4.01544C275.787 3.9689 275.968 4.07733 276.011 4.25262L277.317 9.54841L282.479 8.14962C282.65 8.10308 282.831 8.21151 282.874 8.3868C282.918 8.56209 282.819 8.74646 282.638 8.79545Z" fill="#D1D1D1"/>
<mask id="mask0_4609_1048" style="mask-type:luminance" maskUnits="userSpaceOnUse" x="189" y="53" width="97" height="107">
<path fill-rule="evenodd" clip-rule="evenodd" d="M282.054 53.6361C281.966 53.1711 281.419 52.974 281.05 53.2742L268.291 63.6349C267.91 63.9445 268 64.5498 268.452 64.7201L272.667 66.3075L243.181 146.036L201.174 135.034L189.738 154.914L197.145 159.752L205.356 145.478L248.598 156.808L280.914 69.4138L284.309 70.6926C284.768 70.8657 285.245 70.4571 285.153 69.9697L282.054 53.6361Z" fill="white"/>
</mask>
<g mask="url(#mask0_4609_1048)">
<path d="M272.667 66.3075L273.55 66.6325L273.877 65.7494L273.003 65.42L272.667 66.3075ZM243.181 146.036L242.938 146.953L243.766 147.17L244.065 146.361L243.181 146.036ZM201.174 135.034L201.418 134.118L200.721 133.935L200.359 134.565L201.174 135.034ZM189.738 154.914L188.922 154.444L188.474 155.223L189.22 155.71L189.738 154.914ZM197.145 159.752L196.627 160.547L197.461 161.091L197.961 160.222L197.145 159.752ZM205.356 145.478L205.6 144.561L204.903 144.378L204.54 145.008L205.356 145.478ZM248.598 156.808L248.355 157.725L249.183 157.942L249.482 157.133L248.598 156.808ZM280.914 69.4138L281.25 68.5263L280.362 68.1918L280.03 69.0891L280.914 69.4138ZM281.64 54.0094C281.46 54.1553 281.174 54.0623 281.128 53.8196L282.981 53.4529C282.758 52.2801 281.379 51.7927 280.46 52.5386L281.64 54.0094ZM268.881 64.3704L281.64 54.0094L280.46 52.5386L267.701 62.8997L268.881 64.3704ZM268.788 63.8326C269.036 63.9259 269.052 64.2311 268.881 64.3704L267.701 62.8997C266.768 63.6579 266.963 65.1734 268.116 65.6076L268.788 63.8326ZM273.003 65.42L268.788 63.8326L268.116 65.6076L272.331 67.1949L273.003 65.42ZM244.065 146.361L273.55 66.6325L271.783 65.9827L242.298 145.711L244.065 146.361ZM200.931 135.951L242.938 146.953L243.425 145.119L201.418 134.118L200.931 135.951ZM190.554 155.384L201.99 135.504L200.359 134.565L188.922 154.444L190.554 155.384ZM197.663 158.956L190.256 154.119L189.22 155.71L196.627 160.547L197.663 158.956ZM204.54 145.008L196.329 159.281L197.961 160.222L206.172 145.948L204.54 145.008ZM248.842 155.891L205.6 144.561L205.113 146.395L248.355 157.725L248.842 155.891ZM280.03 69.0891L247.714 156.483L249.482 157.133L281.798 69.7386L280.03 69.0891ZM284.645 69.8051L281.25 68.5263L280.578 70.3013L283.973 71.58L284.645 69.8051ZM284.226 70.1528C284.183 69.9261 284.402 69.7133 284.645 69.8051L283.973 71.58C285.135 72.0176 286.307 70.988 286.079 69.7865L284.226 70.1528ZM281.128 53.8196L284.226 70.1528L286.079 69.7865L282.981 53.4529L281.128 53.8196Z" fill="url(#paint3_linear_4609_1048)"/>
</g>
<path d="M220.715 87.995C220.706 87.9975 220.696 87.9997 220.687 88.0022C220.512 88.0397 220.336 87.9193 220.299 87.7314L219.803 84.9012C219.768 84.7228 219.907 84.5371 220.073 84.5021C220.249 84.4646 220.424 84.5853 220.461 84.7729L220.958 87.6031C220.992 87.7815 220.888 87.9483 220.715 87.995Z" fill="#D1D1D1"/>
<path d="M219.176 93.2688C219.14 93.2786 219.111 93.2767 219.072 93.2773L217.187 93.16C217.011 93.1487 216.875 92.9895 216.889 92.8091C216.902 92.6291 217.059 92.4882 217.235 92.4995L219.121 92.6168C219.297 92.6282 219.433 92.7874 219.419 92.9677C219.408 93.1178 219.302 93.2348 219.176 93.2688Z" fill="#D1D1D1"/>
<path d="M187.659 131.369C187.659 131.369 186.533 137.229 185.721 143.7L190.003 143.747L196.306 129.705L187.659 131.369Z" fill="#363636"/>
<path d="M190.08 144.06C190.052 144.068 190.025 144.075 189.996 144.073L185.713 144.026C185.616 144.023 185.539 143.985 185.474 143.915C185.417 143.842 185.385 143.753 185.401 143.66C186.2 137.251 187.331 131.37 187.345 131.308C187.37 131.173 187.479 131.065 187.608 131.04L196.263 129.373C196.383 129.35 196.501 129.396 196.582 129.492C196.655 129.59 196.668 129.723 196.618 129.835L190.315 143.878C190.261 143.971 190.179 144.033 190.08 144.06ZM186.092 143.363L189.802 143.4L195.755 130.14L187.939 131.646C187.73 132.763 186.797 137.834 186.092 143.363Z" fill="#D1D1D1"/>
<path d="M174.148 151.801L171.174 158.504C171.174 158.504 167.897 156.281 165.088 160.861L180.877 168.165L186.253 156.641L174.148 151.801Z" fill="#363636"/>
<path d="M180.965 168.485C180.892 168.504 180.813 168.497 180.748 168.466L164.958 161.161C164.872 161.126 164.814 161.044 164.782 160.954C164.76 160.863 164.773 160.761 164.821 160.679C165.836 159.03 167.021 158.03 168.374 157.719C169.562 157.444 170.545 157.793 171.038 158.031L173.861 151.653C173.936 151.486 174.119 151.407 174.282 151.48L186.397 156.318C186.482 156.353 186.546 156.414 186.577 156.504C186.609 156.593 186.602 156.683 186.566 156.771L181.189 168.296C181.137 168.398 181.055 168.46 180.965 168.485ZM165.572 160.709L180.728 167.716L185.815 156.82L174.31 152.227L171.467 158.639C171.431 158.728 171.352 158.798 171.261 158.823C171.182 158.854 171.071 158.835 170.99 158.779C170.978 158.773 169.884 158.052 168.486 158.375C167.409 158.629 166.442 159.413 165.572 160.709Z" fill="#D1D1D1"/>
<path d="M254.608 120.278C256.926 117.536 257.527 113.208 254.727 110.583C252.077 108.102 247.881 107.901 245.188 110.648C242.157 113.739 239.236 116.928 236.414 120.206C235.606 121.146 235.018 122.279 234.697 123.476C232.837 123.31 231.003 123.128 229.2 122.995C220.964 122.374 212.943 122.581 204.96 125.103C190.79 129.58 179.103 139.853 172.331 153.216C176.668 155.238 181.015 157.228 185.285 159.375C190.466 148.741 200.961 140.622 212.085 138.199C219.099 136.671 226.053 137.523 233.094 138.061C233.231 138.072 233.369 138.083 233.506 138.094C240.11 138.575 246.473 135.18 249.966 129.384C251.619 126.638 253.25 123.878 255.037 121.164C254.433 121.056 254.048 121.131 253.693 121.296C253.858 121.144 254.018 120.974 254.167 120.797C254.316 120.62 254.468 120.453 254.608 120.278Z" fill="#D1D1D1"/>
<path d="M239.967 111.747C238.576 112.126 237.51 112.808 236.728 113.665C226.792 106.541 215.121 101.336 202.755 105.751C191 109.951 187.34 121.66 186.107 132.979C190.738 133.006 195.364 133.053 199.995 133.158C200.588 127.089 201.926 120.408 208.342 118.6C216.165 116.4 227.81 124.209 233.712 128.595C237.376 131.317 240.263 128.948 241.243 125.283C241.861 125.29 242.527 125.216 243.223 125.027C251.657 122.728 248.419 109.443 239.967 111.747Z" fill="#D1D1D1"/>
<path d="M189.337 133.068C189.22 133.099 189.087 133.068 189.004 132.964C188.885 132.831 188.91 132.621 189.043 132.497C189.097 132.443 195.011 127.359 200.97 125.741C201.141 125.694 201.321 125.801 201.364 125.974C201.406 126.146 201.298 126.332 201.127 126.378C195.312 127.957 189.52 132.95 189.455 132.997C189.435 133.032 189.383 133.055 189.337 133.068Z" fill="#363636"/>
<path d="M186.943 156.223C186.861 156.246 186.771 156.231 186.691 156.184L175.311 149.041C175.162 148.944 175.112 148.742 175.207 148.578C175.305 148.424 175.504 148.369 175.663 148.464L187.041 155.598C187.19 155.694 187.24 155.897 187.145 156.06C187.097 156.142 187.024 156.201 186.943 156.223Z" fill="#363636"/>
<path d="M193.23 129.332C193.462 129.22 193.694 129.108 193.918 128.999C193.859 128.917 193.778 128.862 193.672 128.861L187.029 128.459C186.854 128.448 186.696 128.589 186.682 128.767C186.668 128.946 186.803 129.104 186.979 129.115L193.006 129.481C193.078 129.422 193.153 129.372 193.23 129.332Z" fill="#363636"/>
<path d="M173.939 159.959C173.866 159.979 173.799 159.978 173.722 159.94L171.038 158.761C170.875 158.688 170.798 158.493 170.873 158.326C170.948 158.158 171.14 158.076 171.303 158.149L173.987 159.329C174.15 159.402 174.227 159.597 174.152 159.764C174.118 159.862 174.038 159.932 173.939 159.959Z" fill="#D1D1D1"/>
<path d="M240.238 79.7408C236.143 80.8689 234.8 82.7498 235.28 84.1925C235.759 85.6352 235.221 86.8045 235.221 86.8045L236.449 87.1087C236.449 87.1087 238.699 89.6117 240.615 88.5672L244.625 93.7464L246.036 96.1444L248.945 90.8854L241.534 81.3932L240.238 79.7408Z" fill="#363636"/>
<path d="M243.203 80.8408C243.045 80.5511 242.867 80.1785 242.667 79.7922C241.591 79.3805 240.47 79.0599 239.355 78.7664C238.692 78.977 238.072 79.3225 237.517 79.7777C236.588 79.4927 235.534 79.4473 234.751 80.1513C233.942 80.8717 233.927 81.9928 234.552 82.8116C234.877 83.2322 235.592 83.1546 235.941 82.8047C236.12 82.6284 236.204 82.4194 236.22 82.2091C237.641 82.8106 239.842 82.7681 240.752 82.5001C241.716 82.2173 242.091 83.5156 241.514 84.1143C240.999 84.6566 243.014 85.2332 243.441 85.1654C243.627 85.1342 243.805 85.0756 243.982 85.0078C244.33 83.8646 244.121 82.5007 243.203 80.8408Z" fill="#D1D1D1"/>
<path d="M247.974 97.7902C247.946 97.7977 247.919 97.805 247.89 97.8034C247.792 97.8002 247.694 97.7583 247.638 97.6852L240.386 88.815C238.107 89.526 236.797 87.6996 236.441 87.1182L235.497 87.0612C235.358 87.0498 235.238 86.9549 235.204 86.8165C235.186 86.7428 234.76 84.9608 235.541 82.0916C235.995 80.4231 237.741 78.9625 239.597 78.7018C241.255 78.4656 242.685 79.1967 243.523 80.7189C244.372 82.2476 244.675 83.6405 244.421 84.8609L251.232 93.4378C251.33 93.5589 251.325 93.7374 251.23 93.8616L248.142 97.6852C248.106 97.7344 248.037 97.7728 247.974 97.7902ZM240.425 88.106C240.544 88.0735 240.68 88.1151 240.762 88.211L247.902 96.944L250.558 93.6516L243.807 85.1661C243.739 85.0863 243.721 84.9731 243.744 84.8685C244.023 83.789 243.757 82.5042 242.957 81.0603C241.988 79.3181 240.489 79.2551 239.682 79.3673C238.072 79.6003 236.571 80.8365 236.183 82.2605C235.605 84.3757 235.726 85.8578 235.802 86.4073L236.658 86.459C236.776 86.4659 236.871 86.5385 236.926 86.6416C236.969 86.738 238.135 88.9673 240.389 88.1158C240.408 88.1107 240.417 88.1085 240.425 88.106Z" fill="#D1D1D1"/>
<path d="M229.273 109.118L238.088 111.239L237.48 98.5452C233.422 102.139 229.273 109.118 229.273 109.118Z" fill="#363636"/>
<path d="M229.041 109.716C228.959 109.738 228.871 109.733 228.801 109.683C228.643 109.589 228.593 109.387 228.68 109.226C228.721 109.156 232.79 102.028 237.425 97.4103C237.557 97.2763 237.76 97.2794 237.889 97.4109C238.018 97.5424 238.011 97.7501 237.879 97.8841C233.305 102.436 229.281 109.474 229.242 109.553C229.206 109.641 229.122 109.693 229.041 109.716Z" fill="#D1D1D1"/>
<path d="M248.559 92.8249C234.189 95.9265 236.085 101.384 233.842 109.247C232.612 113.547 231.666 116.317 231.666 116.317L253.475 122.799C253.475 122.799 258.04 112.653 259.059 104.016C260.338 93.0799 257.714 90.8532 248.559 92.8249Z" fill="#363636"/>
<path d="M253.554 123.121C253.5 123.136 253.432 123.135 253.38 123.12L231.57 116.637C231.487 116.611 231.414 116.552 231.376 116.475C231.338 116.397 231.333 116.3 231.361 116.214C231.372 116.181 232.327 113.409 233.532 109.165C233.935 107.769 234.195 106.462 234.446 105.197C235.633 99.3387 236.5 95.0989 248.501 92.5071C253.366 91.4525 256.153 91.6625 257.806 93.2026C259.606 94.8694 260.072 98.117 259.378 104.056C258.369 112.652 253.815 122.844 253.772 122.944C253.724 123.026 253.644 123.097 253.554 123.121ZM232.083 116.085L253.288 122.389C254.013 120.73 257.813 111.685 258.72 103.971C259.383 98.3447 258.955 95.1746 257.355 93.6887C255.867 92.3097 253.256 92.1496 248.618 93.1424C237.029 95.6412 236.221 99.6883 235.089 105.296C234.831 106.573 234.564 107.892 234.159 109.317C233.182 112.753 232.376 115.23 232.083 116.085Z" fill="#D1D1D1"/>
<path d="M243.831 92.5367L242.772 94.097L244.565 99.0613L245.993 96.6214L243.831 92.5367Z" fill="#363636"/>
<path d="M244.644 99.3828C244.608 99.3929 244.569 99.3935 244.53 99.3942C244.4 99.3803 244.293 99.3012 244.255 99.1836L242.464 94.2218C242.43 94.1228 242.439 94.0021 242.506 93.9151L243.566 92.3646C243.63 92.2684 243.744 92.2177 243.86 92.2155C243.978 92.2224 244.081 92.2832 244.135 92.3866L246.295 96.4694C246.349 96.5728 246.342 96.7027 246.287 96.7963L244.861 99.235C244.799 99.3012 244.726 99.3604 244.644 99.3828ZM243.143 94.1351L244.637 98.2813L245.61 96.6163L243.792 93.1701L243.143 94.1351Z" fill="#D1D1D1"/>
<path d="M248.955 90.98L245.947 96.6568L248.745 98.713L250.926 92.3873L248.955 90.98Z" fill="#363636"/>
<path d="M248.824 99.0348C248.733 99.0594 248.631 99.0383 248.55 98.9818L245.752 96.926C245.62 96.8244 245.577 96.6491 245.657 96.4997L248.674 90.8214C248.721 90.7394 248.774 90.676 248.894 90.653C248.985 90.6281 249.087 90.6495 249.157 90.699L251.128 92.1064C251.246 92.1922 251.293 92.3463 251.25 92.4857L249.069 98.8106C249.035 98.9084 248.958 98.9884 248.86 99.0247C248.833 99.0323 248.824 99.0348 248.824 99.0348ZM246.369 96.5609L248.576 98.1788L250.533 92.5245L249.067 91.4803L246.369 96.5609Z" fill="#D1D1D1"/>
<path d="M228.392 107.472L218.966 125.102L214.801 108.119L224.226 90.489L228.392 107.472Z" fill="#363636"/>
<path d="M219.046 125.424C219.01 125.434 218.962 125.437 218.923 125.438C218.793 125.424 218.682 125.326 218.648 125.187L214.483 108.206C214.463 108.123 214.472 108.042 214.511 107.962L223.934 90.3336C224 90.2072 224.13 90.1423 224.269 90.1536C224.399 90.1675 224.511 90.2652 224.545 90.4036L228.709 107.385C228.73 107.468 228.72 107.549 228.681 107.629L219.259 125.258C219.211 125.34 219.128 125.402 219.046 125.424ZM215.153 108.162L219.082 124.182L228.039 107.43L224.108 91.3999L215.153 108.162Z" fill="#D1D1D1"/>
<path d="M226.042 107.58L219.872 119.108L217.15 108.011L223.318 96.4735L226.042 107.58Z" fill="#D1D1D1"/>
<path d="M228.363 107.646L219.036 125.11L233.845 121.637L243.171 104.173L228.363 107.646Z" fill="#363636"/>
<path d="M233.923 121.959L233.914 121.961L219.105 125.434C218.978 125.469 218.85 125.416 218.775 125.31C218.701 125.203 218.688 125.07 218.756 124.954L228.083 107.487C228.131 107.405 228.219 107.332 228.303 107.32L243.112 103.847C243.238 103.812 243.367 103.865 243.441 103.971C243.516 104.078 243.529 104.211 243.461 104.327L234.133 121.794C234.086 121.875 234.013 121.934 233.923 121.959ZM219.659 124.629L233.631 121.355L242.551 104.663L228.579 107.937L219.659 124.629Z" fill="#D1D1D1"/>
<path d="M224.322 120.948C224.258 120.965 224.19 120.964 224.116 120.935C223.946 120.874 223.869 120.678 223.933 120.504L224.65 118.686C224.714 118.512 224.907 118.429 225.077 118.491C225.247 118.553 225.324 118.748 225.26 118.923L224.543 120.74C224.502 120.85 224.422 120.92 224.322 120.948Z" fill="#D1D1D1"/>
<path d="M228.791 114.073C228.727 114.091 228.659 114.089 228.596 114.068C228.426 114.006 228.34 113.813 228.404 113.638L229.331 111.055C229.395 110.88 229.586 110.789 229.756 110.85C229.926 110.912 230.012 111.105 229.948 111.28L229.02 113.863C228.979 113.972 228.891 114.046 228.791 114.073Z" fill="#D1D1D1"/>
<path d="M229.745 117.228C229.682 117.245 229.623 117.242 229.562 117.229C229.393 117.177 229.298 116.986 229.353 116.814L231.188 111.198C231.243 111.025 231.432 110.925 231.6 110.977C231.768 111.03 231.863 111.22 231.808 111.392L229.973 117.009C229.941 117.116 229.854 117.198 229.745 117.228Z" fill="#D1D1D1"/>
<path d="M245.306 112.65C239.132 109.839 237.269 108.394 236.244 109.106C235.086 109.913 237.698 110.82 237.824 111.414C238.016 112.314 233.304 110.812 232.218 112.543C231.332 113.944 235.137 113.483 235.992 113.574C235.992 113.574 231.525 113.586 231.316 115.225C231.107 116.863 234.036 115.189 235.415 116.118C235.415 116.118 231.397 115.792 231.489 117.279C231.582 118.766 234.653 117.789 236.203 118.868C237.756 119.956 237.584 121.624 241.818 124.218L245.306 112.65Z" fill="#363636"/>
<path d="M241.899 124.55C241.817 124.572 241.727 124.558 241.647 124.51C238.894 122.827 237.938 121.488 237.241 120.5C236.845 119.95 236.533 119.505 236.019 119.144C235.399 118.705 234.434 118.635 233.586 118.572C232.433 118.484 231.232 118.4 231.165 117.298C231.148 116.989 231.252 116.705 231.486 116.474C231.557 116.406 231.636 116.335 231.738 116.278C231.534 116.235 231.351 116.158 231.22 116.017C231.027 115.824 230.958 115.539 231.006 115.182C231.095 114.48 231.751 114.035 232.56 113.746C232.227 113.65 231.985 113.49 231.861 113.259C231.768 113.078 231.703 112.772 231.96 112.358C232.705 111.172 234.715 111.281 236.183 111.352C236.605 111.374 237.144 111.403 237.425 111.366C237.287 111.236 237.02 111.054 236.835 110.928C236.239 110.511 235.623 110.09 235.631 109.529C235.631 109.254 235.786 109.015 236.074 108.809C236.95 108.196 238.118 108.78 240.956 110.175C242.134 110.757 243.597 111.477 245.458 112.323C245.621 112.397 245.689 112.594 245.614 112.762C245.539 112.93 245.344 113.003 245.181 112.929C243.308 112.076 241.845 111.357 240.656 110.768C238.138 109.531 237.001 108.958 236.429 109.35C236.329 109.416 236.277 109.48 236.284 109.507C236.286 109.713 236.881 110.13 237.207 110.355C237.696 110.693 238.081 110.961 238.157 111.313C238.189 111.481 238.15 111.639 238.046 111.766C237.784 112.083 237.238 112.065 236.13 112.004C234.818 111.94 233.035 111.848 232.496 112.693C232.426 112.8 232.408 112.884 232.423 112.909C232.618 113.268 234.426 113.226 235.111 113.216C235.514 113.204 235.831 113.196 236.031 113.22C236.201 113.242 236.334 113.392 236.32 113.573C236.307 113.753 236.166 113.89 235.991 113.888C234.627 113.888 231.778 114.225 231.647 115.232C231.633 115.334 231.626 115.464 231.687 115.516C231.843 115.68 232.492 115.601 233.009 115.538C233.892 115.434 234.89 115.319 235.608 115.8C235.734 115.884 235.784 116.047 235.731 116.189C235.679 116.331 235.539 116.428 235.391 116.419C234.335 116.334 232.463 116.394 231.943 116.919C231.859 117.011 231.823 117.099 231.823 117.217C231.854 117.7 232.427 117.789 233.648 117.877C234.584 117.946 235.638 118.021 236.408 118.557C237.014 118.98 237.37 119.483 237.792 120.064C238.498 121.05 239.369 122.275 242.011 123.9C242.169 123.995 242.21 124.199 242.114 124.363C242.053 124.468 241.98 124.527 241.899 124.55Z" fill="#D1D1D1"/>
<path d="M253.862 104.961C255.891 106.331 257.86 107.855 259.319 109.824C260.735 111.735 262.379 115.371 260.37 117.56C258.635 119.449 255.286 117.899 253.444 116.977C250.654 115.579 248.018 113.981 245.155 112.8C244.177 116.71 242.947 120.543 241.667 124.369C246.029 126.222 249.876 129.247 254.7 130.06C261.088 131.133 267.553 128.886 270.892 122.837C273.945 117.319 273.438 110.779 270.614 105.403C267.646 99.7609 262.014 95.2894 256.386 92.7316L253.862 104.961Z" fill="#363636"/>
<path d="M262.154 130.075C259.841 130.708 257.289 130.835 254.654 130.386C251.445 129.849 248.626 128.331 245.915 126.862C244.5 126.099 243.039 125.31 241.549 124.676C241.397 124.61 241.313 124.426 241.37 124.263C242.582 120.633 243.85 116.721 244.854 112.715C244.879 112.62 244.938 112.545 245.022 112.493C245.108 112.449 245.212 112.44 245.299 112.476C247.183 113.257 249.006 114.223 250.757 115.168C251.681 115.662 252.638 116.176 253.599 116.66C255.882 117.805 258.677 118.907 260.137 117.32C262.039 115.248 260.263 111.628 259.065 110.011C257.549 107.97 255.494 106.45 253.685 105.225C253.535 105.129 253.493 104.914 253.599 104.758C253.697 104.603 253.908 104.556 254.06 104.661C255.914 105.913 258.019 107.478 259.591 109.593C261.005 111.495 262.821 115.359 260.614 117.769C258.637 119.929 254.898 118.054 253.31 117.26C252.341 116.778 251.38 116.255 250.447 115.763C248.81 114.885 247.127 113.98 245.39 113.246C244.421 117.037 243.243 120.727 242.091 124.165C243.511 124.788 244.893 125.531 246.231 126.255C248.906 127.695 251.671 129.188 254.78 129.714C261.521 130.848 267.595 128.147 270.627 122.664C273.425 117.608 273.321 111.213 270.35 105.553C267.704 100.512 262.373 95.8493 256.21 93.045C256.048 92.9719 255.98 92.7742 256.055 92.6065C256.13 92.4384 256.325 92.3656 256.488 92.4391C262.868 95.3411 268.176 99.9898 270.928 105.228C274.006 111.085 274.111 117.725 271.2 122.989C269.204 126.578 265.991 129.028 262.154 130.075Z" fill="#D1D1D1"/>
<path fill-rule="evenodd" clip-rule="evenodd" d="M194.392 77.3136C182.255 64.0356 165.772 56.8434 148.939 56.1053C133.233 55.4168 117.24 60.3479 104.202 71.2011C76.3827 94.3587 72.5858 135.705 95.7212 163.551C118.741 191.258 159.751 195.159 187.565 172.384L181.177 167.407C180.988 167.259 181.026 166.962 181.248 166.868L200.318 158.733C200.537 158.64 200.777 158.814 200.755 159.052L198.781 180.511C198.758 180.759 198.47 180.884 198.273 180.73L189.563 173.942L192.01 176.888C161.516 202.272 116.238 198.106 90.8779 167.583C65.5179 137.059 69.6799 91.7372 100.174 66.3532C114.463 54.4587 132.005 49.0514 149.215 49.8062C167.748 50.6187 185.916 58.5792 199.24 73.2772C200.409 74.5666 200.222 76.5607 198.885 77.6739C197.547 78.7875 195.566 78.5983 194.392 77.3136Z" fill="url(#paint4_linear_4609_1048)"/>
<path d="M122.328 49.8705L61.051 47.8691C60.9452 47.8657 60.8633 47.9514 60.8605 48.0536L59.1615 106.708C59.1584 106.817 59.2418 106.901 59.3411 106.904L89.7415 107.897C89.7255 107.767 89.7094 107.637 89.7 107.507L59.5373 106.522L61.2246 48.2629L122.125 50.2519L120.437 108.518L113.037 108.276C113.106 108.408 113.182 108.54 113.25 108.672L120.611 108.912C120.717 108.916 120.799 108.83 120.802 108.727L122.501 50.0669C122.517 49.965 122.434 49.8739 122.328 49.8705Z" fill="#D1D1D1"/>
<path d="M122.211 53.743L60.9849 51.7902C60.8794 51.7868 60.8028 51.6979 60.8057 51.5986C60.8085 51.4989 60.897 51.4154 60.9959 51.4185L122.222 53.3713C122.328 53.3748 122.404 53.4637 122.401 53.563C122.398 53.6626 122.317 53.7465 122.211 53.743Z" fill="#D1D1D1"/>
<path d="M114.042 108.705C113.933 108.702 113.855 108.61 113.858 108.508L115.493 53.3394C115.497 53.2303 115.587 53.1515 115.688 53.1546C115.79 53.1578 115.875 53.2492 115.872 53.3514L114.237 108.514C114.234 108.622 114.143 108.708 114.042 108.705Z" fill="#D1D1D1"/>
<path d="M68.9092 64.0529C68.8021 64.0495 68.724 63.958 68.7271 63.8559L69.079 51.8661C69.0824 51.757 69.1719 51.6779 69.2724 51.6814C69.3794 51.6849 69.4576 51.776 69.4544 51.8781L69.1026 63.8612C69.0994 63.9703 69.0163 64.0564 68.9092 64.0529Z" fill="#D1D1D1"/>
<path d="M107.026 65.0514L89.009 64.4726C88.9031 64.4694 88.8266 64.3799 88.8294 64.2796C88.8326 64.1791 88.9208 64.0949 89.02 64.0984L107.037 64.6769C107.142 64.6804 107.219 64.7699 107.216 64.8702C107.213 64.9704 107.131 65.0549 107.026 65.0514Z" fill="#D1D1D1"/>
<path d="M102.294 68.8224L88.5157 68.3788C88.4102 68.3753 88.3333 68.2858 88.3365 68.1852C88.3393 68.0846 88.4278 68.0005 88.5267 68.0036L102.305 68.4469C102.411 68.4504 102.487 68.5402 102.485 68.6405C102.482 68.741 102.4 68.8255 102.294 68.8224Z" fill="#D1D1D1"/>
<path d="M111.979 69.1298L105.397 68.9167C105.291 68.9132 105.214 68.8234 105.217 68.7222C105.22 68.6213 105.309 68.5365 105.408 68.5396L111.99 68.7524C112.096 68.7559 112.172 68.8461 112.17 68.947C112.166 69.0482 112.085 69.1333 111.979 69.1298Z" fill="#D1D1D1"/>
<path d="M120.427 69.2565L118.694 69.2001L118.326 81.8768L120.058 81.9332L120.427 69.2565Z" fill="#D1D1D1"/>
<path d="M96.5134 86.9548L90.5847 86.7632C90.4789 86.7597 90.4023 86.6695 90.4052 86.5683C90.4083 86.4605 90.4965 86.3823 90.5957 86.3855L96.5244 86.5775C96.6302 86.5809 96.7068 86.6711 96.7039 86.7723C96.7008 86.8735 96.6192 86.9583 96.5134 86.9548Z" fill="#D1D1D1"/>
<path d="M109.783 87.3761L103.854 87.1844C103.749 87.181 103.672 87.0908 103.675 86.9896C103.678 86.8818 103.766 86.8036 103.865 86.8067L109.794 86.9987C109.9 87.0022 109.976 87.0924 109.974 87.1936C109.971 87.2945 109.882 87.3796 109.783 87.3761Z" fill="#D1D1D1"/>
<path d="M107.082 59.0036L91.2556 58.4885C90.5095 58.4642 89.9201 57.821 89.9425 57.0556C89.9646 56.2898 90.5901 55.686 91.3362 55.7103L107.163 56.2255C107.909 56.2497 108.499 56.8929 108.476 57.6587C108.454 58.4242 107.828 59.0279 107.082 59.0036ZM91.3252 56.0965C90.7838 56.0789 90.335 56.512 90.3186 57.0675C90.3025 57.6234 90.7252 58.0846 91.2666 58.1023L107.094 58.6174C107.635 58.6351 108.084 58.2019 108.1 57.6464C108.116 57.0906 107.693 56.6293 107.152 56.6117L91.3252 56.0965Z" fill="#D1D1D1"/>
<path d="M31.1405 116.388L27.3167 116.263L27.2731 117.765L31.097 117.89L31.1405 116.388Z" fill="#D1D1D1"/>
<path d="M73.3594 117.728L69.5357 117.603L69.4922 119.106L73.3159 119.23L73.3594 117.728Z" fill="#D1D1D1"/>
<path d="M81.1845 114.631L21.4138 112.694L21.2905 116.918L81.061 118.856L81.1845 114.631Z" fill="#363636"/>
<path d="M81.049 119.046L21.2848 117.108C21.1792 117.105 21.1025 117.014 21.1055 116.913L21.2288 112.686C21.2319 112.578 21.3201 112.5 21.4192 112.503L81.1901 114.441C81.2957 114.445 81.3725 114.535 81.3694 114.636L81.2462 118.863C81.2431 118.971 81.1549 119.049 81.049 119.046ZM21.4807 116.736L80.8755 118.662L80.9873 114.82L21.5928 112.894L21.4807 116.736Z" fill="#D1D1D1"/>
<path d="M32.4383 113.241L26.284 113.04C26.1784 113.037 26.1017 112.946 26.1046 112.844L26.1408 111.602C26.1439 111.493 26.2322 111.415 26.3312 111.418L32.4856 111.618C32.5911 111.621 32.668 111.713 32.6648 111.814L32.6289 113.057C32.6258 113.158 32.5442 113.244 32.4383 113.241ZM26.4868 112.66L32.2648 112.848L32.2897 111.992L26.5116 111.804L26.4868 112.66Z" fill="#D1D1D1"/>
<path d="M59.8491 114.111L56.1573 113.991C56.0518 113.987 55.975 113.896 55.9781 113.794L56.014 112.55C56.0172 112.442 56.1054 112.363 56.2046 112.366L59.8963 112.486C60.0022 112.49 60.0787 112.581 60.0759 112.683L60.0396 113.927C60.0365 114.028 59.9483 114.114 59.8491 114.111ZM56.3536 113.609L59.6689 113.717L59.6938 112.861L56.3784 112.753L56.3536 113.609Z" fill="#D1D1D1"/>
<path d="M66.2786 114.312L62.5868 114.195C62.481 114.191 62.4045 114.1 62.4073 113.999L62.4445 112.754C62.4476 112.646 62.5361 112.567 62.635 112.57L66.3271 112.687C66.4326 112.69 66.5091 112.782 66.5063 112.883L66.4691 114.127C66.4726 114.23 66.3841 114.315 66.2786 114.312ZM62.7897 113.813L66.105 113.918L66.1305 113.062L62.8152 112.957L62.7897 113.813Z" fill="#D1D1D1"/>
<path d="M47.999 113.734L34.8267 113.307C34.7212 113.303 34.6443 113.213 34.6475 113.111L34.6834 111.873C34.6865 111.764 34.7751 111.686 34.874 111.689L48.0463 112.116C48.1518 112.12 48.2283 112.21 48.2255 112.312L48.1893 113.551C48.193 113.652 48.1045 113.738 47.999 113.734ZM35.0296 112.927L47.8255 113.342L47.8504 112.489L35.0544 112.074L35.0296 112.927Z" fill="#D1D1D1"/>
<path d="M85.2652 64.4291L26.8981 62.5229L25.5968 107.446L83.9637 109.352L85.2652 64.4291Z" fill="#363636"/>
<path d="M56.1054 63.4495C56.061 63.3937 56.0229 63.3379 55.9782 63.2821L52.9523 63.1831L52.8883 63.5693L56.2774 63.68C56.2204 63.5964 56.1627 63.5264 56.1054 63.4495ZM85.2772 64.2389L26.9036 62.3325C26.7979 62.329 26.7161 62.4148 26.7131 62.5169L25.4118 107.44C25.4087 107.549 25.4922 107.633 25.5913 107.636L83.9584 109.542C84.0639 109.546 84.1458 109.46 84.149 109.358L85.4501 64.435C85.4599 64.3266 85.3764 64.2421 85.2772 64.2389ZM83.7842 109.156L25.7939 107.262L27.0839 62.7266L85.0744 64.6204L83.7842 109.156Z" fill="#D1D1D1"/>
<path d="M28.6691 103.318L29.7561 65.7954L81.9797 67.501L80.8928 105.024L28.6691 103.318Z" stroke="url(#paint5_linear_4609_1048)" stroke-width="3"/>
<path d="M63.1371 86.0251L44.8563 85.4381C44.7505 85.4346 44.6739 85.3451 44.6768 85.2448C44.6799 85.138 44.7681 85.0604 44.8673 85.0636L63.1481 85.6506C63.2536 85.6541 63.3305 85.7436 63.3273 85.8439C63.3245 85.9441 63.236 86.0283 63.1371 86.0251Z" fill="#D1D1D1"/>
<path d="M63.2483 82.2986L44.9672 81.7115C44.8616 81.7081 44.7848 81.6185 44.7879 81.5183C44.7911 81.4114 44.8793 81.3339 44.9782 81.337L63.2593 81.924C63.3648 81.9275 63.4413 82.017 63.4385 82.1173C63.4357 82.2176 63.3472 82.3017 63.2483 82.2986Z" fill="#D1D1D1"/>
<path d="M42.1627 82.5014C42.7321 82.52 43.2074 82.0597 43.2244 81.4733C43.2411 80.8869 42.7935 80.3963 42.2241 80.3777C41.6549 80.3591 41.1796 80.8194 41.1626 81.4058C41.1456 81.9922 41.5935 82.4828 42.1627 82.5014Z" fill="#D1D1D1"/>
<path d="M42.0555 86.0916C42.625 86.1102 43.1003 85.6499 43.1173 85.0635C43.1343 84.4771 42.6864 83.9866 42.1173 83.968C41.5478 83.9494 41.0725 84.4096 41.0555 84.996C41.0385 85.5824 41.4864 86.073 42.0555 86.0916Z" fill="#D1D1D1"/>
<path d="M69.3646 72.413L41.734 71.5167L41.6682 73.7662L69.2991 74.6625L69.3646 72.413Z" fill="#D1D1D1"/>
<path d="M63.6568 98.3932C63.6105 98.392 63.5648 98.3699 63.5327 98.3415L59.8302 94.644C59.753 94.5668 59.7565 94.4441 59.8248 94.3716C59.8998 94.2922 60.0189 94.296 60.0897 94.3666L63.6249 97.8951L68.4723 90.1442C68.5277 90.0575 68.6411 90.0269 68.7318 90.0846C68.8163 90.1416 68.8459 90.2652 68.7904 90.3519L63.8183 98.2964C63.7906 98.3431 63.7368 98.3756 63.6835 98.3806C63.67 98.3939 63.6634 98.3935 63.6568 98.3932Z" fill="#8A6B24"/>
<path d="M122.114 116.793C120.213 116.186 115.874 111.854 113.726 109.502C110.841 106.342 108.399 98.8693 105.004 97.7706C101.61 96.6718 99.0668 97.2359 99.0668 97.2359C99.0668 97.2359 95.9581 94.9542 91.8213 96.1816C91.8213 96.1816 88.1544 94.9038 83.6752 96.3178L84.5786 102.806C84.5786 102.806 89.0187 104.109 89.3532 106.035C89.6877 107.96 89.647 111.645 89.647 111.645L85.2498 113.654L80.4087 109.292L78.1787 119.378L78.2653 120.948C78.2653 120.948 83.6529 128.83 90.8912 134.919C95.0239 138.392 100.27 142.243 104.374 144.421L122.114 116.793Z" fill="#363636"/>
<path d="M94.0097 125.181C87.1367 117.244 80.2569 109.314 73.3839 101.378C73.2942 101.273 73.1918 101.147 73.0897 101.007C73.0198 100.91 72.9433 100.805 72.8671 100.693C71.1886 98.2409 68.6219 92.5316 69.8267 91.3673C71.3036 89.9329 76.1774 93.643 78.2833 95.7285C78.38 95.8202 78.47 95.912 78.5535 96.0031C78.6757 96.1298 78.7784 96.2421 78.8748 96.3474C79.1825 96.7049 79.4968 97.0627 79.8046 97.4202C81.3627 99.2151 82.9142 101.003 84.4658 102.798C89.4795 108.582 94.4868 114.366 99.5005 120.151C102.661 123.804 97.1773 128.827 94.0097 125.181Z" fill="#D1D1D1"/>
<path d="M94.1474 126.263C90.8522 122.456 87.5503 118.649 84.2551 114.842L90.6087 109.024C93.9039 112.831 97.2057 116.638 100.501 120.444C104.162 124.665 97.8082 130.483 94.1474 126.263Z" fill="#D1D1D1"/>
<path d="M97.0787 121.926C97.0258 121.924 96.9801 121.902 96.9417 121.86C96.8709 121.783 96.8809 121.66 96.9559 121.588L101.185 117.719L90.9466 105.9C90.8757 105.823 90.8858 105.7 90.9608 105.628C91.0357 105.555 91.1545 105.566 91.2253 105.643L101.593 117.603C101.663 117.68 101.653 117.803 101.578 117.875L97.2126 121.876C97.172 121.909 97.125 121.928 97.0787 121.926Z" fill="#D1D1D1"/>
<path d="M78.3233 95.7365L72.908 100.7C72.9842 100.812 73.0608 100.917 73.1307 101.014C73.1376 101.008 73.1376 101.008 73.1442 101.001L78.58 96.0174L78.5869 96.0107L78.3233 95.7365Z" fill="#363636"/>
<path d="M72.806 94.876C72.7531 94.8741 72.7074 94.8521 72.669 94.8101L68.5851 90.0918C68.5145 90.0146 68.5243 89.8922 68.5993 89.8197C68.6742 89.7475 68.793 89.7582 68.8635 89.8355L72.9477 94.5538C73.0183 94.6311 73.0082 94.7534 72.9332 94.8256C72.8992 94.8653 72.8523 94.8776 72.806 94.876Z" fill="#D1D1D1"/>
<path d="M84.2706 115.031C84.2176 115.03 84.172 115.008 84.1332 114.966C84.0627 114.889 84.0727 114.766 84.1477 114.694L90.5003 108.877C90.5753 108.804 90.694 108.815 90.7646 108.892C90.8351 108.97 90.8251 109.092 90.7504 109.164L84.3975 114.981C84.3635 115.021 84.3169 115.033 84.2706 115.031Z" fill="#363636"/>
<path d="M68.7136 90.5042C69.0021 90.514 69.2427 90.281 69.2509 89.9843C69.2594 89.6876 69.0323 89.4392 68.7438 89.4297C68.4553 89.42 68.2147 89.6526 68.2062 89.9493C68.1977 90.246 68.4251 90.4944 68.7136 90.5042Z" fill="#8A6B24"/>
<path d="M84.8056 96.1942L84.6192 102.814C84.5729 102.805 84.5332 102.804 84.4872 102.796C82.935 101 81.3763 99.2047 79.8241 97.4162C79.9854 97.333 80.1665 97.2573 80.3668 97.1961C81.5967 96.7948 83.2686 96.4559 84.8056 96.1942Z" fill="#363636"/>
<path d="M104.236 144.408C104.203 144.407 104.17 144.399 104.138 144.378C104.053 144.32 104.03 144.197 104.086 144.11L121.784 117.05C121.84 116.963 121.96 116.94 122.044 116.997C122.129 117.055 122.152 117.178 122.096 117.265L104.398 144.325C104.356 144.385 104.296 144.41 104.236 144.408Z" fill="#D1D1D1"/>
<path d="M126.948 122.976C126.908 122.988 126.861 122.987 126.815 122.965C126.724 122.921 126.68 122.803 126.73 122.703L127.978 120.047C128.021 119.953 128.135 119.909 128.233 119.96C128.324 120.004 128.367 120.121 128.318 120.215L127.07 122.871C127.042 122.924 127.001 122.964 126.948 122.976Z" fill="#D1D1D1"/>
<path d="M78.8232 121.523C79.4629 121.177 83.0589 118.265 83.6976 117.939C83.6425 117.788 81.5609 110.735 81.5187 110.577C79.6191 102.951 78.5268 101.484 78.0181 100.717C76.8228 99.6077 75.8606 99.1733 74.7683 100.063C73.9944 100.698 72.4586 103.91 73.4904 109.395C73.8023 111.033 76.699 119.272 78.8232 121.523Z" fill="#363636"/>
<path d="M119.077 148.468C98.3572 147.569 81.2333 125.506 79.3514 122.993C72.8126 114.279 71.6013 102.769 74.2961 100.157C75.0514 99.427 75.8461 99.1884 76.6395 99.4532C78.6462 100.112 80.6538 104.747 81.8453 110.838C81.8689 110.941 81.7999 111.048 81.7001 111.065C81.5999 111.089 81.4963 111.017 81.4793 110.914C80.3341 105.05 78.3658 100.43 76.523 99.8236C75.8672 99.6042 75.1995 99.8132 74.5462 100.445C71.9402 102.964 73.2186 114.197 79.6361 122.757C81.5118 125.257 98.5336 147.187 119.074 148.08C119.18 148.084 119.257 148.175 119.254 148.283C119.264 148.386 119.182 148.472 119.077 148.468Z" fill="#D1D1D1"/>
<path d="M77.3459 104.997C77.2533 104.993 77.1696 104.916 77.1658 104.82C77.0398 103.183 76.7154 102.253 76.1298 101.887C75.6294 101.571 74.8596 101.64 73.7944 102.101C73.7005 102.146 73.5896 102.094 73.5458 101.997C73.5024 101.901 73.5518 101.786 73.6457 101.742C74.8514 101.225 75.7005 101.158 76.3248 101.553C77.0269 101.998 77.4026 102.991 77.5374 104.785C77.5475 104.894 77.4653 104.987 77.3661 104.99C77.3658 104.997 77.3526 104.997 77.3459 104.997Z" fill="#D1D1D1"/>
<path d="M101.328 105.103C101.308 105.082 99.1692 102.835 95.2746 98.5651C91.3161 94.2247 87.813 95.0725 81.4597 96.5997C80.8868 96.7368 80.2808 96.8862 79.655 97.0284C78.4231 97.3204 77.4486 98.5723 77.5273 99.7713C77.5421 99.9419 77.5755 100.167 77.681 100.415C77.7481 100.384 77.8206 100.393 77.8779 100.47C78.145 100.845 78.4193 101.208 78.6934 101.577C79.3362 102 80.3315 102.36 81.8553 102.506C89.3037 103.191 89.6149 107.395 89.5393 108.664C89.5299 108.772 89.613 108.863 89.7122 108.867L89.7188 108.867C89.8181 108.87 89.9063 108.792 89.9091 108.69C89.9935 107.333 89.6706 102.836 81.8859 102.12C79.4383 101.895 77.9812 101.024 77.8918 99.7426C77.8212 98.7274 78.665 97.6546 79.7306 97.4049C80.3564 97.2561 80.9624 97.1132 81.535 96.9761C87.955 95.4306 91.1784 94.6484 94.9895 98.8274C98.8838 103.097 101.023 105.351 101.049 105.372C101.119 105.449 101.238 105.453 101.313 105.374C101.401 105.302 101.398 105.18 101.328 105.103Z" fill="#D1D1D1"/>
<path d="M104.814 102.808C104.141 102.078 103.545 101.372 102.963 100.68C101.811 99.3094 100.813 98.134 99.7478 97.4256C96.3461 95.1576 93.7498 95.5258 92.1958 95.7455C91.8707 95.789 91.5917 95.8338 91.3598 95.8398C91.3268 95.8385 91.2934 95.8511 91.2663 95.8707C91.3957 95.9769 91.5249 96.0898 91.6471 96.2096C91.8263 96.1885 92.0254 96.1611 92.2443 96.1346C93.7451 95.9199 96.2554 95.562 99.5402 97.7516C100.559 98.4313 101.539 99.5925 102.678 100.935C103.26 101.628 103.862 102.334 104.543 103.071C104.581 103.106 104.627 103.128 104.673 103.129C104.719 103.131 104.773 103.112 104.807 103.079C104.881 103.007 104.885 102.885 104.814 102.808Z" fill="#D1D1D1"/>
<path d="M136.127 122.75C136.114 122.749 136.107 122.749 136.094 122.749C122.32 119.751 113.656 111.253 110.141 104.294C106.776 97.6334 104.933 97.5375 100.468 97.2995C99.8933 97.2664 99.2857 97.2327 98.6189 97.1829C98.5134 97.1728 98.4366 97.0817 98.4463 96.9732C98.4561 96.8647 98.5377 96.7859 98.6498 96.7963C99.31 96.8458 99.9176 96.8796 100.492 96.9057C104.971 97.1444 107.018 97.2538 110.477 104.108C113.954 110.984 122.529 119.39 136.171 122.364C136.27 122.387 136.34 122.492 136.317 122.593C136.301 122.688 136.22 122.753 136.127 122.75Z" fill="#D1D1D1"/>
<path d="M103.19 107.986C103.144 107.984 103.092 107.962 103.06 107.927L102 106.768C101.929 106.691 101.933 106.568 102.008 106.496C102.083 106.423 102.202 106.428 102.272 106.505L103.332 107.663C103.402 107.741 103.399 107.863 103.324 107.935C103.283 107.975 103.237 107.987 103.19 107.986Z" fill="#D1D1D1"/>
<path d="M106.838 106.206C106.792 106.204 106.752 106.189 106.72 106.154L105.579 105.081C105.502 105.011 105.498 104.888 105.567 104.809C105.636 104.729 105.755 104.726 105.832 104.797L106.973 105.87C107.051 105.941 107.054 106.063 106.985 106.143C106.945 106.182 106.891 106.207 106.838 106.206Z" fill="#D1D1D1"/>
<path d="M55.3085 40.7475C54.4181 39.4306 52.4174 39.9083 52.4174 39.9083C50.3676 39.7714 48.9162 41.9024 48.2161 43.241C47.5156 44.5796 45.7228 49.4235 45.7228 49.4235L44.7924 49.5285L47.6035 56.0315L50.7963 50.4106L49.2816 50.0874L50.9169 46.1238C50.9169 46.1238 52.2788 46.6942 52.9649 46.3288C53.6509 45.9637 54.3214 45.2165 54.3214 45.2165L55.1759 45.4495C55.1762 45.4425 56.199 42.0647 55.3085 40.7475Z" fill="#363636"/>
<path d="M51.6823 41.0949C52.4247 41.5142 54.4748 41.9975 55.7224 41.611C58.1981 41.0757 55.797 38.5005 54.1409 38.819C53.9655 38.7111 53.7762 38.6232 53.5863 38.5488C52.8546 38.4699 52.3752 38.3451 51.5812 38.3524C51.4684 38.3621 51.2086 38.435 50.9884 38.4958C50.7796 38.6314 50.5705 38.7739 50.3616 38.9164C50.2382 39.0686 50.1216 39.2074 50.0193 39.3196C48.9679 40.4874 48.5543 41.5476 48.6192 42.5284C48.7424 42.6142 48.8791 42.6936 49.023 42.7529C49.3566 42.8863 51.0788 42.7945 50.7698 42.2608C50.4161 41.6643 50.9664 40.6904 51.6823 41.0949Z" fill="#D1D1D1"/>
<path d="M47.5571 56.2888C47.4844 56.2863 47.4192 56.2431 47.388 56.174L44.5712 49.6293C44.5463 49.5669 44.5482 49.4991 44.5829 49.4455C44.6175 49.3923 44.678 49.3604 44.7445 49.3626C45.009 49.3714 45.2739 49.3737 45.5388 49.3891L48.4069 42.3674C48.3962 41.3387 48.8904 40.2652 49.869 39.1674C50.806 38.1295 52.0539 37.8101 53.3059 38.2881C54.7154 38.8259 55.814 40.2793 55.8676 41.6776C55.958 44.1055 55.2978 45.4321 55.2698 45.4854C55.2345 45.5592 55.1539 45.5973 55.0748 45.5879L54.2833 45.4592C53.9671 45.8641 52.653 47.3458 50.9764 46.4111L49.5474 49.8573L49.6331 49.874C49.989 49.9402 50.3314 50.02 50.6804 50.0997C50.7396 50.1152 50.7849 50.1508 50.8098 50.2063C50.8347 50.2615 50.8331 50.3226 50.8051 50.3762L47.7323 56.1857C47.6973 56.2526 47.6299 56.2913 47.5571 56.2888ZM45.038 49.7539L47.5814 55.663L50.3531 50.4226C50.0898 50.3592 49.8331 50.3028 49.5695 50.2533L49.2463 50.1946C49.1871 50.1858 49.1417 50.1502 49.1102 50.0947C49.0851 50.0395 49.0803 49.978 49.1017 49.9241L50.7153 46.0412C50.7367 45.9873 50.7777 45.9479 50.8309 45.9363C50.8845 45.9177 50.9437 45.9262 50.9893 45.9552C52.7003 47.082 53.9923 45.2042 54.0474 45.1244C54.089 45.0645 54.156 45.0327 54.2288 45.0418L54.9873 45.1629C55.1438 44.7865 55.5555 43.5742 55.4899 41.6719C55.4455 40.4307 54.4487 39.1236 53.1771 38.6311C52.5346 38.3849 51.2823 38.1591 50.1468 39.4152C49.223 40.4534 48.7641 41.4531 48.7843 42.3869C48.7833 42.414 48.7827 42.4412 48.7685 42.468L45.8424 49.6583C45.8138 49.7321 45.7527 49.7848 45.6604 49.7747C45.455 49.7677 45.2434 49.7608 45.038 49.7539Z" fill="#D1D1D1"/>
<path d="M77.6341 54.203C75.9771 54.2837 72.9984 56.6344 71.8015 59.1808C70.6043 61.7273 70.3224 62.3304 70.3224 62.3304L76.9311 64.1038L78.0949 64.1429L78.6502 61.5882C78.6502 61.5882 79.5976 62.0287 80.0481 60.1377C80.4985 58.247 80.5466 56.5467 79.7079 55.7699C78.8694 54.9931 78.4345 55.4007 78.4345 55.4007C78.4345 55.4007 79.0641 55.1359 79.0735 54.7957C79.0833 54.4558 77.6341 54.203 77.6341 54.203Z" fill="#363636"/>
<path d="M53.7113 58.5373C53.6795 58.4954 53.6342 58.4667 53.5882 58.4585L33.5281 55.5047C33.4755 55.4962 33.4223 55.5148 33.3817 55.5476C33.3407 55.5867 33.3193 55.6406 33.3181 55.6949C33.3278 58.6158 33.3492 64.1797 33.3445 64.3494C33.3429 64.4036 33.3615 64.4518 33.3999 64.4937C33.4447 64.5429 33.5411 64.6479 39.15 64.8358C41.9712 64.9301 46.187 65.0439 52.4918 65.187C52.5844 65.1902 52.6656 65.1183 52.6814 65.0303L53.7535 58.688C53.7485 58.6335 53.7369 58.579 53.7113 58.5373Z" fill="#D1D1D1"/>
<path d="M66.9148 63.989L56.3001 63.6337C56.2428 63.5567 56.1854 63.4801 56.1347 63.4035C56.09 63.3477 56.0519 63.2919 56.0072 63.2361C55.6179 62.7266 55.1949 62.2499 54.7044 61.8117C54.5111 61.6352 54.2695 61.5185 53.9999 61.4548C53.7766 61.4 53.5328 61.3713 53.2814 61.3628C52.865 61.3489 52.4143 61.3883 51.9696 61.4346C51.9167 61.4397 51.8634 61.4447 51.8039 61.4495C51.7639 61.4548 51.7308 61.4605 51.6911 61.4592C51.5982 61.4696 51.5053 61.48 51.4058 61.4904C51.0344 61.5257 50.6631 61.5541 50.3128 61.5421C50.2004 61.5384 50.0946 61.5349 49.989 61.5245C49.7383 61.5027 49.5015 61.4539 49.2788 61.3716C49.2265 61.3495 49.1815 61.3073 49.1635 61.2455C49.012 60.7439 48.8674 60.2426 48.7232 59.7344C48.6993 59.6452 48.675 59.5626 48.6444 59.4733C48.6381 59.4595 48.6388 59.4459 48.6325 59.432C48.6142 59.3769 48.6026 59.3223 48.584 59.2741C48.578 59.2533 48.5717 59.2397 48.5657 59.2189C48.5175 59.0474 48.4693 58.8825 48.4211 58.7107C48.3191 58.3469 48.2101 57.9827 48.1011 57.6255C47.9137 57.0073 47.7131 56.3815 47.4854 55.7755C47.4671 55.7204 47.4687 55.6661 47.4967 55.6125L47.5036 55.5924L50.4335 50.2359C50.4615 50.1826 50.522 50.1438 50.5818 50.1388C50.6017 50.1397 50.6215 50.1404 50.6413 50.141C55.9964 51.4358 60.6309 54.5835 63.7009 59.0187C63.7834 59.1439 63.8722 59.2829 63.967 59.4355C64.0241 59.526 64.0741 59.6228 64.1311 59.7199C64.1878 59.817 64.2445 59.921 64.3009 60.0247C64.3954 60.1981 64.4959 60.3851 64.5967 60.5721C64.7913 60.9321 64.9989 61.3202 65.2131 61.6944C65.6102 62.388 66.0411 63.0621 66.5092 63.5879C66.6506 63.7355 66.7791 63.8688 66.9148 63.989Z" fill="#D1D1D1"/>
<path d="M76.9831 63.92C77.2241 64.0571 77.465 64.1946 77.6994 64.3317L69.0317 64.0413C69.1275 63.9288 69.2239 63.8027 69.3136 63.663C69.7218 63.0369 70.0566 62.1973 70.3348 61.4854C70.4982 61.0825 70.6343 60.7263 70.7675 60.4586C70.7675 60.4586 70.7675 60.4586 70.7675 60.452C70.8025 60.3848 70.8308 60.3246 70.8658 60.2578C70.9008 60.1909 70.9288 60.1307 70.9638 60.0705C71.4113 59.2145 71.9597 58.3072 72.6095 57.5669C72.9922 57.1372 73.4063 56.7633 73.864 56.4928C73.7481 56.6183 73.6319 56.7438 73.5093 56.8689C73.1415 57.2444 72.7477 57.5918 72.5414 58.0953C72.5134 58.1555 72.5251 58.2104 72.5503 58.2589C72.131 58.8031 71.7153 59.4696 71.2957 60.2653C71.2397 60.3725 71.1839 60.4794 71.1279 60.5863C72.3906 61.3297 73.6873 62.0535 74.9377 62.7626C75.6218 63.146 76.2993 63.5293 76.9831 63.92Z" fill="#D1D1D1"/>
<path d="M78.8736 61.5481C78.8641 61.6433 78.8547 61.7382 78.8455 61.8265C78.8021 62.1931 78.7195 62.538 78.6112 62.8476C78.4811 63.2181 78.3513 63.5885 78.2282 63.9523C78.1847 64.0803 78.1413 64.2083 78.0981 64.3367L77.7069 64.3234C77.7142 64.3032 77.7214 64.2761 77.7286 64.256C77.7649 64.1481 77.8011 64.0472 77.8373 63.9394C77.9749 63.5283 78.1126 63.1172 78.2635 62.7067C78.3567 62.4576 78.4178 62.1802 78.4657 61.8889C78.482 61.7804 78.4918 61.6647 78.5019 61.5494C78.6209 61.5601 78.7473 61.5576 78.8736 61.5481Z" fill="#D1D1D1"/>
<path d="M50.0152 61.5674C49.8775 61.0595 49.6533 60.5693 49.361 60.138C49.2593 59.9917 49.1509 59.8523 49.0353 59.7259C48.9071 59.579 48.7654 59.445 48.6104 59.3173C48.5459 59.2609 48.481 59.2111 48.4098 59.1613C47.9758 58.8406 47.4598 58.5991 46.8683 58.4705C47.4085 58.543 47.9351 58.6354 48.4476 58.7546C48.7632 58.8261 49.0719 58.9046 49.3736 58.9894C49.4391 59.0121 49.5128 58.9872 49.5604 58.9412C49.6079 58.8886 49.623 58.8211 49.6054 58.7524C49.5147 58.4503 49.4306 58.1483 49.3465 57.8463C49.3223 57.7706 49.3046 57.6886 49.2804 57.613C49.0155 56.6864 48.7446 55.7321 48.4403 54.8042C48.4158 54.7286 48.3512 54.6787 48.2784 54.6765C48.1994 54.6671 48.132 54.7055 48.097 54.7724L47.5868 55.7409L47.5436 55.6375L44.9303 49.5673C44.8991 49.4982 44.8207 49.4616 44.7615 49.4528C40.4316 49.3554 35.8718 50.1477 30.8157 51.8754C30.3281 52.0425 29.8208 52.2023 29.2934 52.3751C26.7503 53.1872 23.8669 54.1037 22.0294 55.9323C20.675 57.2807 20.0533 59.1499 20.3238 61.0488C20.589 62.9004 21.6759 64.4663 23.3113 65.3437C24.3733 65.9163 25.5112 66.1448 26.6588 66.265C26.7841 66.276 26.9093 66.2936 27.0349 66.2977C27.4506 66.3321 27.8732 66.3598 28.2893 66.3807L28.5535 66.3964C30.4948 66.5156 32.4428 66.6285 34.3845 66.7344C38.0832 66.933 41.895 67.1014 46.0513 67.2543L46.0645 67.2546C46.7716 67.2782 47.3836 67.1562 47.8995 66.9217C48.0602 66.8523 48.2148 66.7691 48.3562 66.6786C48.9622 66.2981 49.4142 65.7555 49.716 65.1401C49.9755 64.6186 50.1305 64.0458 50.1865 63.4698C50.1963 63.3547 50.2061 63.2462 50.2092 63.1375L50.2105 63.0899C50.2117 62.5731 50.1472 62.0545 50.0152 61.5674Z" fill="#D1D1D1"/>
<path d="M47.5748 59.4614C47.555 59.4607 47.5354 59.4601 47.5159 59.4459C45.5546 58.6987 34.187 58.484 34.0746 58.4872C33.9625 58.4768 33.8853 58.4005 33.8885 58.2936C33.8913 58.1867 33.9732 58.1022 34.0787 58.1057C34.5477 58.1145 45.6251 58.3194 47.645 59.089C47.7433 59.1256 47.7928 59.2344 47.7572 59.3337C47.7282 59.4197 47.6542 59.4639 47.5748 59.4614Z" fill="#363636"/>
<path d="M70.9348 60.7272C70.9083 60.7263 70.8822 60.7184 70.856 60.7039C70.7647 60.6534 70.7285 60.5365 70.7773 60.4428C72.9301 56.1466 76.4379 53.7805 77.9126 54.0409C78.8213 54.2008 79.3035 54.4684 79.3328 54.8301C79.3636 55.151 79.0515 55.4262 78.3891 55.6832C78.2887 55.7207 78.1844 55.6693 78.1475 55.5662C78.1107 55.4628 78.1601 55.3556 78.2603 55.3181C78.9627 55.0492 78.9614 54.8654 78.9614 54.8654C78.9567 54.7973 78.7378 54.5788 77.849 54.4199C76.5192 54.1847 73.1572 56.542 71.1165 60.6175C71.0749 60.6909 71.0075 60.7294 70.9348 60.7272Z" fill="#D1D1D1"/>
<path d="M80.5111 57.7302C80.5092 57.5596 80.5136 57.4032 80.5174 57.267C80.5517 56.0492 80.1306 55.4836 79.0282 55.3442C78.9028 55.3266 78.7642 55.3152 78.6187 55.3102C78.5129 55.3067 78.4307 55.3924 78.4279 55.4946C78.4263 55.5488 78.4449 55.5974 78.477 55.6324C78.5091 55.6674 78.5548 55.6894 78.608 55.6913C79.7989 55.731 80.1725 56.1113 80.1403 57.2478C80.1366 57.3837 80.1318 57.547 80.1337 57.7176C80.1334 57.7311 80.1328 57.7516 80.1325 57.7652C80.1126 57.7576 80.0928 57.757 80.0663 57.763C78.9101 57.8875 76.9085 57.9364 76.4826 57.5271C76.3796 57.4281 76.4007 57.3812 76.4083 57.3544C76.5295 57.0382 77.6956 56.5665 79.2521 56.5643C79.3583 56.5608 79.4402 56.4751 79.4364 56.3729C79.4329 56.2639 79.3491 56.179 79.2496 56.1825C77.8716 56.191 76.2977 56.5741 76.0543 57.2198C76.0111 57.3408 75.9714 57.5779 76.2228 57.8181C76.4807 58.065 77.0407 58.1791 77.6556 58.2201C77.1009 58.3853 76.6117 58.5937 76.419 58.8529C76.3084 59.0061 76.298 59.1416 76.3088 59.2375C76.3642 59.6139 76.6691 59.8422 77.0294 59.9834C76.7154 60.0752 76.4335 60.2155 76.2886 60.422C76.1642 60.5947 76.0984 60.8173 76.1985 61.0251C76.493 61.6206 77.1488 61.8605 77.7696 61.922C77.9945 61.9296 78.2269 61.917 78.4461 61.8905C78.579 61.8744 78.7123 61.8517 78.8389 61.8218C78.9787 61.7924 79.1054 61.7625 79.2323 61.7259C80.4682 61.3586 80.4966 59.1735 80.5111 57.7302ZM79.1369 61.3549C78.4086 61.5759 76.825 61.591 76.5727 60.9081C76.5358 60.8047 76.5516 60.7237 76.6067 60.6505C76.8341 60.3312 77.7519 60.1984 78.3551 60.1846C78.4212 60.1868 78.4679 60.1817 78.4943 60.1824C78.5938 60.1789 78.6757 60.0931 78.6789 59.9844C78.6751 59.8819 78.6049 59.7911 78.4921 59.7943C78.4723 59.7936 78.426 59.7921 78.3727 59.7971C77.8628 59.7936 76.773 59.682 76.7012 59.1757C76.7015 59.1621 76.6958 59.1347 76.7371 59.0814C77.0741 58.6366 78.992 58.2718 80.1218 58.1394C80.1284 58.1394 80.135 58.1397 80.1416 58.14C80.106 59.3989 79.992 61.0976 79.1369 61.3549Z" fill="#D1D1D1"/>
<path d="M48.2671 59.2968C53.0064 61.8511 56.1495 65.3868 55.7236 66.4071C55.2978 67.4273 53.3695 64.6945 53.3695 64.6945C53.3695 64.6945 54.277 67.7195 53.6171 68.1196C52.9573 68.5194 51.9298 65.7626 51.9298 65.7626C51.9298 65.7626 53.2347 68.5288 51.853 68.4825C51.1191 68.4579 50.9821 67.4459 49.8759 67.0073C48.7697 66.5688 47.4777 67.0972 46.0166 67.0414L48.2671 59.2968Z" fill="#363636"/>
<path d="M51.8543 68.673C51.4111 68.6582 51.1484 68.3568 50.8732 68.0276C50.6168 67.7265 50.3223 67.3832 49.8117 67.1821C49.1833 66.9298 48.486 67.0153 47.6756 67.1174C47.1445 67.1814 46.6063 67.2587 46.0113 67.2319C45.9055 67.2284 45.8286 67.1373 45.8318 67.0285C45.8349 66.9198 45.9231 66.8409 46.0223 66.8441C46.0289 66.8444 46.0355 66.8447 46.0422 66.845C46.5908 66.8633 47.1156 66.7993 47.6271 66.7347C48.4504 66.6329 49.2274 66.5364 49.9475 66.8192C50.5497 67.0572 50.8892 67.4563 51.1582 67.7719C51.4272 68.0938 51.601 68.2697 51.8653 68.2786C52.0968 68.2865 52.1787 68.2007 52.2269 68.1342C52.414 67.8344 52.2555 67.1212 52.0348 66.4945C51.8977 66.1902 51.8058 65.9355 51.7626 65.8251C51.7255 65.7287 51.7683 65.6212 51.8622 65.5767C51.956 65.5389 52.0609 65.5764 52.1044 65.6732C52.1355 65.7422 52.254 65.9982 52.3768 66.3359C52.7006 67.0544 53.1349 67.8448 53.443 67.9573C53.489 67.9724 53.5154 67.9665 53.5359 67.9535C53.8521 67.7599 53.62 66.1461 53.2027 64.7504C53.1787 64.6612 53.2146 64.5603 53.2949 64.5221C53.3759 64.477 53.4742 64.5076 53.5315 64.5845C54.0915 65.386 55.0597 66.4869 55.4512 66.4456C55.4711 66.4462 55.5177 66.4409 55.5602 66.3334C55.8941 65.5278 53.0137 62.0693 48.1893 59.4712C48.0983 59.4204 48.0617 59.3034 48.1106 59.2098C48.1597 59.1162 48.2734 59.0793 48.3644 59.13C53.0253 61.6478 56.4106 65.2797 55.9133 66.4881C55.8068 66.7432 55.6326 66.8192 55.4997 66.8349C55.015 66.8936 54.3205 66.1763 53.815 65.5672C54.0509 66.589 54.2632 67.9712 53.7312 68.2937C53.6102 68.3643 53.4707 68.3801 53.3268 68.3278C53.1104 68.2524 52.8921 68.0137 52.6886 67.7142C52.6949 67.9595 52.6556 68.1827 52.545 68.3558C52.4414 68.509 52.2442 68.6862 51.8543 68.673Z" fill="#D1D1D1"/>
<path d="M85.5767 55.0261L83.5278 54.9593C81.2805 54.8858 80.9501 54.8751 80.9501 54.8751C80.9501 54.8751 80.7473 59.5976 81.0311 60.0702C81.3152 60.5427 82.415 61.3965 83.3483 61.1544C84.2815 60.9122 85.2948 60.1956 85.4504 59.3832C85.6063 58.5704 85.5767 55.0261 85.5767 55.0261Z" fill="#363636"/>
<path d="M81.2113 60.277L78.4777 60.1881C78.3721 60.1846 78.2953 60.0941 78.2984 59.9926C78.3013 59.8908 78.3898 59.8056 78.4887 59.8088L81.2223 59.8977C81.3278 59.9012 81.4047 59.9917 81.4015 60.0935C81.3987 60.195 81.3168 60.2804 81.2113 60.277Z" fill="#D1D1D1"/>
<path d="M76.928 56.9732C76.8291 56.9701 76.7456 56.8856 76.7484 56.7838C76.7462 56.4026 77.0064 55.6355 78.0429 55.4587C78.7271 55.3449 80.8972 55.5041 80.9895 55.5138C81.095 55.5243 81.1715 55.6151 81.1618 55.7235C81.152 55.8323 81.0569 55.9174 80.9583 55.9007C80.9385 55.9001 78.7422 55.733 78.0977 55.8414C77.1147 56.0066 77.1132 56.7478 77.1185 56.7822C77.122 56.8913 77.0404 56.977 76.9346 56.9802C76.928 56.9732 76.928 56.9732 76.928 56.9732Z" fill="#D1D1D1"/>
<path d="M83.084 61.3773C81.7224 61.3328 80.6515 60.16 80.6922 58.7577L80.8055 54.843C80.8087 54.7342 80.8969 54.6551 80.9961 54.6586L85.5499 54.8071C85.6558 54.8105 85.7326 54.9016 85.7294 55.0038L85.6161 58.9185C85.582 60.3211 84.4453 61.4218 83.084 61.3773ZM81.1766 55.0526L81.0689 58.77C81.0345 59.9545 81.9451 60.9517 83.0951 60.9895C84.2453 61.027 85.2116 60.091 85.246 58.9062L85.354 55.1822L81.1766 55.046V55.0526Z" fill="#D1D1D1"/>
<path d="M89.4278 44.928C89.3705 43.9447 88.6432 43.2328 87.7081 43.0862C85.7257 42.7694 82.4138 44.7193 81.9564 46.8033C81.7196 47.8995 82.2632 48.5442 82.7609 49.4125C83.353 50.4472 83.0097 50.6471 82.6491 51.6714C82.4544 52.2237 82.5366 52.5875 82.5262 53.1733C82.5067 54.3039 83.9074 54.1519 84.223 53.0787C85.2041 52.7836 85.994 52.6869 86.4592 51.707C87.1638 50.224 86.6334 48.6665 87.9131 47.4272C88.6688 46.6954 89.4996 46.1094 89.4278 44.928Z" fill="#363636"/>
<path d="M83.1533 54.1408C83.1137 54.1395 83.074 54.1383 83.0412 54.1304C82.6922 54.0711 82.3297 53.7937 82.3413 53.1603C82.3458 53.0105 82.3429 52.881 82.3401 52.7514C82.3313 52.3696 82.3209 52.042 82.4793 51.5975C82.5517 51.3885 82.6295 51.2138 82.6938 51.0524C82.9357 50.4606 83.028 50.2456 82.6062 49.5025C82.5306 49.3707 82.4547 49.2456 82.3854 49.1274C81.9624 48.4253 81.5583 47.7578 81.7794 46.7565C82.268 44.5099 85.692 42.5637 87.7402 42.8897C88.8004 43.0606 89.5579 43.869 89.6203 44.9068C89.687 46.0336 89.007 46.6654 88.3475 47.2777C88.2524 47.37 88.1503 47.4621 88.0552 47.5545C87.3336 48.2531 87.224 49.0605 87.1065 49.9222C87.0227 50.5259 86.9383 51.1571 86.6426 51.781C86.1985 52.7139 85.4851 52.9087 84.6576 53.1474C84.571 53.1717 84.4775 53.1959 84.3839 53.2271C84.148 53.8394 83.6094 54.1556 83.1533 54.1408ZM87.3528 43.245C85.4624 43.1832 82.5536 44.9213 82.1341 46.8432C81.9505 47.6957 82.279 48.238 82.6891 48.9262C82.765 49.0514 82.8406 49.1762 82.9162 49.3083C83.4324 50.2179 83.2828 50.5877 83.0267 51.2063C82.9628 51.3541 82.8916 51.5291 82.8195 51.7312C82.6897 52.1086 82.6947 52.3882 82.7042 52.7429C82.707 52.8725 82.7095 53.0156 82.7117 53.1657C82.7089 53.4995 82.8418 53.7013 83.0922 53.7436C83.428 53.7956 83.8856 53.5311 84.0397 53.0112C84.0545 52.9503 84.1023 52.8974 84.1691 52.8791C84.296 52.8425 84.4227 52.8056 84.543 52.7687C85.3433 52.5427 85.9169 52.3844 86.2901 51.606C86.5648 51.0357 86.6416 50.4386 86.7244 49.8619C86.8495 48.9735 86.9752 48.0573 87.7856 47.2663C87.8876 47.1673 87.9897 47.0753 88.0848 46.9829C88.7308 46.3769 89.2952 45.8571 89.2363 44.9216C89.1815 44.0679 88.5591 43.4001 87.6766 43.2624C87.5708 43.2589 87.4653 43.2488 87.3528 43.245Z" fill="#D1D1D1"/>
<path d="M54.746 99.055C54.6997 99.0535 54.6474 99.0314 54.6153 98.9964C54.545 98.9191 54.5485 98.7965 54.6235 98.724L55.8002 97.5975C55.8751 97.525 55.9939 97.5288 56.0644 97.606C56.135 97.6833 56.1315 97.8059 56.0566 97.8784L54.8798 99.0049C54.8392 99.0377 54.7923 99.0566 54.746 99.055Z" fill="#8A6B24"/>
<path d="M53.8458 90.7013C53.8127 90.7003 53.78 90.6924 53.7541 90.671L52.527 89.8954C52.436 89.8381 52.413 89.7217 52.4618 89.6278C52.5176 89.5344 52.6306 89.5108 52.7217 89.5616L53.9491 90.3368C54.0398 90.3945 54.0631 90.5108 54.014 90.6048C53.979 90.6716 53.9119 90.7035 53.8458 90.7013Z" fill="#8A6B24"/>
<path d="M73.5742 82.1552C73.5478 82.1542 73.5147 82.1464 73.4889 82.1319C73.3975 82.0811 73.3613 81.9641 73.417 81.8705L74.201 80.39C74.2501 80.296 74.3638 80.2588 74.4549 80.3162C74.5459 80.367 74.5821 80.4839 74.5267 80.5776L73.7424 82.0584C73.7141 82.1186 73.647 82.1574 73.5742 82.1552Z" fill="#8A6B24"/>
</g>
<defs>
<linearGradient id="paint0_linear_4609_1048" x1="35.9546" y1="246.765" x2="86.5561" y2="292.8" gradientUnits="userSpaceOnUse">
<stop stop-color="#AE8B2D"/>
<stop offset="1" stop-color="white" stop-opacity="0"/>
</linearGradient>
<linearGradient id="paint1_linear_4609_1048" x1="302.778" y1="52.1181" x2="286.827" y2="61.629" gradientUnits="userSpaceOnUse">
<stop stop-color="white"/>
<stop offset="1" stop-color="white" stop-opacity="0"/>
</linearGradient>
<linearGradient id="paint2_linear_4609_1048" x1="295.993" y1="39.3666" x2="286.819" y2="44.8342" gradientUnits="userSpaceOnUse">
<stop stop-color="white"/>
<stop offset="1" stop-color="white" stop-opacity="0"/>
</linearGradient>
<linearGradient id="paint3_linear_4609_1048" x1="272.77" y1="67.7599" x2="174.893" y2="150.17" gradientUnits="userSpaceOnUse">
<stop stop-color="#AE8B2D"/>
<stop offset="1" stop-color="#AE8B2D" stop-opacity="0"/>
</linearGradient>
<linearGradient id="paint4_linear_4609_1048" x1="140.415" y1="30.3417" x2="144.675" y2="167.484" gradientUnits="userSpaceOnUse">
<stop stop-color="#AE8B2D" stop-opacity="0.16"/>
<stop offset="0.273958" stop-color="#AE8B2D" stop-opacity="0.16"/>
<stop offset="1" stop-color="#AE8B2D"/>
</linearGradient>
<linearGradient id="paint5_linear_4609_1048" x1="32.1063" y1="69.4403" x2="54.7457" y2="112.655" gradientUnits="userSpaceOnUse">
<stop stop-color="#AE8B2D"/>
<stop offset="1" stop-color="white" stop-opacity="0"/>
</linearGradient>
<clipPath id="clip0_4609_1048">
<rect width="303" height="320" fill="white"/>
</clipPath>
</defs>
</svg>
