<svg width="331" height="320" viewBox="0 0 331 320" fill="none" xmlns="http://www.w3.org/2000/svg">
<path d="M73.4403 266.249C73.4112 266.255 73.3966 266.257 73.3675 266.263C73.2768 266.266 63.8336 266.524 62.4437 255.673C61.0416 244.688 75.4462 241.039 110.277 232.228C119.226 229.962 129.359 227.397 140.941 224.269C141.183 224.19 141.443 224.35 141.507 224.595C141.571 224.84 141.426 225.097 141.18 225.161C129.584 228.292 119.451 230.857 110.502 233.123C76.234 241.79 62.0483 245.396 63.359 255.55C64.6437 265.573 72.9847 265.339 73.3319 265.33C73.5884 265.324 73.8102 265.522 73.8162 265.779C73.8162 266.006 73.6588 266.205 73.4403 266.249Z" fill="#242F40"/>
<path d="M150.745 243.333C146.176 243.84 141.615 244.316 137.141 244.774C107.562 247.86 82.0095 250.533 74.8384 259.387C73.2942 261.289 72.6367 263.453 72.9009 265.826C73.1211 267.829 74.2071 269.612 76.13 271.107C86.3287 278.992 118.222 277.989 140.374 275.908C140.491 275.581 140.61 275.269 140.759 274.951C118.75 277.064 86.754 278.163 76.6953 270.372C74.9707 269.035 74.0044 267.47 73.8223 265.732C73.5872 263.58 74.1663 261.705 75.5623 259.969C82.5032 251.404 107.877 248.752 137.25 245.692C141.738 245.232 146.281 244.744 150.868 244.248C151.119 244.213 151.303 243.994 151.282 243.74C151.233 243.492 150.999 243.312 150.745 243.333Z" fill="#242F40"/>
<path d="M258.029 278.617C257.825 278.658 257.609 278.565 257.521 278.355C251.297 265.184 238.685 267.26 227.571 269.097C224.81 269.544 222.211 269.975 219.75 270.181C218.587 270.278 198.153 277.063 196.873 277.563C168.463 288.739 147.647 291.204 141.208 284.141C138.934 281.656 138.769 278.11 140.752 274.164C144.616 266.444 176.602 250.865 186.313 246.278C189.54 244.75 191.517 240.32 194.034 234.72C196.599 228.989 199.778 221.861 205.554 214.97C205.711 214.771 206.011 214.757 206.21 214.914C206.408 215.071 206.438 215.369 206.266 215.57C200.575 222.353 197.43 229.429 194.883 235.096C192.297 240.876 190.255 245.441 186.722 247.105C179.865 250.347 145.425 266.919 141.592 274.572C140.325 277.101 139.351 280.708 141.916 283.514C144.231 286.051 155.006 293.032 196.563 276.7C196.747 276.633 218.3 269.38 219.703 269.266C222.135 269.066 224.719 268.638 227.448 268.181C238.9 266.292 251.865 264.16 258.384 277.969C258.492 278.205 258.393 278.468 258.16 278.59C258.102 278.602 258.073 278.608 258.029 278.617Z" fill="#242F40"/>
<path d="M319.383 230.122C319.194 230.16 318.995 230.079 318.899 229.901C282.479 166.899 252.886 175.204 231.277 181.269C229.799 181.688 228.346 182.085 226.949 182.456C212.044 186.404 198.488 190.883 185.379 195.243C173.946 199.039 163.152 202.616 152.53 205.461C138.495 209.217 127.721 213.048 119.864 215.838C114.738 217.656 110.691 219.105 107.571 219.883C62.68 231.091 64.6441 240.948 65.7917 247.495C65.8415 247.743 65.693 247.985 65.413 248.026C65.1653 248.076 64.9173 247.898 64.8821 247.648C63.6608 240.736 61.615 230.395 107.343 218.973C110.419 218.204 114.454 216.772 119.551 214.961C127.423 212.168 138.226 208.331 152.287 204.554C162.894 201.712 173.674 198.138 185.095 194.36C198.222 190.012 211.789 185.514 226.724 181.561C228.121 181.19 229.573 180.792 231.037 180.377C252.935 174.238 282.931 165.822 319.701 229.437C319.835 229.653 319.757 229.941 319.538 230.061C319.482 230.087 319.441 230.11 319.383 230.122Z" fill="#242F40"/>
<path d="M153.28 288.284C153.192 288.301 153.084 288.293 153 288.249C152.766 288.144 152.664 287.862 152.772 287.643C154.993 282.845 167.769 281.054 168.318 280.989C168.568 280.954 168.802 281.135 168.837 281.386C168.872 281.636 168.721 281.864 168.441 281.905C168.307 281.917 155.621 283.704 153.609 288.036C153.545 288.17 153.411 288.258 153.28 288.284Z" fill="#242F40"/>
<path d="M115.128 160.684C115.128 160.684 101.562 166.015 99.1062 166.553L108.544 190.437C108.544 190.437 115.415 186.586 113.325 180.864L122.147 176.076L115.128 160.684Z" fill="#242F40"/>
<path d="M108.634 190.889C108.547 190.906 108.468 190.892 108.389 190.877C108.258 190.828 108.165 190.741 108.109 190.615L98.6716 166.732C98.6161 166.606 98.6335 166.466 98.7003 166.346C98.7675 166.227 98.8723 166.145 99.0038 166.119C101.401 165.592 114.827 160.32 114.955 160.279C115.18 160.188 115.443 160.287 115.548 160.509L122.567 175.901C122.672 176.122 122.573 176.385 122.369 176.502L113.874 181.103C115.66 186.901 108.832 190.819 108.762 190.848C108.721 190.871 108.678 190.88 108.634 190.889ZM99.7301 166.868L108.767 189.74C110.213 188.783 114.522 185.461 112.885 181.013C112.812 180.8 112.899 180.556 113.106 180.453L121.561 175.875L114.898 161.276C112.717 162.123 102.815 165.991 99.7301 166.868Z" fill="#242F40"/>
<path d="M40.4115 169.373C40.4115 169.373 28.9948 171.058 26.4749 170.896L28.9081 196.458C28.9081 196.458 36.5858 194.66 36.1556 188.59L45.9621 186.439L40.4115 169.373Z" fill="#242F40"/>
<path d="M28.9985 196.91C28.8673 196.937 28.7389 196.902 28.6339 196.832C28.5259 196.747 28.4588 196.64 28.447 196.505L26.0138 170.943C26.002 170.809 26.0515 170.678 26.1389 170.585C26.2409 170.488 26.3663 170.433 26.5063 170.45C28.9504 170.612 40.2359 168.953 40.338 168.932C40.5596 168.903 40.7668 169.028 40.8397 169.241L46.4051 186.305C46.446 186.433 46.4258 186.559 46.3586 186.678C46.2918 186.798 46.1838 186.865 46.0555 186.906L36.6252 188.965C36.7345 195.024 29.1006 196.89 28.9985 196.91C29.0131 196.908 29.0131 196.908 28.9985 196.91ZM26.9794 171.371L29.3185 195.861C30.9718 195.331 36.0334 193.345 35.6917 188.622C35.6769 188.398 35.8313 188.185 36.05 188.141L45.3636 186.104L40.0762 169.895C38.1719 170.156 29.9309 171.34 26.9794 171.371Z" fill="#242F40"/>
<path d="M154.934 115.696C149.333 101.399 132.886 87.2467 118.326 85.2866C112.761 84.5386 107.432 84.592 102.396 85.4966C102.066 84.8352 101.733 84.1592 101.391 83.4391C101.117 83.4334 100.846 83.4423 100.58 83.4803C95.0132 84.0823 91.4903 88.3681 91.4653 93.832C91.4475 97.2929 91.4292 100.753 91.3969 104.217C91.3884 104.856 91.0473 108.746 90.9198 110.151C88.8322 135.18 71.4701 162.851 37.617 168.675C39.5725 174.788 40.9173 183.373 42.5286 189.585C82.0613 185.456 104.317 153.074 109.177 122.893C109.953 118.143 111.24 111.562 111.271 105.445C111.326 105.418 111.349 105.307 111.372 105.121C112.691 105.038 113.936 105.046 115.065 105.229C122.561 106.378 132.569 116.94 135.108 123.314C137.892 130.307 137.641 137.59 133.425 143.865C128.449 151.262 120.785 156 112.648 159.286C115.179 166.224 117.922 173.088 120.692 179.932C133.975 174.476 146.037 166.035 153.416 153.454C160.439 141.521 159.983 128.602 154.934 115.696Z" fill="#F2F3F9"/>
<path d="M120.773 180.416C120.686 180.434 120.592 180.422 120.511 180.393C120.394 180.34 120.301 180.253 120.263 180.139C117.619 173.619 114.817 166.615 112.201 159.482C112.108 159.243 112.224 158.992 112.464 158.899C122.001 155.029 128.734 150.038 133.031 143.641C136.99 137.751 137.563 130.783 134.664 123.525C132.187 117.305 122.383 106.854 114.983 105.731C114.044 105.585 112.959 105.546 111.743 105.608C111.746 105.622 111.731 105.625 111.734 105.64C111.7 110.833 110.77 116.326 110.021 120.753C109.89 121.537 109.754 122.292 109.641 123.013C105.042 151.548 84.8173 181.962 49.6937 189.011C47.39 189.474 45.0192 189.828 42.5695 190.093C42.3478 190.122 42.1349 189.968 42.0766 189.752C41.4183 187.23 40.8332 184.391 40.1981 181.379C39.2763 177.015 38.3368 172.488 37.1676 168.856C37.1267 168.728 37.1441 168.588 37.2111 168.469C37.2781 168.349 37.4326 168.288 37.5317 168.252C71.2447 162.486 88.3794 134.892 90.4472 110.14L90.5512 108.921C90.7017 107.253 90.9214 104.722 90.9153 104.238L90.9692 93.8559C91.0084 88.0098 94.8404 83.6774 100.507 83.0407C100.789 83.014 101.076 83.0022 101.364 83.0051C101.545 82.999 101.703 83.1038 101.781 83.27C102.068 83.8643 102.351 84.4444 102.631 85.01C107.542 84.1609 112.841 84.1131 118.374 84.8522C132.652 86.7633 149.595 100.815 155.36 115.55C160.902 129.707 160.372 142.551 153.807 153.74C147.072 165.22 135.981 174.194 120.861 180.398C120.832 180.404 120.802 180.41 120.773 180.416ZM113.222 159.581C115.729 166.401 118.409 173.097 120.939 179.351C135.651 173.229 146.447 164.451 153.01 153.247C159.43 142.315 159.922 129.737 154.496 115.859C148.834 101.408 132.247 87.6177 118.25 85.7418C112.684 84.9938 107.377 85.0735 102.457 85.9546C102.253 85.9955 102.049 85.8851 101.967 85.7042C101.669 85.1273 101.383 84.5326 101.091 83.9088C100.939 83.9092 100.776 83.9266 100.612 83.9444C95.4332 84.5136 91.9391 88.4904 91.9051 93.8345L91.8573 104.246C91.8549 104.763 91.6348 107.217 91.4786 109.008L91.3746 110.226C89.3243 134.839 72.5367 162.197 39.6874 168.79C39.1916 168.89 38.7105 168.986 38.2118 169.071C39.311 172.656 40.2241 176.977 41.099 181.184C41.7019 184.034 42.2579 186.728 42.875 189.121C81.655 184.871 103.887 152.826 108.728 122.847C108.841 122.127 108.978 121.371 109.108 120.587C109.858 116.161 110.796 110.635 110.821 105.474C110.815 105.369 110.859 105.285 110.917 105.197C110.914 105.183 110.923 105.151 110.929 105.104C110.943 104.873 111.121 104.702 111.36 104.684C112.78 104.581 114.049 104.63 115.143 104.789C122.843 105.973 132.986 116.75 135.548 123.165C138.516 130.622 137.903 138.069 133.816 144.151C129.455 150.606 122.718 155.658 113.222 159.581Z" fill="#242F40"/>
<path d="M36.2458 189.042C36.0126 189.089 35.7733 188.955 35.709 188.71L34.6915 185.153C34.6271 184.909 34.7582 184.655 35.0031 184.591C35.2481 184.526 35.5019 184.657 35.5662 184.902L36.5837 188.459C36.6481 188.703 36.517 188.957 36.2721 189.021C36.275 189.036 36.2604 189.039 36.2458 189.042Z" fill="#F2F3F9"/>
<path d="M38.3429 188.757C38.095 188.807 37.8499 188.644 37.8002 188.396L37.083 184.674C37.0332 184.426 37.1963 184.18 37.4442 184.131C37.6921 184.081 37.9372 184.244 37.9869 184.492L38.7041 188.215C38.7539 188.463 38.5908 188.707 38.3429 188.757Z" fill="#F2F3F9"/>
<path d="M113.416 181.316C113.226 181.354 113.042 181.27 112.934 181.109L110.969 177.971C110.835 177.755 110.899 177.469 111.114 177.335C111.331 177.201 111.616 177.265 111.751 177.481L113.715 180.619C113.85 180.835 113.786 181.121 113.57 181.255C113.518 181.296 113.459 181.307 113.416 181.316Z" fill="#F2F3F9"/>
<path d="M115.337 180.46C115.133 180.501 114.932 180.405 114.833 180.213L113.124 176.841C113.004 176.622 113.098 176.331 113.334 176.223C113.567 176.1 113.844 176.196 113.952 176.432L115.661 179.804C115.78 180.023 115.687 180.314 115.451 180.422C115.425 180.443 115.381 180.452 115.337 180.46Z" fill="#F2F3F9"/>
<path d="M47.2642 188.923C47.0307 188.969 46.8062 188.833 46.7301 188.605L40.7425 168.002C40.6782 167.757 40.8093 167.504 41.0513 167.425C41.267 167.366 41.5498 167.491 41.6287 167.733L47.6167 188.336C47.681 188.581 47.5499 188.835 47.3079 188.914C47.2788 188.92 47.2788 188.92 47.2642 188.923Z" fill="#242F40"/>
<path d="M125.004 178.748C124.8 178.789 124.581 178.681 124.497 178.486L115.584 158.576C115.476 158.34 115.59 158.074 115.811 157.969C116.047 157.861 116.313 157.974 116.418 158.196L125.33 178.106C125.438 178.342 125.325 178.607 125.103 178.712C125.063 178.736 125.033 178.742 125.004 178.748Z" fill="#242F40"/>
<path d="M269.797 113.036L152.188 186.696L97.0125 98.6475L214.621 24.9875L269.797 113.036Z" fill="url(#paint0_linear_4609_639)"/>
<path d="M99.5909 103.18C99.4016 103.218 99.2179 103.133 99.1098 102.973C98.9755 102.757 99.0394 102.471 99.2551 102.337L216.905 28.6536C217.12 28.5194 217.406 28.5833 217.541 28.799C217.675 29.0146 217.611 29.3004 217.395 29.4347L99.7455 103.118C99.7047 103.142 99.6492 103.168 99.5909 103.18Z" fill="#242F40"/>
<path d="M149.317 167.484C149.127 167.522 148.944 167.438 148.835 167.277C148.701 167.062 148.765 166.776 148.981 166.642L250.839 102.845C251.055 102.711 251.341 102.775 251.475 102.991C251.609 103.206 251.545 103.492 251.33 103.626L149.472 167.423C149.431 167.446 149.375 167.472 149.317 167.484Z" fill="#242F40"/>
<path d="M150.082 156.792C150.009 156.807 149.933 156.807 149.851 156.778C149.609 156.705 149.466 156.446 149.553 156.2L159.301 125.358C159.365 125.148 159.567 125.016 159.782 125.034L184.038 127.535L182.83 70.3081C182.829 70.1564 182.894 70.0221 182.998 69.9404C183.103 69.8587 183.261 69.8122 183.389 69.847L198.832 73.6315L208.773 56.2152C208.895 55.9935 209.184 55.9203 209.406 56.0425C209.628 56.165 209.701 56.4535 209.578 56.6752L199.468 74.3836C199.369 74.5701 199.159 74.6579 198.952 74.6081L183.763 70.879L184.971 128.03C184.968 128.167 184.916 128.284 184.828 128.377C184.726 128.473 184.598 128.514 184.473 128.494L160.063 125.978L150.429 156.48C150.385 156.64 150.242 156.76 150.082 156.792Z" fill="#242F40"/>
<path d="M117.021 120.637C116.831 120.675 116.648 120.591 116.54 120.43C116.405 120.214 116.469 119.929 116.685 119.794L119.043 118.32C120.122 117.649 120.456 116.217 119.782 115.124C119.449 114.6 118.935 114.233 118.331 114.096C117.728 113.96 117.112 114.068 116.585 114.386C115.075 115.326 113.074 114.878 112.116 113.357C111.652 112.632 111.505 111.751 111.7 110.909C111.895 110.066 112.402 109.342 113.145 108.89L115.504 107.416C115.719 107.281 116.005 107.345 116.139 107.561C116.274 107.776 116.21 108.063 115.994 108.197L113.636 109.671C113.111 110.004 112.744 110.517 112.607 111.121C112.47 111.724 112.579 112.339 112.897 112.867C113.569 113.945 115.001 114.279 116.094 113.605C116.82 113.141 117.701 112.994 118.544 113.189C119.387 113.384 120.111 113.891 120.563 114.634C121.503 116.143 121.055 118.144 119.534 119.101L117.175 120.576C117.123 120.617 117.079 120.625 117.021 120.637Z" fill="#242F40"/>
<path d="M120.276 120.605C120.086 120.643 119.902 120.559 119.794 120.398L112.094 108.115C111.96 107.899 112.024 107.613 112.24 107.479C112.455 107.345 112.742 107.409 112.876 107.625L120.575 119.908C120.71 120.124 120.646 120.41 120.43 120.544C120.375 120.57 120.334 120.593 120.276 120.605Z" fill="#242F40"/>
<path d="M110.753 132.251C110.564 132.289 110.38 132.205 110.272 132.045C110.138 131.829 110.202 131.543 110.417 131.409L140.044 112.847C140.178 112.759 140.359 112.753 140.51 112.829L156.376 121.29C156.598 121.412 156.686 121.698 156.563 121.92C156.441 122.141 156.155 122.229 155.933 122.106L140.292 113.782L110.879 132.196C110.855 132.231 110.797 132.242 110.753 132.251Z" fill="#242F40"/>
<path d="M242.589 59.7996C242.4 59.8376 242.216 59.7531 242.108 59.5929C241.974 59.3773 242.037 59.0917 242.253 58.9573L244.611 57.4832C245.69 56.8116 246.024 55.3799 245.35 54.2872C245.017 53.7625 244.503 53.3956 243.9 53.2588C243.296 53.1225 242.678 53.2159 242.153 53.5489C240.643 54.4887 238.642 54.0412 237.684 52.5201C237.22 51.7944 237.074 50.9141 237.268 50.0714C237.463 49.2287 237.97 48.505 238.713 48.0527L241.072 46.5785C241.288 46.4442 241.573 46.5081 241.708 46.7237C241.842 46.9393 241.778 47.2254 241.562 47.3597L239.204 48.8334C238.679 49.1664 238.312 49.6798 238.176 50.2834C238.039 50.8869 238.147 51.5023 238.466 52.0298C239.137 53.1079 240.569 53.4421 241.662 52.7677C242.388 52.3037 243.269 52.1572 244.112 52.3522C244.955 52.5468 245.678 53.0537 246.131 53.7969C247.071 55.3063 246.624 57.3068 245.102 58.2643L242.744 59.7381C242.688 59.7644 242.647 59.7879 242.589 59.7996Z" fill="#242F40"/>
<path d="M245.844 59.768C245.654 59.806 245.47 59.7215 245.362 59.5613L237.663 47.2779C237.529 47.0623 237.592 46.7762 237.808 46.6419C238.024 46.5076 238.31 46.5715 238.444 46.7876L246.144 59.071C246.278 59.2866 246.214 59.5726 245.998 59.7065C245.943 59.7328 245.902 59.7563 245.844 59.768Z" fill="#242F40"/>
<path d="M250.74 54.6912C250.55 54.7292 250.367 54.6447 250.259 54.4845C250.124 54.2689 250.188 53.9828 250.404 53.8485L252.762 52.3748C253.287 52.0418 253.654 51.5284 253.791 50.9248C253.928 50.3213 253.819 49.7059 253.501 49.1784C252.829 48.1003 251.397 47.7661 250.304 48.4405C249.578 48.9045 248.698 49.051 247.854 48.856C247.011 48.6614 246.288 48.1545 245.835 47.4113C245.371 46.686 245.224 45.8057 245.419 44.9626C245.614 44.1199 246.121 43.3966 246.864 42.9439L249.223 41.4701C249.438 41.3358 249.724 41.3997 249.858 41.6153C249.993 41.8309 249.929 42.1166 249.713 42.2509L247.355 43.725C246.83 44.058 246.463 44.5714 246.326 45.175C246.19 45.7786 246.298 46.3935 246.616 46.921C246.949 47.4457 247.463 47.8126 248.067 47.9494C248.67 48.0857 249.289 47.9923 249.813 47.6593C251.323 46.7195 253.324 47.167 254.282 48.6881C254.746 49.4138 254.893 50.2942 254.698 51.1368C254.503 51.9795 253.996 52.7033 253.253 53.1555L250.894 54.6297C250.854 54.6532 250.798 54.6795 250.74 54.6912Z" fill="#242F40"/>
<path d="M253.995 54.6596C253.805 54.6977 253.621 54.6131 253.513 54.4529L245.814 42.1695C245.679 41.9535 245.743 41.6679 245.959 41.5336C246.175 41.3992 246.461 41.4632 246.595 41.6788L254.295 53.9626C254.429 54.1782 254.365 54.4638 254.149 54.5981C254.108 54.6216 254.053 54.6479 253.995 54.6596Z" fill="#242F40"/>
<path d="M231.353 77.6427C231.163 77.6807 230.98 77.5962 230.872 77.436L214.845 51.8578C214.778 51.7498 214.754 51.6333 214.789 51.505C214.813 51.3942 214.897 51.2862 214.99 51.2219L254.925 26.2083C255.14 26.0741 255.426 26.138 255.561 26.3536L271.588 51.9322C271.655 52.0399 271.678 52.1564 271.643 52.285C271.62 52.3959 271.535 52.5035 271.442 52.5678L231.507 77.5812C231.455 77.6221 231.397 77.6338 231.353 77.6427ZM215.871 51.7579L231.407 76.5553L270.561 52.0322L255.025 27.2346L215.871 51.7579Z" fill="#242F40"/>
<path d="M188.17 221.097C188.894 224.702 186.558 228.211 182.952 228.935C179.346 229.658 175.836 227.323 175.113 223.718C174.389 220.113 176.725 216.605 180.331 215.881C183.936 215.157 187.446 217.493 188.17 221.097Z" stroke="#8A6B24" stroke-width="2"/>
<path d="M188.615 209.848C188.542 209.863 188.48 209.86 188.402 209.846L183.749 208.581C183.507 208.508 183.352 208.266 183.422 208.009C183.495 207.767 183.737 207.612 183.993 207.682L188.646 208.947C188.888 209.02 189.043 209.262 188.973 209.518C188.932 209.693 188.789 209.813 188.615 209.848Z" fill="#242F40"/>
<path d="M182.571 192.213C182.425 192.242 182.282 192.21 182.168 192.097C181.981 191.922 181.969 191.636 182.144 191.449L183.954 189.509C184.129 189.323 184.415 189.31 184.602 189.485C184.788 189.66 184.8 189.946 184.625 190.132L182.816 192.073C182.74 192.149 182.658 192.195 182.571 192.213Z" fill="#242F40"/>
<path d="M91.2435 198.853C91.1852 198.864 91.1387 198.859 91.0772 198.856C90.8263 198.815 90.6572 198.576 90.6831 198.328L91.4903 193.056C91.5308 192.805 91.77 192.636 92.0176 192.662C92.2685 192.703 92.438 192.942 92.4117 193.19L91.6049 198.462C91.5701 198.666 91.4183 198.818 91.2435 198.853Z" fill="#242F40"/>
<path d="M181.636 37.4005C181.564 37.4151 181.488 37.4152 181.406 37.3861C181.164 37.3134 181.021 37.054 181.108 36.809L182.988 30.7606C183.06 30.5186 183.32 30.3755 183.565 30.4628C183.807 30.5355 183.95 30.7949 183.863 31.0399L181.983 37.0882C181.942 37.2632 181.797 37.3683 181.636 37.4005Z" fill="#242F40"/>
<path d="M264.73 100.118C260.809 101.36 255.653 103.259 251.863 100.775C248.161 98.3489 246.582 93.207 245.255 89.2428C244.057 85.6925 241.091 83.0123 237.097 83.8141C233.787 84.4784 230.465 88.4054 231.666 91.9703C234.238 99.6422 237.14 107.597 244.184 112.309C251.263 117.044 259.757 116.143 267.458 113.703C271.024 112.578 273.682 109.497 272.888 105.547C272.212 102.18 268.322 98.9727 264.73 100.118Z" fill="#F2F3F9"/>
<path d="M262.519 115.467C255.069 116.963 248.952 116.037 243.924 112.679C237.021 108.06 234.087 100.628 231.223 92.1045C230.7 90.5566 230.926 88.813 231.861 87.2001C232.988 85.2603 235.006 83.7485 237.003 83.3475C240.852 82.5748 244.263 84.8318 245.692 89.0788L245.88 89.6327C247.142 93.4282 248.726 98.1444 252.117 100.375C255.49 102.594 260.134 101.101 263.867 99.8969L264.593 99.6603C266.176 99.1606 267.955 99.4098 269.572 100.359C271.497 101.489 272.934 103.43 273.335 105.427C274.23 109.887 271.095 113.003 267.587 114.116C265.838 114.695 264.152 115.14 262.519 115.467ZM237.187 84.2659C235.438 84.617 233.66 85.9593 232.67 87.6746C231.868 89.0485 231.665 90.5299 232.107 91.8209C234.906 100.175 237.782 107.468 244.44 111.924C250.308 115.841 257.801 116.293 267.324 113.26C270.432 112.272 273.218 109.529 272.436 105.637C272.091 103.917 270.784 102.163 269.114 101.179C267.72 100.352 266.221 100.137 264.879 100.558L264.153 100.795C260.234 102.052 255.362 103.621 251.607 101.16C247.939 98.7573 246.305 93.8687 245.002 89.9454L244.815 89.3915C243.841 86.5087 241.27 83.4463 237.187 84.2659Z" fill="#242F40"/>
<path d="M231.952 92.6406L244.963 88.4672C242.572 81.4717 232.368 75.3768 228.928 76.2951C225.484 77.1985 231.201 78.8559 231.129 79.7803C231.08 80.4422 221.487 79.1986 220.377 81.3014C219.268 83.4047 222.78 80.8799 225.418 82.3067C225.418 82.3067 219.888 81.8091 219.638 83.2845C219.388 84.7603 225.19 85.2486 225.19 85.2486C225.19 85.2486 219.706 85.0601 219.681 86.597C219.656 88.1335 225.851 88.3155 227.108 88.8362C228.182 89.2727 230.873 89.0057 231.631 91.9468L231.952 92.6406Z" fill="#F2F3F9"/>
<path d="M232.043 93.0925C231.81 93.139 231.585 93.0022 231.509 92.7749C231.468 92.6466 231.486 92.5067 231.556 92.4015C231.395 92.3582 231.249 92.2356 231.214 92.0609C230.691 90.0583 229.188 89.7533 227.957 89.515C227.564 89.4422 227.231 89.3726 226.951 89.2622C226.604 89.1194 225.683 88.9859 224.714 88.8467C222.01 88.4494 219.213 88.0404 219.226 86.597C219.226 86.294 219.366 86.008 219.608 85.7774C219.964 85.4331 220.602 85.2142 221.328 85.0532C220.491 84.8117 219.756 84.4739 219.411 84.0426C219.21 83.7951 219.137 83.5066 219.183 83.2093C219.247 82.8476 219.495 82.5705 219.848 82.3629C219.845 82.3484 219.83 82.3516 219.827 82.3371C219.556 81.9669 219.748 81.4883 219.969 81.0801C220.764 79.6015 224.188 79.5056 228.242 79.5258C228.986 79.5283 229.791 79.5335 230.316 79.504C230.05 79.3147 229.674 79.1019 229.4 78.9449C228.25 78.281 227.27 77.7041 227.383 76.9084C227.467 76.2696 228.245 75.9921 228.82 75.8315C232.616 74.7962 242.971 81.1942 245.4 88.3038C245.438 88.4175 245.435 88.5542 245.38 88.6565C245.328 88.7731 245.222 88.8548 245.109 88.8928L232.099 93.0662C232.087 93.0836 232.072 93.0864 232.043 93.0925ZM221.509 85.957C220.941 86.0711 220.472 86.226 220.259 86.4505C220.171 86.544 220.166 86.5905 220.171 86.6196C220.166 87.2726 223.573 87.7718 224.868 87.9514C225.994 88.1197 226.869 88.2475 227.33 88.428C227.528 88.5093 227.829 88.5704 228.161 88.64C229.474 88.9074 231.463 89.2965 232.13 91.8618C232.148 91.9492 232.15 92.0398 232.121 92.1211L244.391 88.1877C241.814 81.6238 232.288 76.1058 229.196 76.7259C229.153 76.7348 229.124 76.7409 229.08 76.7494C228.418 76.9278 228.313 77.0856 228.313 77.0856C228.398 77.2806 229.364 77.8603 229.894 78.1629C230.925 78.76 231.68 79.1998 231.622 79.8179C231.573 80.4798 230.815 80.4802 228.263 80.4616C225.863 80.4429 221.398 80.4142 220.804 81.5344C220.76 81.619 220.728 81.6861 220.707 81.7355C220.9 81.712 221.195 81.6683 221.428 81.6214C222.527 81.4309 224.195 81.1266 225.657 81.9098C225.844 82.009 225.952 82.2448 225.888 82.4548C225.824 82.6647 225.623 82.7962 225.407 82.7788C222.735 82.5418 220.213 82.8205 220.128 83.3832C220.131 83.3978 220.122 83.4302 220.166 83.4969C220.677 84.1527 223.448 84.658 225.268 84.8081C225.516 84.8343 225.709 85.0382 225.685 85.3008C225.674 85.5456 225.456 85.7409 225.21 85.7296C224.169 85.6807 222.632 85.7316 221.509 85.957Z" fill="#242F40"/>
<path d="M254.039 188.737C256.036 188.08 257.122 185.929 256.465 183.932C255.808 181.936 253.656 180.85 251.659 181.507C249.662 182.164 248.575 184.315 249.232 186.312C249.89 188.308 252.042 189.394 254.039 188.737Z" fill="#242F40"/>
<path d="M296.452 190.581C298.449 189.924 299.535 187.772 298.878 185.776C298.221 183.779 296.069 182.694 294.072 183.351C292.075 184.008 290.989 186.159 291.646 188.156C292.303 190.152 294.455 191.238 296.452 190.581Z" fill="#242F40"/>
<path d="M274.743 189.646C276.741 188.989 277.827 186.838 277.17 184.841C276.512 182.845 274.361 181.759 272.364 182.416C270.366 183.073 269.28 185.224 269.937 187.221C270.595 189.217 272.746 190.303 274.743 189.646Z" fill="#242F40"/>
<path d="M281.172 130.329C277.713 130.174 274.571 128.879 272.107 126.811C268.609 123.889 266.468 119.421 266.68 114.511L267.414 97.7747C267.595 93.6139 269.433 89.9244 272.26 87.3098C275.125 84.6575 279.014 83.1032 283.223 83.2897C288.21 83.5017 292.543 86.1196 295.136 89.9665C296.888 92.5718 297.855 95.7285 297.715 99.1077L296.98 115.844C296.785 120.311 294.691 124.234 291.488 126.863C288.704 129.166 285.074 130.501 281.172 130.329Z" fill="#242F40"/>
<path d="M290.694 147.159L259.478 145.798C257.81 145.723 256.366 144.876 255.46 143.617C254.806 142.702 254.444 141.577 254.49 140.37C254.57 138.579 255.549 137.034 256.966 136.158C257.817 135.638 258.835 135.343 259.908 135.4L291.124 136.762C292.853 136.839 294.356 137.751 295.247 139.089C295.833 139.972 296.155 141.044 296.112 142.19C296.058 143.43 295.571 144.558 294.805 145.425C293.817 146.548 292.33 147.225 290.694 147.159Z" fill="#242F40"/>
<path d="M296.256 184.452L295.337 184.409C295.418 182.543 293.961 180.955 292.095 180.875L256.562 179.318C255.658 179.272 254.798 179.596 254.116 180.203C253.449 180.807 253.056 181.644 253.027 182.56L252.108 182.517C252.209 180.146 254.231 178.285 256.606 178.4L292.138 179.957C294.509 180.057 296.354 182.067 296.256 184.452Z" fill="#242F40"/>
<path d="M275.008 146.95L273.425 182.52L274.346 182.561L275.929 146.991L275.008 146.95Z" fill="#242F40"/>
<path d="M231.842 185.827L218.738 194.674L222.895 202.907C217.61 207.031 221.286 212.798 221.286 212.798L241.765 200.348L231.842 185.827Z" fill="#242F40"/>
<path d="M221.363 213.253C221.188 213.288 220.989 213.207 220.881 213.046C220.84 212.994 217.182 207.087 222.294 202.785L218.31 194.881C218.208 194.674 218.278 194.417 218.464 194.289L231.568 185.442C231.766 185.296 232.066 185.357 232.215 185.57L242.139 200.091C242.206 200.199 242.232 200.33 242.212 200.455C242.192 200.581 242.107 200.689 241.999 200.756L221.52 213.206C221.462 213.218 221.421 213.241 221.363 213.253ZM219.331 194.827L223.306 202.688C223.405 202.88 223.347 203.12 223.178 203.26C219.007 206.508 220.769 210.825 221.458 212.142L241.115 200.206L231.726 186.457L219.331 194.827Z" fill="#242F40"/>
<path d="M222.968 203.347C222.735 203.394 222.493 203.246 222.431 203.015C222.367 202.77 222.513 202.514 222.757 202.449L225.808 201.625C226.052 201.56 226.309 201.706 226.373 201.951C226.438 202.196 226.292 202.452 226.047 202.517L222.997 203.341C222.997 203.341 222.983 203.344 222.968 203.347Z" fill="#F2F3F9"/>
<path d="M221.645 200.535C221.411 200.582 221.17 200.433 221.108 200.203C221.044 199.958 221.189 199.702 221.434 199.637L224.484 198.813C224.741 198.731 224.986 198.894 225.05 199.139C225.114 199.384 224.969 199.64 224.724 199.704L221.674 200.529C221.66 200.532 221.645 200.535 221.645 200.535Z" fill="#F2F3F9"/>
<path d="M275.579 123.552C275.536 124.243 275.332 125.042 275.021 125.908C274.238 128.051 272.714 130.586 270.878 132.85C268.119 136.255 264.63 138.972 261.944 138.586C261.071 138.473 260.167 138.351 259.252 138.247C257.991 138.09 256.676 137.96 255.337 137.865C249.994 137.467 244.214 137.535 238.988 138.781C232.984 140.228 227.684 143.218 224.46 148.839C224.361 149.026 224.259 149.198 224.16 149.384C223.531 150.557 223.068 151.727 222.718 152.934C221.182 158.201 222.105 163.777 224.174 169.17C225.965 173.86 228.611 178.423 231.233 182.568C231.566 183.092 231.893 183.587 232.208 184.1C233.066 185.429 233.913 186.7 234.701 187.906C233.973 188.28 233.244 188.654 232.532 189.039C229.416 190.665 226.334 192.315 223.259 193.994C221.428 194.998 219.474 195.921 217.6 196.934C217.597 196.92 217.582 196.923 217.579 196.908C215.734 194.064 213.944 191.117 212.259 188.089C209.549 183.205 207.177 178.116 205.494 172.904C203.787 167.651 202.797 162.27 202.887 156.899C202.994 151.767 204.072 146.638 206.469 141.578C206.809 140.857 207.168 140.149 207.555 139.434C207.712 139.16 207.855 138.889 208.015 138.629C211.091 133.326 215.186 129.244 219.914 126.203C224.52 123.231 229.745 121.227 235.215 119.993C240.482 118.799 245.996 118.314 251.418 118.348C255.457 118.371 259.465 118.689 263.303 119.223C264.817 119.434 266.526 119.409 268.168 119.429C269.749 119.445 271.271 119.473 272.526 119.752C274.462 120.182 275.752 121.167 275.579 123.552Z" fill="#F2F3F9"/>
<path d="M217.694 197.4C217.592 197.421 217.498 197.409 217.414 197.366C217.329 197.322 217.253 197.246 217.206 197.164C215.25 194.145 213.455 191.17 211.869 188.334C208.846 182.875 206.632 177.891 205.071 173.064C203.238 167.412 202.36 161.978 202.449 156.911C202.556 151.476 203.783 146.256 206.069 141.4C206.387 140.715 206.759 140.003 207.167 139.239L207.624 138.419C210.572 133.309 214.638 129.081 219.675 125.841C224.094 122.998 229.281 120.88 235.113 119.558C240.164 118.423 245.649 117.868 251.421 117.907C255.308 117.931 259.328 118.231 263.367 118.785C264.692 118.959 266.211 118.972 267.669 118.983L268.171 118.988C269.781 118.999 271.32 119.038 272.621 119.323C275.08 119.86 276.21 121.257 276.028 123.598C275.976 124.321 275.778 125.149 275.435 126.082C274.643 128.258 273.099 130.842 271.211 133.147C267.915 137.205 264.414 139.409 261.857 139.058C260.984 138.945 260.095 138.821 259.179 138.716C257.857 138.557 256.557 138.424 255.279 138.331C248.906 137.867 243.61 138.156 239.065 139.235C232.451 140.821 227.656 144.134 224.842 149.08C224.755 149.249 224.664 149.404 224.574 149.559C223.96 150.728 223.503 151.851 223.153 153.058C221.795 157.698 222.268 162.926 224.597 169.009C226.493 173.996 229.343 178.746 231.609 182.325L232.584 183.858C233.332 185.012 234.055 186.125 234.771 187.195L235.078 187.664C235.145 187.772 235.171 187.903 235.136 188.031C235.101 188.16 235.017 188.267 234.906 188.32C234.177 188.694 233.463 189.065 232.737 189.453C229.402 191.199 226.361 192.825 223.463 194.407C222.481 194.954 221.475 195.459 220.443 195.984C219.562 196.434 218.667 196.887 217.793 197.365C217.781 197.383 217.737 197.391 217.694 197.4ZM236.75 120.155C236.268 120.251 235.802 120.345 235.324 120.456C229.594 121.757 224.503 123.825 220.177 126.604C215.259 129.76 211.296 133.891 208.427 138.865L207.967 139.67C207.567 140.402 207.206 141.096 206.904 141.778C204.67 146.518 203.478 151.61 203.377 156.922C203.284 161.899 204.157 167.228 205.955 172.781C207.486 177.538 209.692 182.478 212.674 187.885C214.192 190.612 215.9 193.454 217.769 196.339C218.521 195.93 219.294 195.548 220.063 195.151C221.08 194.628 222.086 194.123 223.057 193.594C225.952 191.997 228.993 190.371 232.343 188.622C232.92 188.324 233.494 188.012 234.057 187.717L234.034 187.676C233.333 186.604 232.594 185.494 231.846 184.339L230.871 182.807C228.582 179.187 225.709 174.396 223.781 169.324C221.382 163.043 220.902 157.635 222.31 152.788C222.677 151.517 223.151 150.33 223.781 149.157C223.888 148.938 223.99 148.766 224.092 148.594C227.043 143.422 232.036 139.964 238.909 138.311C243.528 137.217 248.941 136.904 255.407 137.381C256.684 137.473 258.014 137.6 259.336 137.76C260.251 137.864 261.156 137.986 262.028 138.099C264.23 138.415 267.486 136.275 270.54 132.524C272.367 130.292 273.856 127.809 274.603 125.718C274.918 124.867 275.086 124.12 275.141 123.488C275.28 121.61 274.474 120.619 272.444 120.178C271.24 119.919 269.744 119.871 268.195 119.863L267.693 119.857C266.206 119.853 264.657 119.845 263.269 119.654C259.276 119.106 255.289 118.814 251.445 118.782C246.256 118.777 241.328 119.235 236.75 120.155Z" fill="#242F40"/>
<path d="M217.688 197.371C217.673 197.375 217.673 197.375 217.688 197.371C217.44 197.421 217.195 197.258 217.145 197.01C213.656 178.65 209.906 159.979 206.005 141.534C205.955 141.287 206.119 141.042 206.366 140.992C206.614 140.942 206.859 141.105 206.909 141.353C210.796 159.8 214.545 178.472 218.052 196.843C218.084 197.08 217.921 197.325 217.688 197.371Z" fill="#242F40"/>
<path d="M232.638 189.488C232.39 189.538 232.145 189.375 232.095 189.127L230.796 182.655C230.746 182.407 230.909 182.162 231.157 182.113C231.405 182.063 231.65 182.226 231.7 182.474L232.999 188.946C233.049 189.193 232.886 189.438 232.638 189.488Z" fill="#242F40"/>
<path d="M224.565 149.288C224.317 149.337 224.072 149.174 224.025 148.941C223.168 145.049 222.302 141.038 221.38 136.674C220.666 133.269 219.949 129.85 219.264 126.439C219.214 126.191 219.377 125.946 219.625 125.896C219.873 125.847 220.118 126.01 220.168 126.258C220.853 129.668 221.552 133.076 222.281 136.478C223.203 140.842 224.055 144.856 224.923 148.73C224.976 148.993 224.813 149.238 224.565 149.288Z" fill="#242F40"/>
<path d="M239.079 139.232C238.831 139.282 238.586 139.119 238.536 138.872L234.766 120.098C234.717 119.85 234.88 119.605 235.128 119.555C235.376 119.505 235.621 119.668 235.67 119.916L239.44 138.69C239.49 138.938 239.342 139.18 239.079 139.232Z" fill="#242F40"/>
<path d="M255.428 138.317C255.18 138.366 254.935 138.203 254.885 137.956L252.407 125.61C252.357 125.362 252.52 125.117 252.767 125.067C253.016 125.017 253.261 125.18 253.31 125.428L255.789 137.774C255.854 138.019 255.691 138.264 255.428 138.317Z" fill="#242F40"/>
<path d="M234.045 134.784C225.413 136.517 216.726 138.199 208.031 139.839C207.783 139.888 207.538 139.725 207.488 139.477C207.439 139.23 207.602 138.985 207.849 138.935C225.827 135.554 243.787 131.934 261.222 128.192C261.47 128.142 261.715 128.305 261.764 128.553C261.814 128.801 261.651 129.046 261.403 129.096C252.419 131.036 243.26 132.935 234.045 134.784Z" fill="#242F40"/>
<path d="M222.824 153.382L202.995 157.362C202.747 157.412 202.502 157.249 202.453 157.001C202.403 156.754 202.566 156.508 202.814 156.459L222.643 152.479C222.89 152.429 223.136 152.592 223.185 152.84C223.235 153.088 223.087 153.33 222.824 153.382Z" fill="#242F40"/>
<path d="M224.28 169.618L205.602 173.367C205.354 173.417 205.109 173.254 205.059 173.006C205.01 172.758 205.173 172.513 205.421 172.463L224.098 168.715C224.346 168.665 224.591 168.828 224.641 169.076C224.69 169.324 224.527 169.569 224.28 169.618Z" fill="#242F40"/>
<path d="M232.313 184.549L212.368 188.553C212.12 188.603 211.875 188.439 211.825 188.192C211.775 187.944 211.938 187.699 212.186 187.649L232.132 183.646C232.38 183.596 232.625 183.759 232.675 184.007C232.725 184.255 232.561 184.5 232.313 184.549Z" fill="#242F40"/>
<path d="M297.849 192.533L294.139 207.895L302.759 211.169C301.641 217.762 308.251 219.559 308.251 219.559L314.977 196.556L297.849 192.533Z" fill="#242F40"/>
<path d="M308.33 220.028C308.257 220.043 308.196 220.04 308.117 220.026C308.053 220.008 301.364 218.121 302.246 211.484L293.97 208.339C293.756 208.26 293.634 208.027 293.68 207.805L297.391 192.443C297.449 192.204 297.705 192.046 297.945 192.104L315.061 196.144C315.19 196.179 315.295 196.249 315.347 196.36C315.414 196.468 315.426 196.602 315.388 196.715L308.662 219.719C308.633 219.876 308.49 219.996 308.33 220.028ZM294.675 207.621L302.919 210.758C303.132 210.836 303.251 211.055 303.202 211.262C302.311 216.49 306.532 218.479 307.923 218.988L314.382 196.918L298.176 193.104L294.675 207.621Z" fill="#242F40"/>
<path d="M302.838 211.638C302.722 211.661 302.611 211.638 302.506 211.568C302.296 211.429 302.223 211.14 302.362 210.93L304.055 208.255C304.195 208.045 304.484 207.972 304.694 208.112C304.904 208.252 304.977 208.54 304.837 208.75L303.145 211.425C303.063 211.548 302.955 211.615 302.838 211.638Z" fill="#F2F3F9"/>
<path d="M299.947 210.46C299.83 210.483 299.719 210.46 299.614 210.39C299.404 210.25 299.331 209.962 299.471 209.752L301.163 207.077C301.303 206.867 301.592 206.794 301.802 206.933C302.012 207.073 302.085 207.362 301.946 207.572L300.253 210.247C300.183 210.352 300.078 210.433 299.947 210.46Z" fill="#F2F3F9"/>
<path d="M299.187 191.491C300.109 191.852 301.028 192.198 301.914 192.536C301.341 193.834 300.756 195.149 300.182 196.447C299.046 199.025 297.896 201.606 296.775 204.182C295.901 206.177 295.028 208.171 294.157 210.181C291.339 209.063 288.492 207.876 285.685 206.589C285.601 206.546 285.504 206.52 285.417 206.461C278.748 203.387 272.265 199.73 266.845 195.101C266.387 194.708 265.947 194.326 265.518 193.927C261.085 189.904 257.462 185.157 255.11 179.488C254.161 177.177 253.404 174.69 252.906 172.061C252.356 169.169 252.12 166.335 252.124 163.56C252.167 157.577 253.408 151.823 255.48 146.358C255.806 145.489 256.167 144.643 256.525 143.782C257.346 141.904 258.249 140.055 259.251 138.247C261.249 134.601 263.545 131.077 266.068 127.705C267.035 126.404 268.035 125.111 269.058 123.859C270.191 122.479 271.354 121.094 272.528 119.766C272.895 119.329 273.28 118.903 273.679 118.474C276.888 114.888 280.875 114.725 284.107 116.396C286.645 117.706 288.703 120.174 289.56 123.005C290.44 125.952 289.99 129.302 287.388 132.205C287.364 132.24 287.327 132.278 287.303 132.313C284.777 135.14 282.163 138.212 279.806 141.505C277.743 144.376 275.879 147.404 274.423 150.577C273.083 153.5 272.1 156.533 271.653 159.67C271.296 162.122 271.268 164.63 271.661 167.19C272.141 170.338 273.275 173.113 274.887 175.549C276.437 177.907 278.428 179.964 280.675 181.787C284.074 184.517 288.098 186.727 292.176 188.607C294.539 189.649 296.903 190.615 299.187 191.491Z" fill="#F2F3F9"/>
<path d="M294.252 210.647C294.164 210.665 294.071 210.654 293.99 210.624C290.859 209.387 288.073 208.203 285.485 207.024L285.202 206.899C277.483 203.353 271.376 199.606 266.54 195.466C266.082 195.073 265.624 194.679 265.195 194.28C260.444 189.957 256.894 185.044 254.679 179.681C253.677 177.259 252.929 174.74 252.455 172.152C251.922 169.347 251.66 166.458 251.67 163.56C251.709 157.866 252.854 152.01 255.055 146.2C255.378 145.317 255.762 144.436 256.112 143.608C256.933 141.729 257.859 139.845 258.858 138.022C260.751 134.534 263.07 130.975 265.725 127.425C266.619 126.214 267.595 124.957 268.725 123.562C269.92 122.109 271.083 120.724 272.208 119.451C272.575 119.014 272.974 118.585 273.359 118.159C276.369 114.795 280.484 113.984 284.341 115.97C287.019 117.373 289.141 119.935 290.03 122.85C291.053 126.284 290.239 129.707 287.762 132.479L287.327 132.278L287.677 132.586C285.722 134.784 282.811 138.112 280.218 141.741C277.954 144.895 276.209 147.838 274.881 150.743C273.478 153.799 272.553 156.821 272.161 159.705C271.798 162.204 271.812 164.688 272.175 167.102C272.629 170.043 273.681 172.789 275.334 175.278C276.756 177.449 278.67 179.505 281.025 181.414C284.007 183.802 287.728 186.012 292.439 188.175C294.444 189.092 296.593 189.98 299.391 191.071C300.033 191.321 300.657 191.56 301.296 191.796L302.116 192.101C302.233 192.153 302.326 192.241 302.379 192.352C302.431 192.462 302.428 192.6 302.376 192.716L301.907 193.78C301.491 194.729 301.06 195.679 300.658 196.624C299.523 199.203 298.372 201.784 297.251 204.359C296.436 206.191 295.65 208.017 294.852 209.86L294.634 210.359C294.514 210.519 294.398 210.618 294.252 210.647ZM278.662 115.942C276.985 116.279 275.388 117.236 274.013 118.771C273.628 119.197 273.243 119.623 272.876 120.06C271.766 121.329 270.6 122.701 269.42 124.151C268.301 125.528 267.325 126.785 266.442 127.978C263.811 131.493 261.533 135.029 259.646 138.471C258.655 140.262 257.756 142.125 256.943 143.972C256.542 144.916 256.215 145.71 255.91 146.529C253.738 152.257 252.614 157.987 252.583 163.573C252.576 166.411 252.84 169.238 253.35 172.002C253.824 174.515 254.549 176.993 255.522 179.345C257.725 184.65 261.091 189.327 265.822 193.624C266.251 194.023 266.691 194.405 267.132 194.786C271.909 198.862 277.946 202.563 285.598 206.076L285.867 206.204C288.309 207.337 290.943 208.445 293.895 209.627L293.939 209.543C294.74 207.714 295.538 205.87 296.338 204.042C297.459 201.467 298.592 198.874 299.745 196.307C300.161 195.359 300.578 194.412 300.994 193.464L301.265 192.848L300.903 192.708C300.279 192.47 299.637 192.22 298.995 191.969C296.18 190.866 294.013 189.967 291.994 189.053C287.218 186.873 283.428 184.616 280.39 182.178C277.962 180.209 275.971 178.076 274.503 175.823C272.783 173.227 271.673 170.341 271.21 167.28C270.829 164.779 270.827 162.201 271.204 159.624C271.625 156.658 272.565 153.558 274.009 150.402C275.357 147.448 277.123 144.455 279.421 141.249C282.041 137.6 284.975 134.236 286.942 132.022L287.027 131.914C289.279 129.384 290.021 126.278 289.091 123.159C288.278 120.472 286.331 118.103 283.86 116.825C282.124 115.884 280.354 115.603 278.662 115.942Z" fill="#242F40"/>
<path d="M266.925 195.571C266.677 195.62 266.432 195.457 266.383 195.21L256.074 143.873C256.024 143.625 256.187 143.38 256.435 143.331C256.683 143.281 256.928 143.444 256.978 143.692L267.287 195.028C267.351 195.273 267.188 195.518 266.925 195.571Z" fill="#242F40"/>
<path d="M285.78 207.056C285.532 207.106 285.286 206.943 285.237 206.695L280.249 181.858C280.2 181.61 280.363 181.365 280.61 181.315C280.858 181.265 281.104 181.428 281.153 181.676L286.141 206.513C286.19 206.761 286.027 207.006 285.78 207.056Z" fill="#242F40"/>
<path d="M274.522 150.997C274.274 151.047 274.03 150.884 273.98 150.636L269.897 130.302C269.847 130.055 270.01 129.81 270.258 129.76C270.506 129.71 270.751 129.873 270.8 130.121L274.884 150.454C274.936 150.717 274.77 150.947 274.522 150.997Z" fill="#242F40"/>
<path d="M300.276 196.913C300.028 196.963 299.783 196.8 299.733 196.553L298.738 191.597C298.688 191.349 298.851 191.104 299.099 191.054C299.347 191.004 299.592 191.168 299.642 191.415L300.637 196.371C300.687 196.619 300.524 196.864 300.276 196.913Z" fill="#242F40"/>
<path d="M279.891 141.928L255.571 146.81C255.323 146.859 255.078 146.696 255.028 146.448C254.978 146.201 255.142 145.956 255.39 145.906L279.71 141.025C279.957 140.975 280.202 141.138 280.252 141.386C280.302 141.633 280.139 141.879 279.891 141.928Z" fill="#242F40"/>
<path d="M271.752 160.09L252.215 164.011C251.967 164.061 251.722 163.898 251.672 163.65C251.622 163.402 251.785 163.157 252.033 163.108L271.571 159.186C271.819 159.136 272.064 159.299 272.114 159.547C272.163 159.795 272 160.04 271.752 160.09Z" fill="#242F40"/>
<path d="M274.989 175.983L255.19 179.958C254.942 180.007 254.697 179.844 254.647 179.596C254.597 179.349 254.76 179.104 255.008 179.054L274.808 175.08C275.056 175.03 275.301 175.193 275.351 175.441C275.401 175.689 275.237 175.934 274.989 175.983Z" fill="#242F40"/>
<path d="M292.293 189.038L265.597 194.396C265.349 194.446 265.104 194.283 265.055 194.036C265.005 193.788 265.168 193.542 265.415 193.493L292.112 188.134C292.36 188.085 292.605 188.248 292.655 188.496C292.704 188.744 292.541 188.988 292.293 189.038Z" fill="#242F40"/>
<path d="M296.869 204.648L285.496 206.931C285.249 206.981 285.004 206.818 284.954 206.57C284.904 206.322 285.067 206.077 285.315 206.027L296.688 203.745C296.935 203.695 297.181 203.858 297.23 204.105C297.28 204.353 297.117 204.599 296.869 204.648Z" fill="#242F40"/>
<path d="M293.851 107.89C293.27 115.724 292.146 126.595 292.146 126.595L260.896 118.644C260.896 118.644 261.057 114.684 262.235 105.896C263.221 98.4193 263.844 92.684 273.692 91.4958C275.424 91.2846 277.442 91.213 279.796 91.3016C281.079 91.3473 282.252 91.4456 283.328 91.5937C295.354 93.2434 294.379 100.703 293.851 107.89Z" fill="#F2F3F9"/>
<path d="M292.237 127.046C292.165 127.061 292.103 127.058 292.039 127.041L260.789 119.09C260.582 119.04 260.436 118.842 260.439 118.629C260.445 118.583 260.62 114.545 261.768 105.837L261.815 105.54C262.795 98.1105 263.558 92.2408 273.634 91.0523C275.456 90.8383 277.536 90.7695 279.814 90.8585C281.129 90.9127 282.301 91.011 283.378 91.1591C295.447 92.8003 294.887 100.13 294.37 107.225L294.315 107.933C293.746 115.674 292.622 126.545 292.599 126.656C292.581 126.796 292.515 126.915 292.407 126.982C292.351 127.008 292.296 127.035 292.237 127.046ZM261.372 118.29L291.726 126.012C291.967 123.734 292.879 114.605 293.376 107.864L293.431 107.155C293.887 101.12 294.539 95.4542 287.38 93.0394C286.275 92.6701 284.755 92.2777 283.241 92.0657C282.197 91.9265 281.057 91.8371 279.756 91.7797C277.539 91.6939 275.504 91.7538 273.725 91.9593C264.378 93.0771 263.679 98.3577 262.701 105.651L262.655 105.948C261.733 113.138 261.453 117.107 261.372 118.29Z" fill="#242F40"/>
<path d="M266.145 107.764C266.086 107.776 266.04 107.771 265.979 107.768C265.728 107.727 265.558 107.488 265.599 107.237L266.717 100.644C266.758 100.394 266.997 100.224 267.248 100.265C267.499 100.305 267.668 100.544 267.627 100.795L266.509 107.388C266.472 107.578 266.334 107.726 266.145 107.764Z" fill="#242F40"/>
<path d="M277.796 124.016L263.027 99.641C262.934 99.4775 262.732 99.3816 262.543 99.4197L234.432 105.062C234.286 105.091 234.155 105.193 234.106 105.325C234.042 105.459 234.059 105.622 234.129 105.744L248.898 130.119C248.992 130.283 249.193 130.379 249.383 130.341L277.493 124.698C277.639 124.669 277.77 124.567 277.82 124.436C277.884 124.302 277.866 124.139 277.796 124.016Z" fill="#242F40"/>
<path d="M285.037 107.051C288.703 107.862 290.051 112.534 289.875 115.815C289.645 120.182 286.649 122.33 282.528 122.808C273.176 123.897 262.606 119.377 254.557 115.095C246.253 110.68 240.547 124.108 248.783 128.49C262.163 135.6 283.791 143.071 297.123 132.04C311.015 120.548 304.499 96.4119 287.558 92.6399L285.037 107.051Z" fill="#F2F3F9"/>
<path d="M286.45 137.503C272.525 140.298 256.135 132.928 248.562 128.898C245.962 127.51 244.409 125.062 244.313 122.169C244.209 119.158 245.7 116.159 248.032 114.706C250.041 113.453 252.435 113.443 254.778 114.686C266.086 120.695 275.144 123.199 282.481 122.348C285.505 121.999 289.179 120.579 289.429 115.782C289.567 112.995 288.485 108.284 284.946 107.509C284.693 107.453 284.538 107.211 284.593 106.958C284.648 106.704 284.89 106.549 285.144 106.604C288.796 107.418 290.544 111.965 290.351 115.84C290.138 120.068 287.378 122.714 282.589 123.266C275.06 124.14 265.827 121.596 254.35 115.5C251.736 114.114 249.75 114.725 248.537 115.483C246.476 116.777 245.16 119.437 245.246 122.133C245.306 123.638 245.862 126.408 249.004 128.082C258.562 133.153 282.333 143.667 296.84 131.688C302.992 126.601 305.559 118.231 303.54 109.842C301.513 101.408 295.539 95.0714 287.882 93.1963C287.739 93.1644 287.643 93.1385 287.494 93.077C287.24 93.022 287.059 92.8007 287.114 92.5466C287.17 92.293 287.412 92.1385 287.665 92.1935C295.859 94.0216 302.28 100.693 304.439 109.631C306.542 118.368 303.85 127.096 297.423 132.404C294.13 135.113 290.386 136.713 286.45 137.503Z" fill="#242F40"/>
<path d="M254.556 115.094C248.044 110.458 244.52 109.679 243.156 110.892C241.792 112.106 246.283 112.418 245.375 113.935C244.466 115.452 241.164 111.019 239.788 111.569C238.412 112.118 242.327 118.171 242.327 118.171C242.327 118.171 239.302 112.47 238.448 113.581C237.667 114.603 239.679 118.657 241.118 120.384C241.259 120.554 237.933 115.701 237.184 116.655C236.436 117.609 238.469 123.206 249.547 128.898L254.556 115.094Z" fill="#F2F3F9"/>
<path d="M249.655 129.361C249.553 129.381 249.445 129.373 249.358 129.315C240.903 124.977 237.24 120.405 236.672 117.804C236.531 117.181 236.598 116.682 236.84 116.376C236.951 116.247 237.254 115.944 237.794 116.139C237.957 116.197 238.146 116.31 238.36 116.465C237.839 115.159 237.623 113.929 238.089 113.305C238.269 113.071 238.52 112.96 238.797 112.981C238.938 112.998 239.069 113.047 239.22 113.123C239.045 112.552 238.989 112.047 239.103 111.706C239.184 111.432 239.371 111.228 239.624 111.131C240.496 110.789 241.608 111.643 242.772 112.531C243.49 113.085 244.494 113.854 244.873 113.778C244.887 113.775 244.931 113.766 244.975 113.682C245.042 113.562 245.03 113.504 245.027 113.489C244.946 113.233 244.286 112.895 243.849 112.679C243.157 112.333 242.501 112.01 242.427 111.418C242.38 111.109 242.517 110.808 242.838 110.517C244.628 108.929 248.77 110.372 254.807 114.68C255.017 114.82 255.061 115.114 254.921 115.324C254.781 115.534 254.487 115.578 254.277 115.439C246.471 109.878 244.104 110.626 243.448 111.213C243.357 111.292 243.337 111.341 243.337 111.341C243.398 111.42 243.938 111.691 244.259 111.854C244.968 112.212 245.709 112.579 245.899 113.223C245.958 113.439 245.993 113.765 245.751 114.147C245.579 114.424 245.343 114.608 245.037 114.67C245.037 114.67 245.037 114.67 245.023 114.673C244.221 114.834 243.269 114.1 242.172 113.243C241.437 112.678 240.319 111.796 239.928 111.965C239.748 112.274 240.283 113.653 241.185 115.352C241.812 116.287 242.364 117.299 242.703 117.928C242.823 118.147 242.742 118.421 242.523 118.541C242.307 118.675 242.033 118.594 241.902 118.393C241.589 117.894 240.987 116.938 240.409 115.871C239.694 114.802 239.069 114.033 238.751 113.884C238.452 114.506 239.34 116.814 240.49 118.691C240.916 119.227 241.261 119.734 241.445 120.046C241.445 120.046 241.448 120.061 241.462 120.058C241.535 120.194 241.571 120.294 241.582 120.352C241.591 120.547 241.46 120.725 241.276 120.792C241.093 120.86 240.883 120.796 240.763 120.653C240.523 120.367 240.229 119.957 239.937 119.485C239.137 118.447 238.025 117.139 237.523 116.982C237.497 117.078 237.494 117.291 237.579 117.638C237.702 118.174 239.14 122.995 249.763 128.46C249.984 128.582 250.084 128.851 249.964 129.087C249.906 129.25 249.787 129.335 249.655 129.361Z" fill="#242F40"/>
<path d="M257.468 132.994C257.395 133.009 257.305 133.012 257.223 132.982C256.978 132.895 256.85 132.633 256.937 132.388L261.602 118.836C261.69 118.591 261.952 118.462 262.197 118.55C262.442 118.637 262.57 118.899 262.483 119.144L257.818 132.696C257.757 132.845 257.629 132.962 257.468 132.994Z" fill="#242F40"/>
<path d="M276.251 72.2856C273.598 74.2586 272.765 76.1543 272.765 76.1543L273.729 77.0225C273.729 77.0225 273.081 80.2917 276.088 81.295L275.483 91.3485C274.853 91.3841 274.24 91.4314 273.663 91.5018L273.654 91.5338L274.753 99.198L278.076 96.2565L281.151 93.5165L283.285 91.6025C282.631 91.5212 281.963 91.4431 281.243 91.4055L281.728 80.7545C282.78 79.9519 283.494 78.5958 283.802 76.5018C284.507 71.8568 278.903 70.313 276.251 72.2856Z" fill="#F2F3F9"/>
<path d="M274.874 99.6438C274.786 99.6616 274.707 99.6471 274.626 99.618C274.462 99.5597 274.357 99.4141 274.325 99.2539L273.226 91.5892C273.217 91.5455 273.226 91.5136 273.217 91.4699C273.234 91.2539 273.424 91.0645 273.631 91.0378C274.089 90.9763 274.567 90.9411 275.06 90.9027L275.616 81.5871C273.413 80.6643 273.076 78.4575 273.23 77.1832L272.451 76.4752C272.302 76.3385 272.261 76.1346 272.331 75.9537C272.36 75.872 273.242 73.9209 275.962 71.9042C277.559 70.7192 280.187 70.6618 282.083 71.7974C283.773 72.8079 284.576 74.5423 284.265 76.5452C283.964 78.5922 283.282 80.0332 282.18 80.9669L281.73 90.9589C282.237 90.9937 282.765 91.0544 283.357 91.1329C283.529 91.1588 283.69 91.2785 283.739 91.4505C283.789 91.6224 283.737 91.815 283.609 91.9315L275.078 99.5273C275.031 99.5973 274.961 99.6264 274.874 99.6438ZM274.2 91.9092L275.129 98.2736L282.244 91.9327C281.902 91.8951 281.579 91.8688 281.24 91.8457C280.996 91.8344 280.8 91.6159 280.811 91.3708L281.297 80.7197C281.299 80.5826 281.366 80.4633 281.471 80.3815C282.468 79.6052 283.088 78.3131 283.376 76.4206C283.704 74.2016 282.414 73.0656 281.623 72.6024C280.039 71.6618 277.843 71.678 276.537 72.653C274.622 74.0685 273.686 75.4541 273.349 76.0375L274.052 76.6694C274.166 76.7831 274.227 76.9376 274.198 77.095C274.175 77.2058 273.672 79.9907 276.254 80.8371C276.449 80.9042 276.578 81.0907 276.575 81.3035L275.97 91.357C275.956 91.5872 275.781 91.7741 275.527 91.7947C275.063 91.8271 274.632 91.8684 274.2 91.9092Z" fill="#242F40"/>
<path d="M282.825 72.5432C281.984 71.9081 281.027 71.5998 280.013 71.5306C278.854 70.6713 277.468 69.9638 276.217 70.1543C275.482 70.2716 274.94 70.8202 275.052 71.6014C275.222 72.7499 276.458 72.9413 277.025 73.7981C277.068 73.8653 277.127 73.9292 277.194 73.9616C278.011 75.0106 279.526 75.8286 280.45 76.204C281.524 76.6405 280.968 78.1017 280.009 78.2336C279.166 78.342 280.582 80.3324 281.028 80.5917C281.218 80.705 281.416 80.7867 281.626 80.8507C282.743 80.0654 283.512 78.6831 283.834 76.5106C284.008 75.2626 283.567 73.8196 282.825 72.5432Z" fill="#242F40"/>
<path d="M176.04 196.026L142.316 202.795L144.675 214.543L178.399 207.774L176.04 196.026Z" fill="#F2F3F9"/>
<path d="M178.493 208.24L144.769 215.009C144.521 215.059 144.276 214.896 144.226 214.648L141.867 202.9C141.817 202.652 141.98 202.407 142.228 202.357L175.952 195.588C176.2 195.539 176.445 195.702 176.495 195.95L178.854 207.698C178.904 207.945 178.741 208.19 178.493 208.24ZM145.037 214L177.857 207.413L175.679 196.568L142.859 203.156L145.037 214Z" fill="#242F40"/>
<path d="M168.83 187.238L133.721 194.284L135.653 203.905L170.762 196.858L168.83 187.238Z" fill="#F2F3F9"/>
<path d="M170.838 197.313L135.744 204.357C135.496 204.406 135.251 204.243 135.201 203.996L133.269 194.375C133.219 194.128 133.382 193.883 133.631 193.833L168.74 186.786C168.987 186.736 169.232 186.899 169.282 187.147L171.214 196.767C171.252 197.033 171.086 197.263 170.838 197.313ZM136.014 203.362L170.219 196.497L168.469 187.78L134.264 194.646L136.014 203.362Z" fill="#242F40"/>
<path d="M142.281 202.62C142.033 202.67 141.788 202.507 141.738 202.259L139.888 193.047C139.839 192.799 140.002 192.554 140.25 192.504C140.498 192.454 140.743 192.617 140.792 192.865L142.642 202.077C142.692 202.325 142.529 202.57 142.281 202.62Z" fill="#242F40"/>
<path d="M145.284 202.017C145.037 202.067 144.791 201.903 144.742 201.656L142.892 192.444C142.842 192.196 143.005 191.951 143.253 191.901C143.501 191.852 143.746 192.015 143.796 192.263L145.646 201.474C145.695 201.722 145.532 201.967 145.284 202.017Z" fill="#242F40"/>
<path d="M166.19 206.419L149.671 209.734C149.423 209.784 149.177 209.621 149.128 209.373L148.305 205.277C148.256 205.029 148.419 204.785 148.666 204.735L165.186 201.419C165.434 201.369 165.679 201.532 165.729 201.78L166.551 205.876C166.601 206.124 166.438 206.369 166.19 206.419ZM149.941 208.74L165.556 205.605L164.915 202.413L149.3 205.548L149.941 208.74Z" fill="#242F40"/>
<path d="M159.128 78.8714C158.789 78.8483 157.628 78.8083 157.853 79.1728C159.48 81.7579 163.302 87.5717 167.097 85.627C169.01 84.6516 169.653 82.4148 170.147 80.4961C170.7 78.3382 171.293 76.0051 170.901 73.7486C169.621 66.2421 157.989 72.5952 159.128 78.8714Z" fill="#F2F3F9"/>
<path d="M163.496 82.3464C168.888 85.9344 170.124 88.8403 171.43 87.714C172.721 86.5906 168.515 81.8848 168.515 81.8848C168.515 81.8848 170.678 84.4986 171.806 83.6204C172.934 82.7417 170.701 79.1719 170.701 79.1719C170.701 79.1719 172.689 82.5786 173.511 81.7618C174.333 80.9446 174.64 77.9413 169.237 71.4292L163.496 82.3464Z" fill="#F2F3F9"/>
<path d="M171.069 88.4082C170.238 88.5749 169.38 87.7767 168.192 86.6962C167.077 85.6763 165.536 84.2721 163.24 82.7316C163.03 82.5916 162.971 82.3003 163.111 82.0904C163.251 81.8804 163.542 81.8217 163.752 81.9613C166.116 83.5342 167.677 84.9647 168.827 86.0076C170.316 87.3766 170.745 87.6999 171.129 87.3499C171.155 87.3293 171.208 87.2884 171.219 87.1193C171.28 86.1367 169.642 83.8728 168.437 82.4771C168.299 82.3226 168.203 82.2206 168.163 82.168C168.002 81.973 168.022 81.6959 168.214 81.5208C168.41 81.3602 168.687 81.3804 168.859 81.5584C168.9 81.6106 168.996 81.7125 169.133 81.8671C169.927 82.7239 171.071 83.586 171.517 83.2385C171.948 82.8942 171.352 81.2092 170.511 79.7407C170.421 79.5919 170.35 79.4697 170.287 79.3762C170.152 79.1606 170.231 78.8718 170.449 78.7524C170.665 78.6181 170.951 78.682 171.085 78.8976C171.149 78.9907 171.223 79.1278 171.31 79.2617C172.043 80.4188 172.889 81.386 173.193 81.386C173.872 80.6886 173.887 77.7439 168.861 71.6716C168.7 71.4762 168.732 71.1816 168.927 71.021C169.122 70.8608 169.414 70.8778 169.578 71.0878C176.143 79.0044 174.269 81.6098 173.826 82.0475C173.625 82.2546 173.368 82.3363 173.074 82.3044C172.887 82.2813 172.704 82.1968 172.511 82.0685C172.666 82.8412 172.611 83.5496 172.098 83.9408C171.745 84.224 171.328 84.262 170.917 84.1778C171.612 85.2212 172.19 86.3636 172.138 87.1626C172.118 87.5154 171.981 87.8156 171.736 88.0316C171.509 88.2594 171.287 88.3645 171.069 88.4082Z" fill="#242F40"/>
<path d="M169.572 71.1343C157.037 55.0146 136.8 47.2945 116.758 50.9683C112.41 51.7498 108.094 53.0711 103.913 54.911C103.689 55.0016 103.467 55.1068 103.246 55.212C100.342 56.5377 99.3526 59.9962 99.6553 62.6347C99.7698 63.7339 100.1 64.7744 100.626 65.6547C102.088 68.1054 104.525 69.3604 107.444 69.1686C108.642 69.095 109.841 68.7936 110.993 68.2592C127.363 60.8037 147.088 66.0487 157.892 80.7266C157.974 80.8314 158.094 80.8986 158.219 80.9188C158.266 80.9245 158.309 80.916 158.353 80.9071C158.441 80.8897 158.508 80.8456 158.572 80.7873C162.107 77.4696 166.037 74.452 169.493 71.8022C169.584 71.7233 169.654 71.6182 169.674 71.4928C169.677 71.356 169.65 71.2245 169.572 71.1343Z" fill="#242F40"/>
<path d="M158.246 80.4434C161.123 83.596 161.627 86.103 167.717 86.0638L158.246 80.4434Z" fill="#F2F3F9"/>
<path d="M167.807 86.5153C167.778 86.5214 167.749 86.527 167.716 86.5185C162.61 86.5428 161.188 84.7506 159.37 82.4924C158.923 81.9301 158.459 81.356 157.895 80.7411C157.72 80.549 157.738 80.2573 157.915 80.0849C158.108 79.9102 158.399 79.9272 158.572 80.1052C159.152 80.7314 159.623 81.3346 160.083 81.8941C161.867 84.1292 163.041 85.5917 167.695 85.5824C167.952 85.5767 168.162 85.7919 168.15 86.0371C168.186 86.2879 168.025 86.4716 167.807 86.5153Z" fill="#242F40"/>
<path d="M120.204 57.8585C118.475 54.6872 114.236 52.9149 110.898 54.798C109.89 55.3644 109.033 56.1581 108.386 57.0914C106.496 57.1222 104.361 57.2929 101.99 57.5716C89.5003 59.1231 89.1899 61.2781 89.6181 72.5493C89.9062 79.9518 91.0651 93.7304 91.0768 93.8643C91.0889 93.9987 91.1589 94.1208 91.2637 94.1908C91.3718 94.2754 91.4972 94.2956 91.6283 94.2693L123.3 87.8519C123.533 87.805 123.687 87.5922 123.67 87.3531C123.655 87.2803 122.801 79.5513 122.144 71.1464C122.112 70.6828 122.08 70.2191 122.047 69.7555C123.365 65.5939 122.245 61.6034 120.204 57.8585Z" fill="#242F40"/>
<path d="M116.36 78.9033C116.267 78.8159 116.121 78.7694 115.987 78.7811C106.293 80.0595 98.4134 84.0217 92.0896 87.2014C90.7256 87.8847 89.4457 88.536 88.2677 89.0907C82.6407 91.7365 78.9172 92.5294 77.1809 91.4375C76.4865 91.0006 76.1361 90.2368 76.1353 89.0996C76.1053 83.8137 83.9558 78.9478 87.719 76.6151C93.3424 73.121 99.4331 70.7463 106.365 69.4611C106.846 69.3644 107.234 69.2564 107.543 69.1338C109.286 68.5257 110.616 67.3647 111.387 65.7691C112.252 63.9579 112.341 61.7564 111.625 59.7017C110.435 56.3467 107.445 54.4449 104.012 54.8762C103.834 54.8964 103.645 54.9344 103.455 54.9725C99.8483 55.6663 96.3113 56.6339 92.9612 57.8525C86.5379 60.1576 80.4621 63.4393 74.9124 67.6009C67.6717 73.0118 59.5031 81.8084 61.6987 92.8923C63.8324 103.669 74.7048 107.81 83.8527 106.232C84.0861 106.185 84.337 106.15 84.5701 106.103C89.3817 105.138 93.915 102.863 98.3114 100.661L99.705 99.9723C104.431 97.5984 109.472 95.2823 114.444 94.2843C114.517 94.2698 114.578 94.2726 114.648 94.2435C114.838 94.2054 114.989 94.0537 115.009 93.8527C115.288 91.7648 115.534 89.5923 115.737 87.3531C115.823 86.4259 115.925 85.4958 116.026 84.5654C116.223 82.8278 116.412 81.0462 116.51 79.2674C116.527 79.1274 116.472 79.0024 116.36 78.9033Z" fill="#242F40"/>
<path d="M90.7555 88.2576C90.5803 88.2928 90.3848 88.226 90.274 88.0509C90.1396 87.8352 90.2036 87.5496 90.4047 87.4181C96.5003 83.4806 106.848 79.872 114.462 79.0411C114.716 79.0209 114.95 79.2013 114.97 79.455C114.991 79.7086 114.793 79.9303 114.556 79.9627C107.062 80.7843 96.8831 84.3286 90.8955 88.1993C90.8692 88.2196 90.8138 88.2458 90.7555 88.2576Z" fill="#F2F3F9"/>
<path d="M114.435 93.9375C118.404 93.2316 125.126 92.7922 125.277 91.5794C125.443 90.3633 121.444 89.7104 121.444 89.7104C121.444 89.7104 125.356 90.6841 126.054 89.6339C126.754 88.5837 121.593 86.4505 121.593 86.4505C121.593 86.4505 126.45 88.1294 127.1 87.1346C127.749 86.1398 122.376 83.9281 121.926 82.9722C121.476 82.0162 125.428 81.6776 125.555 80.7273C125.683 79.7766 119.166 78.2187 116.058 79.2822L114.435 93.9375Z" fill="#F2F3F9"/>
<path d="M122.799 93.1382C121.647 93.3696 120.142 93.5803 118.238 93.8413C116.937 94.0116 115.608 94.1872 114.511 94.3923C114.263 94.442 114.015 94.2644 113.98 94.0136C113.93 93.766 114.082 93.5383 114.359 93.4828C115.473 93.2895 116.817 93.1106 118.129 92.9229C120.509 92.6122 124.51 92.0669 124.848 91.4835C124.874 91.2356 123.943 90.7553 122.584 90.4066C122.065 90.3136 121.636 90.2177 121.365 90.1509C121.125 90.0927 120.971 89.8508 121.029 89.6117C121.072 89.3754 121.311 89.2063 121.562 89.2468C121.828 89.2844 122.254 89.3657 122.732 89.4822C124.112 89.7055 125.465 89.7221 125.695 89.3572C125.613 88.9494 123.632 87.7698 121.447 86.8591C121.216 86.7689 121.103 86.5035 121.193 86.2729C121.283 86.0427 121.545 85.9141 121.776 86.0043C124.075 86.8017 126.431 87.2082 126.743 86.8725C126.635 86.5606 124.946 85.55 124.036 85.02C122.606 84.1701 121.774 83.6547 121.538 83.1563C121.435 82.9491 121.435 82.7218 121.528 82.5057C121.767 81.9576 122.589 81.6712 123.557 81.3556C124.027 81.2007 124.849 80.9142 125.079 80.7014C124.283 79.9817 119 78.7523 116.236 79.7168C115.994 79.7957 115.725 79.6674 115.646 79.4255C115.568 79.1836 115.696 78.9153 115.938 78.8365C118.862 77.84 124.451 79.008 125.668 80.0072C126.03 80.2985 126.074 80.5926 126.036 80.7824C125.94 81.5142 124.961 81.8471 123.841 82.2387C123.372 82.3937 122.634 82.6477 122.415 82.8435C122.675 83.155 123.76 83.8015 124.501 84.2445C126.328 85.3336 127.454 86.0322 127.618 86.7729C127.665 87.006 127.63 87.2103 127.516 87.3996C127.19 87.8899 126.362 87.9955 125.371 87.8911C125.971 88.3163 126.438 88.7532 126.567 89.1671C126.649 89.424 126.611 89.689 126.474 89.9139C126.23 90.2812 125.769 90.4799 125.209 90.562C125.588 90.865 125.831 91.2408 125.767 91.6781C125.642 92.34 124.723 92.7518 122.799 93.1382Z" fill="#242F40"/>
<path d="M107.757 53.8817L108.541 46.2336C111.682 45.785 111.619 42.447 111.619 42.447L112.723 41.7549C112.723 41.7549 112.247 39.7582 109.987 37.3457C107.728 34.9333 101.937 35.4741 101.782 40.145C101.708 42.2674 102.185 43.7339 103.075 44.6923L101.596 55.8312C98.7056 56.4716 95.8803 57.2815 93.1219 58.2747C94.8501 60.4605 97.3391 61.9776 100.113 62.5731C101.318 62.8316 102.563 62.9153 103.832 62.8126C106.728 62.5799 109.177 61.482 111.197 59.833C113.441 58.0178 115.169 55.5177 116.432 52.7469C116.633 52.3124 116.77 51.8605 116.831 51.4087C113.79 51.9734 110.754 52.7951 107.757 53.8817Z" fill="#F2F3F9"/>
<path d="M105.521 63.0648C104.981 63.1732 104.436 63.2525 103.881 63.2877C102.584 63.3965 101.292 63.3071 100.023 63.0312C97.138 62.4122 94.5616 60.8369 92.7723 58.5727C92.6731 58.4561 92.644 58.3105 92.6905 58.1645C92.7371 58.0188 92.8358 57.908 92.979 57.8639C95.5797 56.9176 98.3467 56.1195 101.19 55.473L102.608 44.862C101.706 43.7693 101.28 42.1717 101.342 40.1426C101.405 38.1132 102.5 36.5438 104.334 35.8573C106.393 35.0802 108.968 35.5944 110.337 37.0483C112.655 39.5248 113.175 41.5888 113.193 41.6762C113.231 41.8655 113.149 42.0641 112.989 42.1717L112.1 42.7296C112.025 44.0181 111.312 46.1327 108.991 46.659L108.322 53.2229C111.159 52.2439 113.996 51.4926 116.778 50.9946C116.924 50.9655 117.07 51.012 117.184 51.1257C117.295 51.2248 117.341 51.3822 117.324 51.5221C117.242 52.0234 117.097 52.5076 116.89 52.989C115.475 56.0628 113.675 58.5019 111.524 60.2528C109.699 61.6654 107.693 62.6291 105.521 63.0648ZM93.8952 58.499C95.521 60.326 97.7352 61.61 100.191 62.1331C101.364 62.3827 102.58 62.4725 103.788 62.3665C106.43 62.1546 108.815 61.1905 110.902 59.4983C112.936 57.8465 114.652 55.5155 116.018 52.5728C116.102 52.3887 116.169 52.1933 116.236 51.9979C113.489 52.5189 110.705 53.3054 107.932 54.3018C107.777 54.3629 107.62 54.3342 107.494 54.2379C107.369 54.1416 107.308 53.9875 107.322 53.8329L108.107 46.1845C108.124 45.9689 108.255 45.7909 108.494 45.7731C111.207 45.3802 111.187 42.5642 111.178 42.4444C111.175 42.2781 111.251 42.1264 111.403 42.0508L112.198 41.5572C111.965 40.9221 111.296 39.4034 109.673 37.6669C108.552 36.4664 106.391 36.0511 104.673 36.7142C103.813 37.0385 102.353 37.923 102.273 40.1681C102.215 42.0751 102.587 43.4712 103.439 44.3919C103.535 44.4939 103.577 44.6221 103.559 44.7621L102.08 55.901C102.056 56.0875 101.908 56.2538 101.719 56.2918C99.0034 56.8974 96.391 57.6341 93.8952 58.499Z" fill="#242F40"/>
<path d="M103.465 36.441C102.51 37.573 101.819 38.8942 101.782 40.1451C101.708 42.3436 102.222 43.8477 103.174 44.8089C103.381 44.7826 103.6 44.7389 103.813 44.6657C104.294 44.4933 106.045 42.7922 105.234 42.5305C104.327 42.2424 104.02 40.712 105.169 40.466C106.679 40.1327 109.825 39.0312 109.584 37.0021C109.584 37.0021 109.584 37.0021 109.582 36.9875C107.592 35.916 105.381 35.4803 103.465 36.441Z" fill="#242F40"/>
<path d="M102.571 41.1999C102.457 40.9345 102.118 40.7601 101.833 40.9992C95.3183 46.2491 86.5666 43.3808 79.1491 45.8704C77.3589 46.4724 74.9335 48.0663 75.9471 50.3193C76.9021 52.4322 79.4655 51.751 81.1565 51.2602C84.7372 50.2076 87.1271 51.7599 90.5079 52.6584C92.7508 53.2543 94.8388 53.0022 96.614 51.4176C97.7826 50.3642 98.6712 48.9729 99.6035 47.7245C100.652 46.3008 102.468 44.6171 103.074 42.9487C103.347 42.1963 103.075 41.4474 102.571 41.1999Z" fill="#242F40"/>
<defs>
<linearGradient id="paint0_linear_4609_639" x1="107.062" y1="105.98" x2="215.76" y2="181.309" gradientUnits="userSpaceOnUse">
<stop stop-color="#AE8B2D"/>
<stop offset="1" stop-color="white" stop-opacity="0"/>
</linearGradient>
</defs>
</svg>
