<svg width="668" height="132" viewBox="0 0 668 132" fill="none" xmlns="http://www.w3.org/2000/svg">
    <path fill-rule="evenodd" clip-rule="evenodd" d="M1.20061 23.8593C1.95015 23.3669 2.89785 23.2826 3.72308 23.635L62.5 48.734L121.277 23.635C122.102 23.2826 123.05 23.3669 123.799 23.8593C124.549 24.3518 125 25.1865 125 26.0811V102.726C125 103.776 124.38 104.728 123.418 105.156L63.5889 131.769C62.8959 132.077 62.1041 132.077 61.4112 131.769L1.58213 105.156C0.619753 104.728 0 103.776 0 102.726V26.0811C0 25.1865 0.451077 24.3518 1.20061 23.8593ZM59.8291 53.3842L5.34188 30.117V101L59.8291 125.236V53.3842ZM65.171 125.236L119.658 101V30.117L65.171 53.3842V125.236Z" fill="#242F40"/>
    <path fill-rule="evenodd" clip-rule="evenodd" d="M109.816 18.089C110.411 19.434 109.799 21.0047 108.449 21.5972L63.5767 41.2907C62.8831 41.5951 62.0924 41.5916 61.4015 41.281L17.5981 21.5875C16.2535 20.983 15.6553 19.4069 16.262 18.0672C16.8687 16.7275 18.4506 16.1315 19.7951 16.736L62.5131 35.9414L106.295 16.7262C107.645 16.1338 109.222 16.7439 109.816 18.089Z" fill="#8A6B24"/>
    <path fill-rule="evenodd" clip-rule="evenodd" d="M95.918 12.2134C96.5241 13.5534 95.9253 15.1292 94.5805 15.7331L63.7649 29.5718C63.0593 29.8887 62.2504 29.885 61.5478 29.5618L31.4659 15.7231C30.1266 15.107 29.5422 13.5258 30.1605 12.1914C30.7789 10.8569 32.3658 10.2746 33.7051 10.8907L62.6807 24.2205L92.3855 10.8807C93.7303 10.2767 95.3119 10.8734 95.918 12.2134Z" fill="#8A6B24"/>
    <path fill-rule="evenodd" clip-rule="evenodd" d="M82.0332 6.89987C82.6343 8.24208 82.0296 9.8157 80.6825 10.4146L63.9231 17.8662C63.2228 18.1776 62.4218 18.174 61.7243 17.8563L45.364 10.4047C44.0224 9.79369 43.4319 8.21469 44.0452 6.87795C44.6585 5.54121 46.2432 4.95292 47.5848 5.56397L62.848 12.5158L78.5056 5.55407C79.8527 4.95512 81.4321 5.55766 82.0332 6.89987Z" fill="#8A6B24"/>
    <path fill-rule="evenodd" clip-rule="evenodd" d="M71.2615 1.39918C71.9614 2.69301 71.476 4.30716 70.1775 5.00449L64.2306 8.19802C63.4312 8.62735 62.4675 8.62248 61.6725 8.18511L55.8672 4.99158C54.5758 4.28118 54.1069 2.66221 54.8199 1.37551C55.5329 0.0888063 57.1577 -0.378382 58.4491 0.332015L62.9788 2.82386L67.6431 0.319104C68.9416 -0.378222 70.5616 0.105343 71.2615 1.39918Z" fill="#8A6B24"/>
    <path d="M196.758 89.5829C193.211 89.5829 189.904 89.2235 186.838 88.5048C183.772 87.7262 180.826 86.6481 178 85.2706L181.878 70.5369H184.854L189.093 87.1572L185.936 84.6417L183.05 80.8684C185.275 82.1262 187.199 83.1144 188.822 83.8332C190.445 84.492 191.948 84.9711 193.331 85.2706C194.774 85.5102 196.247 85.6299 197.75 85.6299C202.199 85.6299 205.596 84.7315 207.941 82.9348C210.346 81.0781 211.548 78.7123 211.548 75.8374C211.548 73.6214 210.887 71.7348 209.564 70.1775C208.302 68.6203 206.558 67.2428 204.333 66.0449C202.169 64.7872 199.764 63.4995 197.119 62.1818C194.053 60.7444 191.197 59.2471 188.551 57.6898C185.906 56.1326 183.742 54.2759 182.058 52.1198C180.435 49.9037 179.623 47.1786 179.623 43.9444C179.623 40.7701 180.495 37.8652 182.239 35.2299C183.982 32.5348 186.537 30.3786 189.904 28.7615C193.271 27.1444 197.359 26.3358 202.169 26.3358C205.416 26.3358 208.452 26.6952 211.278 27.4139C214.163 28.1326 216.959 29.1508 219.665 30.4685L216.057 44.5733H212.991L208.933 28.7615L214.795 34.7807C212.751 33.6428 210.947 32.7444 209.384 32.0856C207.881 31.4267 206.468 30.9775 205.145 30.738C203.822 30.4385 202.44 30.2888 200.997 30.2888C197.029 30.2888 194.053 31.0973 192.069 32.7144C190.085 34.2717 189.093 36.3979 189.093 39.093C189.093 41.2492 189.664 43.046 190.806 44.4834C192.008 45.9209 193.602 47.2086 195.586 48.3465C197.63 49.4246 199.914 50.5626 202.44 51.7604C205.686 53.2578 208.752 54.8449 211.638 56.5219C214.524 58.1989 216.869 60.2053 218.673 62.5412C220.536 64.8171 221.468 67.7219 221.468 71.2556C221.468 74.6096 220.476 77.6642 218.492 80.4192C216.568 83.1743 213.743 85.3904 210.015 87.0674C206.348 88.7444 201.929 89.5829 196.758 89.5829Z" fill="#242F40"/>
    <path d="M269.751 51.0417L262.266 58.5882C261.183 56.2524 259.861 54.3059 258.297 52.7487C256.794 51.1315 254.6 50.323 251.714 50.323C248.949 50.323 246.694 51.1016 244.95 52.6588C243.207 54.216 241.914 56.2824 241.073 58.8578C240.231 61.4332 239.81 64.1882 239.81 67.123C239.81 69.8182 240.171 72.3037 240.892 74.5797C241.614 76.7957 242.756 78.5925 244.319 79.9701C245.942 81.2877 247.987 81.9465 250.452 81.9465C252.616 81.9465 254.57 81.4973 256.313 80.5989C258.117 79.7005 259.71 78.6225 261.093 77.3647V79.9701C259.71 81.7069 258.207 83.3241 256.584 84.8214C254.961 86.2588 253.157 87.4267 251.173 88.3251C249.249 89.1636 247.085 89.5829 244.68 89.5829C242.095 89.5829 239.81 89.0438 237.826 87.9658C235.902 86.8877 234.309 85.4503 233.046 83.6535C231.844 81.8567 230.912 79.8203 230.251 77.5444C229.649 75.2684 229.349 72.9326 229.349 70.5369C229.349 66.1048 230.341 62.092 232.325 58.4984C234.309 54.8449 237.104 51.9701 240.712 49.8738C244.379 47.7775 248.768 46.7294 253.879 46.7294C256.764 46.7294 259.56 47.1187 262.266 47.8973C265.031 48.6759 267.526 49.7241 269.751 51.0417ZM270.562 103.149C270.983 103.867 271.584 104.347 272.366 104.586C273.208 104.886 274.32 105.155 275.703 105.395V108C274.08 107.88 272.757 107.79 271.735 107.73C270.713 107.73 269.691 107.701 268.669 107.641C267.646 107.641 266.294 107.641 264.61 107.641C262.987 107.641 261.574 107.641 260.372 107.641C259.169 107.701 257.847 107.73 256.404 107.73C254.961 107.79 253.067 107.88 250.722 108V105.395C253.428 105.155 255.291 104.916 256.313 104.676C257.396 104.436 258.117 104.017 258.478 103.418C258.899 102.759 259.139 101.771 259.199 100.453C259.32 99.1358 259.38 97.2791 259.38 94.8834V49.9636H263.348L267.316 45.1123H269.751V94.9733C269.751 97.1893 269.781 98.9262 269.841 100.184C269.961 101.502 270.202 102.49 270.562 103.149Z" fill="#242F40"/>
    <path d="M323.064 46.7294V75.8374C323.064 78.4727 323.215 80.4791 323.515 81.8567C323.876 83.1743 324.507 84.0727 325.409 84.5519C326.311 84.9711 327.634 85.1807 329.377 85.1807V87.7861L312.693 89.5829V60.2053C312.693 57.6299 312.543 55.7134 312.242 54.4556C311.942 53.138 311.341 52.2695 310.439 51.8503C309.537 51.431 308.214 51.2214 306.471 51.2214V48.616L323.064 46.7294ZM314.317 77.2749L316.03 78.0834C314.467 80.0599 312.874 81.9465 311.25 83.7433C309.627 85.4802 307.793 86.8877 305.749 87.9658C303.765 89.0438 301.451 89.5829 298.805 89.5829C294.537 89.5829 291.14 88.2652 288.615 85.6299C286.089 82.9946 284.827 79.1016 284.827 73.9508V60.2053C284.827 57.6299 284.677 55.7134 284.376 54.4556C284.075 53.138 283.474 52.2695 282.572 51.8503C281.67 51.431 280.348 51.2214 278.604 51.2214V48.616L295.198 46.7294V70.6267C295.198 73.3818 295.529 75.5979 296.19 77.2749C296.851 78.892 297.843 80.0898 299.166 80.8684C300.489 81.5872 302.142 81.9465 304.126 81.9465C306.531 81.9465 308.545 81.4973 310.168 80.5989C311.792 79.6406 313.174 78.5326 314.317 77.2749Z" fill="#242F40"/>
    <path d="M336.286 54.9946C337.729 53.6171 339.322 52.2995 341.066 51.0417C342.809 49.784 344.733 48.7658 346.838 47.9872C348.942 47.1487 351.226 46.7294 353.691 46.7294C357.96 46.7294 361.357 48.077 363.882 50.7722C366.467 53.4075 367.73 57.0909 367.67 61.8225L367.399 78.8021C367.399 80.4791 367.58 81.8267 367.94 82.8449C368.361 83.8032 369.053 84.492 370.015 84.9112C371.037 85.3305 372.45 85.5401 374.253 85.5401V88.0556C372.75 88.5348 371.307 88.8941 369.924 89.1337C368.542 89.4332 367.249 89.5829 366.047 89.5829C363.642 89.5829 361.567 89.0438 359.824 87.9658C358.141 86.8877 357.329 85.031 357.389 82.3957L357.569 65.2364C357.629 63.2599 357.479 61.4032 357.118 59.6663C356.758 57.8695 355.976 56.4321 354.774 55.354C353.571 54.216 351.707 53.6471 349.182 53.6471C347.078 53.6471 345.064 54.0364 343.14 54.815C341.216 55.5337 339.503 56.3722 338 57.3305L336.286 54.9946ZM359.283 75.5679L359.553 78.6225C358.05 80.6588 356.487 82.5155 354.864 84.1925C353.241 85.8695 351.527 87.1872 349.723 88.1455C347.98 89.1037 346.026 89.5829 343.862 89.5829C341.396 89.5829 339.202 88.8342 337.278 87.3369C335.354 85.7797 334.392 83.4738 334.392 80.4192C334.392 78.8021 334.753 77.185 335.474 75.5679C336.256 73.8909 337.489 72.3037 339.172 70.8064C340.916 69.2492 343.23 67.8118 346.116 66.4941C349.062 65.1765 352.699 64.0684 357.028 63.1701L363.612 61.7326L362.62 65.6856L358.02 66.584C355.255 67.123 352.85 67.9016 350.806 68.9198C348.761 69.938 347.198 71.1658 346.116 72.6032C345.094 73.9807 344.583 75.508 344.583 77.185C344.583 79.0417 345.094 80.3893 346.116 81.2278C347.198 82.0064 348.431 82.3957 349.814 82.3957C351.196 82.3957 352.429 82.0663 353.511 81.4075C354.653 80.6888 355.706 79.7904 356.668 78.7123C357.629 77.6342 358.501 76.5861 359.283 75.5679Z" fill="#242F40"/>
    <path d="M393.848 64.1583L392.315 64.5176C394.119 61.0438 395.862 58.0492 397.546 55.5337C399.289 53.0182 401.063 51.0717 402.867 49.6941C404.73 48.3166 406.835 47.6278 409.179 47.6278C409.48 47.6278 409.871 47.6578 410.352 47.7176C410.893 47.7176 411.434 47.7775 411.975 47.8973L410.352 57.8695C406.624 57.8695 403.318 58.3487 400.432 59.3069C397.606 60.2053 395.411 61.8225 393.848 64.1583ZM395.201 58.3187V75.6577C395.201 77.8738 395.231 79.6406 395.291 80.9583C395.411 82.216 395.652 83.1743 396.013 83.8332C396.434 84.5519 397.125 85.061 398.087 85.3604C399.109 85.6 400.943 85.8396 403.588 86.0791V88.6845C401.664 88.6246 400.071 88.5647 398.808 88.5048C397.606 88.4449 396.584 88.415 395.742 88.415C394.9 88.3551 394.029 88.3251 393.127 88.3251C392.285 88.3251 391.263 88.3251 390.061 88.3251C388.437 88.3251 387.145 88.3551 386.183 88.415C385.221 88.415 384.229 88.4449 383.207 88.5048C382.185 88.5048 380.742 88.5647 378.878 88.6845V86.0791C380.201 85.8396 381.283 85.6 382.125 85.3604C382.966 85.1208 383.567 84.7016 383.928 84.1027C384.349 83.4438 384.59 82.4556 384.65 81.138C384.77 79.8203 384.83 77.9636 384.83 75.5679V61.1936C384.83 59.2171 384.8 57.6898 384.74 56.6118C384.68 55.4738 384.409 54.6353 383.928 54.0963C383.567 53.5572 382.996 53.1979 382.215 53.0182C381.493 52.8385 380.441 52.6588 379.058 52.4791V49.6941C381.944 49.4545 384.499 49.0952 386.724 48.616C389.008 48.077 391.203 47.4781 393.307 46.8193L395.652 47.9872C395.472 49.4845 395.351 51.0717 395.291 52.7487C395.231 54.4257 395.201 56.2823 395.201 58.3187Z" fill="#242F40"/>
    <path d="M453.201 80.9583C452.179 82.216 450.796 83.5037 449.052 84.8214C447.369 86.139 445.385 87.2471 443.1 88.1455C440.816 89.0438 438.23 89.493 435.345 89.493C431.136 89.493 427.619 88.5946 424.793 86.7979C421.967 85.0011 419.833 82.5754 418.39 79.5209C417.007 76.4663 416.316 73.1422 416.316 69.5487C416.316 65.2963 417.188 61.4631 418.931 58.0492C420.735 54.5754 423.23 51.8203 426.416 49.784C429.603 47.7476 433.391 46.7294 437.779 46.7294C442.649 46.7294 446.497 48.2267 449.323 51.2214C452.149 54.216 453.561 58.169 453.561 63.0802V67.2128H424.162L424.523 63.9786L443.281 63.2599C443.281 60.8642 443.04 58.708 442.559 56.7914C442.078 54.815 441.297 53.2278 440.214 52.0299C439.132 50.8321 437.689 50.2332 435.886 50.2332C433.902 50.2332 432.248 51.0417 430.926 52.6588C429.663 54.2759 428.701 56.3722 428.04 58.9476C427.438 61.4631 427.138 64.2182 427.138 67.2128C427.138 72.0043 428.19 75.8374 430.294 78.7123C432.459 81.5273 435.735 82.9348 440.124 82.9348C442.649 82.9348 444.814 82.5155 446.617 81.677C448.421 80.7786 449.954 79.7305 451.217 78.5326L453.201 80.9583Z" fill="#242F40"/>
    <path d="M490.663 56.8813L490.753 55.6235C494.901 56.0428 498.479 56.8513 501.485 58.0492C504.551 59.2471 506.896 60.9241 508.519 63.0802C510.142 65.1765 510.954 67.8717 510.954 71.1658C510.954 75.0588 509.842 78.323 507.617 80.9583C505.453 83.5337 502.326 85.4802 498.238 86.7979C494.21 88.0556 489.49 88.6845 484.079 88.6845H459.82V85.7198C461.624 85.4802 462.946 85.2107 463.788 84.9112C464.69 84.6118 465.321 84.1626 465.682 83.5636C466.163 82.785 466.434 81.677 466.494 80.2396C466.614 78.7422 466.674 76.7658 466.674 74.3102V41.9679C466.674 39.3925 466.614 37.416 466.494 36.0385C466.434 34.6011 466.163 33.523 465.682 32.8043C465.321 32.0856 464.69 31.6064 463.788 31.3668C462.946 31.0674 461.624 30.7979 459.82 30.5583V27.5936H482.546C487.897 27.5936 492.436 28.0128 496.164 28.8513C499.891 29.6898 502.717 31.0973 504.641 33.0738C506.625 34.9904 507.617 37.6856 507.617 41.1594C507.617 43.9144 506.956 46.3401 505.633 48.4364C504.31 50.4727 502.386 52.2096 499.861 53.6471C497.336 55.0246 494.27 56.1027 490.663 56.8813ZM481.193 31.277H477.225V54.9048H480.923C484.41 54.9048 487.266 54.3658 489.49 53.2877C491.775 52.2096 493.458 50.7722 494.541 48.9754C495.683 47.1187 496.254 45.0524 496.254 42.7765C496.254 39.0032 494.901 36.1583 492.196 34.2417C489.49 32.2652 485.823 31.277 481.193 31.277ZM477.225 85.0011H483.989C489.039 85.0011 492.857 83.8631 495.442 81.5872C498.028 79.3112 499.32 76.1668 499.32 72.154C499.32 69.6385 498.749 67.3326 497.607 65.2364C496.525 63.1401 494.841 61.493 492.557 60.2952C490.332 59.0973 487.506 58.4984 484.079 58.4984H477.225V85.0011Z" fill="#242F40"/>
    <path d="M540.382 89.5829C536.174 89.5829 532.446 88.8043 529.2 87.2471C525.953 85.6299 523.398 83.2941 521.534 80.2396C519.731 77.185 518.829 73.4717 518.829 69.0995C518.829 64.5476 519.821 60.5947 521.805 57.2406C523.849 53.8866 526.524 51.3112 529.831 49.5144C533.138 47.6578 536.775 46.7294 540.743 46.7294C545.012 46.7294 548.739 47.5679 551.926 49.2449C555.172 50.862 557.698 53.2278 559.501 56.3422C561.305 59.3968 562.207 63.0802 562.207 67.3925C562.207 71.9444 561.215 75.8973 559.231 79.2513C557.247 82.5454 554.601 85.0909 551.295 86.8877C547.988 88.6845 544.351 89.5829 540.382 89.5829ZM540.743 85.9893C543.148 85.9893 545.102 85.2406 546.605 83.7433C548.108 82.246 549.22 80.2396 549.942 77.7241C550.663 75.2086 551.024 72.3936 551.024 69.2791C551.024 67.0032 550.844 64.7273 550.483 62.4513C550.122 60.1754 549.521 58.139 548.679 56.3422C547.898 54.5455 546.816 53.108 545.433 52.0299C544.11 50.892 542.457 50.323 540.473 50.323C538.128 50.323 536.174 51.0717 534.611 52.569C533.108 54.0663 531.965 56.1027 531.184 58.6781C530.462 61.1936 530.102 64.0086 530.102 67.123C530.102 69.3989 530.282 71.6749 530.643 73.9508C531.003 76.1668 531.605 78.2032 532.446 80.0599C533.288 81.8567 534.4 83.2941 535.783 84.3722C537.166 85.4503 538.819 85.9893 540.743 85.9893Z" fill="#242F40"/>
    <path d="M590.934 89.5829C586.726 89.5829 582.998 88.8043 579.752 87.2471C576.505 85.6299 573.95 83.2941 572.086 80.2396C570.282 77.185 569.381 73.4717 569.381 69.0995C569.381 64.5476 570.373 60.5947 572.357 57.2406C574.401 53.8866 577.076 51.3112 580.383 49.5144C583.69 47.6578 587.327 46.7294 591.295 46.7294C595.564 46.7294 599.291 47.5679 602.478 49.2449C605.724 50.862 608.249 53.2278 610.053 56.3422C611.857 59.3968 612.759 63.0802 612.759 67.3925C612.759 71.9444 611.767 75.8973 609.783 79.2513C607.799 82.5454 605.153 85.0909 601.846 86.8877C598.54 88.6845 594.902 89.5829 590.934 89.5829ZM591.295 85.9893C593.7 85.9893 595.654 85.2406 597.157 83.7433C598.66 82.246 599.772 80.2396 600.494 77.7241C601.215 75.2086 601.576 72.3936 601.576 69.2791C601.576 67.0032 601.396 64.7273 601.035 62.4513C600.674 60.1754 600.073 58.139 599.231 56.3422C598.45 54.5455 597.367 53.108 595.985 52.0299C594.662 50.892 593.009 50.323 591.025 50.323C588.68 50.323 586.726 51.0717 585.163 52.569C583.66 54.0663 582.517 56.1027 581.736 58.6781C581.014 61.1936 580.653 64.0086 580.653 67.123C580.653 69.3989 580.834 71.6749 581.195 73.9508C581.555 76.1668 582.156 78.2032 582.998 80.0599C583.84 81.8567 584.952 83.2941 586.335 84.3722C587.718 85.4503 589.371 85.9893 591.295 85.9893Z" fill="#242F40"/>
    <path d="M638.961 66.4941L645.995 60.6545L659.072 79.7005C660.274 81.4374 661.567 82.8749 662.95 84.0128C664.333 85.1508 666.016 85.9294 668 86.3487V88.6845C666.557 88.5647 665.114 88.5048 663.671 88.5048C662.288 88.4449 660.936 88.415 659.613 88.415C658.411 88.415 657.298 88.4449 656.276 88.5048C655.254 88.5048 654.142 88.5647 652.939 88.6845L638.961 66.4941ZM629.672 76.0171L629.131 73.4118L645.184 57.5102C646.446 56.2524 647.348 55.3241 647.889 54.7251C648.49 54.0663 648.791 53.4674 648.791 52.9283C648.791 52.1497 648.43 51.5508 647.709 51.1315C646.987 50.6524 645.935 50.3529 644.552 50.2332V47.6278C646.476 47.7476 648.37 47.8374 650.234 47.8973C652.098 47.9572 653.811 47.9872 655.374 47.9872C656.757 47.9872 658.23 47.9572 659.793 47.8973C661.417 47.7775 663.16 47.6877 665.024 47.6278V50.2332C663.761 50.3529 662.529 50.6225 661.326 51.0417C660.124 51.461 658.922 52.0299 657.719 52.7487C656.517 53.4075 655.314 54.246 654.112 55.2642L629.672 76.0171ZM635.083 35.5893V75.6577C635.083 77.8738 635.113 79.6406 635.173 80.9583C635.294 82.216 635.534 83.1743 635.895 83.8332C636.316 84.5519 636.917 85.061 637.698 85.3604C638.54 85.6 639.652 85.8396 641.035 86.0791V88.6845C639.232 88.5647 637.819 88.5048 636.797 88.5048C635.775 88.4449 634.783 88.415 633.821 88.415C632.919 88.3551 631.626 88.3251 629.943 88.3251C628.319 88.3251 627.027 88.3551 626.065 88.415C625.103 88.415 624.111 88.4449 623.089 88.5048C622.067 88.5048 620.624 88.5647 618.76 88.6845V86.0791C620.143 85.8396 621.225 85.6 622.007 85.3604C622.848 85.1208 623.45 84.7016 623.81 84.1027C624.231 83.4438 624.472 82.4556 624.532 81.138C624.652 79.8203 624.712 77.9636 624.712 75.5679V38.4642C624.712 36.4877 624.682 34.9604 624.622 33.8824C624.562 32.7444 624.291 31.9059 623.81 31.3668C623.45 30.8877 622.878 30.5583 622.097 30.3786C621.375 30.139 620.323 29.9294 618.94 29.7497V27.0545C621.826 26.7551 624.411 26.3658 626.696 25.8866C629.041 25.3476 631.326 24.7187 633.55 24L635.534 25.0781C635.354 26.5754 635.233 28.1925 635.173 29.9294C635.113 31.6064 635.083 33.493 635.083 35.5893Z" fill="#242F40"/>
</svg>
