<svg width="35" height="36" viewBox="0 0 35 36" fill="none" xmlns="http://www.w3.org/2000/svg">
<path fill-rule="evenodd" clip-rule="evenodd" d="M0.336171 6.50709C0.546041 6.37278 0.811398 6.34979 1.04246 6.4459L17.5 13.2911L33.9575 6.4459C34.1886 6.34979 34.454 6.37278 34.6638 6.50709C34.8737 6.64139 35 6.86904 35 7.11302V28.0162C35 28.3026 34.8265 28.5622 34.557 28.6789L17.8049 35.937C17.6109 36.021 17.3892 36.021 17.1951 35.937L0.442996 28.6789C0.173531 28.5622 0 28.3026 0 28.0162V7.11302C0 6.86904 0.126301 6.64139 0.336171 6.50709ZM16.7521 14.5593L1.49573 8.21373V27.5453L16.7521 34.1553V14.5593ZM18.2479 34.1553L33.5043 27.5453V8.21373L18.2479 14.5593V34.1553Z" fill="#242F40"/>
<path fill-rule="evenodd" clip-rule="evenodd" d="M30.7485 4.93335C30.915 5.30019 30.7436 5.72856 30.3656 5.89015L17.8015 11.2611C17.6073 11.3441 17.3858 11.3432 17.1924 11.2584L4.92746 5.8875C4.55097 5.72263 4.38349 5.29279 4.55336 4.92741C4.72324 4.56203 5.16615 4.39949 5.54263 4.56435L17.5037 9.80221L29.7626 4.5617C30.1406 4.40012 30.582 4.56651 30.7485 4.93335Z" fill="#8A6B24"/>
<path fill-rule="evenodd" clip-rule="evenodd" d="M26.857 3.33092C27.0267 3.69637 26.8591 4.12615 26.4825 4.29086L17.8542 8.06504C17.6566 8.15145 17.4301 8.15046 17.2334 8.0623L8.81044 4.28812C8.43545 4.12009 8.27181 3.68885 8.44495 3.32491C8.61808 2.96098 9.06243 2.80217 9.43742 2.9702L17.5506 6.60558L25.8679 2.96746C26.2445 2.80275 26.6873 2.96548 26.857 3.33092Z" fill="#8A6B24"/>
<path fill-rule="evenodd" clip-rule="evenodd" d="M22.9693 1.88178C23.1376 2.24784 22.9683 2.67701 22.5911 2.84036L17.8985 4.87261C17.7024 4.95754 17.4781 4.95655 17.2828 4.86991L12.7019 2.83766C12.3263 2.67101 12.1609 2.24037 12.3327 1.8758C12.5044 1.51124 12.9481 1.3508 13.3237 1.51745L17.5974 3.41341L21.9816 1.51475C22.3587 1.3514 22.801 1.51573 22.9693 1.88178Z" fill="#8A6B24"/>
<path fill-rule="evenodd" clip-rule="evenodd" d="M19.9532 0.381593C20.1492 0.734457 20.0133 1.17468 19.6497 1.36486L17.9846 2.23582C17.7607 2.35291 17.4909 2.35159 17.2683 2.2323L15.6428 1.36134C15.2812 1.16759 15.1499 0.726057 15.3496 0.375139C15.5492 0.0242199 16.0042 -0.103195 16.3657 0.0905494L17.6341 0.770144L18.9401 0.0870283C19.3036 -0.103151 19.7572 0.0287299 19.9532 0.381593Z" fill="#8A6B24"/>
</svg>
