<svg width="172" height="104" viewBox="0 0 172 104" fill="none" xmlns="http://www.w3.org/2000/svg">
<g clip-path="url(#clip0_4644_1638)">
<path d="M37.6664 66.9473C35.3323 66.9449 33.0945 65.9734 31.4439 64.246C29.7934 62.5186 28.8649 60.1764 28.8623 57.7333V50.7927C27.6724 49.7817 26.8109 48.4098 26.3961 46.8654C25.9814 45.3211 26.0339 43.6802 26.5463 42.1683C27.0587 40.6565 28.006 39.3479 29.2578 38.4224C30.5097 37.4969 32.0047 37 33.5373 37H34.3335C36.2999 37.0026 38.1851 37.8214 39.5756 39.2768C40.9661 40.7323 41.7483 42.7055 41.7508 44.7637V48.4429L47.6028 48.518C48.7588 48.5184 49.9035 48.757 50.9714 49.2204C52.0394 49.6838 53.0096 50.3628 53.8268 51.2187C54.644 52.0746 55.2922 53.0905 55.7343 54.2086C56.1764 55.3267 56.4038 56.5249 56.4034 57.7349C56.4031 58.945 56.1751 60.1431 55.7324 61.2609C55.2897 62.3787 54.641 63.3943 53.8233 64.2497C53.0056 65.105 52.0349 65.7835 50.9668 66.2462C49.8986 66.7089 48.7538 66.9469 47.5978 66.9466L37.6664 66.9473ZM32.7741 57.7333C32.7756 59.0907 33.2916 60.3921 34.2087 61.3518C35.1258 62.3115 36.3693 62.8512 37.6661 62.8524H47.5974C48.8945 62.8524 50.1385 62.3131 51.0557 61.3531C51.9729 60.393 52.4882 59.091 52.4882 57.7333C52.4882 56.3756 51.9729 55.0736 51.0557 54.1135C50.1385 53.1535 48.8945 52.6142 47.5974 52.6142H32.7741V57.7333ZM30.0315 44.7637C30.0324 45.7366 30.402 46.6694 31.0592 47.3574C31.7164 48.0455 32.6075 48.4325 33.537 48.4336H37.8393V44.7637C37.8383 43.7909 37.4686 42.8583 36.8114 42.1705C36.1542 41.4826 35.2632 41.0956 34.3338 41.0945H33.537C32.6076 41.0956 31.7165 41.4825 31.0593 42.1704C30.4021 42.8582 30.0325 43.7909 30.0315 44.7637ZM89.8749 56.3497C89.1373 55.9823 88.5246 55.3875 88.119 54.6453C87.6906 53.8278 87.4774 52.906 87.5011 51.974C87.4828 51.0724 87.6898 50.1815 88.1014 49.3893C88.503 48.6418 89.1066 48.0351 89.8365 47.6454C90.6668 47.2094 91.5869 46.9941 92.5156 47.0187C94.3911 47.0187 95.7149 47.6253 96.4869 48.8385C96.579 48.9839 96.634 49.1516 96.6466 49.3255C96.6593 49.4995 96.6292 49.6739 96.5592 49.8323C96.4893 49.9906 96.3818 50.1276 96.2469 50.2302C96.1121 50.3327 95.9544 50.3975 95.7889 50.4182C95.594 50.4424 95.3966 50.4063 95.221 50.3143C95.0455 50.2223 94.8996 50.0785 94.8012 49.9007C94.643 49.6037 94.4199 49.3501 94.1502 49.1606C93.6546 48.8607 93.0866 48.7174 92.5149 48.7481C92.1214 48.7265 91.7279 48.7918 91.3601 48.9399C90.9923 49.088 90.6584 49.3155 90.3801 49.6076C89.8573 50.1822 89.5965 50.9711 89.5974 51.9746C89.5974 52.9887 89.8582 53.7802 90.3801 54.3486C90.902 54.9173 91.6261 55.2014 92.5527 55.2011C93.1693 55.2351 93.7823 55.0837 94.3193 54.7649C94.617 54.5637 94.8547 54.2791 95.0053 53.9434C95.0804 53.7871 95.1959 53.6559 95.3388 53.565C95.4816 53.4741 95.646 53.427 95.8132 53.4291H95.8875C96.0622 53.4301 96.2334 53.48 96.3833 53.5737C96.5333 53.6673 96.6566 53.8013 96.7404 53.9617C96.8241 54.1221 96.8653 54.3031 96.8597 54.4858C96.8541 54.6685 96.8018 54.8463 96.7083 55.0007C96.4669 55.4019 96.1515 55.7486 95.7804 56.0207C94.9578 56.6279 93.873 56.9322 92.5259 56.9332C91.6112 56.9539 90.7042 56.7543 89.8749 56.3497ZM137.562 55.63C136.616 54.761 136.142 53.5557 136.141 52.0142C136.12 51.0954 136.332 50.1873 136.755 49.3818C137.169 48.6276 137.789 48.0198 138.535 47.6362C139.395 47.2033 140.341 46.9904 141.296 47.0151C142.458 47.0151 143.418 47.2663 144.175 47.769C144.452 47.9512 144.703 48.172 144.922 48.4254C145.039 48.5638 145.117 48.733 145.148 48.9147C145.18 49.0964 145.163 49.2836 145.1 49.4559C145.037 49.6283 144.929 49.7792 144.79 49.8922C144.651 50.0053 144.484 50.0761 144.309 50.0971C144.147 50.1211 143.982 50.0975 143.832 50.029C143.682 49.9605 143.553 49.8497 143.459 49.7091C143.296 49.4501 143.076 49.2359 142.818 49.0847C142.33 48.8306 141.789 48.7099 141.245 48.734C140.286 48.734 139.543 49.0138 139.015 49.5736C138.487 50.1337 138.224 50.9335 138.225 51.9736C138.225 53.0398 138.503 53.8462 139.059 54.3927C139.614 54.9393 140.431 55.2126 141.51 55.2126C142.182 55.2265 142.852 55.1302 143.495 54.9281C143.647 54.8729 143.779 54.7688 143.872 54.6305C143.964 54.4922 144.013 54.3269 144.011 54.158V53.9958C144.01 53.7786 143.928 53.5703 143.781 53.4167C143.634 53.2631 143.436 53.1766 143.228 53.1763H142.306C142.099 53.1763 141.9 53.09 141.753 52.9363C141.606 52.7827 141.524 52.5743 141.524 52.357C141.524 52.1398 141.606 51.9314 141.753 51.7778C141.9 51.6241 142.099 51.5378 142.306 51.5378H145.096C145.304 51.5379 145.503 51.6242 145.65 51.7778C145.797 51.9313 145.88 52.1397 145.88 52.357V55.1869C145.88 55.3312 145.843 55.4728 145.774 55.5977C145.706 55.7227 145.607 55.8266 145.488 55.8993C144.988 56.2006 144.453 56.4343 143.897 56.5949C143.12 56.8218 142.317 56.935 141.51 56.9312C139.826 56.9312 138.51 56.4974 137.562 55.63ZM125.436 55.8875C124.708 55.1902 124.344 54.1366 124.344 52.7263V48.311C124.344 48.0304 124.45 47.7613 124.64 47.5629C124.829 47.3645 125.087 47.2531 125.355 47.2531C125.623 47.2531 125.88 47.3645 126.069 47.5629C126.259 47.7613 126.365 48.0304 126.365 48.311V52.8446C126.365 53.6556 126.557 54.2507 126.947 54.6301C127.332 55.0089 127.938 55.1981 128.765 55.1981C129.591 55.1981 130.196 55.0089 130.583 54.6301C130.971 54.2516 131.165 53.6556 131.165 52.8446V48.311C131.165 48.1721 131.191 48.0346 131.242 47.9063C131.293 47.778 131.367 47.6614 131.461 47.5632C131.555 47.465 131.666 47.3871 131.789 47.334C131.912 47.2809 132.043 47.2536 132.176 47.2537C132.444 47.254 132.7 47.3655 132.89 47.5637C133.079 47.7619 133.186 48.0307 133.186 48.311V52.7263C133.186 54.1376 132.822 55.1915 132.093 55.8878C131.365 56.5834 130.255 56.9315 128.764 56.9309C127.275 56.9309 126.165 56.5834 125.436 55.8875ZM118.939 55.6369V53.56C118.939 53.3427 118.857 53.1343 118.71 52.9807C118.563 52.8271 118.364 52.7408 118.156 52.7408H114.797C114.642 52.7405 114.49 52.7884 114.362 52.8784C114.233 52.9685 114.132 53.0966 114.073 53.2465C114.034 53.346 114.014 53.4527 114.014 53.5603V55.6356C114.014 55.9161 113.907 56.185 113.718 56.3833C113.528 56.5815 113.271 56.6929 113.003 56.6929H113.002C112.869 56.693 112.738 56.6657 112.615 56.6127C112.492 56.5596 112.381 56.4817 112.287 56.3835C112.193 56.2853 112.119 56.1687 112.068 56.0404C112.017 55.9121 111.991 55.7745 111.991 55.6356V48.311C111.991 48.0305 112.098 47.7615 112.287 47.5632C112.477 47.3649 112.734 47.2535 113.002 47.2534H113.003C113.271 47.2534 113.528 47.3648 113.718 47.5631C113.907 47.7614 114.014 48.0304 114.014 48.311V50.0833C114.014 50.1909 114.034 50.2975 114.074 50.3969C114.113 50.4963 114.171 50.5867 114.243 50.6628C114.316 50.7389 114.402 50.7993 114.497 50.8405C114.592 50.8817 114.694 50.9029 114.797 50.9029H118.156C118.364 50.9027 118.563 50.8163 118.71 50.6626C118.857 50.5089 118.939 50.3006 118.939 50.0833V48.311C118.94 48.0306 119.046 47.7617 119.236 47.5634C119.425 47.3652 119.682 47.2537 119.95 47.2534C120.218 47.2536 120.475 47.3651 120.664 47.5634C120.854 47.7617 120.96 48.0306 120.96 48.311V55.6363C120.96 55.9167 120.854 56.1856 120.664 56.3839C120.475 56.5822 120.218 56.6937 119.95 56.6938C119.682 56.6938 119.425 56.5823 119.235 56.384C119.046 56.1857 118.939 55.9168 118.939 55.6363V55.6369ZM107.486 56.6932C107.364 56.6932 107.243 56.6631 107.134 56.6053C107.024 56.5474 106.93 56.4635 106.857 56.3602L104.227 52.6349C104.132 52.4991 103.998 52.3976 103.845 52.3441C103.692 52.2906 103.527 52.2879 103.373 52.3363C103.27 52.3682 103.175 52.4219 103.093 52.4938L102.432 53.0757C102.345 53.1524 102.274 53.2482 102.226 53.3564C102.178 53.4646 102.152 53.5826 102.152 53.7021V55.6435C102.152 55.7813 102.126 55.9177 102.076 56.0449C102.025 56.1721 101.951 56.2877 101.858 56.3851C101.765 56.4824 101.654 56.5596 101.533 56.6123C101.411 56.6649 101.281 56.692 101.149 56.6919H101.133C100.868 56.6915 100.613 56.581 100.426 56.3847C100.238 56.1883 100.132 55.922 100.132 55.6442V48.311C100.132 48.0304 100.238 47.7613 100.428 47.5629C100.617 47.3645 100.874 47.2531 101.142 47.2531C101.41 47.2531 101.667 47.3645 101.857 47.5629C102.047 47.7613 102.153 48.0304 102.153 48.311V49.4071C102.153 49.5632 102.196 49.7161 102.276 49.8477C102.356 49.9792 102.471 50.084 102.606 50.1496C102.741 50.2154 102.891 50.2395 103.039 50.2191C103.187 50.1986 103.326 50.1345 103.44 50.0342L106.381 47.4463C106.46 47.3741 106.552 47.3192 106.652 47.2848C106.752 47.2504 106.858 47.2372 106.962 47.2459C107.067 47.2547 107.169 47.2851 107.263 47.3356C107.356 47.3861 107.439 47.4556 107.506 47.5399C107.574 47.6243 107.625 47.7219 107.656 47.827C107.687 47.9322 107.697 48.0427 107.687 48.1522C107.677 48.2617 107.646 48.368 107.596 48.4648C107.546 48.5617 107.478 48.6471 107.396 48.7162L105.723 50.1951C105.571 50.3294 105.473 50.5196 105.45 50.7268C105.427 50.934 105.48 51.1426 105.599 51.31L108.497 55.3854C108.562 55.4767 108.607 55.5809 108.631 55.6916C108.655 55.8023 108.657 55.917 108.637 56.0284C108.616 56.1398 108.574 56.2456 108.512 56.339C108.451 56.4325 108.371 56.5115 108.279 56.5712C108.156 56.6508 108.013 56.6931 107.868 56.6932H107.486ZM84.3486 56.6932C84.1965 56.6937 84.0475 56.6475 83.9201 56.5605C83.7926 56.4735 83.6923 56.3493 83.6315 56.2033L83.1455 55.0425C83.0843 54.8967 82.9839 54.7727 82.8566 54.6855C82.7293 54.5983 82.5805 54.5518 82.4283 54.5516H78.9074C78.7546 54.5514 78.6051 54.5981 78.4774 54.6858C78.3497 54.7735 78.2493 54.8984 78.1886 55.0452L77.7124 56.1984C77.6519 56.3451 77.5515 56.4701 77.4239 56.5578C77.2962 56.6455 77.1467 56.6921 76.994 56.6919H76.6444C76.4463 56.6917 76.2556 56.6131 76.1107 56.4717C75.9658 56.3304 75.8774 56.1368 75.8633 55.93C75.854 55.7929 75.8778 55.6557 75.9326 55.5308L79.0803 48.3407C79.2224 48.0164 79.4505 47.7416 79.7374 47.549C80.0243 47.3563 80.358 47.2539 80.6989 47.2539C81.0397 47.2539 81.3734 47.3563 81.6603 47.549C81.9473 47.7416 82.1753 48.0164 82.3174 48.3407L85.4639 55.5321C85.5186 55.657 85.5424 55.7943 85.5332 55.9313C85.524 56.0683 85.482 56.2008 85.411 56.3164C85.3401 56.432 85.2426 56.5271 85.1274 56.5929C85.0122 56.6588 84.883 56.6933 84.7518 56.6932H84.3486ZM80.1093 50.4143L79.5584 51.7224C79.5057 51.8472 79.4837 51.9839 79.4944 52.1199C79.505 52.2559 79.5481 52.3869 79.6195 52.5011C79.6906 52.6154 79.7877 52.7093 79.9023 52.7744C80.0168 52.8394 80.145 52.8735 80.2752 52.8736H81.0573C81.1875 52.8733 81.3156 52.839 81.4301 52.774C81.5446 52.709 81.6418 52.6152 81.713 52.5011C81.784 52.3868 81.8268 52.2558 81.8375 52.1199C81.8482 51.984 81.8266 51.8474 81.7745 51.7224L81.2233 50.4143C81.1757 50.3011 81.0977 50.2048 80.9987 50.1371C80.8998 50.0695 80.7841 50.0335 80.666 50.0335C80.5478 50.0335 80.4321 50.0695 80.3332 50.1371C80.2342 50.2048 80.1562 50.3011 80.1086 50.4143H80.1093ZM66.0778 56.6932C65.9749 56.6934 65.873 56.6724 65.7779 56.6313C65.6828 56.5902 65.5964 56.5299 65.5237 56.4537C65.4509 56.3775 65.3933 56.2871 65.3541 56.1875C65.3148 56.088 65.2948 55.9813 65.2951 55.8736V48.0733C65.295 47.9657 65.3153 47.8591 65.3546 47.7597C65.3939 47.6603 65.4515 47.5699 65.5242 47.4938C65.5969 47.4177 65.6832 47.3573 65.7782 47.3161C65.8731 47.2749 65.975 47.2537 66.0778 47.2537H69.6774C72.1452 47.2537 73.3789 48.0647 73.3782 49.687C73.3966 50.1954 73.2229 50.6908 72.8948 51.066C72.8222 51.1493 72.7665 51.247 72.731 51.3534C72.6955 51.4598 72.6809 51.5726 72.6882 51.6851C72.6954 51.7975 72.7244 51.9073 72.7733 52.0077C72.8221 52.1081 72.8899 52.1971 72.9726 52.2693C73.2141 52.4675 73.4076 52.7225 73.5373 53.0136C73.6671 53.3047 73.7294 53.6237 73.7193 53.9447C73.7395 54.3456 73.6598 54.7452 73.4881 55.1042C73.3164 55.4632 73.0586 55.7693 72.7398 55.9926C72.0872 56.4608 71.1335 56.6942 69.8784 56.6932H66.0778ZM67.2015 53.3754V54.2879C67.2017 54.5053 67.2843 54.7138 67.4313 54.8675C67.5782 55.0211 67.7774 55.1075 67.9852 55.1075H69.7404C70.439 55.1075 70.948 55.0082 71.268 54.8095C71.4255 54.7125 71.554 54.5714 71.6391 54.4022C71.7242 54.2329 71.7624 54.0422 71.7496 53.8514C71.7605 53.6583 71.7216 53.4656 71.6368 53.2936C71.5521 53.1216 71.4247 52.9766 71.268 52.874C70.9486 52.6616 70.4437 52.5558 69.753 52.5562H67.9852C67.8823 52.5561 67.7805 52.5772 67.6854 52.6183C67.5904 52.6594 67.504 52.7198 67.4312 52.7958C67.3584 52.8719 67.3007 52.9623 67.2613 53.0617C67.2219 53.1611 67.2016 53.2677 67.2015 53.3754ZM67.2015 49.6607V50.2026C67.2016 50.3103 67.2219 50.4169 67.2613 50.5164C67.3007 50.6158 67.3584 50.7062 67.4312 50.7823C67.504 50.8584 67.5903 50.9187 67.6854 50.9599C67.7804 51.0011 67.8823 51.0222 67.9852 51.0222H69.6885C70.1425 51.0564 70.5968 50.9603 71.0025 50.7443C71.1394 50.6535 71.2504 50.5258 71.3238 50.3745C71.3971 50.2233 71.4302 50.0541 71.4195 49.8848C71.4295 49.7226 71.3944 49.5609 71.3184 49.4191C71.2425 49.2774 71.1289 49.1617 70.9915 49.086C70.548 48.892 70.0676 48.8083 69.588 48.8414H67.9849C67.7772 48.8414 67.5781 48.9277 67.4312 49.0813C67.2843 49.235 67.2017 49.4433 67.2015 49.6607Z" fill="#AFAFAF"/>
</g>
<defs>
<clipPath id="clip0_4644_1638">
<rect width="120" height="30" fill="white" transform="translate(26 37)"/>
</clipPath>
</defs>
</svg>
