<svg width="172" height="104" viewBox="0 0 172 104" fill="none" xmlns="http://www.w3.org/2000/svg">
<g clip-path="url(#clip0_4644_1669)">
<path d="M120.02 53.8914H123.937V56.4823H117.029V41.7745H114.14V39.1836H117.029V33.3714H120.011V39.1577H123.937V41.7486H120.011V53.8395L120.02 53.8914ZM101.729 45.255C101.797 44.1816 102.268 43.1747 103.047 42.4388C103.825 41.703 104.853 41.2934 105.92 41.2934C106.987 41.2934 108.015 41.703 108.793 42.4388C109.572 43.1747 110.043 44.1816 110.111 45.255V46.205H101.729V45.255ZM105.92 38.7259C101.223 38.7259 98.54 42.5 98.54 47.8027C98.54 53.1055 100.991 56.8882 105.92 56.8882C109.58 56.8882 112.777 54.6773 113.103 50.9723H110.086C109.88 53.3559 108.106 54.4268 105.954 54.4268C104.901 54.4906 103.866 54.131 103.075 53.4268C102.284 52.7225 101.803 51.7311 101.737 50.67C101.733 50.6067 101.733 50.5433 101.737 50.48V48.6836H113.24V47.0514C113.24 42.4223 110.831 38.7432 105.929 38.7432L105.92 38.7259ZM85.5457 39.1318H82.52V56.5082H85.5457V46.3691C85.5457 43.3377 87.32 41.1873 89.8314 41.1873C92.3429 41.1873 93.26 42.7505 93.26 45.2723V56.4995H96.2771V44.9355C96.2771 40.5136 94.0314 38.7432 90.7057 38.7432C89.6175 38.6781 88.5364 38.958 87.6141 39.5434C86.6917 40.1289 85.9744 40.9906 85.5629 42.0077V39.1577L85.5457 39.1318ZM75.9543 56.5082H78.9714V39.1577H75.9543V56.5082ZM75.8857 36.5668H79.04V33.3714H75.8857V36.5668ZM68.8571 53.8914H72.7829V56.4823H65.8486V41.7745H62.96V39.1836H65.8486V33.3714H68.8571V39.1577H72.7829V41.7486H68.8571V53.8914ZM54.2857 46.0582C52.6143 45.7214 51.8686 45.0045 51.8686 43.64C51.8686 42.2755 53.3 41.1959 55.1429 41.1959C56.9857 41.1959 58.4943 42.0595 58.5714 44.3223H61.5886C61.5457 40.4186 58.3657 38.7432 55.1429 38.7432C51.4229 38.7432 48.8686 40.9282 48.8686 43.6832C48.8686 46.4382 50.48 48.0014 53.2657 48.58L56.0771 49.1586C58.3657 49.5991 59.1371 50.4195 59.1371 51.81C59.1371 53.5373 57.4229 54.47 55.4086 54.47C53.3943 54.47 51.5171 53.3473 51.4486 51.0155H48.4314C48.5 54.8932 51.5171 56.8968 55.3743 56.8968C59.4029 56.8968 62.1457 54.6168 62.1457 51.715C62.1457 48.8132 60.5086 47.3277 57.1143 46.6109L54.2857 46.0582ZM35.6086 39.1491H32.54V56.5082H35.5571V46.3691C35.5571 43.3377 37.34 41.1873 39.8429 41.1873C42.3457 41.1873 43.2714 42.7505 43.2714 45.2723V56.4995H46.2286V44.9355C46.2286 40.5136 43.9829 38.7432 40.6571 38.7432C39.5689 38.6781 38.4878 38.958 37.5655 39.5434C36.6431 40.1289 35.9259 40.9906 35.5143 42.0077V39.1577L35.6086 39.1491ZM26 56.5082H29.1714V33.3714H26V56.5082Z" fill="#AFAFAF"/>
<path d="M138.646 33L136.486 35.1936L141.714 40.4618L136.52 45.73L138.68 47.9236L146 40.4618L138.646 33ZM130.006 33L127.846 35.1936L133.04 40.4618L127.846 45.73L130.006 47.9236L137.36 40.4618L130.006 33Z" fill="#AFAFAF"/>
<path d="M82.9486 63.7541C81.6629 63.7541 80.8657 64.7645 80.8657 66.2155C80.8657 67.6836 81.5686 68.6855 82.9314 68.6855C84.2943 68.6855 85.0143 67.6836 85.0143 66.2155C85.0143 64.7473 84.3286 63.7541 82.9486 63.7541ZM82.9486 68.0723C82.0914 68.0723 81.68 67.3814 81.68 66.2327C81.68 65.0927 82.0914 64.3845 82.9314 64.3845C83.7714 64.3845 84.1914 65.0927 84.1914 66.2327C84.1914 67.3727 83.8229 68.055 82.9571 68.055L82.9486 68.0723Z" fill="#AFAFAF"/>
<path d="M129.56 63.7541C129.259 63.7486 128.963 63.8262 128.703 63.9785C128.443 64.1307 128.23 64.3518 128.086 64.6177V63.8318H127.323V70.2054H128.111V67.8823C128.248 68.1333 128.45 68.3413 128.697 68.4831C128.944 68.6249 129.225 68.695 129.509 68.6854C130.554 68.6854 131.42 67.8218 131.42 66.1464C131.42 64.4709 130.571 63.7541 129.56 63.7541ZM129.397 68.0723C129.212 68.0645 129.03 68.0199 128.861 67.9409C128.693 67.8619 128.542 67.7501 128.417 67.612C128.292 67.4739 128.195 67.3122 128.133 67.1362C128.07 66.9603 128.042 66.7736 128.051 66.5868C128.047 66.5293 128.047 66.4716 128.051 66.4141V65.9218C128.035 65.7407 128.054 65.5581 128.109 65.3846C128.163 65.2111 128.251 65.0501 128.367 64.9111C128.484 64.7721 128.626 64.6578 128.787 64.5748C128.947 64.4918 129.123 64.4418 129.303 64.4277H129.363C130.314 64.4277 130.606 65.1877 130.606 66.155C130.623 67.3814 130.22 68.055 129.397 68.055V68.0723Z" fill="#AFAFAF"/>
<path d="M96.7486 66.4055C96.7486 67.4418 96.3457 68.0205 95.4886 68.0205C95.3527 68.03 95.2165 68.0068 95.0913 67.9527C94.9661 67.8986 94.8554 67.8153 94.7686 67.7095C94.6294 67.4137 94.5731 67.0852 94.6057 66.7595V63.8664H93.8257V67.1395C93.774 67.4932 93.8629 67.8531 94.0732 68.141C94.2835 68.4289 94.5981 68.6214 94.9486 68.6768C95.0683 68.6895 95.1889 68.6895 95.3086 68.6768C95.6142 68.6816 95.9147 68.5969 96.1734 68.4328C96.432 68.2687 96.6379 68.0325 96.7657 67.7527V68.5559H97.52V63.8664H96.7314L96.7486 66.4055Z" fill="#AFAFAF"/>
<path d="M144.586 63.8664L143.634 66.8027C143.489 67.2518 143.403 67.5368 143.403 67.5368C143.403 67.5368 143.326 67.2518 143.18 66.8114L142.211 63.8664H141.423L143.034 68.5645L142.949 68.815C142.942 68.9353 142.912 69.0531 142.86 69.1616C142.808 69.2702 142.736 69.3674 142.646 69.4476C142.557 69.5278 142.453 69.5895 142.34 69.6292C142.227 69.6688 142.108 69.6856 141.989 69.6786C141.853 69.6771 141.718 69.6626 141.586 69.6355V70.2918C141.741 70.3261 141.899 70.3435 142.057 70.3436C143.06 70.3436 143.369 69.9464 143.771 68.8668L145.486 63.875L144.586 63.8664Z" fill="#AFAFAF"/>
<path d="M78.9971 67.485C78.9 67.2548 78.7854 67.0324 78.6543 66.82L75.6629 61.7505H74.5914V68.5645H75.38V62.8473C75.4801 63.0749 75.5976 63.2943 75.7314 63.5036L78.7057 68.5645H79.7514V61.7505H78.98L78.9971 67.485Z" fill="#AFAFAF"/>
<path d="M68.2743 61.7505L65.8829 68.5645H66.6972L67.3914 66.535H70.0829L70.7857 68.5645H71.6429L69.2257 61.7505H68.2743ZM67.6229 65.8614L68.48 63.4259C68.6086 63.0373 68.7372 62.6227 68.7543 62.5623C68.7543 62.5623 68.8743 62.9941 69.0114 63.4259L69.8686 65.8614H67.6229Z" fill="#AFAFAF"/>
<path d="M91.5029 63.7627C91.3835 63.7455 91.2622 63.7455 91.1429 63.7627C90.8242 63.7535 90.5102 63.8408 90.2413 64.0132C89.9724 64.1856 89.761 64.4353 89.6343 64.73C89.5527 64.4282 89.3675 64.1654 89.1117 63.9883C88.8558 63.8112 88.546 63.7313 88.2371 63.7627C87.9328 63.749 87.6309 63.8229 87.3667 63.9759C87.1026 64.1288 86.8872 64.3545 86.7457 64.6264V63.8318H86V68.53H86.7886V65.7318C86.7695 65.5785 86.7808 65.4229 86.8218 65.2741C86.8629 65.1253 86.9329 64.9861 87.0278 64.8648C87.1228 64.7435 87.2406 64.6423 87.3747 64.5673C87.5087 64.4923 87.6562 64.4448 87.8086 64.4277H88.04C88.1759 64.4182 88.3121 64.4414 88.4373 64.4955C88.5625 64.5495 88.6731 64.6329 88.76 64.7386C88.8995 65.0282 88.9559 65.3512 88.9229 65.6714V68.5732H89.7114V65.7491C89.691 65.5953 89.701 65.439 89.7409 65.2891C89.7808 65.1392 89.8497 64.9988 89.9438 64.876C90.0378 64.7531 90.1551 64.6502 90.2888 64.5733C90.4225 64.4964 90.5701 64.4469 90.7229 64.4277H90.9629C91.098 64.4171 91.2338 64.439 91.359 64.4916C91.4841 64.5441 91.5951 64.6258 91.6829 64.73C91.8239 65.0221 91.8804 65.3484 91.8457 65.6714V68.5732H92.6343V65.3C92.6622 65.124 92.6549 64.9441 92.6129 64.7709C92.5708 64.5977 92.4949 64.4348 92.3895 64.2916C92.2841 64.1484 92.1514 64.0278 91.9991 63.937C91.8469 63.8462 91.6781 63.7869 91.5029 63.7627Z" fill="#AFAFAF"/>
<path d="M99.5514 64.7559V63.8923H98.7971V68.5905H99.5943V65.9995C99.5777 65.8333 99.5938 65.6655 99.6418 65.5056C99.6897 65.3457 99.7685 65.1969 99.8736 65.0677C99.9787 64.9386 100.108 64.8316 100.254 64.7529C100.4 64.6742 100.561 64.6253 100.726 64.6091H101.111V63.7455H101.034C100.717 63.7538 100.409 63.8534 100.146 64.0325C99.8836 64.2115 99.6772 64.4625 99.5514 64.7559Z" fill="#AFAFAF"/>
<path d="M135.757 67.4159V65.4986C135.822 65.1109 135.734 64.7129 135.511 64.39C135.289 64.067 134.949 63.8449 134.566 63.7714C134.392 63.7455 134.216 63.7455 134.043 63.7714C132.937 63.7714 132.329 64.3414 132.329 65.1705H133.083C133.096 64.9505 133.192 64.7439 133.351 64.593C133.511 64.4421 133.721 64.3582 133.94 64.3586H134.026C134.677 64.3586 134.986 64.6868 134.986 65.5332V65.7405C134.222 65.7061 133.459 65.8356 132.749 66.1205C132.53 66.2295 132.348 66.4003 132.225 66.612C132.102 66.8237 132.042 67.0671 132.054 67.3123C132.04 67.6568 132.162 67.9928 132.394 68.2469C132.625 68.501 132.947 68.6525 133.289 68.6682C133.365 68.6767 133.443 68.6767 133.52 68.6682C133.825 68.6903 134.129 68.6198 134.393 68.4658C134.657 68.3118 134.87 68.0815 135.003 67.8046C135.003 68.0336 135.093 68.2533 135.254 68.4152C135.415 68.5772 135.633 68.6682 135.86 68.6682C135.92 68.6766 135.98 68.6766 136.04 68.6682H136.134V68.0205C135.834 67.9427 135.757 67.7873 135.757 67.4159ZM133.837 67.9859H133.666C133.574 68.0006 133.48 67.9968 133.39 67.9748C133.299 67.9527 133.214 67.9128 133.139 67.8574C133.064 67.802 133.001 67.7321 132.953 67.6519C132.905 67.5717 132.874 67.4827 132.86 67.39C132.856 67.344 132.856 67.2978 132.86 67.2518C132.861 67.1414 132.887 67.0326 132.936 66.9339C132.985 66.8351 133.056 66.7489 133.143 66.6818C133.731 66.4136 134.376 66.2949 135.02 66.3364V66.4486C135.044 66.6281 135.032 66.8105 134.986 66.9853C134.939 67.1601 134.858 67.3238 134.748 67.4669C134.638 67.61 134.501 67.7296 134.344 67.8187C134.188 67.9078 134.016 67.9646 133.837 67.9859Z" fill="#AFAFAF"/>
<path d="M124.957 63.7627C124.841 63.7455 124.722 63.7455 124.606 63.7627C124.286 63.7541 123.971 63.8415 123.701 64.0138C123.431 64.186 123.218 64.4353 123.089 64.73C123.005 64.4276 122.818 64.1646 122.561 63.9876C122.304 63.8105 121.993 63.7309 121.683 63.7627C121.38 63.7506 121.08 63.8254 120.817 63.9782C120.555 64.1311 120.341 64.3558 120.2 64.6264V63.8318H119.429V68.53H120.217V65.7318C120.198 65.5792 120.209 65.4242 120.25 65.2759C120.29 65.1276 120.359 64.9888 120.453 64.8676C120.547 64.7464 120.664 64.6451 120.797 64.5696C120.93 64.4941 121.077 64.4459 121.229 64.4277H121.46C121.596 64.4182 121.732 64.4414 121.857 64.4955C121.983 64.5495 122.093 64.6329 122.18 64.7386C122.326 65.0261 122.386 65.3503 122.351 65.6714V68.5732H123.14V65.7491C123.12 65.5953 123.13 65.439 123.169 65.2891C123.209 65.1392 123.278 64.9988 123.372 64.876C123.466 64.7531 123.584 64.6502 123.717 64.5733C123.851 64.4964 123.999 64.4469 124.151 64.4277H124.391C124.527 64.4171 124.662 64.439 124.788 64.4916C124.913 64.5441 125.024 64.6258 125.111 64.73C125.255 65.0213 125.315 65.3476 125.283 65.6714V68.5732H126.071V65.3C126.126 64.9473 126.039 64.5873 125.83 64.2991C125.621 64.0109 125.307 63.818 124.957 63.7627Z" fill="#AFAFAF"/>
<path d="M116.403 63.7541C115.109 63.7541 114.32 64.7645 114.32 66.2155C114.32 67.6664 115.023 68.6855 116.386 68.6855C117.749 68.6855 118.469 67.6836 118.469 66.2155C118.469 64.7473 117.783 63.7541 116.403 63.7541ZM116.403 68.0723C115.546 68.0723 115.126 67.3814 115.126 66.2327C115.126 65.0841 115.537 64.3845 116.386 64.3845C117.234 64.3845 117.637 65.0927 117.637 66.2327C117.637 67.3727 117.269 68.055 116.411 68.055L116.403 68.0723Z" fill="#AFAFAF"/>
<path d="M110.926 68.0205C109.589 68.0205 108.809 66.9323 108.809 65.1705C108.809 63.4432 109.571 62.3205 110.951 62.3205C111.366 62.3041 111.773 62.4448 112.09 62.7149C112.407 62.985 112.613 63.3649 112.666 63.78H113.523C113.45 63.1591 113.141 62.5908 112.662 62.1934C112.183 61.7959 111.57 61.6002 110.951 61.6468C109.237 61.6468 107.943 62.9509 107.943 65.1705C107.943 67.5541 109.177 68.7027 110.926 68.7027C111.563 68.7386 112.188 68.5219 112.669 68.0991C113.149 67.6763 113.447 67.0808 113.497 66.44H112.64C112.62 66.8784 112.428 67.2909 112.107 67.5871C111.786 67.8834 111.361 68.0392 110.926 68.0205Z" fill="#AFAFAF"/>
<path d="M139.649 63.7627C139.526 63.7454 139.402 63.7454 139.28 63.7627C138.976 63.7511 138.675 63.8259 138.411 63.9786C138.147 64.1313 137.932 64.3558 137.789 64.6264V63.8318H137.043V68.53H137.831V65.7491C137.812 65.5942 137.824 65.437 137.865 65.2866C137.907 65.1362 137.977 64.9955 138.073 64.8727C138.168 64.7498 138.287 64.6473 138.422 64.5709C138.557 64.4946 138.706 64.4459 138.86 64.4277H139.091C139.229 64.4168 139.367 64.4393 139.493 64.4934C139.62 64.5475 139.732 64.6316 139.82 64.7386C139.967 65.0287 140.024 65.3568 139.983 65.68V68.5732H140.771V65.3C140.799 65.1246 140.792 64.9453 140.751 64.7727C140.709 64.6 140.634 64.4374 140.53 64.2943C140.425 64.1512 140.293 64.0305 140.142 63.9393C139.991 63.848 139.823 63.788 139.649 63.7627Z" fill="#AFAFAF"/>
<path d="M105.234 67.4159V65.4986C105.302 65.1106 105.214 64.7114 104.991 64.388C104.768 64.0645 104.427 63.8429 104.043 63.7714C103.869 63.7455 103.693 63.7455 103.52 63.7714C102.414 63.7714 101.806 64.3414 101.806 65.1705H102.569C102.582 64.9505 102.678 64.7439 102.837 64.593C102.996 64.4421 103.207 64.3582 103.426 64.3586H103.503C104.154 64.3586 104.471 64.6955 104.471 65.5418V65.7405C103.707 65.7061 102.945 65.8356 102.234 66.1205C102.016 66.2295 101.834 66.4003 101.711 66.612C101.587 66.8237 101.528 67.0671 101.54 67.3123C101.526 67.6568 101.648 67.9928 101.879 68.2469C102.111 68.501 102.432 68.6525 102.774 68.6682C102.851 68.6767 102.929 68.6767 103.006 68.6682C103.31 68.6891 103.614 68.6181 103.878 68.4643C104.142 68.3104 104.355 68.0807 104.489 67.8046C104.489 68.0336 104.579 68.2533 104.74 68.4152C104.9 68.5772 105.118 68.6682 105.346 68.6682C105.402 68.6772 105.46 68.6772 105.517 68.6682H105.611V68.0205C105.32 67.9427 105.234 67.7873 105.234 67.4159ZM103.314 67.9859H103.143C103.052 68.0006 102.958 67.9967 102.868 67.9746C102.779 67.9524 102.694 67.9124 102.62 67.8569C102.546 67.8014 102.483 67.7315 102.436 67.6513C102.389 67.5711 102.358 67.4823 102.346 67.39C102.337 67.3415 102.337 67.2917 102.346 67.2432C102.337 67.1328 102.357 67.0221 102.401 66.921C102.446 66.82 102.516 66.7318 102.603 66.6646C103.188 66.3953 103.83 66.2766 104.471 66.3191V66.4314C104.497 66.61 104.487 66.792 104.443 66.9668C104.398 67.1416 104.32 67.3059 104.213 67.4503C104.105 67.5947 103.971 67.7163 103.816 67.8082C103.662 67.9001 103.492 67.9605 103.314 67.9859Z" fill="#AFAFAF"/>
</g>
<defs>
<clipPath id="clip0_4644_1669">
<rect width="120" height="38" fill="white" transform="translate(26 33)"/>
</clipPath>
</defs>
</svg>
