<svg width="172" height="112" viewBox="0 0 172 112" fill="none" xmlns="http://www.w3.org/2000/svg">
<g clip-path="url(#clip0_4644_821)">
<path d="M75.5084 33H24V79H75.5084V33Z" fill="#AFAFAF"/>
<path d="M148 33H77.1268V79H148V33Z" fill="#AFAFAF"/>
<path d="M31.8206 42.4748C32.0458 42.4734 32.2687 42.5189 32.4753 42.6085C32.682 42.6981 32.8677 42.8298 33.0208 42.9952C33.1865 43.1598 33.3171 43.3563 33.4049 43.573C33.4926 43.7896 33.5356 44.0218 33.5313 44.2556C33.5368 44.4854 33.496 44.7139 33.4113 44.9275C33.3265 45.1411 33.1996 45.3354 33.0382 45.4986C32.8808 45.662 32.6914 45.791 32.4818 45.8775C32.2723 45.964 32.0472 46.006 31.8206 46.001C31.5947 46.0019 31.3708 45.958 31.1618 45.8718C30.9529 45.7855 30.763 45.6587 30.6031 45.4986C30.4328 45.3404 30.2979 45.1478 30.2071 44.9336C30.1164 44.7194 30.0719 44.4883 30.0766 44.2556C30.0724 44.0219 30.1153 43.7899 30.2028 43.5733C30.2904 43.3567 30.4206 43.1601 30.5858 42.9952C30.7446 42.8276 30.9363 42.6948 31.1488 42.6053C31.3614 42.5157 31.5901 42.4713 31.8206 42.4748ZM31.8206 67.6698C32.0458 67.6684 32.2687 67.7139 32.4753 67.8035C32.6819 67.8931 32.8677 68.0248 33.0208 68.1902C33.3482 68.5272 33.5314 68.979 33.5314 69.4494C33.5314 69.9198 33.3482 70.3716 33.0208 70.7086C32.8677 70.874 32.6819 71.0057 32.4753 71.0953C32.2687 71.1849 32.0458 71.2304 31.8206 71.229C31.59 71.2325 31.3612 71.1881 31.1486 71.0986C30.9359 71.009 30.7441 70.8762 30.5853 70.7086C30.2588 70.3711 30.0763 69.9195 30.0763 69.4494C30.0763 68.9793 30.2588 68.5277 30.5853 68.1902C30.7441 68.0226 30.9359 67.8898 31.1486 67.8002C31.3612 67.7106 31.59 67.6663 31.8206 67.6698ZM35.8677 59.2715C36.0981 59.2678 36.3268 59.3121 36.5393 59.4017C36.7518 59.4913 36.9434 59.6241 37.1019 59.7918C37.267 59.9566 37.3973 60.153 37.485 60.3693C37.5727 60.5857 37.616 60.8176 37.6123 61.0511C37.6179 61.2809 37.577 61.5094 37.4923 61.723C37.4076 61.9366 37.2807 62.1309 37.1192 62.2941C36.9563 62.4599 36.761 62.5901 36.5455 62.6766C36.3301 62.763 36.0991 62.8039 35.8671 62.7965C35.6419 62.7977 35.419 62.7521 35.2123 62.6625C35.0056 62.573 34.8197 62.4414 34.6663 62.2762C34.5033 62.1166 34.3741 61.9257 34.2864 61.7149C34.1987 61.5041 34.1543 61.2777 34.1559 61.0493C34.152 60.8158 34.1952 60.5839 34.2829 60.3675C34.3706 60.1511 34.501 59.9547 34.6663 59.7901C34.8199 59.6249 35.006 59.4935 35.2129 59.4042C35.4198 59.3149 35.6424 59.2697 35.8677 59.2715ZM35.934 42.4748C36.1591 42.4733 36.3821 42.5188 36.5887 42.6084C36.7953 42.698 36.9811 42.8297 37.1342 42.9952C37.2998 43.1598 37.4305 43.3563 37.5182 43.573C37.6059 43.7896 37.6489 44.0218 37.6446 44.2556C37.6502 44.4854 37.6093 44.7139 37.5246 44.9275C37.4399 45.1411 37.313 45.3354 37.1515 45.4986C36.9942 45.6621 36.8048 45.7911 36.5952 45.8776C36.3857 45.9641 36.1605 46.0061 35.934 46.001C35.708 46.0019 35.4841 45.958 35.2752 45.8718C35.0662 45.7855 34.8763 45.6587 34.7165 45.4986C34.5462 45.3404 34.4112 45.1478 34.3205 44.9336C34.2297 44.7194 34.1852 44.4883 34.1899 44.2556C34.1857 44.0219 34.2287 43.7899 34.3162 43.5733C34.4037 43.3567 34.534 43.1601 34.6992 42.9952C34.858 42.8275 35.0498 42.6947 35.2624 42.6051C35.4751 42.5156 35.7034 42.4712 35.934 42.4748ZM35.934 46.674C36.1591 46.6725 36.3821 46.718 36.5887 46.8076C36.7953 46.8972 36.9811 47.0289 37.1342 47.1944C37.2999 47.3587 37.4305 47.555 37.5183 47.7715C37.606 47.9879 37.649 48.22 37.6446 48.4536C37.6502 48.6834 37.6093 48.9119 37.5246 49.1255C37.4399 49.3392 37.313 49.5334 37.1515 49.6966C36.9942 49.8601 36.8048 49.9891 36.5952 50.0756C36.3857 50.1621 36.1605 50.2041 35.934 50.199C35.708 50.1999 35.4841 50.156 35.2752 50.0698C35.0662 49.9835 34.8763 49.8567 34.7165 49.6966C34.5462 49.5384 34.4112 49.3458 34.3205 49.1316C34.2297 48.9174 34.1852 48.6863 34.1899 48.4536C34.1856 48.2201 34.2286 47.9882 34.3161 47.7718C34.4036 47.5554 34.5339 47.3589 34.6992 47.1944C34.858 47.0267 35.0498 46.894 35.2625 46.8044C35.4751 46.7148 35.7034 46.6704 35.934 46.674ZM35.934 50.8732C36.1591 50.8717 36.3821 50.9172 36.5887 51.0068C36.7953 51.0963 36.9811 51.2281 37.1342 51.3935C37.2998 51.5579 37.4304 51.7542 37.5182 51.9707C37.6059 52.1871 37.6489 52.4192 37.6446 52.6527C37.6502 52.8825 37.6093 53.1111 37.5246 53.3247C37.4399 53.5383 37.313 53.7326 37.1515 53.8958C36.9942 54.0593 36.8048 54.1883 36.5952 54.2748C36.3857 54.3612 36.1605 54.4033 35.934 54.3982C35.708 54.3991 35.4841 54.3552 35.2752 54.2689C35.0662 54.1827 34.8763 54.0559 34.7165 53.8958C34.5462 53.7376 34.4112 53.545 34.3205 53.3308C34.2297 53.1165 34.1852 52.8854 34.1899 52.6527C34.1859 52.4193 34.2289 52.1874 34.3164 51.9711C34.4039 51.7547 34.5341 51.5582 34.6992 51.3935C34.858 51.2259 35.0498 51.0931 35.2625 51.0036C35.4751 50.914 35.7034 50.8696 35.934 50.8732ZM35.934 55.0723C36.1591 55.0709 36.3821 55.1163 36.5887 55.2059C36.7953 55.2955 36.9811 55.4272 37.1342 55.5927C37.2997 55.7571 37.4303 55.9535 37.518 56.1699C37.6058 56.3863 37.6488 56.6183 37.6446 56.8519C37.6502 57.0817 37.6093 57.3103 37.5246 57.5239C37.4399 57.7375 37.313 57.9317 37.1515 58.0949C36.9942 58.2584 36.8048 58.3875 36.5952 58.4739C36.3857 58.5604 36.1605 58.6024 35.934 58.5974C35.708 58.5983 35.4841 58.5543 35.2752 58.4681C35.0662 58.3819 34.8763 58.2551 34.7165 58.0949C34.5462 57.9367 34.4112 57.7442 34.3205 57.5299C34.2297 57.3157 34.1852 57.0846 34.1899 56.8519C34.1859 56.6185 34.2289 56.3866 34.3164 56.1702C34.4039 55.9538 34.5341 55.7574 34.6992 55.5927C34.858 55.4251 35.0498 55.2923 35.2625 55.2027C35.4751 55.1132 35.7034 55.0688 35.934 55.0723ZM35.934 63.4707C36.1591 63.4692 36.3821 63.5147 36.5887 63.6042C36.7953 63.6938 36.9811 63.8255 37.1342 63.991C37.2997 64.1554 37.4303 64.3518 37.518 64.5682C37.6058 64.7846 37.6488 65.0167 37.6446 65.2502C37.6502 65.48 37.6093 65.7086 37.5246 65.9222C37.4399 66.1358 37.313 66.33 37.1515 66.4933C36.9943 66.6571 36.805 66.7864 36.5954 66.8731C36.3859 66.9598 36.1606 67.0019 35.934 66.9969C35.7079 66.9977 35.4839 66.9537 35.2749 66.8672C35.066 66.7808 34.8762 66.6537 34.7165 66.4933C34.5462 66.3351 34.4112 66.1425 34.3205 65.9283C34.2297 65.714 34.1852 65.4829 34.1899 65.2502C34.1859 65.0168 34.2289 64.7849 34.3164 64.5685C34.4039 64.3522 34.5341 64.1557 34.6992 63.991C34.8578 63.823 35.0495 63.6898 35.2622 63.5998C35.4748 63.5098 35.7038 63.4651 35.9346 63.4683L35.934 63.4707ZM35.934 67.6698C36.1591 67.6683 36.3821 67.7138 36.5887 67.8034C36.7953 67.893 36.9811 68.0247 37.1342 68.1902C37.4615 68.5272 37.6447 68.979 37.6447 69.4494C37.6447 69.9198 37.4615 70.3716 37.1342 70.7086C36.9811 70.8741 36.7953 71.0058 36.5887 71.0954C36.3821 71.185 36.1591 71.2305 35.934 71.229C35.7034 71.2325 35.4745 71.1881 35.2619 71.0986C35.0493 71.009 34.8575 70.8762 34.6986 70.7086C34.3722 70.3711 34.1896 69.9195 34.1896 69.4494C34.1896 68.9793 34.3722 68.5277 34.6986 68.1902C34.8575 68.0225 35.0494 67.8897 35.2622 67.8001C35.4749 67.7105 35.7033 67.6662 35.934 67.6698ZM40.0473 42.4748C40.2724 42.4733 40.4954 42.5188 40.7021 42.6084C40.9087 42.698 41.0945 42.8297 41.2475 42.9952C41.4132 43.1598 41.5438 43.3563 41.6316 43.573C41.7193 43.7896 41.7623 44.0218 41.7579 44.2556C41.7635 44.4854 41.7227 44.7139 41.6379 44.9275C41.5532 45.1411 41.4263 45.3354 41.2648 45.4986C41.1075 45.6621 40.9181 45.7911 40.7085 45.8776C40.499 45.9641 40.2739 46.0061 40.0473 46.001C39.8214 46.002 39.5976 45.9581 39.3887 45.8719C39.1798 45.7856 38.9901 45.6588 38.8304 45.4986C38.6599 45.3405 38.5247 45.148 38.4339 44.9338C38.343 44.7195 38.2985 44.4884 38.3032 44.2556C38.2991 44.0219 38.342 43.7899 38.4295 43.5733C38.517 43.3567 38.6473 43.1601 38.8125 42.9952C38.9713 42.8275 39.1631 42.6947 39.3758 42.6051C39.5884 42.5156 39.8167 42.4712 40.0473 42.4748ZM40.0473 67.6698C40.2724 67.6683 40.4954 67.7138 40.702 67.8034C40.9087 67.893 41.0944 68.0247 41.2475 68.1902C41.5749 68.5272 41.7581 68.979 41.7581 69.4494C41.7581 69.9198 41.5749 70.3716 41.2475 70.7086C41.0944 70.8741 40.9087 71.0058 40.702 71.0954C40.4954 71.185 40.2724 71.2305 40.0473 71.229C39.8167 71.2325 39.5879 71.1881 39.3752 71.0986C39.1626 71.009 38.9708 70.8762 38.8119 70.7086C38.4855 70.3711 38.303 69.9195 38.303 69.4494C38.303 68.9793 38.4855 68.5277 38.8119 68.1902C38.9709 68.0225 39.1628 67.8897 39.3755 67.8001C39.5882 67.7105 39.8166 67.6662 40.0473 67.6698Z" fill="white"/>
<path d="M50.0723 59.2541C50.3027 59.2503 50.5313 59.2946 50.7437 59.3841C50.9561 59.4737 51.1476 59.6067 51.3059 59.7745C51.4712 59.9391 51.6016 60.1355 51.6893 60.3519C51.777 60.5683 51.8202 60.8002 51.8163 61.0337C51.8219 61.2635 51.7811 61.4921 51.6963 61.7057C51.6116 61.9193 51.4847 62.1135 51.3232 62.2768C51.1605 62.4423 50.9653 62.5724 50.7501 62.6589C50.5348 62.7453 50.3041 62.7863 50.0723 62.7792C49.8469 62.7805 49.6238 62.7349 49.4169 62.6453C49.21 62.5557 49.0239 62.4241 48.8703 62.2588C48.7074 62.0994 48.5783 61.9087 48.4906 61.6981C48.4029 61.4875 48.3584 61.2613 48.3599 61.0331C48.356 60.7996 48.3992 60.5677 48.487 60.3513C48.5747 60.1349 48.7051 59.9385 48.8703 59.7739C49.0237 59.6084 49.2098 59.4767 49.4167 59.3872C49.6237 59.2977 49.8469 59.2524 50.0723 59.2541ZM50.1374 63.4533C50.3626 63.4516 50.5856 63.4971 50.7923 63.5866C50.9989 63.6762 51.1847 63.808 51.3376 63.9736C51.5033 64.138 51.634 64.3343 51.7217 64.5508C51.8095 64.7672 51.8524 64.9993 51.8481 65.2329C51.8536 65.4627 51.8128 65.6912 51.7281 65.9048C51.6433 66.1185 51.5164 66.3127 51.3549 66.4759C51.1976 66.6394 51.0082 66.7684 50.7987 66.8549C50.5891 66.9414 50.364 66.9834 50.1374 66.9783C49.9116 66.9793 49.6877 66.9354 49.4788 66.8492C49.27 66.763 49.0802 66.6361 48.9205 66.4759C48.75 66.3178 48.6149 66.1253 48.524 65.9111C48.4331 65.6968 48.3886 65.4657 48.3934 65.2329C48.3891 64.9994 48.432 64.7675 48.5196 64.5511C48.6071 64.3346 48.7374 64.1382 48.9026 63.9736C49.0611 63.8062 49.2525 63.6735 49.4648 63.5839C49.677 63.4944 49.9055 63.4499 50.1357 63.4533H50.1374ZM50.1374 67.6525C50.3626 67.651 50.5855 67.6965 50.7922 67.7861C50.9988 67.8756 51.1846 68.0074 51.3376 68.1728C51.665 68.5098 51.8482 68.9617 51.8482 69.432C51.8482 69.9024 51.665 70.3543 51.3376 70.6913C51.1846 70.8567 50.9988 70.9884 50.7922 71.078C50.5855 71.1676 50.3626 71.2131 50.1374 71.2116C49.9068 71.2152 49.678 71.1708 49.4654 71.0812C49.2527 70.9917 49.0609 70.8589 48.9021 70.6913C48.5756 70.3538 48.3931 69.9021 48.3931 69.432C48.3931 68.962 48.5756 68.5103 48.9021 68.1728C49.0607 68.0054 49.2522 67.8728 49.4646 67.7832C49.6769 67.6937 49.9054 67.6491 50.1357 67.6525H50.1374ZM52.1768 55.055C52.4075 55.0511 52.6364 55.0953 52.8491 55.1849C53.0618 55.2745 53.2536 55.4074 53.4122 55.5753C53.5775 55.74 53.7079 55.9364 53.7956 56.1527C53.8833 56.3691 53.9265 56.601 53.9226 56.8346C53.9278 57.0656 53.8861 57.2952 53.8001 57.5096C53.7141 57.724 53.5857 57.9187 53.4224 58.0819C53.2592 58.2451 53.0647 58.3734 52.8506 58.459C52.6365 58.5446 52.4073 58.5858 52.1768 58.58C51.9502 58.5848 51.725 58.5426 51.5155 58.4559C51.306 58.3692 51.1166 58.24 50.9593 58.0764C50.7978 57.9134 50.6708 57.7192 50.5861 57.5057C50.5013 57.2922 50.4606 57.0637 50.4662 56.834C50.4632 56.3711 50.6401 55.9253 50.9593 55.5909C51.1119 55.419 51.2997 55.2821 51.51 55.1896C51.7202 55.0971 51.9473 55.0512 52.1768 55.055ZM54.2531 50.8552C54.4781 50.8538 54.701 50.8993 54.9075 50.9889C55.114 51.0785 55.2997 51.2102 55.4527 51.3756C55.6183 51.54 55.7488 51.7364 55.8366 51.9528C55.9243 52.1692 55.9674 52.4012 55.9631 52.6348C55.9688 52.8646 55.928 53.0931 55.8434 53.3067C55.7588 53.5203 55.632 53.7146 55.4706 53.8779C55.3133 54.0415 55.124 54.1708 54.9144 54.2574C54.7049 54.3441 54.4797 54.3863 54.2531 54.3814C54.027 54.3825 53.803 54.3385 53.594 54.252C53.385 54.1656 53.1952 54.0384 53.0356 53.8779C52.865 53.7198 52.7299 53.5273 52.6391 53.313C52.5483 53.0987 52.504 52.8676 52.509 52.6348C52.5048 52.4014 52.5477 52.1696 52.635 51.9533C52.7223 51.7369 52.8523 51.5404 53.0171 51.3756C53.1759 51.2081 53.3677 51.0754 53.5802 50.9858C53.7927 50.8962 54.0214 50.8518 54.2519 50.8552H54.2531ZM54.2531 59.2541C54.4781 59.2525 54.7011 59.298 54.9076 59.3876C55.1142 59.4771 55.2998 59.6089 55.4527 59.7745C55.777 60.1088 55.9599 60.5557 55.9634 61.0219C55.9668 61.4882 55.7905 61.9377 55.4712 62.2768C55.3138 62.4401 55.1243 62.5691 54.9148 62.6556C54.7053 62.742 54.4802 62.7841 54.2537 62.7792C54.0277 62.7802 53.8037 62.7363 53.5948 62.6501C53.3858 62.5639 53.1959 62.437 53.0362 62.2768C52.8657 62.1186 52.7307 61.9261 52.6399 61.7118C52.5491 61.4976 52.5047 61.2665 52.5096 61.0337C52.5054 60.8004 52.5483 60.5685 52.6356 60.3522C52.7229 60.1358 52.8528 59.9393 53.0177 59.7745C53.1763 59.6069 53.3679 59.4741 53.5804 59.3845C53.7928 59.295 54.0215 59.2506 54.2519 59.2541H54.2531ZM56.2919 46.6561C56.5225 46.6524 56.7514 46.6967 56.9641 46.7863C57.1767 46.8758 57.3685 47.0087 57.5273 47.1764C57.6925 47.3411 57.8229 47.5374 57.9106 47.7538C57.9984 47.9702 58.0416 48.2021 58.0377 48.4356C58.0434 48.6656 58.0025 48.8944 57.9174 49.108C57.8324 49.3217 57.7049 49.5159 57.5428 49.6787C57.3804 49.8448 57.1853 49.9752 56.97 50.0619C56.7547 50.1486 56.5238 50.1896 56.2919 50.1823C56.0653 50.1871 55.8401 50.1448 55.6306 50.0582C55.421 49.9715 55.2317 49.8423 55.0744 49.6787C54.9128 49.5155 54.7858 49.3213 54.7011 49.1077C54.6163 48.8941 54.5756 48.6655 54.5813 48.4356C54.5784 47.9728 54.7553 47.5271 55.0744 47.1926C55.2268 47.0209 55.4144 46.8841 55.6243 46.7915C55.8341 46.699 56.0614 46.6528 56.2907 46.6561H56.2919ZM58.3682 42.4569C58.5932 42.4555 58.8161 42.501 59.0226 42.5906C59.2291 42.6802 59.4148 42.8118 59.5678 42.9773C59.7333 43.1417 59.8639 43.338 59.9516 43.5545C60.0394 43.7709 60.0824 44.0029 60.0782 44.2365C60.0838 44.4663 60.0431 44.6948 59.9585 44.9084C59.8738 45.122 59.747 45.3163 59.5857 45.4795C59.4284 45.6432 59.2391 45.7725 59.0295 45.8592C58.82 45.9458 58.5948 45.988 58.3682 45.9831C58.1421 45.9841 57.9181 45.9401 57.7091 45.8536C57.5001 45.7672 57.3103 45.64 57.1507 45.4795C56.9802 45.3214 56.8452 45.1289 56.7544 44.9146C56.6637 44.7003 56.6193 44.4692 56.6241 44.2365C56.6199 44.0031 56.6627 43.7713 56.7501 43.5549C56.8374 43.3386 56.9673 43.1421 57.1322 42.9773C57.2908 42.81 57.4822 42.6774 57.6945 42.5878C57.9067 42.4983 58.1351 42.4537 58.3653 42.4569H58.3682ZM58.3682 59.2541C58.5932 59.2525 58.8161 59.298 59.0227 59.3876C59.2292 59.4771 59.4149 59.6089 59.5678 59.7745C59.892 60.1088 60.075 60.5557 60.0784 61.0219C60.0819 61.4882 59.9055 61.9377 59.5862 62.2768C59.4288 62.4401 59.2394 62.5691 59.0299 62.6556C58.8204 62.742 58.5953 62.7841 58.3687 62.7792C58.1428 62.7801 57.9188 62.7362 57.7099 62.65C57.5009 62.5638 57.311 62.4369 57.1512 62.2768C56.9809 62.1185 56.846 61.926 56.7552 61.7117C56.6645 61.4975 56.62 61.2664 56.6247 61.0337C56.6205 60.8004 56.6633 60.5685 56.7506 60.3522C56.8379 60.1358 56.9679 59.9393 57.1328 59.7745C57.2912 59.6071 57.4825 59.4744 57.6946 59.3849C57.9068 59.2953 58.1351 59.2508 58.3653 59.2541H58.3682ZM60.4069 46.6561C60.6376 46.6523 60.8665 46.6966 61.0792 46.7862C61.2918 46.8757 61.4836 47.0086 61.6423 47.1764C61.8076 47.3411 61.938 47.5374 62.0257 47.7538C62.1134 47.9702 62.1566 48.2021 62.1528 48.4356C62.1585 48.6656 62.1176 48.8944 62.0325 49.108C61.9474 49.3217 61.82 49.5159 61.6579 49.6787C61.4954 49.8448 61.3004 49.9752 61.0851 50.0619C60.8698 50.1486 60.6389 50.1896 60.4069 50.1823C60.1803 50.1871 59.9552 50.1448 59.7456 50.0582C59.5361 49.9715 59.3467 49.8423 59.1894 49.6787C59.0279 49.5155 58.9009 49.3213 58.8161 49.1077C58.7314 48.8941 58.6906 48.6655 58.6963 48.4356C58.6935 47.9728 58.8703 47.5271 59.1894 47.1926C59.3415 47.0214 59.5283 46.885 59.7375 46.7924C59.9466 46.6998 60.1732 46.6533 60.4018 46.6561H60.4069ZM62.4832 50.8552C62.7083 50.8537 62.9312 50.8992 63.1377 50.9888C63.3442 51.0784 63.5299 51.2101 63.6829 51.3756C63.8484 51.54 63.979 51.7364 64.0667 51.9528C64.1544 52.1692 64.1975 52.4012 64.1933 52.6348C64.1989 52.8646 64.1582 53.0931 64.0735 53.3067C63.9889 53.5203 63.8621 53.7146 63.7007 53.8779C63.5435 54.0415 63.3541 54.1708 63.1446 54.2574C62.935 54.3441 62.7099 54.3863 62.4832 54.3814C62.2572 54.3824 62.0331 54.3383 61.8242 54.2519C61.6152 54.1655 61.4254 54.0383 61.2657 53.8779C61.0953 53.7197 60.9603 53.5272 60.8695 53.3129C60.7788 53.0987 60.7343 52.8675 60.7392 52.6348C60.735 52.4014 60.7778 52.1696 60.8651 51.9533C60.9524 51.7369 61.0824 51.5404 61.2473 51.3756C61.4056 51.2086 61.5967 51.0761 61.8085 50.9866C62.0203 50.8971 62.2482 50.8523 62.478 50.8552H62.4832ZM62.4832 59.2541C62.7083 59.2525 62.9312 59.2979 63.1378 59.3875C63.3444 59.4771 63.53 59.6089 63.6829 59.7745C64.0071 60.1088 64.1901 60.5557 64.1935 61.0219C64.1969 61.4882 64.0206 61.9377 63.7013 62.2768C63.5439 62.4401 63.3545 62.5691 63.145 62.6556C62.9354 62.742 62.7103 62.7841 62.4838 62.7792C62.2578 62.7801 62.0339 62.7362 61.8249 62.65C61.616 62.5638 61.4261 62.4369 61.2663 62.2768C61.096 62.1185 60.9611 61.926 60.8703 61.7117C60.7795 61.4975 60.735 61.2664 60.7397 61.0337C60.7356 60.8004 60.7784 60.5685 60.8657 60.3522C60.953 60.1358 61.083 59.9393 61.2478 59.7745C61.406 59.6074 61.5969 59.4749 61.8087 59.3853C62.0204 59.2958 62.2483 59.2511 62.478 59.2541H62.4832ZM64.522 55.055C64.7527 55.051 64.9817 55.0952 65.1944 55.1848C65.4071 55.2744 65.5988 55.4074 65.7574 55.5753C65.9227 55.74 66.0531 55.9364 66.1408 56.1527C66.2285 56.3691 66.2717 56.601 66.2678 56.8346C66.273 57.0656 66.2313 57.2952 66.1453 57.5096C66.0593 57.724 65.9309 57.9187 65.7677 58.0819C65.6044 58.2451 65.4099 58.3734 65.1958 58.459C64.9817 58.5446 64.7525 58.5858 64.522 58.58C64.2954 58.5848 64.0702 58.5426 63.8607 58.4559C63.6512 58.3692 63.4618 58.24 63.3045 58.0764C63.143 57.9134 63.016 57.7192 62.9313 57.5057C62.8465 57.2922 62.8058 57.0637 62.8114 56.834C62.8084 56.3711 62.9853 55.9253 63.3045 55.5909C63.4566 55.4196 63.6437 55.2831 63.8531 55.1906C64.0624 55.0981 64.2892 55.0519 64.518 55.055H64.522ZM66.5302 59.2541C66.7606 59.2503 66.9893 59.2946 67.2017 59.3841C67.4141 59.4737 67.6056 59.6067 67.7639 59.7745C67.9292 59.9391 68.0596 60.1355 68.1473 60.3519C68.235 60.5683 68.2782 60.8002 68.2743 61.0337C68.2798 61.2635 68.239 61.4919 68.1543 61.7055C68.0697 61.9191 67.943 62.1134 67.7818 62.2768C67.6188 62.4424 67.4235 62.5725 67.208 62.659C66.9926 62.7454 66.7616 62.7863 66.5297 62.7792C66.3043 62.7804 66.0812 62.7348 65.8743 62.6452C65.6675 62.5557 65.4814 62.4241 65.3277 62.2588C65.165 62.0993 65.0359 61.9086 64.9482 61.698C64.8605 61.4874 64.816 61.2613 64.8173 61.0331C64.8134 60.7996 64.8566 60.5677 64.9444 60.3513C65.0321 60.1349 65.1625 59.9385 65.3277 59.7739C65.4807 59.6089 65.6663 59.4774 65.8726 59.388C66.0789 59.2985 66.3014 59.2529 66.5262 59.2541H66.5302ZM66.5966 63.4533C66.8216 63.4516 67.0446 63.497 67.2511 63.5866C67.4577 63.6762 67.6433 63.808 67.7962 63.9736C68.1205 64.3079 68.3034 64.7548 68.3068 65.2211C68.3103 65.6873 68.1339 66.1369 67.8147 66.4759C67.6572 66.6393 67.4678 66.7683 67.2583 66.8547C67.0488 66.9412 66.8237 66.9833 66.5971 66.9783C66.3712 66.9792 66.1473 66.9353 65.9383 66.8491C65.7294 66.7629 65.5395 66.636 65.3796 66.4759C65.2093 66.3177 65.0744 66.1251 64.9836 65.9109C64.8929 65.6967 64.8484 65.4656 64.8531 65.2329C64.8489 64.9995 64.8917 64.7677 64.979 64.5513C65.0664 64.335 65.1963 64.1385 65.3612 63.9736C65.5195 63.8064 65.7106 63.6738 65.9225 63.5843C66.1344 63.4947 66.3626 63.4501 66.5925 63.4533H66.5966ZM66.5966 67.6525C66.8216 67.651 67.0445 67.6964 67.251 67.786C67.4576 67.8756 67.6432 68.0073 67.7962 68.1728C68.1236 68.5098 68.3067 68.9617 68.3067 69.432C68.3067 69.9024 68.1236 70.3543 67.7962 70.6913C67.6432 70.8567 67.4576 70.9885 67.251 71.0781C67.0445 71.1676 66.8216 71.2131 66.5966 71.2116C66.3659 71.2152 66.1369 71.1709 65.9242 71.0813C65.7115 70.9917 65.5196 70.8589 65.3606 70.6913C65.0346 70.3535 64.8523 69.902 64.8523 69.432C64.8523 68.9621 65.0346 68.5105 65.3606 68.1728C65.5191 68.0057 65.7103 67.8731 65.9223 67.7836C66.1343 67.6941 66.3625 67.6494 66.5925 67.6525H66.5966Z" fill="white"/>
<path d="M90.5655 43.2554H85.7958V47.1492H89.1081C89.286 47.1492 89.4566 47.2201 89.5824 47.3462C89.7082 47.4723 89.7788 47.6433 89.7788 47.8216C89.7788 48 89.7082 48.171 89.5824 48.2971C89.4566 48.4232 89.286 48.494 89.1081 48.494H85.7958V53.5732C85.7958 53.7482 85.7265 53.9161 85.603 54.0398C85.4795 54.1636 85.3121 54.2331 85.1375 54.2331C84.9629 54.2331 84.7954 54.1636 84.672 54.0398C84.5485 53.9161 84.4791 53.7482 84.4791 53.5732V42.5824C84.4832 42.4076 84.5535 42.2409 84.6757 42.1161C84.7979 41.9913 84.9629 41.9178 85.1372 41.9106H90.5649C90.7428 41.9106 90.9134 41.9814 91.0392 42.1075C91.165 42.2336 91.2357 42.4046 91.2357 42.583C91.2357 42.7613 91.165 42.9323 91.0392 43.0584C90.9134 43.1845 90.7428 43.2554 90.5649 43.2554H90.5655Z" fill="white"/>
<path d="M93.6165 54.2282C93.5293 54.2327 93.4421 54.2188 93.3606 54.1875C93.2791 54.1562 93.205 54.1082 93.143 54.0465C93.0811 53.9849 93.0326 53.9109 93.0009 53.8294C92.9691 53.7479 92.9546 53.6606 92.9584 53.5732V42.4772C92.9558 42.3888 92.9709 42.3008 93.0029 42.2183C93.0348 42.1359 93.0829 42.0607 93.1444 41.9973C93.2058 41.9339 93.2793 41.8834 93.3606 41.849C93.4418 41.8145 93.5291 41.7968 93.6174 41.7968C93.7056 41.7968 93.7929 41.8145 93.8741 41.849C93.9554 41.8834 94.0289 41.9339 94.0903 41.9973C94.1518 42.0607 94.1999 42.1359 94.2318 42.2183C94.2638 42.3008 94.2789 42.3888 94.2763 42.4772V53.5737C94.28 53.6613 94.2655 53.7487 94.2335 53.8302C94.2016 53.9118 94.153 53.9858 94.0909 54.0474C94.0288 54.109 93.9545 54.1569 93.8728 54.1881C93.7911 54.2192 93.7038 54.2329 93.6165 54.2282Z" fill="white"/>
<path d="M103.57 54.2282C103.376 54.2502 103.18 54.2041 103.016 54.0978C102.851 53.9914 102.729 53.8314 102.669 53.6449L98.8891 44.9187V53.5732C98.8891 53.7482 98.8197 53.9161 98.6963 54.0398C98.5728 54.1636 98.4053 54.2331 98.2307 54.2331C98.0561 54.2331 97.8887 54.1636 97.7652 54.0398C97.6417 53.9161 97.5724 53.7482 97.5724 53.5732V42.4939C97.5729 42.3955 97.5942 42.2984 97.6348 42.2088C97.6753 42.1192 97.7344 42.0393 97.8079 41.9742C97.8815 41.909 97.9679 41.8602 98.0616 41.831C98.1553 41.8017 98.2541 41.7925 98.3516 41.8042C98.5418 41.78 98.7344 41.8235 98.896 41.927C99.0575 42.0306 99.1777 42.1876 99.2357 42.3708L102.998 51.131V42.4772C102.996 42.3878 103.012 42.2989 103.045 42.216C103.079 42.133 103.128 42.0578 103.192 41.9948C103.255 41.9318 103.33 41.8824 103.413 41.8496C103.496 41.8169 103.585 41.8014 103.674 41.8042C103.762 41.8022 103.848 41.8185 103.929 41.852C104.01 41.8856 104.083 41.9356 104.143 41.9989C104.203 42.0622 104.25 42.1374 104.28 42.2198C104.309 42.3021 104.322 42.3898 104.316 42.4772V53.45C104.33 53.5529 104.321 53.6578 104.289 53.7566C104.257 53.8555 104.203 53.9458 104.131 54.0207C104.06 54.0957 103.972 54.1533 103.874 54.1892C103.777 54.2252 103.673 54.2385 103.57 54.2282Z" fill="white"/>
<path d="M111.929 43.2554H110.021V53.5732C110.021 53.7483 109.952 53.9162 109.829 54.04C109.705 54.1639 109.537 54.2334 109.363 54.2334C109.188 54.2334 109.021 54.1639 108.897 54.04C108.774 53.9162 108.704 53.7483 108.704 53.5732V43.2554H106.797C106.619 43.2554 106.448 43.1845 106.323 43.0584C106.197 42.9323 106.126 42.7613 106.126 42.583C106.126 42.4046 106.197 42.2336 106.323 42.1075C106.448 41.9814 106.619 41.9106 106.797 41.9106H111.93C112.108 41.9106 112.278 41.9814 112.404 42.1075C112.53 42.2336 112.601 42.4046 112.601 42.583C112.601 42.7613 112.53 42.9323 112.404 43.0584C112.278 43.1845 112.107 43.2554 111.929 43.2554Z" fill="white"/>
<path d="M120.495 54.1398H115.068C114.894 54.1323 114.729 54.0588 114.607 53.9341C114.484 53.8093 114.414 53.6427 114.41 53.4679V42.5824C114.414 42.4076 114.484 42.2409 114.606 42.1161C114.729 41.9913 114.894 41.9178 115.068 41.9106H120.495C120.673 41.9106 120.844 41.9814 120.969 42.1075C121.095 42.2336 121.166 42.4046 121.166 42.583C121.166 42.7613 121.095 42.9323 120.969 43.0584C120.844 43.1845 120.673 43.2554 120.495 43.2554H115.727V47.1492H119.039C119.217 47.1492 119.387 47.2201 119.513 47.3462C119.639 47.4723 119.71 47.6433 119.71 47.8216C119.71 48 119.639 48.171 119.513 48.2971C119.387 48.4232 119.217 48.494 119.039 48.494H115.727V52.795H120.495C120.673 52.795 120.844 52.8658 120.969 52.9919C121.095 53.118 121.166 53.289 121.166 53.4674C121.166 53.6457 121.095 53.8167 120.969 53.9428C120.844 54.0689 120.673 54.1398 120.495 54.1398Z" fill="white"/>
<path d="M126.442 54.2282H126.269C125.833 54.228 125.402 54.141 124.999 53.9723C124.597 53.8035 124.232 53.5565 123.926 53.2454C123.619 52.9343 123.377 52.5654 123.214 52.16C123.051 51.7546 122.97 51.3207 122.975 50.8836V45.1494C122.97 44.2682 123.315 43.4211 123.932 42.794C124.55 42.1669 125.39 41.8109 126.269 41.8042H126.442C127.243 41.8064 128.014 42.1003 128.614 42.631C129.214 43.1618 129.601 43.8931 129.702 44.6886V44.795C129.706 44.8811 129.693 44.967 129.662 45.0476C129.632 45.1281 129.585 45.2014 129.525 45.2629C129.464 45.3244 129.392 45.3728 129.313 45.405C129.233 45.4372 129.147 45.4526 129.061 45.4501C128.899 45.4504 128.743 45.3912 128.621 45.2836C128.499 45.176 128.421 45.0275 128.402 44.8661C128.327 44.395 128.09 43.9651 127.732 43.6513C127.373 43.3375 126.916 43.1598 126.441 43.149H126.268C125.742 43.1555 125.24 43.369 124.871 43.7433C124.501 44.1175 124.293 44.6226 124.291 45.1494V50.8836C124.289 51.1462 124.338 51.4068 124.436 51.6503C124.534 51.8939 124.679 52.1157 124.862 52.3031C125.046 52.4905 125.264 52.6398 125.506 52.7424C125.747 52.8451 126.006 52.8991 126.268 52.9014H126.441C126.916 52.8906 127.373 52.7128 127.732 52.399C128.09 52.0852 128.327 51.6553 128.402 51.1842C128.424 51.024 128.503 50.877 128.624 50.7699C128.745 50.6628 128.9 50.6026 129.061 50.6003C129.147 50.5978 129.233 50.6131 129.313 50.6454C129.392 50.6776 129.464 50.7259 129.525 50.7874C129.585 50.849 129.632 50.9223 129.662 51.0028C129.693 51.0833 129.706 51.1693 129.702 51.2554V51.3797C129.591 52.1678 129.2 52.8893 128.601 53.4124C128.003 53.9354 127.237 54.225 126.442 54.2282Z" fill="white"/>
<path d="M138.044 54.2282C137.956 54.2361 137.867 54.2246 137.784 54.1945C137.701 54.1645 137.625 54.1166 137.562 54.0542C137.5 53.9918 137.451 53.9165 137.42 53.8334C137.39 53.7503 137.377 53.6615 137.384 53.5732V48.4958H133.276V53.5749C133.276 53.75 133.206 53.918 133.083 54.0418C132.959 54.1656 132.792 54.2352 132.617 54.2352C132.442 54.2352 132.275 54.1656 132.151 54.0418C132.028 53.918 131.958 53.75 131.958 53.5749V42.4772C131.958 42.3905 131.976 42.3046 132.009 42.2245C132.042 42.1444 132.09 42.0716 132.151 42.0103C132.213 41.949 132.285 41.9003 132.365 41.8672C132.445 41.834 132.531 41.8169 132.617 41.8169C132.704 41.8169 132.789 41.834 132.869 41.8672C132.949 41.9003 133.022 41.949 133.083 42.0103C133.144 42.0716 133.193 42.1444 133.226 42.2245C133.259 42.3046 133.276 42.3905 133.276 42.4772V47.1493H137.384V42.4772C137.382 42.3888 137.397 42.3008 137.429 42.2183C137.461 42.1359 137.509 42.0607 137.57 41.9973C137.632 41.9339 137.705 41.8834 137.787 41.849C137.868 41.8145 137.955 41.7968 138.043 41.7968C138.132 41.7968 138.219 41.8145 138.3 41.849C138.381 41.8834 138.455 41.9339 138.516 41.9973C138.578 42.0607 138.626 42.1359 138.658 42.2183C138.69 42.3008 138.705 42.3888 138.702 42.4772V53.5737C138.709 53.662 138.697 53.7507 138.666 53.8336C138.636 53.9166 138.587 53.9918 138.524 54.0541C138.462 54.1164 138.386 54.1643 138.303 54.1944C138.22 54.2244 138.132 54.236 138.044 54.2282Z" fill="white"/>
<path d="M92.324 71.5152C92.2368 71.5197 92.1495 71.5059 92.0679 71.4746C91.9863 71.4434 91.912 71.3954 91.85 71.3337C91.7879 71.272 91.7394 71.1981 91.7075 71.1165C91.6756 71.0349 91.6611 70.9476 91.6648 70.8601V62.2057L89.3763 67.5686C89.3181 67.7122 89.2166 67.834 89.086 67.9169C88.9554 67.9999 88.8022 68.0398 88.6479 68.0312C88.4918 68.0371 88.3375 67.9962 88.2047 67.9138C88.0719 67.8315 87.9665 67.7113 87.9021 67.5686L85.5438 62.2057V70.8601C85.5438 71.0351 85.4745 71.203 85.351 71.3268C85.2275 71.4505 85.0601 71.5201 84.8855 71.5201C84.7109 71.5201 84.5434 71.4505 84.4199 71.3268C84.2965 71.203 84.2271 71.0351 84.2271 70.8601V59.8693C84.2271 59.3918 84.4001 59.0911 85.0063 59.0911H85.0588C85.2269 59.0799 85.394 59.124 85.5348 59.2166C85.6757 59.3093 85.7825 59.4455 85.8391 59.6045L88.6138 65.94L91.3701 59.6045C91.4286 59.4432 91.5384 59.3056 91.6825 59.2129C91.8266 59.1201 91.997 59.0774 92.1677 59.0911H92.2196C92.8264 59.0911 92.9821 59.3918 92.9821 59.8693V70.8601C92.9859 70.9475 92.9714 71.0348 92.9397 71.1163C92.9079 71.1978 92.8595 71.2718 92.7975 71.3335C92.7356 71.3951 92.6614 71.4431 92.5799 71.4744C92.4984 71.5057 92.4112 71.5196 92.324 71.5152Z" fill="white"/>
<path d="M101.844 71.4267H96.4171C96.2423 71.4195 96.0768 71.3458 95.9543 71.2205C95.8318 71.0953 95.7616 70.9279 95.7579 70.7526V59.8699C95.7619 59.6949 95.8321 59.528 95.9543 59.403C96.0765 59.2781 96.2416 59.2044 96.416 59.1969H101.843C102.018 59.2021 102.183 59.2752 102.305 59.4008C102.427 59.5264 102.495 59.6945 102.495 59.8696C102.495 60.0447 102.427 60.2129 102.305 60.3385C102.183 60.464 102.018 60.5372 101.843 60.5423H97.0746V64.4356H100.387C100.561 64.4407 100.727 64.5139 100.849 64.6395C100.97 64.7651 101.039 64.9332 101.039 65.1083C101.039 65.2834 100.97 65.4516 100.849 65.5771C100.727 65.7027 100.561 65.7759 100.387 65.781H97.0746V70.0819H101.843C102.021 70.0819 102.192 70.1528 102.317 70.2789C102.443 70.405 102.514 70.576 102.514 70.7543C102.514 70.9326 102.443 71.1037 102.317 71.2298C102.192 71.3559 102.021 71.4267 101.843 71.4267H101.844Z" fill="white"/>
<path d="M112.336 71.5152C112.249 71.5197 112.161 71.5058 112.08 71.4746C111.998 71.4434 111.924 71.3954 111.862 71.3337C111.8 71.272 111.751 71.1981 111.719 71.1165C111.687 71.0349 111.673 70.9476 111.677 70.8601V62.2056L109.388 67.5686C109.33 67.7122 109.228 67.834 109.098 67.9169C108.967 67.9998 108.814 68.0398 108.66 68.0312C108.504 68.0371 108.349 67.9962 108.217 67.9138C108.084 67.8315 107.978 67.7113 107.914 67.5686L105.556 62.2056V70.8601C105.556 71.0352 105.487 71.2032 105.363 71.327C105.24 71.4508 105.072 71.5204 104.898 71.5204C104.723 71.5204 104.555 71.4508 104.432 71.327C104.308 71.2032 104.239 71.0352 104.239 70.8601V59.8693C104.239 59.3918 104.412 59.0911 105.019 59.0911H105.071C105.239 59.0799 105.406 59.124 105.547 59.2166C105.688 59.3093 105.795 59.4455 105.852 59.6045L108.626 65.94L111.383 59.6045C111.441 59.4433 111.551 59.3057 111.695 59.213C111.839 59.1203 112.009 59.0774 112.18 59.0911H112.232C112.839 59.0911 112.995 59.3918 112.995 59.8693V70.8601C112.998 70.9476 112.984 71.0349 112.952 71.1165C112.92 71.198 112.872 71.272 112.81 71.3337C112.748 71.3953 112.674 71.4433 112.592 71.4746C112.51 71.5059 112.423 71.5197 112.336 71.5152Z" fill="white"/>
<path d="M118.753 71.4267H116.083C115.909 71.4192 115.743 71.3456 115.621 71.2206C115.499 71.0956 115.429 70.9287 115.425 70.7537V59.8699C115.429 59.6949 115.499 59.528 115.621 59.403C115.743 59.278 115.909 59.2044 116.083 59.1969H118.753C119.176 59.1862 119.596 59.2627 119.987 59.4216C120.379 59.5805 120.733 59.8184 121.029 60.1206C121.325 60.4228 121.556 60.7828 121.707 61.1782C121.858 61.5736 121.927 61.996 121.908 62.419V62.4363C121.941 62.9646 121.833 63.4921 121.595 63.9648C121.358 64.4375 120.999 64.8384 120.556 65.1265C121.028 65.4158 121.414 65.8254 121.676 66.3135C121.938 66.8016 122.066 67.3506 122.047 67.9045V68.0635C122.051 68.5012 121.969 68.9354 121.806 69.3414C121.643 69.7473 121.401 70.117 121.095 70.4293C120.79 70.7417 120.425 70.9905 120.023 71.1616C119.622 71.3328 119.19 71.4228 118.753 71.4267ZM120.59 62.4184C120.607 62.1706 120.571 61.9221 120.485 61.6892C120.4 61.4562 120.265 61.2442 120.092 61.0669C119.918 60.8897 119.709 60.7513 119.479 60.6609C119.248 60.5705 119.001 60.53 118.753 60.5423H116.741V64.4506H118.753C119.008 64.4465 119.26 64.3902 119.493 64.2851C119.725 64.1799 119.934 64.0282 120.106 63.8392C120.278 63.6503 120.41 63.428 120.493 63.1862C120.576 62.9443 120.609 62.688 120.59 62.4329V62.4184ZM120.729 67.904C120.737 67.3644 120.535 66.8429 120.166 66.4499C119.797 66.0568 119.29 65.8229 118.753 65.7977H116.74V70.0813H118.753C119.015 70.0789 119.274 70.0248 119.515 69.922C119.756 69.8193 119.974 69.6699 120.158 69.4825C120.341 69.2951 120.486 69.0732 120.584 68.8296C120.682 68.5861 120.731 68.3256 120.729 68.063V67.904Z" fill="white"/>
<path d="M130.389 71.4267H124.961C124.787 71.4193 124.622 71.3456 124.5 71.2206C124.377 71.0956 124.307 70.9287 124.303 70.7537V59.8699C124.307 59.6949 124.377 59.528 124.5 59.403C124.622 59.2781 124.787 59.2044 124.961 59.1969H130.389C130.563 59.2021 130.729 59.2752 130.851 59.4008C130.972 59.5264 131.04 59.6945 131.04 59.8696C131.04 60.0447 130.972 60.2129 130.851 60.3385C130.729 60.464 130.563 60.5372 130.389 60.5423H125.62V64.4356H128.932C129.107 64.4407 129.273 64.5139 129.394 64.6395C129.516 64.7651 129.584 64.9332 129.584 65.1083C129.584 65.2834 129.516 65.4516 129.394 65.5771C129.273 65.7027 129.107 65.7759 128.932 65.781H125.62V70.0819H130.389C130.566 70.0819 130.737 70.1528 130.863 70.2789C130.989 70.405 131.059 70.576 131.059 70.7543C131.059 70.9326 130.989 71.1037 130.863 71.2298C130.737 71.3559 130.566 71.4267 130.389 71.4267Z" fill="white"/>
<path d="M137.273 65.9764L139.422 70.56C139.471 70.6523 139.496 70.7561 139.492 70.8607C139.493 70.9502 139.475 71.039 139.44 71.1214C139.405 71.2038 139.353 71.278 139.288 71.3395C139.223 71.401 139.146 71.4484 139.062 71.4787C138.978 71.509 138.889 71.5216 138.8 71.5157C138.678 71.518 138.559 71.4838 138.457 71.4174C138.355 71.3511 138.275 71.2556 138.228 71.1434L135.87 66.0828H134.101V70.8607C134.101 71.0358 134.032 71.2037 133.908 71.3276C133.785 71.4514 133.617 71.5209 133.442 71.5209C133.268 71.5209 133.1 71.4514 132.977 71.3276C132.853 71.2037 132.784 71.0358 132.784 70.8607V59.8699C132.788 59.6949 132.858 59.528 132.98 59.403C133.102 59.2781 133.267 59.2044 133.442 59.1969H136.355C136.792 59.2008 137.223 59.2908 137.625 59.4619C138.027 59.633 138.391 59.8818 138.697 60.1941C139.003 60.5063 139.244 60.876 139.408 61.2818C139.571 61.6877 139.653 62.1219 139.649 62.5595V62.7185C139.661 63.4467 139.435 64.159 139.006 64.747C138.577 65.335 137.969 65.7667 137.273 65.9764ZM138.33 62.5595C138.333 62.297 138.283 62.0366 138.185 61.7931C138.087 61.5497 137.942 61.328 137.759 61.1407C137.575 60.9535 137.357 60.8043 137.116 60.7017C136.875 60.5991 136.616 60.5451 136.354 60.5429H134.099V64.7397H136.422C136.68 64.736 136.935 64.6805 137.172 64.5764C137.409 64.4723 137.622 64.3218 137.8 64.1337C137.978 63.9456 138.116 63.7237 138.207 63.4812C138.298 63.2386 138.34 62.9803 138.33 62.7214L138.33 62.5595Z" fill="white"/>
</g>
<defs>
<clipPath id="clip0_4644_821">
<rect width="124" height="46" fill="white" transform="translate(24 33)"/>
</clipPath>
</defs>
</svg>
