<svg width="40" height="40" viewBox="0 0 40 40" fill="none" xmlns="http://www.w3.org/2000/svg">
<path fill-rule="evenodd" clip-rule="evenodd" d="M11.0962 26.6906C10.1039 27.9123 9.60712 29.451 9.36741 30.6299C9.3602 30.6653 9.36403 30.6842 9.3667 30.6935C9.36996 30.705 9.37749 30.7218 9.39545 30.7418C9.43269 30.7831 9.51268 30.8333 9.63614 30.8333H22.0305C22.154 30.8333 22.234 30.7831 22.2712 30.7418C22.2892 30.7218 22.2967 30.705 22.3 30.6935C22.3026 30.6842 22.3065 30.6653 22.2993 30.6299C22.0595 29.451 21.5628 27.9123 20.5705 26.6906C19.6194 25.5197 18.1739 24.5833 15.8333 24.5833C13.4928 24.5833 12.0473 25.5197 11.0962 26.6906ZM9.15569 25.1144C10.5499 23.3979 12.6911 22.0833 15.8333 22.0833C18.9756 22.0833 21.1167 23.3979 22.511 25.1144C23.8639 26.7801 24.4712 28.7652 24.7491 30.1317C25.1186 31.9486 23.6342 33.3333 22.0305 33.3333H9.63614C8.03248 33.3333 6.5481 31.9486 6.91754 30.1317C7.19542 28.7652 7.80271 26.7801 9.15569 25.1144Z" fill="#8A6B24"/>
<path fill-rule="evenodd" clip-rule="evenodd" d="M25 23.3333C25 22.643 25.5596 22.0833 26.25 22.0833C28.4953 22.0833 30.0595 23.2737 31.0839 24.7248C32.0821 26.139 32.6254 27.865 32.9268 29.2223C33.4385 31.5272 31.5488 33.3333 29.4615 33.3333H27.9167C27.2263 33.3333 26.6667 32.7737 26.6667 32.0833C26.6667 31.393 27.2263 30.8333 27.9167 30.8333H29.4615C29.8251 30.8333 30.1218 30.6816 30.3017 30.4795C30.4725 30.2878 30.5486 30.0454 30.4862 29.7642C30.2147 28.5414 29.7621 27.1874 29.0415 26.1666C28.347 25.1828 27.4693 24.5833 26.25 24.5833C25.5596 24.5833 25 24.0237 25 23.3333Z" fill="#8A6B24"/>
<path fill-rule="evenodd" clip-rule="evenodd" d="M15.8333 9.16669C13.9924 9.16669 12.5 10.6591 12.5 12.5C12.5 14.341 13.9924 15.8334 15.8333 15.8334C17.6743 15.8334 19.1667 14.341 19.1667 12.5C19.1667 10.6591 17.6743 9.16669 15.8333 9.16669ZM10 12.5C10 9.27836 12.6117 6.66669 15.8333 6.66669C19.055 6.66669 21.6667 9.27836 21.6667 12.5C21.6667 15.7217 19.055 18.3334 15.8333 18.3334C12.6117 18.3334 10 15.7217 10 12.5Z" fill="#8A6B24"/>
<path fill-rule="evenodd" clip-rule="evenodd" d="M23.3334 7.91669C23.3334 7.22633 23.893 6.66669 24.5834 6.66669C27.9573 6.66669 30 9.4412 30 12.5C30 15.5588 27.9573 18.3334 24.5834 18.3334C23.893 18.3334 23.3334 17.7737 23.3334 17.0834C23.3334 16.393 23.893 15.8334 24.5834 15.8334C26.272 15.8334 27.5 14.5038 27.5 12.5C27.5 10.4962 26.272 9.16669 24.5834 9.16669C23.893 9.16669 23.3334 8.60704 23.3334 7.91669Z" fill="#8A6B24"/>
</svg>
