<svg width="40" height="40" viewBox="0 0 40 40" fill="none" xmlns="http://www.w3.org/2000/svg">
<path fill-rule="evenodd" clip-rule="evenodd" d="M9.67827 18.1285C9.28251 19.1303 9.16675 19.8167 9.16675 20C9.16675 20.2333 9.34023 21.1554 9.90755 22.4134C10.4541 23.6252 11.3095 25.0185 12.54 26.22C13.034 26.7023 13.0434 27.4937 12.5611 27.9877C12.0788 28.4816 11.2874 28.491 10.7935 28.0087C9.2942 26.5448 8.2746 24.8737 7.62857 23.4411C7.00335 22.0547 6.66675 20.7524 6.66675 20C6.66675 19.3499 6.91557 18.3176 7.35314 17.21C7.80722 16.0606 8.51451 14.7022 9.53653 13.3963C11.5971 10.7633 14.9561 8.33331 20.0001 8.33331C23.2709 8.33331 25.8549 9.35818 27.8362 10.8232C28.3913 11.2337 28.5085 12.0164 28.0981 12.5715C27.6876 13.1266 26.9049 13.2438 26.3498 12.8333C24.779 11.6718 22.7117 10.8333 20.0001 10.8333C15.8774 10.8333 13.1947 12.7783 11.5053 14.937C10.6523 16.0269 10.0575 17.1685 9.67827 18.1285ZM30.4916 15.544C31.1116 15.2404 31.8603 15.497 32.1639 16.117C32.5614 16.9292 32.848 17.6934 33.0371 18.341C33.2184 18.9617 33.3334 19.5535 33.3334 20C33.3334 20.6501 33.0846 21.6824 32.647 22.79C32.1929 23.9394 31.4857 25.2978 30.4636 26.6037C28.4031 29.2367 25.0441 31.6666 20.0001 31.6666C18.674 31.6666 17.4556 31.4982 16.3402 31.1962C15.6738 31.0159 15.2798 30.3294 15.4602 29.6631C15.6405 28.9967 16.327 28.6027 16.9933 28.7831C17.8895 29.0257 18.8881 29.1666 20.0001 29.1666C24.1227 29.1666 26.8054 27.2216 28.4949 25.0629C29.3478 23.973 29.9426 22.8314 30.3219 21.8714C30.7177 20.8697 30.8334 20.1832 30.8334 20C30.8334 19.9039 30.7939 19.5778 30.6374 19.0419C30.4887 18.5329 30.2541 17.9017 29.9185 17.2163C29.615 16.5962 29.8715 15.8475 30.4916 15.544Z" fill="#8A6B24"/>
<path fill-rule="evenodd" clip-rule="evenodd" d="M32.9673 7.0328C33.4555 7.52096 33.4555 8.31242 32.9673 8.80057L8.80063 32.9672C8.31248 33.4554 7.52102 33.4554 7.03286 32.9672C6.54471 32.4791 6.54471 31.6876 7.03286 31.1995L31.1995 7.0328C31.6877 6.54465 32.4791 6.54465 32.9673 7.0328Z" fill="#8A6B24"/>
<path fill-rule="evenodd" clip-rule="evenodd" d="M21.7678 18.2322C20.7915 17.2559 19.2085 17.2559 18.2322 18.2322C17.2559 19.2085 17.2559 20.7915 18.2322 21.7678C18.7204 22.2559 18.7204 23.0474 18.2322 23.5355C17.7441 24.0237 16.9526 24.0237 16.4645 23.5355C14.5118 21.5829 14.5118 18.4171 16.4645 16.4645C18.4171 14.5118 21.5829 14.5118 23.5355 16.4645C24.0237 16.9526 24.0237 17.7441 23.5355 18.2322C23.0474 18.7204 22.2559 18.7204 21.7678 18.2322Z" fill="#8A6B24"/>
</svg>
