<svg width="40" height="40" viewBox="0 0 40 40" fill="none" xmlns="http://www.w3.org/2000/svg">
<path fill-rule="evenodd" clip-rule="evenodd" d="M6.66663 14.5834C6.66663 10.2111 10.211 6.66669 14.5833 6.66669H25.4166C29.7889 6.66669 33.3333 10.2111 33.3333 14.5834V25.4167C33.3333 29.7889 29.7889 33.3334 25.4166 33.3334H14.5833C10.211 33.3334 6.66663 29.7889 6.66663 25.4167V14.5834ZM14.5833 9.16669C11.5918 9.16669 9.16663 11.5918 9.16663 14.5834V25.4167C9.16663 28.4082 11.5918 30.8334 14.5833 30.8334H25.4166C28.4082 30.8334 30.8333 28.4082 30.8333 25.4167V14.5834C30.8333 11.5918 28.4082 9.16669 25.4166 9.16669H14.5833Z" fill="#8A6B24"/>
<path fill-rule="evenodd" clip-rule="evenodd" d="M14.032 20.6857C13.7216 20.0721 12.9733 19.8241 12.3576 20.132C11.7402 20.4407 11.4899 21.1916 11.7986 21.809L12.9167 21.25C11.7986 21.809 11.7983 21.8085 11.7986 21.809L11.7998 21.8113L11.8011 21.814L11.8044 21.8205L11.8135 21.8381C11.8206 21.8518 11.8299 21.8694 11.8414 21.8908C11.8644 21.9334 11.8963 21.9908 11.9373 22.0608C12.0193 22.2008 12.1383 22.3922 12.2963 22.6179C12.6111 23.0677 13.0873 23.6627 13.7425 24.2583C15.061 25.457 17.1193 26.6667 20 26.6667C22.8807 26.6667 24.939 25.457 26.2575 24.2583C26.9126 23.6627 27.3888 23.0677 27.7037 22.6179C27.8617 22.3922 27.9807 22.2008 28.0626 22.0608C28.1037 21.9908 28.1356 21.9334 28.1586 21.8908C28.1701 21.8694 28.1794 21.8518 28.1865 21.8381L28.1956 21.8205L28.1989 21.814L28.2002 21.8113C28.2005 21.8108 28.2014 21.809 27.0833 21.25L28.2014 21.809C28.5101 21.1916 28.2598 20.4407 27.6423 20.132C27.0252 19.8234 26.2748 20.0733 25.9658 20.69L25.9679 20.6859L25.9588 20.7029C25.9489 20.7213 25.9311 20.7534 25.9054 20.7973C25.8539 20.8852 25.7711 21.0193 25.6556 21.1842C25.4236 21.5157 25.0665 21.9624 24.5758 22.4084C23.6027 23.2931 22.1193 24.1667 20 24.1667C17.8807 24.1667 16.3973 23.2931 15.4242 22.4084C14.9335 21.9624 14.5763 21.5157 14.3443 21.1842C14.2289 21.0193 14.146 20.8852 14.0945 20.7973C14.0688 20.7534 14.0511 20.7213 14.0412 20.7029L14.032 20.6857Z" fill="#8A6B24"/>
<path fill-rule="evenodd" clip-rule="evenodd" d="M15 16.6667C15 15.7462 15.7462 15 16.6667 15C17.5871 15 18.3333 15.7462 18.3333 16.6667C18.3333 17.5871 17.5871 18.3333 16.6667 18.3333C15.7462 18.3333 15 17.5871 15 16.6667Z" fill="#8A6B24"/>
<path fill-rule="evenodd" clip-rule="evenodd" d="M21.6666 16.6667C21.6666 15.7462 22.4128 15 23.3333 15C24.2538 15 25 15.7462 25 16.6667C25 17.5871 24.2538 18.3333 23.3333 18.3333C22.4128 18.3333 21.6666 17.5871 21.6666 16.6667Z" fill="#8A6B24"/>
</svg>
