<svg width="40" height="40" viewBox="0 0 40 40" fill="none" xmlns="http://www.w3.org/2000/svg">
<path fill-rule="evenodd" clip-rule="evenodd" d="M6.66675 13.3333C6.66675 12.643 7.22639 12.0833 7.91675 12.0833H12.0834C12.7738 12.0833 13.3334 12.643 13.3334 13.3333C13.3334 14.0237 12.7738 14.5833 12.0834 14.5833H7.91675C7.22639 14.5833 6.66675 14.0237 6.66675 13.3333Z" fill="#8A6B24"/>
<path fill-rule="evenodd" clip-rule="evenodd" d="M20 13.3333C20 12.643 20.5596 12.0833 21.25 12.0833H32.0833C32.7737 12.0833 33.3333 12.643 33.3333 13.3333C33.3333 14.0237 32.7737 14.5833 32.0833 14.5833H21.25C20.5596 14.5833 20 14.0237 20 13.3333Z" fill="#8A6B24"/>
<path fill-rule="evenodd" clip-rule="evenodd" d="M6.66675 26.6667C6.66675 25.9763 7.22639 25.4167 7.91675 25.4167H20.4167C21.1071 25.4167 21.6667 25.9763 21.6667 26.6667C21.6667 27.357 21.1071 27.9167 20.4167 27.9167H7.91675C7.22639 27.9167 6.66675 27.357 6.66675 26.6667Z" fill="#8A6B24"/>
<path fill-rule="evenodd" clip-rule="evenodd" d="M28.3333 26.6667C28.3333 25.9763 28.8929 25.4167 29.5833 25.4167H32.0833C32.7736 25.4167 33.3333 25.9763 33.3333 26.6667C33.3333 27.357 32.7736 27.9167 32.0833 27.9167H29.5833C28.8929 27.9167 28.3333 27.357 28.3333 26.6667Z" fill="#8A6B24"/>
<path fill-rule="evenodd" clip-rule="evenodd" d="M16.6667 10.8333C15.286 10.8333 14.1667 11.9526 14.1667 13.3333C14.1667 14.714 15.286 15.8333 16.6667 15.8333C18.0475 15.8333 19.1667 14.714 19.1667 13.3333C19.1667 11.9526 18.0475 10.8333 16.6667 10.8333ZM11.6667 13.3333C11.6667 10.5719 13.9053 8.33331 16.6667 8.33331C19.4282 8.33331 21.6667 10.5719 21.6667 13.3333C21.6667 16.0947 19.4282 18.3333 16.6667 18.3333C13.9053 18.3333 11.6667 16.0947 11.6667 13.3333Z" fill="#8A6B24"/>
<path fill-rule="evenodd" clip-rule="evenodd" d="M25 24.1667C23.6193 24.1667 22.5 25.286 22.5 26.6667C22.5 28.0474 23.6193 29.1667 25 29.1667C26.3807 29.1667 27.5 28.0474 27.5 26.6667C27.5 25.286 26.3807 24.1667 25 24.1667ZM20 26.6667C20 23.9053 22.2386 21.6667 25 21.6667C27.7614 21.6667 30 23.9053 30 26.6667C30 29.4281 27.7614 31.6667 25 31.6667C22.2386 31.6667 20 29.4281 20 26.6667Z" fill="#8A6B24"/>
</svg>
